<svg width="1175" height="672" viewBox="0 0 1175 672" fill="none" xmlns="http://www.w3.org/2000/svg">
<path d="M1113.77 115.739H515.021C505.834 115.739 498.387 123.607 498.387 133.313V550.241C498.387 559.946 505.834 567.814 515.021 567.814H1113.77C1122.96 567.814 1130.41 559.946 1130.41 550.241V133.313C1130.41 123.607 1122.96 115.739 1113.77 115.739Z" fill="#001C55"/>
<path d="M1094.48 87.2014H495.726C486.539 87.2014 479.092 95.0693 479.092 104.775V521.703C479.092 531.409 486.539 539.277 495.726 539.277H1094.48C1103.66 539.277 1111.11 531.409 1111.11 521.703V104.775C1111.11 95.0693 1103.66 87.2014 1094.48 87.2014Z" stroke="#3F3D56" stroke-miterlimit="10"/>
<path d="M479.092 130.543H1111.11" stroke="#3F3D56" stroke-miterlimit="10"/>
<path opacity="0.3" d="M1023.13 232.155H862.928C859.569 232.155 856.846 235.032 856.846 238.581V253.815C856.846 257.363 859.569 260.24 862.928 260.24H1023.13C1026.49 260.24 1029.22 257.363 1029.22 253.815V238.581C1029.22 235.032 1026.49 232.155 1023.13 232.155Z" fill="#6C63FF"/>
<path opacity="0.3" d="M1056.15 310.068H829.912C826.553 310.068 823.83 312.945 823.83 316.494V326.292C823.83 329.84 826.553 332.717 829.912 332.717H1056.15C1059.51 332.717 1062.23 329.84 1062.23 326.292V316.494C1062.23 312.945 1059.51 310.068 1056.15 310.068Z" fill="#6C63FF"/>
<path opacity="0.3" d="M1056.15 371.673H829.912C826.553 371.673 823.83 374.55 823.83 378.099V387.897C823.83 391.446 826.553 394.323 829.912 394.323H1056.15C1059.51 394.323 1062.23 391.446 1062.23 387.897V378.099C1062.23 374.55 1059.51 371.673 1056.15 371.673Z" fill="#6C63FF"/>
<path opacity="0.3" d="M1056.15 433.279H829.912C826.553 433.279 823.83 436.156 823.83 439.704V449.502C823.83 453.051 826.553 455.928 829.912 455.928H1056.15C1059.51 455.928 1062.23 453.051 1062.23 449.502V439.704C1062.23 436.156 1059.51 433.279 1056.15 433.279Z" fill="#6C63FF"/>
<path d="M1031.71 223.096H871.504C868.145 223.096 865.422 225.973 865.422 229.521V244.755C865.422 248.304 868.145 251.181 871.504 251.181H1031.71C1035.07 251.181 1037.79 248.304 1037.79 244.755V229.521C1037.79 225.973 1035.07 223.096 1031.71 223.096Z" stroke="#3F3D56" stroke-miterlimit="10"/>
<path d="M1064.72 301.008H838.488C835.129 301.008 832.406 303.885 832.406 307.434V317.232C832.406 320.781 835.129 323.657 838.488 323.657H1064.72C1068.08 323.657 1070.81 320.781 1070.81 317.232V307.434C1070.81 303.885 1068.08 301.008 1064.72 301.008Z" stroke="#3F3D56" stroke-miterlimit="10"/>
<path d="M1064.72 362.614H838.488C835.129 362.614 832.406 365.491 832.406 369.039V378.837C832.406 382.386 835.129 385.263 838.488 385.263H1064.72C1068.08 385.263 1070.81 382.386 1070.81 378.837V369.039C1070.81 365.491 1068.08 362.614 1064.72 362.614Z" stroke="#3F3D56" stroke-miterlimit="10"/>
<path d="M1064.72 424.219H838.488C835.129 424.219 832.406 427.096 832.406 430.645V440.443C832.406 443.991 835.129 446.868 838.488 446.868H1064.72C1068.08 446.868 1070.81 443.991 1070.81 440.443V430.645C1070.81 427.096 1068.08 424.219 1064.72 424.219Z" stroke="#3F3D56" stroke-miterlimit="10"/>
<path opacity="0.3" d="M527.115 127.97C534.219 127.97 539.978 121.885 539.978 114.38C539.978 106.875 534.219 100.791 527.115 100.791C520.011 100.791 514.251 106.875 514.251 114.38C514.251 121.885 520.011 127.97 527.115 127.97Z" fill="#6C63FF"/>
<path opacity="0.3" d="M563.132 127.97C570.236 127.97 575.996 121.885 575.996 114.38C575.996 106.875 570.236 100.791 563.132 100.791C556.028 100.791 550.269 106.875 550.269 114.38C550.269 121.885 556.028 127.97 563.132 127.97Z" fill="#6C63FF"/>
<path opacity="0.3" d="M599.15 127.97C606.254 127.97 612.013 121.885 612.013 114.38C612.013 106.875 606.254 100.791 599.15 100.791C592.045 100.791 586.286 106.875 586.286 114.38C586.286 121.885 592.045 127.97 599.15 127.97Z" fill="#6C63FF"/>
<path d="M532.26 122.534C539.364 122.534 545.123 116.45 545.123 108.944C545.123 101.439 539.364 95.355 532.26 95.355C525.156 95.355 519.397 101.439 519.397 108.944C519.397 116.45 525.156 122.534 532.26 122.534Z" fill="#00FF19" stroke="#3F3D56" stroke-miterlimit="10"/>
<path d="M568.278 122.534C575.382 122.534 581.141 116.45 581.141 108.944C581.141 101.439 575.382 95.355 568.278 95.355C561.173 95.355 555.414 101.439 555.414 108.944C555.414 116.45 561.173 122.534 568.278 122.534Z" fill="#F0C418" stroke="#3F3D56" stroke-miterlimit="10"/>
<path d="M604.295 122.534C611.399 122.534 617.158 116.45 617.158 108.944C617.158 101.439 611.399 95.355 604.295 95.355C597.191 95.355 591.432 101.439 591.432 108.944C591.432 116.45 597.191 122.534 604.295 122.534Z" fill="#E8472C" stroke="#3F3D56" stroke-miterlimit="10"/>
<path d="M678.777 520.251C676.624 509.771 676.053 495.456 676.777 485.498C676.777 485.498 665.888 434.958 657.319 430.242L657.317 430.245C657.185 430.423 653.027 436.183 652.5 454.003C651.964 472.107 645.897 483.988 645.897 483.988C645.897 483.988 647.86 506.553 646.738 520.251L678.777 520.251Z" fill="#6C63FF"/>
<path d="M757.994 198.635H560.364C557.687 198.635 555.036 199.192 552.563 200.274C550.089 201.356 547.842 202.943 545.949 204.943C544.056 206.942 542.555 209.316 541.53 211.929C540.506 214.542 539.978 217.343 539.978 220.171V498.715C539.978 501.543 540.506 504.344 541.53 506.957C542.555 509.57 544.056 511.944 545.949 513.943C547.842 515.943 550.089 517.53 552.563 518.612C555.036 519.694 557.687 520.251 560.364 520.251H629.702C627.386 510.105 624.508 494.259 627.423 483.241L627.422 483.233L627.423 483.238C627.56 482.724 627.704 482.217 627.866 481.725C629.869 474.574 630.536 467.08 629.831 459.661C631.119 453.321 631.119 446.765 629.831 440.426C627.689 429.866 626.19 419.493 626.19 419.493C626.19 419.493 625.009 405.539 626.04 396.985C626.063 396.797 626.089 396.619 626.114 396.437C625.75 396.349 625.546 396.299 625.546 396.299C625.546 396.299 628.581 381.778 629.652 372.538C629.905 370.356 630.238 367.591 630.598 364.642C629.609 364.469 628.636 364.208 627.689 363.863C618.049 360.28 615.015 327.844 615.015 327.844V317.567C615.015 317.567 611.802 301.82 623.047 294.843C633.877 288.124 638.2 286.285 638.506 286.158C638.588 286.095 638.669 286.039 638.753 285.97C639.977 284.955 640.946 283.638 641.574 282.134C641.589 281.875 641.593 281.618 641.585 281.362C641.402 277.678 638.974 274.328 636.671 271.404C634.706 268.91 632.741 266.417 630.776 263.923C630.103 263.18 629.586 262.296 629.258 261.328C629.134 260.793 629.08 260.243 629.098 259.693C629.096 259.49 629.097 259.287 629.101 259.084C629.133 257.224 629.181 255.366 629.245 253.507C629.3 251.883 629.687 249.835 631.192 249.501C631.975 249.327 633.011 249.63 633.425 248.907C633.563 248.609 633.599 248.269 633.525 247.946C633.52 247.97 633.518 247.995 633.512 248.019C633.507 247.989 633.502 247.958 633.497 247.929C633.187 246.627 633 245.296 632.939 243.955C632.922 243.35 633.004 242.746 633.181 242.17C634.053 239.475 637.055 238.369 639.708 237.86C642.361 237.352 645.339 236.914 647.004 234.674C647.45 233.93 647.933 233.212 648.452 232.523C649.216 231.79 650.155 231.29 651.167 231.077C654.461 230.196 657.939 230.522 661.035 232.002C662.318 232.62 663.607 233.454 665.015 233.359C666.477 233.261 667.726 232.174 669.17 231.91C671.501 231.482 673.731 233.328 674.88 235.514C675.61 236.904 675.975 238.475 675.937 240.065C675.965 241.647 675.424 243.182 674.424 244.36C673.421 245.485 671.923 246.257 671.507 247.739C671.337 248.342 671.376 248.991 671.226 249.6C671.208 249.676 671.177 249.747 671.153 249.821C671.18 249.859 671.21 249.894 671.237 249.932C672.993 252.376 674.169 255.228 674.669 258.25C675.168 261.271 674.977 264.376 674.11 267.303C673.242 270.231 671.725 272.897 669.684 275.079C667.643 277.261 665.138 278.896 662.377 279.846C662.37 280.037 662.363 280.228 662.364 280.42C662.312 281.609 662.503 282.795 662.923 283.9C663.343 285.004 663.983 286 664.799 286.82L680.704 293.711C680.704 293.711 690.28 292.485 693.735 307.581C694.289 310.09 694.488 312.672 694.327 315.243C694.201 317.519 694.494 321.527 696.948 326.713C700.875 335.01 699.983 354.057 691.95 355.943C684.342 357.729 681.382 356.978 681.09 356.894L681.073 357.227C681.198 360.801 682.402 391.626 686.774 395.356C687.982 396.387 687.751 397.084 686.76 397.553L686.762 397.556C686.762 397.556 686.77 397.754 686.789 398.111C686.92 400.365 687.595 408.951 690.521 413.836C693.914 419.493 693.558 452.119 693.558 452.119L695.876 471.355C695.876 471.355 694.449 483.235 695.876 485.309C696.687 486.484 697.669 504.699 698.368 520.251H757.994C763.4 520.251 768.586 517.982 772.409 513.943C776.232 509.905 778.379 504.427 778.379 498.715V220.171C778.379 217.343 777.852 214.542 776.828 211.929C775.803 209.316 774.302 206.942 772.409 204.943C770.516 202.943 768.268 201.356 765.795 200.274C763.322 199.192 760.671 198.635 757.994 198.635V198.635Z" fill="#6C63FF"/>
<path d="M737.412 174.174H539.782C528.524 174.174 519.397 183.816 519.397 195.71V474.254C519.397 486.148 528.524 495.79 539.782 495.79H737.412C748.671 495.79 757.798 486.148 757.798 474.254V195.71C757.798 183.816 748.671 174.174 737.412 174.174Z" stroke="#3F3D56" stroke-miterlimit="10"/>
<path d="M1091.71 6.7561C1088.06 6.97424 1084.53 8.26382 1081.53 10.4803C1078.53 12.6967 1076.18 15.7523 1074.73 19.3046C1070.48 30.1524 1075.95 42.8948 1084.16 50.8051C1092.37 58.7155 1102.92 63.237 1112.5 69.1802C1125.37 77.1629 1136.94 88.2442 1143.38 102.469C1149.82 116.693 1150.5 134.313 1142.93 147.903C1135.91 160.516 1123.13 168.065 1110.94 175.027" stroke="#3F3D56" stroke-miterlimit="10"/>
<path d="M1102.54 15.4014C1110.82 15.4014 1117.54 11.9536 1117.54 7.70068C1117.54 3.44771 1110.82 0 1102.54 0C1094.25 0 1087.53 3.44771 1087.53 7.70068C1087.53 11.9536 1094.25 15.4014 1102.54 15.4014Z" fill="#6C63FF"/>
<path d="M1114.54 66.1352C1122.83 66.1352 1129.55 62.6875 1129.55 58.4346C1129.55 54.1816 1122.83 50.7339 1114.54 50.7339C1106.25 50.7339 1099.53 54.1816 1099.53 58.4346C1099.53 62.6875 1106.25 66.1352 1114.54 66.1352Z" fill="#6C63FF"/>
<path d="M1087.1 74.2889C1095.39 74.2889 1102.11 70.8412 1102.11 66.5882C1102.11 62.3352 1095.39 58.8875 1087.1 58.8875C1078.81 58.8875 1072.09 62.3352 1072.09 66.5882C1072.09 70.8412 1078.81 74.2889 1087.1 74.2889Z" fill="#6C63FF"/>
<path d="M1129.98 116.869C1138.27 116.869 1144.99 113.421 1144.99 109.168C1144.99 104.915 1138.27 101.468 1129.98 101.468C1121.69 101.468 1114.97 104.915 1114.97 109.168C1114.97 113.421 1121.69 116.869 1129.98 116.869Z" fill="#6C63FF"/>
<path d="M1159.99 116.869C1168.28 116.869 1175 113.421 1175 109.168C1175 104.915 1168.28 101.468 1159.99 101.468C1151.7 101.468 1144.99 104.915 1144.99 109.168C1144.99 113.421 1151.7 116.869 1159.99 116.869Z" fill="#6C63FF"/>
<path d="M464.803 173.555L464.712 173.475L464.803 173.555Z" fill="#96CCED"/>
<path d="M308.942 379.295L371.073 382.716L367.615 397.225L305.485 393.805L308.942 379.295Z" fill="#1B236D"/>
<path d="M50.7002 344.436L75.3601 392.879L64.0826 400.984L39.4217 352.541L50.7002 344.436Z" fill="#1B236D"/>
<path d="M248.051 399.916L123.597 403.743L133.907 291.583L258.361 287.755L248.051 399.916Z" fill="url(#paint0_linear)"/>
<path d="M364.714 402.619C371.254 402.2 377.047 396.947 377.653 390.886C378.258 384.825 373.448 380.252 366.908 380.671C360.367 381.09 354.575 386.343 353.969 392.404C353.363 398.465 358.174 403.038 364.714 402.619Z" fill="url(#paint1_radial)"/>
<path d="M46.0194 355.711C51.674 352.38 54.5428 345.044 52.427 339.326C50.3112 333.607 44.012 331.671 38.3573 335.002C32.7027 338.333 29.8339 345.669 31.9497 351.387C34.0655 357.106 40.3647 359.042 46.0194 355.711Z" fill="url(#paint2_radial)"/>
<path d="M147.089 261.333L153.562 261.383L154.7 255.385L148.226 255.336L147.089 261.333Z" fill="#1B236D"/>
<path d="M211.332 262.611L217.805 262.661L218.943 256.664L212.469 256.614L211.332 262.611Z" fill="#1B236D"/>
<path d="M187.746 389.975L195.847 389.725L195.176 397.026L187.075 397.275L187.746 389.975Z" fill="#1B236D"/>
<path d="M128.701 390.201L136.803 389.951L136.132 397.252L128.031 397.501L128.701 390.201Z" fill="#1B236D"/>
<path d="M234.839 388.223L242.876 387.046L242.857 394.387L234.82 395.564L234.839 388.223Z" fill="#1B236D"/>
<path d="M163.928 293.142C163.109 293.197 162.479 292.621 162.497 291.8C162.516 290.93 163.252 290.112 164.143 289.975L199.747 284.466C200.638 284.336 201.343 284.923 201.325 285.793C201.306 286.663 200.57 287.481 199.679 287.618L164.075 293.126C164.025 293.135 163.976 293.139 163.928 293.142Z" fill="#1B236D"/>
<path d="M163.364 286.193C162.471 286.249 161.806 285.535 161.875 284.599C161.945 283.659 162.726 282.848 163.621 282.79L199.505 280.422C199.506 280.421 199.507 280.421 199.51 280.421C200.403 280.366 201.068 281.079 200.999 282.016C200.929 282.955 200.148 283.766 199.253 283.825L163.369 286.193C163.368 286.193 163.366 286.193 163.364 286.193Z" fill="#1B236D"/>
<path d="M162.984 282.08C162.096 282.135 161.431 281.43 161.498 280.496C161.567 279.56 162.347 278.75 163.241 278.688L199.115 276.203C199.987 276.188 200.68 276.849 200.611 277.786C200.542 278.721 199.762 279.532 198.868 279.593L162.994 282.079C162.992 282.079 162.988 282.079 162.984 282.08Z" fill="#1B236D"/>
<path d="M198.194 275.475C198.159 275.477 198.125 275.479 198.089 275.479L161.845 275.496C160.965 275.495 160.373 274.771 160.524 273.873C160.673 272.978 161.471 272.24 162.389 272.25L198.633 272.233C199.513 272.234 200.106 272.958 199.955 273.856C199.809 274.715 199.035 275.419 198.194 275.475Z" fill="#1B236D"/>
<path d="M197.761 271.273C197.721 271.275 197.679 271.277 197.639 271.277L162.409 270.921C161.532 270.913 160.954 270.185 161.117 269.296C161.279 268.407 162.12 267.688 162.997 267.704L198.227 268.06C199.104 268.067 199.683 268.795 199.52 269.685C199.364 270.53 198.594 271.218 197.761 271.273Z" fill="#1B236D"/>
<path d="M197.392 267.059C197.353 267.061 197.312 267.063 197.273 267.063L162.021 266.803C161.143 266.797 160.562 266.071 160.722 265.181C160.881 264.291 161.711 263.578 162.598 263.581L197.85 263.84C198.728 263.847 199.309 264.573 199.149 265.463C198.998 266.313 198.223 267.004 197.392 267.059Z" fill="#1B236D"/>
<path d="M278.559 296.694L302.912 374.02L281.637 382.806L257.284 305.48L278.559 296.694Z" fill="#1B236D"/>
<path d="M66.7033 396.948L95.9172 322.271L118.259 330.955L89.0447 405.631L66.7033 396.948Z" fill="#1B236D"/>
<path d="M257.647 328.122C272.676 327.159 285.987 315.088 287.379 301.161C288.77 287.235 277.716 276.726 262.687 277.689C247.659 278.652 234.348 290.723 232.956 304.65C231.564 318.576 242.619 329.085 257.647 328.122Z" fill="url(#paint3_radial)"/>
<path d="M117.179 344.861C132.208 343.897 145.519 331.827 146.911 317.9C148.302 303.973 137.248 293.465 122.219 294.428C107.191 295.391 93.8796 307.462 92.4879 321.388C91.0963 335.315 102.151 345.824 117.179 344.861Z" fill="url(#paint4_radial)"/>
<path d="M387.249 391.649C386.747 391.683 386.291 391.473 386.071 391.052C385.733 390.407 386.08 389.505 386.846 389.04L405.45 377.732C406.214 377.267 407.11 377.411 407.447 378.06C407.785 378.705 407.438 379.607 406.672 380.072L388.068 391.38C387.801 391.543 387.518 391.63 387.249 391.649Z" fill="#1B236D"/>
<path d="M385.854 397.24C385.181 397.286 384.619 396.907 384.512 396.27C384.383 395.497 384.974 394.637 385.833 394.351L414.512 384.773C415.373 384.49 416.172 384.88 416.301 385.654C416.43 386.427 415.839 387.286 414.98 387.572L386.301 397.15C386.148 397.202 385.999 397.231 385.854 397.24Z" fill="#1B236D"/>
<path d="M410.86 403.103C410.754 403.111 410.645 403.107 410.539 403.093L385.393 399.598C384.565 399.484 384.133 398.717 384.424 397.889C384.716 397.059 385.63 396.483 386.446 396.596L411.591 400.092C412.419 400.205 412.851 400.972 412.56 401.8C412.306 402.522 411.586 403.054 410.86 403.103Z" fill="#1B236D"/>
<path d="M401.993 416.767C401.642 416.791 401.307 416.692 401.062 416.466L384.168 400.893C383.641 400.407 383.719 399.511 384.344 398.893C384.968 398.274 385.903 398.168 386.428 398.652L403.322 414.225C403.849 414.711 403.77 415.607 403.146 416.226C402.816 416.555 402.393 416.74 401.993 416.767Z" fill="#1B236D"/>
<path d="M366.396 425.728C366.264 425.736 366.131 425.723 366.002 425.69C365.321 425.504 365.007 424.755 365.3 424.014L374.251 401.386C374.545 400.646 375.337 400.194 376.014 400.378C376.695 400.563 377.01 401.312 376.716 402.053L367.766 424.681C367.528 425.28 366.964 425.693 366.396 425.728Z" fill="#1B236D"/>
<path d="M38.8031 335.575C38.5402 335.731 38.2423 335.796 37.9545 335.74C37.2626 335.603 36.8809 334.815 37.1002 333.981L43.3484 310.245C43.569 309.411 44.3074 308.845 44.9979 308.981C45.6899 309.118 46.0715 309.905 45.8523 310.74L39.6041 334.476C39.4758 334.963 39.1709 335.358 38.8031 335.575Z" fill="#1B236D"/>
<path d="M32.5188 334.962C31.9665 335.284 31.2992 335.088 30.9729 334.482L20.9377 315.839C20.585 315.184 20.7639 314.296 21.3382 313.857C21.9032 313.416 22.6628 313.591 23.0155 314.249L33.0506 332.892C33.4034 333.548 33.2245 334.435 32.6501 334.875C32.6064 334.907 32.5628 334.936 32.5188 334.962Z" fill="#1B236D"/>
<path d="M25.5589 340.567C25.0838 340.846 24.52 340.781 24.1519 340.355L10.3245 324.304C9.85413 323.757 9.88899 322.821 10.4022 322.215C10.9122 321.609 11.7132 321.559 12.1855 322.104L26.0134 338.157C26.4837 338.703 26.4489 339.64 25.9356 340.246C25.8224 340.379 25.6941 340.488 25.5589 340.567Z" fill="#1B236D"/>
<path d="M20.1678 346.244C19.8193 346.45 19.4228 346.497 19.0751 346.335L1.64695 338.241C1.00861 337.945 0.779519 337.059 1.13418 336.26C1.48958 335.464 2.29311 335.058 2.93387 335.354L20.362 343.448C21.0004 343.744 21.2284 344.631 20.8748 345.429C20.712 345.79 20.4577 346.073 20.1678 346.244Z" fill="#1B236D"/>
<path d="M26.093 352.962C25.8829 353.087 25.6512 353.16 25.4159 353.162L7.66362 353.35C6.91374 353.359 6.40949 352.651 6.53823 351.769C6.66589 350.889 7.37889 350.166 8.12987 350.161L25.8821 349.973C26.632 349.964 27.1363 350.672 27.0075 351.553C26.9195 352.157 26.5554 352.687 26.093 352.962Z" fill="#1B236D"/>
<path d="M298.807 401.692C310.078 400.969 320.062 391.916 321.106 381.47C322.149 371.025 313.858 363.143 302.587 363.865C291.316 364.588 281.333 373.641 280.289 384.086C279.245 394.532 287.536 402.414 298.807 401.692Z" fill="url(#paint5_linear)"/>
<path d="M95.8011 394.521C88.684 385.73 75.4493 382.709 66.2405 387.772C57.0317 392.835 55.3361 404.065 62.4532 412.855C69.5703 421.645 82.805 424.667 92.0138 419.604C101.223 414.541 102.918 403.311 95.8011 394.521Z" fill="url(#paint6_linear)"/>
<path d="M155.158 372.467C155.585 367.911 160.073 364.092 165.181 363.936C170.134 363.786 173.842 367.137 173.677 371.492L197.912 350.867C191.644 342.357 180.665 337.025 167.661 337.422C154.317 337.828 141.983 344.168 134.102 353.498L155.129 373.252C155.126 372.993 155.134 372.733 155.158 372.467Z" fill="white"/>
<path d="M166.273 381.61C169.271 381.763 172.125 379.673 172.648 376.943C173.17 374.213 171.164 371.876 168.166 371.723C165.168 371.57 162.314 373.66 161.791 376.39C161.269 379.12 163.275 381.457 166.273 381.61Z" fill="#1B236D"/>
<path d="M149.941 351.063L165.012 375.158L163.846 375.908L148.777 351.813L149.941 351.063Z" fill="#1B236D"/>
<path d="M394.404 395.49L377.167 407.743L366.551 393.585L383.789 381.332L394.404 395.49Z" fill="url(#paint7_linear)"/>
<path d="M44.8053 340.829L29.8562 355.563L18.7741 341.459L33.7242 326.725L44.8053 340.829Z" fill="url(#paint8_linear)"/>
<path d="M164.192 312.641L178.721 310.513L178.687 323.782L164.158 325.91L164.192 312.641Z" fill="white"/>
<path d="M187.604 309.85L202.133 307.722L202.099 320.991L187.57 323.12L187.604 309.85Z" fill="white"/>
<path d="M211.016 307.06L225.545 304.931L225.511 318.2L210.982 320.329L211.016 307.06Z" fill="white"/>
<path d="M237.302 382.423L211.818 383.239L215.722 338.373L241.205 337.557L237.302 382.423Z" fill="#5BABF2"/>
<path d="M83.0917 400.198C80.8844 397.472 76.78 396.535 73.9243 398.105C71.0686 399.675 70.5429 403.158 72.7502 405.884C74.9575 408.61 79.0618 409.547 81.9176 407.977C84.7733 406.407 85.299 402.924 83.0917 400.198Z" fill="#F92424"/>
<path d="M300.875 387.584C304.371 387.359 307.467 384.552 307.791 381.313C308.114 378.073 305.543 375.629 302.047 375.853C298.552 376.077 295.455 378.885 295.132 382.124C294.808 385.363 297.379 387.808 300.875 387.584Z" fill="#F92424"/>
<path d="M261.951 306.764C265.447 306.54 268.543 303.732 268.867 300.493C269.19 297.254 266.619 294.809 263.123 295.034C259.628 295.258 256.532 298.065 256.208 301.304C255.884 304.543 258.456 306.988 261.951 306.764Z" fill="#F92424"/>
<path d="M116.681 324.883C120.177 324.659 123.273 321.852 123.597 318.612C123.92 315.373 121.349 312.929 117.853 313.153C114.358 313.377 111.262 316.184 110.938 319.424C110.614 322.663 113.186 325.107 116.681 324.883Z" fill="#F92424"/>
<g clip-path="url(#clip0)">
<path d="M213.025 244.768L146.172 247.048C143.257 247.148 140.821 244.479 140.732 241.088L140.407 228.808C140.318 225.417 142.608 222.587 145.523 222.488L212.377 220.207C215.292 220.108 217.727 222.776 217.817 226.167L218.141 238.448C218.231 241.839 215.941 244.668 213.025 244.768Z" fill="url(#paint9_linear)"/>
<path d="M206.421 261.381L153.642 263.182C149.755 263.314 146.508 259.756 146.388 255.235L145.253 212.254C145.133 207.733 148.187 203.96 152.074 203.828L204.853 202.027C208.739 201.895 211.987 205.453 212.106 209.974L213.242 252.955C213.361 257.476 210.307 261.249 206.421 261.381Z" fill="url(#paint10_linear)"/>
<path d="M179.79 186.494L176.271 186.614L176.596 198.894L180.115 198.774L179.79 186.494Z" fill="url(#paint11_linear)"/>
<path d="M178.085 188.6C181 188.501 183.29 185.671 183.2 182.28C183.111 178.889 180.675 176.221 177.76 176.32C174.845 176.42 172.555 179.249 172.645 182.64C172.734 186.031 175.17 188.7 178.085 188.6Z" fill="url(#paint12_linear)"/>
<path d="M193.538 240.311C196.939 240.195 199.611 236.894 199.506 232.938C199.402 228.981 196.56 225.868 193.16 225.984C189.759 226.1 187.087 229.402 187.191 233.358C187.296 237.314 190.137 240.427 193.538 240.311Z" fill="white"/>
<path d="M195.988 233.058C196.033 234.756 194.89 236.168 193.43 236.218C191.97 236.268 190.755 234.936 190.71 233.238C190.665 231.539 191.807 230.127 193.268 230.078C193.338 230.075 193.426 230.072 193.497 230.09C193.364 230.382 193.285 230.733 193.295 231.101C193.324 232.227 194.14 233.121 195.108 233.088C195.425 233.077 195.721 232.964 195.963 232.792C195.983 232.873 195.986 232.976 195.988 233.058Z" fill="url(#paint13_linear)"/>
<path d="M165.389 241.271C168.79 241.155 171.462 237.854 171.357 233.898C171.253 229.942 168.411 226.828 165.011 226.944C161.61 227.06 158.938 230.362 159.042 234.318C159.147 238.274 161.988 241.387 165.389 241.271Z" fill="white"/>
<path d="M167.839 234.018C167.884 235.717 166.741 237.128 165.281 237.178C163.821 237.228 162.606 235.897 162.561 234.198C162.516 232.499 163.658 231.088 165.119 231.038C165.189 231.035 165.277 231.032 165.348 231.051C165.215 231.342 165.136 231.693 165.146 232.061C165.175 233.187 165.991 234.081 166.959 234.048C167.276 234.037 167.572 233.925 167.814 233.752C167.834 233.834 167.837 233.936 167.839 234.018Z" fill="url(#paint14_linear)"/>
<path d="M186.528 241.575L172.453 242.055L172.507 244.101L186.582 243.621L186.528 241.575Z" fill="white"/>
<path d="M198.302 220.687C198.332 221.818 197.569 222.761 196.597 222.794L189.56 223.034C188.588 223.067 187.776 222.178 187.746 221.048C187.717 219.917 188.48 218.974 189.452 218.941L196.489 218.701C197.461 218.668 198.272 219.557 198.302 220.687Z" fill="url(#paint15_linear)"/>
<path d="M170.153 221.648C170.183 222.778 169.42 223.721 168.448 223.754L161.411 223.994C160.439 224.028 159.627 223.139 159.598 222.008C159.568 220.877 160.331 219.934 161.303 219.901L168.34 219.661C169.312 219.628 170.123 220.517 170.153 221.648Z" fill="url(#paint16_linear)"/>
<path d="M186.582 243.621C186.644 245.995 185.839 248.153 184.488 249.695C183.257 251.089 181.608 251.985 179.761 252.048C177.914 252.111 176.22 251.329 174.918 250.021C173.488 248.575 172.57 246.475 172.507 244.101L186.582 243.621Z" fill="url(#paint17_linear)"/>
<path opacity="0.2" d="M184.488 249.695C183.257 251.089 181.608 251.985 179.761 252.048C177.914 252.111 176.22 251.329 174.918 250.021C175.704 248.458 177.524 248.027 179.653 247.955C181.781 247.882 183.621 248.188 184.488 249.695Z" fill="black"/>
<path d="M196.995 196.15L159.609 197.425C157.311 197.503 155.488 199.754 155.559 202.428L155.592 203.707L162.491 203.472C163.624 203.433 164.653 204.242 165.044 205.481L165.437 206.723C165.959 208.374 167.33 209.453 168.84 209.401L188.411 208.734C189.921 208.682 191.233 207.512 191.666 205.828L191.993 204.561C192.318 203.299 193.302 202.421 194.435 202.383L201.334 202.147L201.3 200.867C201.23 198.194 199.292 196.071 196.995 196.15Z" fill="url(#paint18_linear)"/>
</g>
<path d="M218.26 482.27L236.479 481L242.84 598.778L224.621 600.049L218.26 482.27Z" fill="#1B236D"/>
<path d="M142.576 485.27L160.795 484L167.156 601.778L148.937 603.049L142.576 485.27Z" fill="#1B236D"/>
<path d="M139.718 420.209L169.206 418.891L168.625 402.104L204.695 400.49L205.277 417.277L235.907 415.908C240.888 415.685 244.484 419.289 244.644 423.923L246.486 477.082C246.593 480.172 244.559 482.773 241.239 482.921L205.168 484.534C201.848 484.683 198.498 482.323 198.391 479.233L197.519 454.053C197.465 452.507 196.646 451.289 194.987 451.364L182.964 451.901C181.303 451.976 179.43 453.315 179.483 454.859L180.356 480.04C180.463 483.13 178.429 485.73 175.109 485.879L139.038 487.492C135.718 487.64 132.368 485.281 132.261 482.19L130.42 429.032C130.259 424.397 134.737 420.432 139.718 420.209Z" fill="#72B5F7"/>
<path d="M227.227 505.134C238.499 504.412 248.482 495.358 249.526 484.913C250.57 474.467 242.279 466.585 231.007 467.308C219.736 468.03 209.753 477.084 208.709 487.529C207.665 497.974 215.956 505.856 227.227 505.134Z" fill="url(#paint19_linear)"/>
<path d="M229.295 491.026C232.791 490.802 235.887 487.994 236.211 484.755C236.534 481.516 233.963 479.072 230.467 479.296C226.972 479.52 223.876 482.327 223.552 485.566C223.228 488.806 225.8 491.25 229.295 491.026Z" fill="#F92424"/>
<path d="M149.784 507.134C161.055 506.412 171.038 497.358 172.082 486.913C173.126 476.467 164.835 468.585 153.563 469.308C142.292 470.03 132.309 479.084 131.265 489.529C130.221 499.974 138.512 507.856 149.784 507.134Z" fill="url(#paint20_linear)"/>
<path d="M151.851 493.026C155.347 492.802 158.443 489.994 158.767 486.755C159.091 483.516 156.519 481.072 153.024 481.296C149.528 481.52 146.432 484.327 146.108 487.566C145.784 490.806 148.356 493.25 151.851 493.026Z" fill="#F92424"/>
<path d="M224.351 596.111L244.127 594.732C246.311 594.579 247.788 595.997 247.889 597.864L248.528 609.702L271.064 611.329C278.76 611.885 284.662 617.145 285.019 623.764L285.13 625.821L226.177 629.932C223.993 630.084 221.764 628.719 221.663 626.852L220.202 599.795C220.101 597.927 222.165 596.263 224.351 596.111Z" fill="url(#paint21_linear)"/>
<path d="M146.56 627.229C146.631 629.127 148.135 630.519 149.92 630.338L166.08 628.697C167.865 628.516 169.255 626.83 169.184 624.932L168.165 597.437C168.094 595.539 166.59 594.147 164.805 594.328L148.645 595.969C146.86 596.15 145.47 597.836 145.54 599.734L146.56 627.229Z" fill="url(#paint22_linear)"/>
<path d="M172.65 628.029L143.35 631.005L143.156 625.788C142.836 617.145 149.29 609.456 157.381 608.635L157.303 608.643C165.394 607.821 172.136 614.17 172.456 622.813L172.65 628.029Z" fill="url(#paint23_linear)"/>
<path d="M167.816 457.27L142.471 457.329L143.453 428.368L168.797 428.309L167.816 457.27Z" fill="#5BABF2"/>
<path d="M148.311 437.211L162.84 435.083L162.806 448.352L148.277 450.48L148.311 437.211Z" fill="white"/>
<path d="M221.638 441.223L229.676 440.046L229.657 447.387L221.62 448.564L221.638 441.223Z" fill="#1B236D"/>
<path d="M233.87 456.487L212.997 456.536L213.806 432.152L234.679 432.102L233.87 456.487Z" fill="#5BABF2"/>
<path d="M217.806 439.598L229.772 437.806L229.744 448.978L217.778 450.77L217.806 439.598Z" fill="white"/>
<path d="M151.234 439.223L159.272 438.046L159.253 445.387L151.216 446.564L151.234 439.223Z" fill="#1B236D"/>
<path d="M151.234 439.223L159.272 438.046L159.253 445.387L151.216 446.564L151.234 439.223Z" fill="#1B236D"/>
<path d="M219.878 441.223L227.916 440.046L227.897 447.387L219.86 448.564L219.878 441.223Z" fill="#1B236D"/>
<defs>
<linearGradient id="paint0_linear" x1="128.73" y1="347.645" x2="251.851" y2="358.91" gradientUnits="userSpaceOnUse">
<stop stop-color="#92C4FE"/>
<stop offset="1" stop-color="#5BABF2"/>
</linearGradient>
<radialGradient id="paint1_radial" cx="0" cy="0" r="1" gradientUnits="userSpaceOnUse" gradientTransform="translate(365.844 391.627) rotate(-8.33743) scale(12.0044 10.729)">
<stop stop-color="#FF4945"/>
<stop offset="1" stop-color="#F92424"/>
</radialGradient>
<radialGradient id="paint2_radial" cx="0" cy="0" r="1" gradientUnits="userSpaceOnUse" gradientTransform="translate(42.1764 345.323) rotate(-15.3912) scale(11.302 11.431)">
<stop stop-color="#FF4945"/>
<stop offset="1" stop-color="#F92424"/>
</radialGradient>
<radialGradient id="paint3_radial" cx="0" cy="0" r="1" gradientUnits="userSpaceOnUse" gradientTransform="translate(260.168 302.895) rotate(-8.33741) scale(27.6215 24.6866)">
<stop stop-color="#FF4945"/>
<stop offset="1" stop-color="#F92424"/>
</radialGradient>
<radialGradient id="paint4_radial" cx="0" cy="0" r="1" gradientUnits="userSpaceOnUse" gradientTransform="translate(119.7 319.639) rotate(-8.33741) scale(27.6215 24.6866)">
<stop stop-color="#FF4945"/>
<stop offset="1" stop-color="#F92424"/>
</radialGradient>
<linearGradient id="paint5_linear" x1="280.199" y1="385.775" x2="321.181" y2="385.863" gradientUnits="userSpaceOnUse">
<stop stop-color="#EFEFEF"/>
<stop offset="0.5538" stop-color="#D7D8D9"/>
</linearGradient>
<linearGradient id="paint6_linear" x1="87.0366" y1="421.493" x2="78.4715" y2="384.217" gradientUnits="userSpaceOnUse">
<stop stop-color="#EFEFEF"/>
<stop offset="0.5538" stop-color="#D7D8D9"/>
</linearGradient>
<linearGradient id="paint7_linear" x1="371.787" y1="400.694" x2="388.705" y2="387.951" gradientUnits="userSpaceOnUse">
<stop stop-color="#92C4FE"/>
<stop offset="1" stop-color="#5BABF2"/>
</linearGradient>
<linearGradient id="paint8_linear" x1="24.3017" y1="348.511" x2="40.7071" y2="335.59" gradientUnits="userSpaceOnUse">
<stop stop-color="#92C4FE"/>
<stop offset="1" stop-color="#5BABF2"/>
</linearGradient>
<linearGradient id="paint9_linear" x1="179.599" y1="245.908" x2="178.771" y2="221.657" gradientUnits="userSpaceOnUse">
<stop stop-color="#0079D3"/>
<stop offset="0.222" stop-color="#0070D4"/>
<stop offset="0.584" stop-color="#0058D5"/>
<stop offset="1" stop-color="#0034D8"/>
</linearGradient>
<linearGradient id="paint10_linear" x1="180.031" y1="262.282" x2="178.032" y2="203.676" gradientUnits="userSpaceOnUse">
<stop stop-color="#55C2FF"/>
<stop offset="0.1665" stop-color="#5EC7FF"/>
<stop offset="0.4381" stop-color="#76D4FF"/>
<stop offset="0.7789" stop-color="#9EEAFF"/>
<stop offset="1" stop-color="#BBFAFF"/>
</linearGradient>
<linearGradient id="paint11_linear" x1="178.363" y1="199.141" x2="177.906" y2="185.732" gradientUnits="userSpaceOnUse">
<stop stop-color="#E6E6E6"/>
<stop offset="0.4062" stop-color="#E2E2E2"/>
<stop offset="0.8264" stop-color="#D5D5D5"/>
<stop offset="1" stop-color="#CECECE"/>
</linearGradient>
<linearGradient id="paint12_linear" x1="172.645" y1="182.64" x2="183.203" y2="182.361" gradientUnits="userSpaceOnUse">
<stop stop-color="#FF7E45"/>
<stop offset="0.1983" stop-color="#FE7A4B"/>
<stop offset="0.4578" stop-color="#FC6D5B"/>
<stop offset="0.7499" stop-color="#F85876"/>
<stop offset="1" stop-color="#F44293"/>
</linearGradient>
<linearGradient id="paint13_linear" x1="193.252" y1="229.481" x2="193.499" y2="236.728" gradientUnits="userSpaceOnUse">
<stop stop-color="#4C4B4B"/>
<stop offset="1" stop-color="#3A3838"/>
</linearGradient>
<linearGradient id="paint14_linear" x1="165.103" y1="230.441" x2="165.35" y2="237.688" gradientUnits="userSpaceOnUse">
<stop stop-color="#4C4B4B"/>
<stop offset="1" stop-color="#3A3838"/>
</linearGradient>
<linearGradient id="paint15_linear" x1="192.957" y1="218.309" x2="193.127" y2="223.297" gradientUnits="userSpaceOnUse">
<stop stop-color="#0079D3"/>
<stop offset="0.222" stop-color="#0070D4"/>
<stop offset="0.584" stop-color="#0058D5"/>
<stop offset="1" stop-color="#0034D8"/>
</linearGradient>
<linearGradient id="paint16_linear" x1="164.808" y1="219.269" x2="164.978" y2="224.257" gradientUnits="userSpaceOnUse">
<stop stop-color="#0079D3"/>
<stop offset="0.222" stop-color="#0070D4"/>
<stop offset="0.584" stop-color="#0058D5"/>
<stop offset="1" stop-color="#0034D8"/>
</linearGradient>
<linearGradient id="paint17_linear" x1="172.615" y1="248.195" x2="186.693" y2="247.823" gradientUnits="userSpaceOnUse">
<stop stop-color="#259CE5"/>
<stop offset="0.018" stop-color="#259BE4"/>
<stop offset="0.6261" stop-color="#2183D3"/>
<stop offset="1" stop-color="#1F7ACC"/>
</linearGradient>
<linearGradient id="paint18_linear" x1="155.592" y1="203.707" x2="201.344" y2="202.499" gradientUnits="userSpaceOnUse">
<stop stop-color="#FF7E45"/>
<stop offset="0.1983" stop-color="#FE7A4B"/>
<stop offset="0.4578" stop-color="#FC6D5B"/>
<stop offset="0.7499" stop-color="#F85876"/>
<stop offset="1" stop-color="#F44293"/>
</linearGradient>
<linearGradient id="paint19_linear" x1="208.62" y1="489.218" x2="249.601" y2="489.306" gradientUnits="userSpaceOnUse">
<stop stop-color="#EFEFEF"/>
<stop offset="0.5538" stop-color="#D7D8D9"/>
</linearGradient>
<linearGradient id="paint20_linear" x1="131.176" y1="491.218" x2="172.157" y2="491.306" gradientUnits="userSpaceOnUse">
<stop stop-color="#EFEFEF"/>
<stop offset="0.5538" stop-color="#D7D8D9"/>
</linearGradient>
<linearGradient id="paint21_linear" x1="251.661" y1="594.206" x2="254.042" y2="628.346" gradientUnits="userSpaceOnUse">
<stop stop-color="#2ECAFF"/>
<stop offset="0.1841" stop-color="#2FC1FF"/>
<stop offset="0.4844" stop-color="#33A9FF"/>
<stop offset="0.8612" stop-color="#3981FF"/>
<stop offset="1" stop-color="#3B71FF"/>
</linearGradient>
<linearGradient id="paint22_linear" x1="156.719" y1="595.005" x2="160.132" y2="628.607" gradientUnits="userSpaceOnUse">
<stop stop-color="#2ECAFF"/>
<stop offset="1" stop-color="#3B71FF"/>
</linearGradient>
<linearGradient id="paint23_linear" x1="157.226" y1="608.651" x2="159.331" y2="629.382" gradientUnits="userSpaceOnUse">
<stop stop-color="#2ECAFF"/>
<stop offset="1" stop-color="#1B236D"/>
</linearGradient>
<clipPath id="clip0">
<rect width="77.4543" height="85.9913" fill="white" transform="matrix(0.999419 -0.034091 0.026409 0.999651 139.056 177.641)"/>
</clipPath>
</defs>
</svg>
