<svg width="1027" height="1009" viewBox="0 0 1027 1009" fill="none" xmlns="http://www.w3.org/2000/svg">
<path d="M844.832 258.536C828.224 252.967 810.234 261.911 804.651 278.514C799.068 295.116 808.006 313.09 824.614 318.659C841.222 324.228 859.212 315.284 864.795 298.682C870.378 282.079 861.44 264.105 844.832 258.536Z" fill="#EEEEEE"/>
<path d="M840.187 272.348C831.21 269.338 821.486 274.173 818.468 283.147C815.45 292.121 820.281 301.837 829.259 304.847C838.236 307.857 847.96 303.023 850.978 294.048C853.996 285.074 849.165 275.359 840.187 272.348Z" fill="#A1C3FC"/>
<path d="M669.98 245.259C653.372 239.689 635.382 248.634 629.799 265.236C624.216 281.839 633.154 299.812 649.762 305.382C666.371 310.951 684.36 302.007 689.943 285.404C695.526 268.802 686.589 250.828 669.98 245.259Z" fill="#EEEEEE"/>
<path d="M665.336 259.071C656.358 256.06 646.634 260.895 643.616 269.869C640.599 278.844 645.43 288.559 654.407 291.569C663.385 294.58 673.109 289.745 676.126 280.771C679.144 271.797 674.313 262.081 665.336 259.071Z" fill="#A1C3FC"/>
<path d="M567.825 93.9366C551.216 88.3674 533.227 97.3116 527.644 113.914C522.061 130.517 530.998 148.49 547.607 154.06C564.215 159.629 582.205 150.685 587.788 134.082C593.371 117.48 584.433 99.5058 567.825 93.9366Z" fill="#EEEEEE"/>
<path d="M563.18 107.749C554.203 104.738 544.479 109.573 541.461 118.547C538.443 127.522 543.274 137.237 552.252 140.247C561.229 143.258 570.953 138.423 573.971 129.449C576.989 120.475 572.158 110.759 563.18 107.749Z" fill="#A1C3FC"/>
<path d="M766.052 149.697C755.671 146.217 744.428 151.807 740.938 162.183C737.449 172.56 743.035 183.794 753.415 187.274C763.796 190.755 775.039 185.165 778.529 174.788C782.018 164.412 776.432 153.178 766.052 149.697Z" fill="#EEEEEE"/>
<path d="M763.149 158.33C757.538 156.449 751.461 159.471 749.575 165.079C747.689 170.688 750.708 176.76 756.319 178.641C761.929 180.523 768.006 177.501 769.893 171.892C771.779 166.284 768.759 160.212 763.149 158.33Z" fill="#A1C3FC"/>
<path d="M532.621 211.122C522.241 207.641 510.998 213.231 507.508 223.608C504.019 233.984 509.605 245.218 519.985 248.699C530.365 252.179 541.609 246.589 545.098 236.213C548.588 225.836 543.002 214.602 532.621 211.122Z" fill="#EEEEEE"/>
<path d="M529.718 219.755C524.107 217.873 518.03 220.895 516.144 226.504C514.258 232.112 517.277 238.184 522.888 240.066C528.499 241.947 534.576 238.925 536.462 233.317C538.348 227.708 535.329 221.636 529.718 219.755Z" fill="#A1C3FC"/>
<path d="M758.815 334.838C753.204 332.956 747.127 335.978 745.241 341.586C743.355 347.195 746.374 353.267 751.985 355.148C757.595 357.03 763.673 354.008 765.559 348.4C767.445 342.791 764.425 336.719 758.815 334.838Z" fill="#A1C3FC"/>
<path d="M655.62 167.043C650.01 165.162 643.932 168.183 642.046 173.792C640.16 179.401 643.18 185.473 648.79 187.354C654.401 189.235 660.478 186.214 662.364 180.605C664.25 174.996 661.231 168.925 655.62 167.043Z" fill="#A1C3FC"/>
<path d="M864.199 161.777C858.589 159.896 852.511 162.917 850.625 168.526C848.739 174.134 851.759 180.206 857.369 182.088C862.98 183.969 869.057 180.948 870.943 175.339C872.829 169.73 869.81 163.658 864.199 161.777Z" fill="#A1C3FC"/>
<path d="M661.199 75.7537C655.588 73.8723 649.511 76.8938 647.625 82.5025C645.739 88.1112 648.758 94.1831 654.369 96.0645C659.98 97.9459 666.057 94.9244 667.943 89.3157C669.829 83.707 666.81 77.6351 661.199 75.7537Z" fill="#A1C3FC"/>
<path d="M458.153 171.26C452.543 169.378 446.466 172.4 444.579 178.009C442.693 183.617 445.713 189.689 451.323 191.571C456.934 193.452 463.011 190.43 464.897 184.822C466.784 179.213 463.764 173.141 458.153 171.26Z" fill="#A1C3FC"/>
<path d="M663.181 275.284L662.998 277.549L836.42 291.497L836.603 289.232L663.181 275.284Z" fill="#A1C3FC"/>
<path d="M650.73 174.729L654.445 270.338L656.723 270.249L653.008 174.64L650.73 174.729Z" fill="#A1C3FC"/>
<path d="M656.298 83.3282L651.067 177.126L653.321 177.251L658.552 83.4532L656.298 83.3282Z" fill="#A1C3FC"/>
<path d="M759.137 169.801L830.915 283.465L832.833 282.256L761.056 168.591L759.137 169.801Z" fill="#A1C3FC"/>
<path d="M647.836 174.638L647.981 176.89L755.507 169.94L755.362 167.688L647.836 174.638Z" fill="#A1C3FC"/>
<path d="M661.038 285.239L759.444 348.109L760.665 346.201L662.259 283.331L661.038 285.239Z" fill="#A1C3FC"/>
<path d="M523.076 230.621L651.99 273.871L652.712 271.722L523.798 228.472L523.076 230.621Z" fill="#A1C3FC"/>
<path d="M524.879 225.253L527.026 225.973L564.546 114.345L562.399 113.625L524.879 225.253Z" fill="#A1C3FC"/>
<path d="M456.638 180.096L457.817 182.027L552.569 124.261L551.39 122.33L456.638 180.096Z" fill="#A1C3FC"/>
<path d="M760.492 167.012L760.406 169.286L860.736 173.062L860.822 170.787L760.492 167.012Z" fill="#A1C3FC"/>
<path d="M446.659 240.023C436.758 239.241 427.622 252.684 426.256 270.052L462.112 272.887C463.477 255.522 456.56 240.809 446.659 240.023Z" fill="url(#paint0_linear)"/>
<path d="M434.626 258.094L444.118 258.845L444.873 249.333L435.381 248.582L434.626 258.094Z" fill="white"/>
<path d="M610.899 579.376L699.116 590.797L696.29 612.716L608.075 601.297L610.899 579.376Z" fill="#1B236D"/>
<path d="M269.171 244.573L277.744 333.305L255.799 335.435L247.224 246.704L269.171 244.573Z" fill="#1B236D"/>
<path d="M550.371 596.685L370.493 612.951L354.262 432.661L534.139 416.393L550.371 596.685Z" fill="url(#paint1_linear)"/>
<path d="M492.465 384.531L383.108 375.881L391.738 266.273L501.095 274.922L492.465 384.531Z" fill="url(#paint2_linear)"/>
<path d="M691.099 621.141C700.706 621.141 708.494 613.335 708.494 603.706C708.494 594.077 700.706 586.271 691.099 586.271C681.493 586.271 673.705 594.077 673.705 603.706C673.705 613.335 681.493 621.141 691.099 621.141Z" fill="url(#paint3_radial)"/>
<path d="M259.412 255.522C269.019 255.522 276.807 247.716 276.807 238.087C276.807 228.458 269.019 220.652 259.412 220.652C249.805 220.652 242.017 228.458 242.017 238.087C242.017 247.716 249.805 255.522 259.412 255.522Z" fill="url(#paint4_radial)"/>
<path d="M404.105 301.998L424.339 303.599L422.74 323.879L402.509 322.278L404.105 301.998Z" fill="#5BABF2"/>
<path d="M447.941 305.467L468.175 307.068L466.576 327.348L446.345 325.747L447.941 305.467Z" fill="#5BABF2"/>
<path d="M433.143 348.992C443.044 349.775 451.704 342.365 452.486 332.442L416.63 329.607C415.847 339.528 423.241 348.208 433.143 348.992Z" fill="#5BABF2"/>
<path d="M397.589 281.021L407.081 281.772L407.836 272.26L398.344 271.509L397.589 281.021Z" fill="#1B236D"/>
<path d="M484.928 287.933L494.42 288.684L495.175 279.172L485.683 278.421L484.928 287.933Z" fill="#1B236D"/>
<path d="M390.47 371.387L399.962 372.138L400.717 362.626L391.225 361.875L390.47 371.387Z" fill="#1B236D"/>
<path d="M477.811 378.3L487.303 379.051L488.058 369.539L478.566 368.788L477.811 378.3Z" fill="#1B236D"/>
<path d="M453.572 588.244L465.281 587.183L466.338 598.919L454.629 599.978L453.572 588.244Z" fill="#1B236D"/>
<path d="M373.947 595.448L385.655 594.388L386.712 606.124L375.004 607.183L373.947 595.448Z" fill="#1B236D"/>
<path d="M533.198 581.038L544.907 579.979L545.964 591.715L534.255 592.774L533.198 581.038Z" fill="#1B236D"/>
<path d="M414.086 424.147C412.95 424.147 411.979 423.277 411.876 422.121C411.766 420.897 412.667 419.815 413.889 419.705L462.769 415.285C463.993 415.184 465.07 416.078 465.18 417.302C465.29 418.525 464.39 419.608 463.167 419.718L414.287 424.138C414.219 424.145 414.152 424.147 414.086 424.147Z" fill="#1B236D"/>
<path d="M413.149 412.902C411.925 412.902 410.933 411.909 410.927 410.683C410.924 409.454 411.913 408.452 413.14 408.449L462.328 408.275C462.33 408.275 462.332 408.275 462.336 408.275C463.56 408.275 464.552 409.267 464.558 410.493C464.562 411.722 463.573 412.724 462.345 412.728L413.157 412.902C413.155 412.902 413.153 412.902 413.149 412.902Z" fill="#1B236D"/>
<path d="M412.528 406.047C411.309 406.047 410.315 405.062 410.306 403.836C410.298 402.607 411.286 401.603 412.511 401.596L461.692 401.277C462.892 401.33 463.92 402.259 463.927 403.488C463.935 404.715 462.947 405.721 461.722 405.728L412.541 406.047C412.539 406.047 412.533 406.047 412.528 406.047Z" fill="#1B236D"/>
<path d="M461.081 398.729C461.033 398.729 460.985 398.729 460.936 398.725L410.52 395.45C409.296 395.37 408.368 394.313 408.448 393.084C408.527 391.858 409.531 390.909 410.81 391.006L461.226 394.282C462.45 394.362 463.378 395.419 463.297 396.648C463.218 397.824 462.242 398.729 461.081 398.729Z" fill="#1B236D"/>
<path d="M460.45 391.732C460.395 391.732 460.336 391.73 460.281 391.726L411.118 387.973C409.895 387.881 408.979 386.811 409.072 385.584C409.166 384.359 410.23 383.432 411.454 383.534L460.617 387.288C461.841 387.379 462.756 388.449 462.663 389.676C462.573 390.843 461.602 391.732 460.45 391.732Z" fill="#1B236D"/>
<path d="M459.82 384.731C459.767 384.731 459.71 384.729 459.655 384.725L410.5 381.117C409.276 381.027 408.359 379.961 408.448 378.735C408.538 377.51 409.588 376.592 410.825 376.678L459.98 380.287C461.204 380.376 462.121 381.443 462.031 382.668C461.947 383.839 460.971 384.731 459.82 384.731Z" fill="#1B236D"/>
<path d="M564.804 441.58L613.307 569.157L581.752 581.21L533.25 453.633L564.804 441.58Z" fill="#1B236D"/>
<path d="M277.649 334.206L354.959 446.603L327.158 465.813L249.85 353.416L277.649 334.206Z" fill="#1B236D"/>
<path d="M545.245 488.974C567.32 488.974 585.216 471.037 585.216 448.911C585.216 426.785 567.32 408.848 545.245 408.848C523.169 408.848 505.273 426.785 505.273 448.911C505.273 471.037 523.169 488.974 545.245 488.974Z" fill="url(#paint5_radial)"/>
<path d="M354.774 506.198C376.85 506.198 394.745 488.261 394.745 466.135C394.745 444.009 376.85 426.072 354.774 426.072C332.698 426.072 314.802 444.009 314.802 466.135C314.802 488.261 332.698 506.198 354.774 506.198Z" fill="url(#paint6_radial)"/>
<path d="M720.305 604.358C719.562 604.358 718.836 603.982 718.415 603.301C717.771 602.257 718.094 600.885 719.137 600.238L744.48 584.536C745.521 583.89 746.891 584.21 747.535 585.26C748.18 586.304 747.857 587.676 746.814 588.323L721.471 604.025C721.107 604.252 720.704 604.358 720.305 604.358Z" fill="#1B236D"/>
<path d="M718.434 613.13C717.474 613.13 716.588 612.5 716.304 611.528C715.961 610.348 716.636 609.111 717.814 608.769L757.136 597.274C758.317 596.936 759.547 597.608 759.89 598.788C760.233 599.967 759.558 601.204 758.38 601.546L719.058 613.041C718.849 613.103 718.64 613.13 718.434 613.13Z" fill="#1B236D"/>
<path d="M753.993 625.817C753.842 625.817 753.686 625.801 753.532 625.77L716.999 618.025C715.797 617.772 715.032 616.589 715.285 615.387C715.54 614.184 716.731 613.42 717.916 613.671L754.45 621.416C755.651 621.668 756.417 622.852 756.163 624.053C755.941 625.099 755.018 625.817 753.993 625.817Z" fill="#1B236D"/>
<path d="M744.055 647.573C743.522 647.573 742.99 647.383 742.566 646.998L713.399 620.58C712.489 619.756 712.417 618.347 713.239 617.435C714.061 616.523 715.469 616.453 716.375 617.276L745.543 643.694C746.453 644.518 746.524 645.927 745.702 646.839C745.267 647.324 744.66 647.573 744.055 647.573Z" fill="#1B236D"/>
<path d="M693.114 659.632C692.896 659.632 692.67 659.597 692.45 659.53C691.279 659.159 690.628 657.912 690.995 656.74L702.193 620.934C702.562 619.761 703.812 619.109 704.975 619.476C706.146 619.846 706.797 621.093 706.43 622.265L695.232 658.071C694.934 659.02 694.059 659.632 693.114 659.632Z" fill="#1B236D"/>
<path d="M261.023 220.322C260.55 220.322 260.069 220.17 259.665 219.857C258.694 219.104 258.518 217.707 259.269 216.734L280.629 189.089C281.381 188.118 282.776 187.94 283.745 188.691C284.715 189.444 284.891 190.842 284.141 191.814L262.781 219.46C262.342 220.027 261.685 220.322 261.023 220.322Z" fill="#1B236D"/>
<path d="M254.817 214.952C253.711 214.952 252.753 214.124 252.615 212.995L248.39 178.285C248.241 177.065 249.107 175.955 250.325 175.806C251.529 175.649 252.65 176.524 252.797 177.748L257.023 212.458C257.172 213.678 256.305 214.789 255.087 214.937C254.995 214.946 254.905 214.952 254.817 214.952Z" fill="#1B236D"/>
<path d="M244.156 217.258C243.254 217.258 242.408 216.703 242.074 215.803L229.554 181.945C229.129 180.792 229.716 179.51 230.864 179.083C232.008 178.655 233.29 179.245 233.719 180.397L246.239 214.257C246.665 215.409 246.078 216.692 244.929 217.119C244.676 217.212 244.413 217.258 244.156 217.258Z" fill="#1B236D"/>
<path d="M234.554 221.04C233.932 221.04 233.318 220.782 232.879 220.277L210.89 194.961C210.084 194.034 210.181 192.629 211.106 191.82C212.031 191.014 213.431 191.109 214.24 192.038L236.23 217.353C237.035 218.28 236.936 219.685 236.013 220.495C235.591 220.859 235.072 221.04 234.554 221.04Z" fill="#1B236D"/>
<path d="M237.217 235.667C236.859 235.667 236.494 235.581 236.156 235.396L210.668 221.491C209.59 220.905 209.192 219.553 209.779 218.472C210.365 217.391 211.715 216.99 212.792 217.582L238.281 231.487C239.358 232.073 239.756 233.425 239.169 234.506C238.767 235.246 238.004 235.667 237.217 235.667Z" fill="#1B236D"/>
<path d="M602.38 614.215C618.936 614.215 632.358 600.762 632.358 584.166C632.358 567.571 618.936 554.118 602.38 554.118C585.823 554.118 572.401 567.571 572.401 584.166C572.401 600.762 585.823 614.215 602.38 614.215Z" fill="url(#paint7_linear)"/>
<path d="M267.322 372.071C283.879 372.071 297.301 358.618 297.301 342.022C297.301 325.427 283.879 311.974 267.322 311.974C250.765 311.974 237.343 325.427 237.343 342.022C237.343 358.618 250.765 372.071 267.322 372.071Z" fill="url(#paint8_linear)"/>
<path d="M409.386 561.337C408.736 554.116 414.05 547.734 421.252 547.082C428.236 546.452 434.418 551.443 435.383 558.327L464.077 523.862C452.844 510.935 435.805 503.396 417.47 505.055C398.655 506.757 382.908 517.738 374.299 533.083L409.56 562.577C409.485 562.168 409.424 561.758 409.386 561.337Z" fill="white"/>
<path d="M424.786 576.535C429.188 576.535 432.755 572.959 432.755 568.548C432.755 564.137 429.188 560.562 424.786 560.562C420.385 560.562 416.817 564.137 416.817 568.548C416.817 572.959 420.385 576.535 424.786 576.535Z" fill="#1B236D"/>
<path d="M394.008 528.67L425.368 565.933L423.845 567.22L392.487 529.958L394.008 528.67Z" fill="#1B236D"/>
<path d="M731.836 612.541L708.162 630.366L690.376 606.639L714.05 588.813L731.836 612.541Z" fill="url(#paint9_linear)"/>
<path d="M267.326 233.689L238.868 241.886L230.688 213.363L259.148 205.166L267.326 233.689Z" fill="url(#paint10_linear)"/>
<path d="M413.517 457.976L434.682 456.062L436.592 477.276L415.427 479.19L413.517 457.976Z" fill="white"/>
<path d="M445.262 455.104L466.428 453.19L468.338 474.404L447.172 476.318L445.262 455.104Z" fill="white"/>
<path d="M477.008 452.232L498.173 450.318L500.084 471.532L478.918 473.446L477.008 452.232Z" fill="white"/>
<path d="M524.862 569.512L486.502 572.983L479.937 500.063L518.295 496.592L524.862 569.512Z" fill="#5BABF2"/>
<path d="M268.959 350.421C274.093 350.421 278.256 346.249 278.256 341.103C278.256 335.957 274.093 331.785 268.959 331.785C263.824 331.785 259.661 335.957 259.661 341.103C259.661 346.249 263.824 350.421 268.959 350.421Z" fill="#F92424"/>
<path d="M603.391 591.786C608.526 591.786 612.688 587.614 612.688 582.468C612.688 577.322 608.526 573.15 603.391 573.15C598.256 573.15 594.093 577.322 594.093 582.468C594.093 587.614 598.256 591.786 603.391 591.786Z" fill="#F92424"/>
<path d="M548.413 455.084C553.548 455.084 557.711 450.912 557.711 445.766C557.711 440.619 553.548 436.447 548.413 436.447C543.278 436.447 539.116 440.619 539.116 445.766C539.116 450.912 543.278 455.084 548.413 455.084Z" fill="#F92424"/>
<path d="M351.453 474.235C356.588 474.235 360.75 470.063 360.75 464.917C360.75 459.771 356.588 455.599 351.453 455.599C346.318 455.599 342.155 459.771 342.155 464.917C342.155 470.063 346.318 474.235 351.453 474.235Z" fill="#F92424"/>
<path d="M663.227 436.711L662.133 443.892L667.328 444.68L667.734 442.014L675.451 443.184L674.279 450.883L666.561 449.713L666.967 447.048L661.773 446.26L660.059 457.512L665.254 458.3L665.66 455.635L673.378 456.805L672.205 464.504L664.487 463.334L664.893 460.668L659.699 459.88L657.986 471.133L663.18 471.921L663.586 469.256L671.304 470.426L670.132 478.124L662.414 476.954L662.819 474.289L657.625 473.501L655.912 484.752L661.107 485.54L661.512 482.876L669.23 484.046L668.058 491.745L660.34 490.575L660.746 487.91L655.551 487.123L653.838 498.373L659.033 499.161L659.438 496.497L667.156 497.667L665.984 505.365L658.266 504.195L658.672 501.53L653.477 500.742L651.764 511.993L656.959 512.781L657.365 510.116L665.082 511.286L663.91 518.986L656.192 517.816L656.598 515.151L651.403 514.364L649.69 525.614L654.885 526.402L655.291 523.737L663.009 524.907L661.837 532.605L654.119 531.435L654.524 528.771L649.33 527.984L647.617 539.235L652.811 540.023L653.217 537.357L660.935 538.527L659.763 546.226L652.045 545.056L652.45 542.392L647.256 541.605L645.543 552.855L650.737 553.643L651.143 550.978L658.861 552.148L657.689 559.847L649.971 558.677L650.377 556.011L645.182 555.224L643.469 566.477L648.663 567.264L649.069 564.599L656.787 565.77L655.615 573.467L647.897 572.297L648.303 569.632L643.108 568.845L641.395 580.097L646.59 580.884L646.995 578.219L654.713 579.39L653.541 587.089L645.823 585.918L646.229 583.254L641.034 582.466L640.415 586.538L762.122 604.992L784.934 455.165L663.227 436.711Z" fill="#0D236A"/>
<path d="M652.844 504.98L651.751 512.16L656.946 512.948L657.351 510.283L665.069 511.453L663.897 519.151L656.179 517.981L656.585 515.316L651.39 514.528L649.677 525.78L654.872 526.568L655.278 523.903L662.995 525.073L661.823 532.772L654.105 531.602L654.511 528.937L649.317 528.149L647.603 539.401L652.798 540.189L653.204 537.524L660.921 538.694L659.749 546.392L652.032 545.222L652.437 542.557L647.243 541.769L645.53 553.022L650.724 553.81L651.13 551.144L658.848 552.314L657.676 560.013L649.958 558.843L650.363 556.178L645.169 555.39L643.456 566.642L648.65 567.43L649.056 564.765L656.774 565.935L655.602 573.634L647.884 572.464L648.29 569.798L643.095 569.01L641.382 580.263L646.576 581.051L646.982 578.386L654.7 579.556L653.528 587.254L645.81 586.084L646.216 583.419L641.021 582.632L639.308 593.883L644.503 594.671L644.908 592.006L652.626 593.176L651.454 600.875L643.736 599.705L644.142 597.04L638.947 596.253L637.234 607.505L642.429 608.292L642.834 605.627L650.552 606.798L649.38 614.495L641.662 613.325L642.068 610.66L636.874 609.873L635.161 621.125L640.355 621.912L640.761 619.247L648.479 620.418L647.306 628.117L639.589 626.946L639.994 624.282L634.8 623.494L633.087 634.745L638.281 635.532L638.687 632.869L646.405 634.039L645.233 641.737L637.515 640.566L637.921 637.901L632.726 637.114L631.013 648.366L636.207 649.153L636.613 646.49L644.331 647.66L643.159 655.358L635.441 654.188L635.847 651.523L630.652 650.735L630.032 654.806L751.74 673.26L774.552 523.434L652.844 504.98Z" fill="#0D236A"/>
<path d="M903.365 458.651L684.376 425.447L640.758 711.922L859.747 745.127L903.365 458.651Z" fill="#D6D7D8"/>
<path d="M689.104 429.901L903.006 458.741L864.871 740.451L650.967 711.611L689.104 429.901Z" fill="#EEEEEE"/>
<path d="M696.371 434.363L899.67 466.435L855.191 747.208L651.892 715.136L696.371 434.363Z" fill="white"/>
<path d="M824.371 430.639L767.906 422.071L767.514 424.646L823.979 433.215L824.371 430.639Z" fill="#151A4F"/>
<path d="M823.993 433.116L767.533 424.555L763.818 448.959L820.278 457.521L823.993 433.116Z" fill="url(#paint11_linear)"/>
<path d="M787.823 450.97L760.66 446.853L761.053 444.272L786.923 448.193L787.548 444.09L777.216 419.811L778.615 418.011L798.558 421.034L798.165 423.615L780.539 420.943L790.102 443.41L790.19 444.117L789.313 449.876L787.823 450.97Z" fill="#FF4945"/>
<path d="M823.333 456.359L796.228 452.251L795.132 450.764L796.009 445.006L796.304 444.358L812.124 425.738L794.499 423.066L794.892 420.485L814.833 423.508L815.636 425.641L798.54 445.763L797.915 449.866L823.726 453.778L823.333 456.359Z" fill="#FF4945"/>
<path d="M781.752 446.314L762.926 443.459L762.129 448.695L780.955 451.55L781.752 446.314Z" fill="url(#paint12_linear)"/>
<path d="M822.767 452.54L803.417 449.605L802.619 454.841L821.97 457.776L822.767 452.54Z" fill="url(#paint13_linear)"/>
<path d="M709.713 500.584L701.953 499.408L701.167 504.568L708.927 505.745L709.713 500.584Z" fill="#EEEEEE"/>
<path d="M802.616 519.972L787.002 517.602L787.787 512.438L803.401 514.809L802.616 519.972ZM771.387 515.231L755.772 512.861L756.557 507.697L772.171 510.068L771.386 515.231L771.387 515.231ZM740.159 510.49L724.543 508.12L725.328 502.956L740.942 505.327L740.157 510.49L740.159 510.49Z" fill="#EEEEEE"/>
<path d="M826.778 518.355L819.018 517.178L818.232 522.339L825.992 523.515L826.778 518.355Z" fill="#EEEEEE"/>
<path d="M703.239 543.145L695.48 541.969L694.694 547.129L702.454 548.306L703.239 543.145Z" fill="#EEEEEE"/>
<path d="M796.143 562.534L780.529 560.163L781.314 555L796.928 557.37L796.143 562.534ZM764.915 557.793L749.299 555.422L750.084 550.258L765.698 552.629L764.913 557.792L764.915 557.793ZM733.686 553.052L718.07 550.681L718.855 545.517L734.47 547.888L733.685 553.051L733.686 553.052Z" fill="#EEEEEE"/>
<path d="M820.304 560.916L812.545 559.74L811.759 564.9L819.519 566.076L820.304 560.916Z" fill="#EEEEEE"/>
<path d="M696.767 585.707L689.008 584.53L688.222 589.691L695.981 590.867L696.767 585.707Z" fill="#EEEEEE"/>
<path d="M789.671 605.095L774.056 602.724L774.841 597.561L790.456 599.931L789.671 605.095ZM758.442 600.354L742.826 597.983L743.612 592.82L759.226 595.19L758.441 600.354L758.442 600.354ZM727.213 595.613L711.598 593.242L712.383 588.079L727.997 590.449L727.212 595.612L727.213 595.613Z" fill="#EEEEEE"/>
<path d="M813.832 603.477L806.073 602.301L805.287 607.461L813.046 608.638L813.832 603.477Z" fill="#EEEEEE"/>
<path d="M690.294 628.268L682.535 627.091L681.749 632.252L689.508 633.428L690.294 628.268Z" fill="#EEEEEE"/>
<path d="M783.197 647.656L767.583 645.285L768.368 640.122L783.983 642.492L783.197 647.656ZM751.969 642.915L736.353 640.544L737.138 635.381L752.753 637.751L751.968 642.915L751.969 642.915ZM720.74 638.174L705.124 635.803L705.91 630.64L721.524 633.01L720.739 638.174L720.74 638.174Z" fill="#EEEEEE"/>
<path d="M807.359 646.038L799.6 644.862L798.814 650.022L806.573 651.199L807.359 646.038Z" fill="#EEEEEE"/>
<path d="M869.671 532.126L836.695 527.128L841.705 494.231L874.682 499.229L869.671 532.126ZM842.654 522.752L865.285 526.182L868.724 503.605L846.092 500.175L842.654 522.752Z" fill="#EEEEEE"/>
<path d="M856.53 618.538L823.553 613.54L828.563 580.643L861.54 585.641L856.53 618.538ZM829.512 609.164L852.143 612.594L855.582 590.018L832.951 586.587L829.512 609.164Z" fill="#EEEEEE"/>
<path d="M843.388 704.951L810.411 699.952L815.422 667.055L848.398 672.054L843.388 704.951ZM816.371 695.576L839.002 699.006L842.44 676.43L819.809 673L816.371 695.576Z" fill="#EEEEEE"/>
<path d="M860.697 525.39C860.683 525.388 860.669 525.385 860.657 525.382C860.439 525.335 860.262 525.183 860.183 524.975C857.525 517.928 855.101 510.689 852.978 503.459C852.877 503.114 853.076 502.751 853.422 502.65C853.767 502.551 854.131 502.746 854.233 503.092C856.252 509.972 858.547 516.861 861.058 523.584C862.396 522.319 864.874 520.059 867.866 517.331C875.278 510.569 886.48 500.351 888.434 497.816C888.655 497.53 889.067 497.477 889.351 497.696C889.638 497.915 889.693 498.326 889.471 498.61C887.45 501.235 876.641 511.094 868.749 518.293C865.097 521.625 862.211 524.257 861.259 525.205C861.109 525.354 860.902 525.421 860.697 525.39Z" fill="#FF4945"/>
<path d="M157.249 307.8C156.727 307.8 156.199 307.638 155.748 307.304C154.634 306.478 154.404 304.909 155.235 303.8L177.788 273.678C178.618 272.569 180.192 272.34 181.31 273.166C182.424 273.993 182.653 275.562 181.823 276.671L159.269 306.795C158.775 307.452 158.016 307.8 157.249 307.8Z" fill="#D62929"/>
<path d="M265.364 140.253C256.25 153.004 245.944 167.516 235.491 182.428C198.912 234.603 160.528 291.635 165.033 295.038C170.542 299.197 214.368 246.127 253.821 196.019C265.088 181.711 275.995 167.647 285.556 155.224C295.733 141.998 304.38 130.636 310.297 122.826C314.976 116.649 314.016 108.085 308.158 103.742C302.254 99.364 293.66 100.96 289.079 107.286C283.334 115.217 275.017 126.747 265.364 140.253Z" fill="url(#paint14_linear)"/>
<path d="M301.033 115.848L302.695 127.178L291.311 128.832L289.649 117.503L301.033 115.848Z" fill="#1D72D8"/>
<path d="M280.582 150.628L277.135 127.138L274.487 127.522C271.621 131.51 268.569 135.77 265.364 140.252C262.587 144.137 259.698 148.189 256.728 152.363L256.977 154.059L280.582 150.628Z" fill="#23286B"/>
<path d="M254.219 170.935L256.861 188.934L259.708 188.519C264.182 182.808 268.57 177.179 272.807 171.718L272.306 168.304L254.219 170.935Z" fill="#78A9EF"/>
<path d="M240.931 190.491L242.191 199.075L233.566 200.328L232.306 191.745L240.931 190.491Z" fill="white"/>
<path d="M306.636 92.34L319.739 102.056L312.67 111.498L299.567 101.782L306.636 92.34Z" fill="#428DFC"/>
<path d="M273.977 186.395C273.154 186.395 272.396 185.853 272.162 185.027C270.068 177.653 273.168 168.983 280.454 161.834C283.413 158.931 286.748 156.441 289.973 154.036C293.044 151.744 296.221 149.376 298.964 146.71C307.233 138.675 312.023 127.468 312.105 115.967C312.114 114.649 312.039 113.306 311.443 112.414C311.121 111.934 310.191 111.575 309.11 111.158C307.67 110.601 305.879 109.909 304.115 108.451C303.737 108.139 303.381 107.854 303.045 107.585C300.921 105.881 299.243 104.536 298.068 101.213C297.722 100.234 298.239 99.1607 299.222 98.8167C300.21 98.4777 301.284 98.9862 301.63 99.9651C302.45 102.281 303.44 103.076 305.415 104.661C305.763 104.941 306.133 105.237 306.526 105.563C307.817 106.63 309.169 107.151 310.477 107.656C312.012 108.25 313.6 108.862 314.584 110.33C315.744 112.065 315.893 114.077 315.881 115.992C315.793 128.489 310.587 140.665 301.602 149.396C298.683 152.234 295.406 154.678 292.24 157.04C289.115 159.372 285.883 161.781 283.104 164.508C276.814 170.681 274.082 177.969 275.795 184.005C276.079 185.004 275.496 186.042 274.493 186.323C274.317 186.372 274.147 186.395 273.977 186.395Z" fill="#23286B"/>
<path d="M184.307 270.566L187.548 273.792L184.307 277.018L181.066 273.792L184.307 270.566Z" fill="white"/>
<path d="M386.075 725.711L416.543 723.777L427.181 903.057L396.713 904.991L386.075 725.711Z" fill="#1B236D"/>
<path d="M508.565 725.892L539.033 723.958L549.671 903.239L519.203 905.173L508.565 725.892Z" fill="#1B236D"/>
<path d="M381.297 626.676L430.61 624.669L429.637 599.116L489.959 596.66L490.932 622.213L542.155 620.128C550.485 619.789 556.498 625.275 556.767 632.329L559.846 713.247C560.025 717.951 556.623 721.909 551.071 722.135L490.749 724.591C485.197 724.817 479.595 721.225 479.416 716.521L477.958 678.192C477.868 675.839 476.499 673.986 473.724 674.099L453.617 674.917C450.84 675.03 447.708 677.068 447.797 679.419L449.255 717.749C449.434 722.453 446.033 726.411 440.481 726.637L380.159 729.092C374.607 729.318 369.005 725.727 368.826 721.023L365.747 640.105C365.479 633.05 372.967 627.015 381.297 626.676Z" fill="#72B5F7"/>
<path d="M527.64 755.947C546.489 754.847 563.184 741.067 564.93 725.167C566.675 709.267 552.81 697.269 533.961 698.369C515.112 699.468 498.416 713.249 496.671 729.149C494.925 745.049 508.791 757.047 527.64 755.947Z" fill="url(#paint15_linear)"/>
<path d="M531.098 734.472C536.944 734.131 542.122 729.857 542.663 724.927C543.205 719.996 538.904 716.275 533.059 716.616C527.213 716.957 522.035 721.231 521.493 726.162C520.952 731.092 525.252 734.813 531.098 734.472Z" fill="#F92424"/>
<path d="M398.129 758.992C416.979 757.892 433.674 744.111 435.419 728.211C437.165 712.311 423.3 700.313 404.451 701.413C385.602 702.513 368.906 716.294 367.161 732.193C365.415 748.093 379.28 760.091 398.129 758.992Z" fill="url(#paint16_linear)"/>
<path d="M401.587 737.516C407.433 737.175 412.611 732.902 413.153 727.971C413.694 723.04 409.394 719.32 403.548 719.661C397.702 720.002 392.524 724.275 391.983 729.206C391.441 734.137 395.742 737.857 401.587 737.516Z" fill="#F92424"/>
<path d="M392.739 941.799C392.857 944.688 395.372 946.806 398.357 946.53L425.382 944.032C428.367 943.756 430.691 941.19 430.574 938.301L428.868 896.449C428.751 893.559 426.235 891.441 423.25 891.717L396.225 894.215C393.241 894.491 390.916 897.057 391.034 899.946L392.739 941.799Z" fill="url(#paint17_linear)"/>
<path d="M515.229 941.98C515.346 944.869 517.862 946.988 520.847 946.712L547.872 944.214C550.857 943.938 553.181 941.372 553.064 938.483L551.358 896.63C551.24 893.741 548.725 891.622 545.74 891.898L518.715 894.396C515.73 894.672 513.406 897.238 513.523 900.127L515.229 941.98Z" fill="url(#paint18_linear)"/>
<path d="M436.369 943.017L387.37 947.546L387.046 939.605C386.51 926.449 397.303 914.745 410.834 913.494L410.704 913.506C424.235 912.256 435.509 921.919 436.045 935.076L436.369 943.017Z" fill="url(#paint19_linear)"/>
<path d="M558.859 943.198L509.859 947.728L509.536 939.787C509 926.63 519.793 914.927 533.323 913.676L533.194 913.688C546.725 912.437 557.999 922.101 558.535 935.257L558.859 943.198Z" fill="url(#paint20_linear)"/>
<path d="M428.284 683.09L385.899 683.179L387.543 639.095L429.926 639.005L428.284 683.09Z" fill="#5BABF2"/>
<path d="M395.665 652.556L419.963 649.317L419.906 669.515L395.609 672.754L395.665 652.556Z" fill="white"/>
<path d="M518.292 658.663L531.733 656.871L531.702 668.045L518.261 669.837L518.292 658.663Z" fill="#1B236D"/>
<path d="M538.768 681.905L503.862 681.976L505.196 644.854L540.101 644.783L538.768 681.905Z" fill="#5BABF2"/>
<path d="M511.885 656.189L531.896 653.461L531.849 670.467L511.838 673.195L511.885 656.189Z" fill="white"/>
<path d="M400.556 655.618L413.997 653.826L413.965 665.001L400.524 666.793L400.556 655.618Z" fill="#1B236D"/>
<path d="M400.556 655.618L413.997 653.826L413.965 665.001L400.524 666.793L400.556 655.618Z" fill="#1B236D"/>
<path d="M515.35 658.663L528.791 656.871L528.76 668.045L515.319 669.837L515.35 658.663Z" fill="#1B236D"/>
<defs>
<linearGradient id="paint0_linear" x1="427.498" y1="254.337" x2="463.354" y2="257.172" gradientUnits="userSpaceOnUse">
<stop stop-color="#FFB02A"/>
<stop offset="1" stop-color="#FF9300"/>
</linearGradient>
<linearGradient id="paint1_linear" x1="362.341" y1="522.779" x2="542.287" y2="506.509" gradientUnits="userSpaceOnUse">
<stop stop-color="#92C4FE"/>
<stop offset="1" stop-color="#5BABF2"/>
</linearGradient>
<linearGradient id="paint2_linear" x1="387.403" y1="321.091" x2="496.797" y2="329.742" gradientUnits="userSpaceOnUse">
<stop stop-color="#92C4FE"/>
<stop offset="1" stop-color="#5BABF2"/>
</linearGradient>
<radialGradient id="paint3_radial" cx="0" cy="0" r="1" gradientUnits="userSpaceOnUse" gradientTransform="translate(691.146 603.68) rotate(-5.17168) scale(17.3734 17.4128)">
<stop stop-color="#FF4945"/>
<stop offset="1" stop-color="#F92424"/>
</radialGradient>
<radialGradient id="paint4_radial" cx="0" cy="0" r="1" gradientUnits="userSpaceOnUse" gradientTransform="translate(259.413 238.031) rotate(15.7586) scale(17.4025 17.4372)">
<stop stop-color="#FF4945"/>
<stop offset="1" stop-color="#F92424"/>
</radialGradient>
<radialGradient id="paint5_radial" cx="0" cy="0" r="1" gradientUnits="userSpaceOnUse" gradientTransform="translate(545.244 448.893) rotate(-5.17166) scale(39.975 40.0656)">
<stop stop-color="#FF4945"/>
<stop offset="1" stop-color="#F92424"/>
</radialGradient>
<radialGradient id="paint6_radial" cx="0" cy="0" r="1" gradientUnits="userSpaceOnUse" gradientTransform="translate(354.775 466.126) rotate(-5.17166) scale(39.975 40.0656)">
<stop stop-color="#FF4945"/>
<stop offset="1" stop-color="#F92424"/>
</radialGradient>
<linearGradient id="paint7_linear" x1="572.518" y1="586.858" x2="632.238" y2="581.458" gradientUnits="userSpaceOnUse">
<stop stop-color="#EFEFEF"/>
<stop offset="0.5538" stop-color="#D7D8D9"/>
</linearGradient>
<linearGradient id="paint8_linear" x1="238.448" y1="333.908" x2="296.18" y2="350.189" gradientUnits="userSpaceOnUse">
<stop stop-color="#EFEFEF"/>
<stop offset="0.5538" stop-color="#D7D8D9"/>
</linearGradient>
<linearGradient id="paint9_linear" x1="699.167" y1="618.543" x2="722.891" y2="600.691" gradientUnits="userSpaceOnUse">
<stop stop-color="#92C4FE"/>
<stop offset="1" stop-color="#5BABF2"/>
</linearGradient>
<linearGradient id="paint10_linear" x1="234.76" y1="227.614" x2="263.249" y2="219.413" gradientUnits="userSpaceOnUse">
<stop stop-color="#92C4FE"/>
<stop offset="1" stop-color="#5BABF2"/>
</linearGradient>
<linearGradient id="paint11_linear" x1="795.779" y1="429.24" x2="791.595" y2="455.682" gradientUnits="userSpaceOnUse">
<stop stop-color="#23286B"/>
<stop offset="1" stop-color="#151A4F"/>
</linearGradient>
<linearGradient id="paint12_linear" x1="772.237" y1="445.294" x2="771.308" y2="452.27" gradientUnits="userSpaceOnUse">
<stop stop-color="#23286B"/>
<stop offset="1" stop-color="#151A4F"/>
</linearGradient>
<linearGradient id="paint13_linear" x1="813.249" y1="450.795" x2="811.762" y2="458.569" gradientUnits="userSpaceOnUse">
<stop stop-color="#23286B"/>
<stop offset="1" stop-color="#151A4F"/>
</linearGradient>
<linearGradient id="paint14_linear" x1="224.87" y1="190.679" x2="296.551" y2="244.274" gradientUnits="userSpaceOnUse">
<stop stop-color="#E94A47"/>
<stop offset="1" stop-color="#D62929"/>
</linearGradient>
<linearGradient id="paint15_linear" x1="496.522" y1="731.72" x2="565.055" y2="731.882" gradientUnits="userSpaceOnUse">
<stop stop-color="#EFEFEF"/>
<stop offset="0.5538" stop-color="#D7D8D9"/>
</linearGradient>
<linearGradient id="paint16_linear" x1="367.011" y1="734.764" x2="435.545" y2="734.926" gradientUnits="userSpaceOnUse">
<stop stop-color="#EFEFEF"/>
<stop offset="0.5538" stop-color="#D7D8D9"/>
</linearGradient>
<linearGradient id="paint17_linear" x1="409.728" y1="892.748" x2="414.465" y2="943.985" gradientUnits="userSpaceOnUse">
<stop stop-color="#2ECAFF"/>
<stop offset="1" stop-color="#3B71FF"/>
</linearGradient>
<linearGradient id="paint18_linear" x1="532.218" y1="892.929" x2="536.954" y2="944.167" gradientUnits="userSpaceOnUse">
<stop stop-color="#2ECAFF"/>
<stop offset="1" stop-color="#3B71FF"/>
</linearGradient>
<linearGradient id="paint19_linear" x1="410.575" y1="913.518" x2="413.497" y2="945.131" gradientUnits="userSpaceOnUse">
<stop stop-color="#2ECAFF"/>
<stop offset="1" stop-color="#1B236D"/>
</linearGradient>
<linearGradient id="paint20_linear" x1="533.065" y1="913.7" x2="535.987" y2="945.312" gradientUnits="userSpaceOnUse">
<stop stop-color="#2ECAFF"/>
<stop offset="1" stop-color="#1B236D"/>
</linearGradient>
</defs>
</svg>
