<svg width="1346" height="862" viewBox="0 0 1346 862" fill="none" xmlns="http://www.w3.org/2000/svg">
<g clip-path="url(#clip0)">
<path d="M656.84 464.784H518.71V618.329H656.84V464.784Z" fill="#D6D7D8"/>
<path d="M742.366 613.381H433.182V625.258H742.366V613.381Z" fill="#428DFC"/>
<path d="M891.14 171.181H284.408V563.89H891.14V171.181Z" fill="url(#paint0_linear)"/>
<path d="M880.496 180.956H295.052V504.377H880.496V180.956Z" fill="white"/>
<path d="M558.053 534.738L566.017 542.698L573.981 534.738L566.017 526.777L558.053 534.738Z" fill="#A1C3FC"/>
<path d="M579.779 534.721L587.742 542.682L595.706 534.721L587.742 526.76L579.779 534.721Z" fill="white"/>
<path d="M601.504 534.754L609.468 542.715L617.431 534.754L609.468 526.793L601.504 534.754Z" fill="#1D72D8"/>
<path d="M167.071 47.9487C167.071 48.691 167.071 49.3098 167.071 50.0521C167.071 78.6325 190.34 101.894 218.932 101.894C247.525 101.894 270.794 78.6337 270.794 50.0521C270.794 49.3098 270.794 48.691 270.794 47.9487C270.792 47.9487 167.071 47.9487 167.071 47.9487Z" fill="#F4F4F4"/>
<path d="M221.407 47.9487C221.407 48.4439 221.407 48.9381 221.407 49.4333C221.407 70.2198 238.24 87.0464 259.034 87.0464C279.828 87.0464 296.661 70.2198 296.661 49.4333C296.661 48.9381 296.661 48.4439 296.661 47.9487H221.407Z" fill="#E7EFFE"/>
<path d="M199.624 543.351C199.376 548.795 202.718 553.744 206.555 557.704C216.952 568.715 230.939 576.263 245.791 578.737C254.083 580.099 262.624 580.099 271.041 581.088C295.548 584.181 318.445 597.544 333.175 617.34C326.368 602.617 330.328 585.171 336.764 570.324C343.201 555.477 351.988 541.371 355.082 525.534C357.805 511.924 352.978 493.983 339.239 491.633C329.09 489.901 319.188 497.695 309.038 496.21C305.449 495.715 301.612 493.612 300.87 490.023C298.889 480.992 316.713 476.785 314.608 467.752C312.257 457.36 286.141 467.752 287.007 457.235C287.379 452.781 292.701 450.059 293.691 445.605C294.681 441.151 293.072 435.831 288.863 434.098C283.417 431.747 277.476 436.449 271.535 436.697C264.728 437.068 258.911 431.624 255.816 425.562C252.72 419.5 251.607 412.57 248.884 406.385C242.2 391.043 225.368 380.774 208.657 381.763C191.948 382.752 176.477 395.001 171.649 411.086C169.669 417.643 169.792 425.809 175.115 430.263C179.571 433.974 187.369 434.964 188.359 440.655C189.72 448.451 175.858 453.028 177.714 460.7C179.818 469.731 198.26 464.658 200.117 473.691C200.983 477.774 197.393 481.238 195.785 484.951C192.567 492.003 197.27 501.407 204.82 503.262C207.79 504.004 211.132 503.633 213.854 505.118C220.538 508.83 217.939 519.347 212.74 524.914C207.298 530.607 200.119 535.68 199.624 543.351Z" fill="url(#paint1_linear)"/>
<path d="M246.162 531.349C241.83 530.36 237.374 529.493 233.537 527.142C225.492 522.07 223.141 511.8 220.171 502.892C217.2 493.984 211.011 484.086 201.604 484.086C193.683 484.086 185.638 491.139 178.831 487.302C176.231 485.818 174.622 483.219 172.518 481.24C163.483 472.579 147.145 477.899 140.338 488.416C133.53 498.934 133.53 512.419 133.654 525.04C133.778 529.618 135.263 535.681 139.843 535.681C144.175 535.681 146.899 529.494 151.231 529.989C154.696 530.36 156.182 534.815 155.933 538.279C155.686 541.743 154.695 545.455 156.305 548.548C159.399 554.486 168.435 552.383 174.129 548.918C179.823 545.454 187.496 541.618 192.571 546.072C192.075 559.806 192.942 576.138 204.577 583.562C217.944 592.099 236.51 585.789 252.106 583.067C281.192 577.87 307.308 594.078 329.711 613.38C319.436 573.541 286.016 540.629 246.162 531.349Z" fill="url(#paint2_linear)"/>
<path d="M332.803 619.196C322.901 593.337 314.979 566.737 308.915 539.763" stroke="#428DFC" stroke-width="2.26708" stroke-miterlimit="10" stroke-linecap="round"/>
<path d="M322.429 533.879C321.772 531.015 315.083 530.105 307.487 531.846C299.892 533.587 294.267 537.32 294.924 540.183C295.581 543.047 302.271 543.957 309.866 542.216C317.461 540.475 323.086 536.742 322.429 533.879Z" fill="#23286B"/>
<path d="M308.172 536.546C304.83 521.204 302.108 505.862 300.004 490.272" stroke="#428DFC" stroke-width="2.26708" stroke-miterlimit="10" stroke-linecap="round"/>
<path d="M315.583 481.306C314.477 478.001 306.38 477.731 297.499 480.702C288.618 483.674 282.315 488.762 283.422 492.067C284.528 495.372 292.625 495.642 301.506 492.671C310.387 489.699 316.69 484.611 315.583 481.306Z" fill="#23286B"/>
<path d="M299.385 486.189C297.776 473.322 296.538 460.454 295.672 447.587" stroke="#428DFC" stroke-width="2.26708" stroke-miterlimit="10" stroke-linecap="round"/>
<path d="M313.472 442.957C313.435 439.473 305.815 436.729 296.451 436.828C287.087 436.928 279.526 439.833 279.563 443.317C279.6 446.801 287.221 449.545 296.585 449.446C305.948 449.346 313.509 446.442 313.472 442.957Z" fill="#23286B"/>
<path d="M295.423 442.142C294.928 432.369 294.681 422.47 294.557 412.571" stroke="#428DFC" stroke-width="2.26708" stroke-miterlimit="10" stroke-linecap="round"/>
<path d="M317.434 407.263C317.384 402.549 307.149 398.835 294.572 398.969C281.996 399.102 271.841 403.031 271.891 407.745C271.941 412.459 282.177 416.173 294.753 416.039C307.33 415.906 317.484 411.977 317.434 407.263Z" fill="#23286B"/>
<path d="M294.557 405.89C294.681 399.333 294.804 392.776 295.052 386.218" stroke="#428DFC" stroke-width="2.26708" stroke-miterlimit="10" stroke-linecap="round"/>
<path d="M280.571 582.573L285.522 568.962C287.255 568.839 289.112 569.086 290.844 569.705L285.522 584.304C285.275 585.17 285.646 586.036 286.512 586.284C287.378 586.532 288.244 586.161 288.493 585.295L293.814 570.942C295.423 571.932 296.785 573.293 297.899 574.778L293.444 586.903C293.196 587.769 293.567 588.635 294.433 588.883C295.3 589.131 296.166 588.759 296.414 587.894L299.88 578.367C301.861 583.316 301.984 589.626 299.756 595.812C299.756 595.936 299.633 596.059 299.633 596.184C300.747 596.803 301.984 597.545 302.975 598.411C306.069 600.638 310.03 604.473 311.392 609.918L309.907 610.289C308.669 605.34 304.956 601.752 302.109 599.772C301.119 599.03 300.128 598.411 299.015 597.792C296.663 602.988 292.826 607.195 288.618 609.422L291.961 600.391C292.208 599.525 291.837 598.659 290.971 598.411C290.105 598.164 289.239 598.534 288.99 599.4L284.658 611.031C282.801 611.526 280.945 611.649 279.088 611.278L284.039 597.667C284.286 596.802 283.916 595.936 283.049 595.688C282.183 595.439 281.317 595.811 281.069 596.677L275.994 610.411C274.385 609.668 272.9 608.554 271.662 607.318L276.241 594.945C276.488 594.079 276.118 593.213 275.251 592.965C274.385 592.718 273.519 593.089 273.271 593.955L269.311 604.596C268.073 602.739 266.959 600.76 265.968 598.657L268.443 591.976C268.69 591.11 268.32 590.244 267.454 589.996C266.587 589.748 265.721 590.119 265.473 590.985L264.111 594.573C261.636 588.635 260.026 582.82 257.922 580.963C261.388 580.221 266.214 577.005 271.537 574.034L269.805 578.612C269.558 579.477 269.929 580.343 270.795 580.592C271.661 580.84 272.527 580.468 272.775 579.602L275.622 571.807C277.726 570.818 279.831 570.075 281.935 569.58L277.603 581.582C277.356 582.448 277.726 583.314 278.593 583.562C279.333 583.81 280.199 583.438 280.571 582.573Z" fill="white"/>
<path d="M254.208 187.141L244.925 186.027C244.059 186.151 243.192 186.151 242.325 186.399L256.807 188.007C255.817 187.76 255.074 187.388 254.208 187.141ZM259.901 189.74L238.859 187.389C238.364 187.513 237.993 187.761 237.498 187.885L261.014 190.607C260.643 190.234 260.272 189.987 259.901 189.74ZM262.747 191.967L235.27 188.874C234.898 188.998 234.651 189.246 234.28 189.369L263.243 192.71C263.119 192.338 262.871 192.214 262.747 191.967ZM264.109 194.07L232.547 190.482C232.299 190.606 232.051 190.854 231.804 190.978L264.356 194.689C264.357 194.441 264.233 194.194 264.109 194.07ZM264.852 196.049L230.443 192.091C230.196 192.214 230.072 192.462 229.824 192.709L264.976 196.668C264.852 196.421 264.852 196.174 264.852 196.049ZM265.1 197.906L228.587 193.699C228.464 193.946 228.216 194.07 228.092 194.318L265.1 198.524C265.1 198.401 265.1 198.153 265.1 197.906ZM265.1 199.886L227.102 195.555C226.979 195.802 226.855 195.927 226.607 196.174L264.976 200.628C265.1 200.256 265.1 200.133 265.1 199.886ZM264.975 201.741L225.863 197.287C225.739 197.534 225.616 197.659 225.491 197.906L264.974 202.36C264.975 202.236 264.975 201.989 264.975 201.741ZM264.357 203.844C264.357 203.721 264.481 203.721 264.481 203.597L224.75 199.02C224.626 199.267 224.503 199.391 224.378 199.639L263.985 204.216C264.109 204.093 264.233 203.968 264.357 203.844ZM261.51 205.453C261.634 205.453 261.758 205.329 261.882 205.329L223.76 200.999C223.636 201.246 223.636 201.37 223.513 201.617L260.644 205.824C261.015 205.701 261.262 205.577 261.51 205.453ZM258.911 206.814L223.265 202.73C223.141 202.977 223.141 203.102 223.141 203.349L258.293 207.308C258.415 207.185 258.664 207.062 258.911 206.814ZM256.93 208.547L222.645 204.588C222.645 204.835 222.522 204.96 222.522 205.207L256.312 209.042C256.683 208.917 256.807 208.67 256.93 208.547ZM255.568 210.278L222.397 206.443C222.397 206.69 222.397 206.815 222.274 207.062L255.073 210.774C255.321 210.65 255.445 210.525 255.568 210.278ZM254.579 212.135L222.274 208.423C222.274 208.67 222.274 208.795 222.274 209.042L254.33 212.753C254.332 212.505 254.455 212.258 254.579 212.135ZM253.836 213.99L222.398 210.402C222.398 210.649 222.398 210.774 222.398 211.021L253.589 214.609C253.713 214.362 253.836 214.113 253.836 213.99ZM253.464 215.846L222.769 212.382C222.769 212.629 222.893 212.877 222.893 213.001L253.464 216.465C253.464 216.217 253.464 215.97 253.464 215.846ZM223.635 214.98L253.464 218.445C253.464 218.198 253.464 218.073 253.464 217.826L223.387 214.362C223.388 214.485 223.512 214.732 223.635 214.98ZM224.626 216.959L253.713 220.3C253.713 220.053 253.589 219.805 253.589 219.682L224.255 216.34C224.378 216.465 224.503 216.712 224.626 216.959ZM226.111 219.063L253.836 222.279C253.836 222.032 253.836 221.907 253.836 221.66L225.492 218.444C225.739 218.569 225.863 218.816 226.111 219.063ZM228.216 221.166C228.339 221.166 228.339 221.29 228.463 221.29L252.97 224.136C253.093 224.012 253.217 223.764 253.342 223.517L227.473 220.547C227.72 220.671 227.967 220.919 228.216 221.166ZM233.537 223.765L249.38 225.621C249.999 225.498 250.619 225.374 251.238 225.25L231.186 222.899C231.929 223.146 232.795 223.517 233.537 223.765Z" fill="#B3C9EE"/>
<path d="M388.073 343.955C404.682 343.955 418.146 330.482 418.146 313.862C418.146 297.242 404.682 283.769 388.073 283.769C371.464 283.769 358 297.242 358 313.862C358 330.482 371.464 343.955 388.073 343.955Z" fill="#EEEEEE"/>
<path d="M388.073 330.128C397.051 330.128 404.329 322.846 404.329 313.862C404.329 304.878 397.051 297.595 388.073 297.595C379.096 297.595 371.818 304.878 371.818 313.862C371.818 322.846 379.096 330.128 388.073 330.128Z" fill="#A1C3FC"/>
<path d="M549.18 303.114C565.789 303.114 579.253 289.641 579.253 273.021C579.253 256.401 565.789 242.928 549.18 242.928C532.571 242.928 519.107 256.401 519.107 273.021C519.107 289.641 532.571 303.114 549.18 303.114Z" fill="#EEEEEE"/>
<path d="M549.18 289.287C558.158 289.287 565.436 282.005 565.436 273.021C565.436 264.037 558.158 256.755 549.18 256.755C540.202 256.755 532.924 264.037 532.924 273.021C532.924 282.005 540.202 289.287 549.18 289.287Z" fill="#A1C3FC"/>
<path d="M686.657 408.441C703.266 408.441 716.731 394.967 716.731 378.347C716.731 361.727 703.266 348.254 686.657 348.254C670.048 348.254 656.584 361.727 656.584 378.347C656.584 394.967 670.048 408.441 686.657 408.441Z" fill="#EEEEEE"/>
<path d="M686.658 394.614C695.635 394.614 702.913 387.331 702.913 378.347C702.913 369.364 695.635 362.081 686.658 362.081C677.68 362.081 670.402 369.364 670.402 378.347C670.402 387.331 677.68 394.614 686.658 394.614Z" fill="#A1C3FC"/>
<path d="M491.719 418.113C502.099 418.113 510.514 409.693 510.514 399.305C510.514 388.918 502.099 380.497 491.719 380.497C481.338 380.497 472.923 388.918 472.923 399.305C472.923 409.693 481.338 418.113 491.719 418.113Z" fill="#EEEEEE"/>
<path d="M491.718 409.471C497.329 409.471 501.878 404.92 501.878 399.305C501.878 393.69 497.329 389.139 491.718 389.139C486.108 389.139 481.559 393.69 481.559 399.305C481.559 404.92 486.108 409.471 491.718 409.471Z" fill="#A1C3FC"/>
<path d="M682.898 292.367C693.279 292.367 701.694 283.946 701.694 273.558C701.694 263.171 693.279 254.75 682.898 254.75C672.518 254.75 664.103 263.171 664.103 273.558C664.103 283.946 672.518 292.367 682.898 292.367Z" fill="#EEEEEE"/>
<path d="M682.898 283.725C688.509 283.725 693.058 279.173 693.058 273.558C693.058 267.944 688.509 263.392 682.898 263.392C677.288 263.392 672.739 267.944 672.739 273.558C672.739 279.173 677.288 283.725 682.898 283.725Z" fill="#A1C3FC"/>
<path d="M442.312 249.332C447.923 249.332 452.472 244.781 452.472 239.166C452.472 233.552 447.923 229 442.312 229C436.702 229 432.153 233.552 432.153 239.166C432.153 244.781 436.702 249.332 442.312 249.332Z" fill="#A1C3FC"/>
<path d="M585.697 369.168C591.308 369.168 595.857 364.616 595.857 359.002C595.857 353.387 591.308 348.836 585.697 348.836C580.086 348.836 575.538 353.387 575.538 359.002C575.538 364.616 580.086 369.168 585.697 369.168Z" fill="#A1C3FC"/>
<path d="M399.888 436.878C405.499 436.878 410.047 432.326 410.047 426.711C410.047 421.097 405.499 416.545 399.888 416.545C394.277 416.545 389.728 421.097 389.728 426.711C389.728 432.326 394.277 436.878 399.888 436.878Z" fill="#A1C3FC"/>
<path d="M608.252 452.999C613.863 452.999 618.412 448.447 618.412 442.833C618.412 437.218 613.863 432.667 608.252 432.667C602.641 432.667 598.093 437.218 598.093 442.833C598.093 448.447 602.641 452.999 608.252 452.999Z" fill="#A1C3FC"/>
<path d="M761.841 305.757C767.451 305.757 772 301.206 772 295.591C772 289.976 767.451 285.425 761.841 285.425C756.23 285.425 751.681 289.976 751.681 295.591C751.681 301.206 756.23 305.757 761.841 305.757Z" fill="#A1C3FC"/>
<path d="M546.218 274.053L545.7 271.966L385.672 311.765L386.19 313.851L546.218 274.053Z" fill="#A1C3FC"/>
<path d="M587.769 360.779L555.549 275.87L553.54 276.633L585.76 361.542L587.769 360.779Z" fill="#A1C3FC"/>
<path d="M610.375 444.704L586.742 358.724L584.671 359.294L608.304 445.274L610.375 444.704Z" fill="#A1C3FC"/>
<path d="M491.858 397.943L393.043 317.331L391.686 318.997L490.5 399.609L491.858 397.943Z" fill="#A1C3FC"/>
<path d="M590.399 359.994L589.585 358.004L495.074 396.712L495.888 398.703L590.399 359.994Z" fill="#A1C3FC"/>
<path d="M545.137 264.448L437.737 237.583L437.216 239.668L544.616 266.533L545.137 264.448Z" fill="#A1C3FC"/>
<path d="M685.584 271.946H556.698V274.096H685.584V271.946Z" fill="#A1C3FC"/>
<path d="M685.584 277.32H683.435V389.095H685.584V277.32Z" fill="#A1C3FC"/>
<path d="M760.533 297.353L758.888 295.97L691.202 376.555L692.846 377.938L760.533 297.353Z" fill="#A1C3FC"/>
<path d="M491.483 400.86L490.877 398.799L399.59 425.681L400.196 427.742L491.483 400.86Z" fill="#A1C3FC"/>
<path d="M895.541 681.009L918.407 681.987L913.296 809.336L890.43 808.358L895.541 681.009Z" fill="#1B236D"/>
<path d="M988.683 690.333L1011.55 691.311L1006.44 818.66L983.572 817.682L988.683 690.333Z" fill="#1B236D"/>
<path d="M899.182 610.745L936.111 613.121L937.245 595.011L982.418 597.917L981.283 616.026L1019.64 618.494C1025.88 618.895 1029.97 623.229 1029.65 628.229L1026.06 685.575C1025.85 688.909 1023.03 691.441 1018.87 691.173L973.698 688.268C969.54 688 965.623 685.035 965.832 681.701L967.533 654.537C967.638 652.869 966.751 651.456 964.673 651.322L949.616 650.354C947.536 650.22 945.051 651.418 944.947 653.084L943.246 680.248C943.037 683.582 940.212 686.114 936.054 685.846L890.882 682.94C886.724 682.673 882.807 679.707 883.016 676.373L886.607 619.027C886.92 614.028 892.945 610.344 899.182 610.745Z" fill="#72B5F7"/>
<path d="M998.933 713.235C1013.07 713.909 1026.53 705.467 1028.99 694.379C1031.45 683.292 1021.98 673.758 1007.84 673.084C993.698 672.411 980.242 680.853 977.783 691.94C975.324 703.028 984.793 712.562 998.933 713.235Z" fill="url(#paint3_linear)"/>
<path d="M1003.07 698.345C1007.46 698.553 1011.63 695.935 1012.4 692.497C1013.16 689.059 1010.22 686.102 1005.84 685.893C1001.45 685.684 997.278 688.302 996.515 691.741C995.753 695.179 998.689 698.136 1003.07 698.345Z" fill="#F92424"/>
<path d="M902.11 705.424C916.249 706.098 929.705 697.656 932.164 686.568C934.623 675.481 925.154 665.947 911.015 665.273C896.875 664.6 883.419 673.042 880.96 684.129C878.501 695.217 887.97 704.751 902.11 705.424Z" fill="url(#paint4_linear)"/>
<path d="M906.252 690.534C910.637 690.743 914.81 688.125 915.572 684.686C916.335 681.248 913.398 678.291 909.013 678.082C904.628 677.873 900.455 680.492 899.692 683.93C898.93 687.368 901.866 690.325 906.252 690.534Z" fill="#F92424"/>
<path d="M917.242 838.245L880.364 837.674L880.701 832.044C881.258 822.718 890.16 815.288 900.344 815.445L900.246 815.444C910.43 815.602 918.136 823.289 917.578 832.616L917.242 838.245Z" fill="url(#paint5_linear)"/>
<path d="M1010.38 847.569L973.506 846.998L973.843 841.369C974.4 832.042 983.302 824.612 993.486 824.77L993.388 824.768C1003.57 824.926 1011.28 832.613 1010.72 841.94L1010.38 847.569Z" fill="url(#paint6_linear)"/>
<path d="M930.125 654.174L898.504 650.978L902.938 619.99L934.558 623.186L930.125 654.174Z" fill="#5BABF2"/>
<path d="M908.017 630.116L926.376 629.698L924.864 643.949L906.505 644.367L908.017 630.116Z" fill="white"/>
<path d="M1010.08 658.881L978.458 655.685L982.892 624.697L1014.51 627.893L1010.08 658.881Z" fill="#5BABF2"/>
<path d="M987.971 634.823L1006.33 634.405L1004.82 648.656L986.459 649.074L987.971 634.823Z" fill="white"/>
<path d="M979.313 368.079L975.366 367.802L974.368 381.032L978.316 381.309L979.313 368.079Z" fill="url(#paint7_linear)"/>
<path d="M977.173 370.145C980.444 370.375 983.318 367.599 983.594 363.945C983.869 360.292 981.441 357.144 978.171 356.915C974.901 356.686 972.026 359.462 971.751 363.115C971.475 366.769 973.903 369.916 977.173 370.145Z" fill="url(#paint8_linear)"/>
<path d="M964.999 370.862L973.218 371.764L975.327 365.47L967.108 364.568L964.999 370.862Z" fill="white"/>
<path d="M1106.87 589.523L1185.43 601.336L1179.43 616.47L1100.87 604.658L1106.87 589.523Z" fill="#1B236D"/>
<path d="M811.925 351.379L807.073 409.925L789.448 410.433L794.3 351.887L811.925 351.379Z" fill="#1B236D"/>
<path d="M1033.72 596.959L874.827 600.215L887.686 479.103L1046.58 475.845L1033.72 596.959Z" fill="url(#paint9_linear)"/>
<path d="M1001.49 456.389L907.665 445.985L931.572 373.137L1025.4 383.54L1001.49 456.389Z" fill="url(#paint10_linear)"/>
<path d="M1175.14 621.886C1183.5 622.292 1191.44 617.407 1192.88 610.976C1194.32 604.544 1188.72 599 1180.36 598.594C1172.01 598.188 1164.06 603.072 1162.62 609.504C1161.18 615.936 1166.79 621.479 1175.14 621.886Z" fill="url(#paint11_radial)"/>
<path d="M799.422 358.723C807.778 359.129 815.72 354.244 817.161 347.813C818.602 341.381 812.996 335.837 804.64 335.431C796.284 335.025 788.342 339.909 786.901 346.341C785.46 352.773 791.066 358.316 799.422 358.723Z" fill="url(#paint12_radial)"/>
<path d="M934.139 397.241L951.498 399.166L947.073 412.645L929.716 410.72L934.139 397.241Z" fill="#5BABF2"/>
<path d="M975.034 402.154L992.394 404.079L987.969 417.558L970.611 415.633L975.034 402.154Z" fill="#5BABF2"/>
<path d="M955.539 429.859C964.312 430.82 973.241 426.14 975.481 419.405L943.709 415.922C941.467 422.656 946.765 428.897 955.539 429.859Z" fill="#5BABF2"/>
<path d="M928.338 383.467L936.558 384.368L938.667 378.074L930.447 377.173L928.338 383.467Z" fill="#1B236D"/>
<path d="M1009.82 393.256L1018.04 394.157L1020.15 387.863L1011.93 386.962L1009.82 393.256Z" fill="#1B236D"/>
<path d="M914.287 441.591L922.506 442.493L924.615 436.199L916.396 435.297L914.287 441.591Z" fill="#1B236D"/>
<path d="M995.77 451.38L1003.99 452.282L1006.1 445.988L997.879 445.086L995.77 451.38Z" fill="#1B236D"/>
<path d="M956.693 585.792L967.036 585.579L966.199 593.463L955.857 593.675L956.693 585.792Z" fill="#1B236D"/>
<path d="M881.307 585.62L891.65 585.407L890.813 593.291L880.471 593.503L881.307 585.62Z" fill="#1B236D"/>
<path d="M1018.59 584.792L1028.93 584.58L1028.1 592.464L1017.76 592.676L1018.59 584.792Z" fill="#1B236D"/>
<path d="M932.158 477.971C931.112 477.923 930.375 477.221 930.489 476.341C930.609 475.409 931.635 474.627 932.782 474.596L978.63 473.343C979.776 473.319 980.607 474.042 980.487 474.974C980.367 475.907 979.34 476.688 978.194 476.719L932.346 477.973C932.282 477.976 932.219 477.974 932.158 477.971Z" fill="#1B236D"/>
<path d="M932.211 470.432C931.071 470.375 930.305 469.521 930.496 468.524C930.689 467.524 931.77 466.755 932.914 466.81L978.769 468.964C978.771 468.964 978.773 468.964 978.776 468.964C979.916 469.022 980.682 469.876 980.492 470.873C980.299 471.873 979.217 472.642 978.073 472.587L932.218 470.433C932.216 470.433 932.215 470.433 932.211 470.432Z" fill="#1B236D"/>
<path d="M932.185 465.963C931.051 465.907 930.283 465.062 930.471 464.067C930.662 463.07 931.743 462.302 932.886 462.353L978.742 464.381C979.851 464.479 980.659 465.28 980.468 466.277C980.277 467.273 979.196 468.042 978.053 467.991L932.197 465.964C932.196 465.964 932.19 465.964 932.185 465.963Z" fill="#1B236D"/>
<path d="M977.652 463.479C977.608 463.477 977.564 463.475 977.519 463.47L931.467 458.74C930.349 458.624 929.677 457.768 929.968 456.823C930.257 455.881 931.352 455.193 932.518 455.324L978.57 460.054C979.688 460.17 980.36 461.026 980.069 461.971C979.788 462.875 978.726 463.53 977.652 463.479Z" fill="#1B236D"/>
<path d="M977.567 458.908C977.516 458.906 977.462 458.902 977.412 458.897L932.69 453.898C931.577 453.775 930.922 452.918 931.228 451.983C931.534 451.051 932.682 450.388 933.794 450.519L978.516 455.518C979.629 455.641 980.283 456.498 979.978 457.433C979.686 458.321 978.631 458.958 977.567 458.908Z" fill="#1B236D"/>
<path d="M977.565 454.333C977.516 454.331 977.463 454.327 977.413 454.321L932.653 449.424C931.538 449.303 930.881 448.446 931.182 447.511C931.484 446.576 932.617 445.919 933.744 446.038L978.504 450.935C979.618 451.057 980.276 451.914 979.975 452.849C979.688 453.742 978.627 454.383 977.565 454.333Z" fill="#1B236D"/>
<path d="M1077.41 496.802L1099.79 583.066L1071.78 589.718L1049.41 503.454L1077.41 496.802Z" fill="#1B236D"/>
<path d="M817.676 409.852L867.393 487.781L840.766 499.379L791.051 421.45L817.676 409.852Z" fill="#1B236D"/>
<path d="M1047.36 527.827C1066.56 528.761 1084.81 517.537 1088.12 502.757C1091.43 487.978 1078.55 475.24 1059.35 474.306C1040.15 473.372 1021.9 484.596 1018.59 499.376C1015.28 514.155 1028.16 526.893 1047.36 527.827Z" fill="url(#paint13_radial)"/>
<path d="M867.033 527.409C886.234 528.343 904.483 517.119 907.794 502.339C911.105 487.56 898.223 474.822 879.022 473.888C859.821 472.954 841.571 484.178 838.26 498.958C834.95 513.737 847.831 526.475 867.033 527.409Z" fill="url(#paint14_radial)"/>
<path d="M1204.99 613.052C1204.35 613.023 1203.79 612.738 1203.56 612.257C1203.2 611.519 1203.74 610.596 1204.77 610.196L1229.66 600.485C1230.68 600.085 1231.8 600.358 1232.16 601.099C1232.52 601.837 1231.98 602.76 1230.95 603.16L1206.06 612.87C1205.7 613.011 1205.33 613.068 1204.99 613.052Z" fill="#1B236D"/>
<path d="M1202.6 618.877C1201.74 618.838 1201.07 618.357 1201 617.658C1200.92 616.811 1201.77 615.964 1202.89 615.77L1240.39 609.237C1241.52 609.045 1242.49 609.57 1242.57 610.417C1242.64 611.264 1241.8 612.111 1240.68 612.305L1203.18 618.838C1202.98 618.874 1202.78 618.885 1202.6 618.877Z" fill="#1B236D"/>
<path d="M1233.72 628.451C1233.59 628.445 1233.45 628.427 1233.31 628.398L1201.75 621.349C1200.71 621.118 1200.25 620.238 1200.71 619.386C1201.17 618.533 1202.4 618.034 1203.42 618.262L1234.98 625.311C1236.02 625.542 1236.49 626.422 1236.03 627.274C1235.62 628.015 1234.65 628.493 1233.72 628.451Z" fill="#1B236D"/>
<path d="M1220.94 641.969C1220.49 641.948 1220.08 641.799 1219.79 641.523L1200.05 622.58C1199.44 621.989 1199.64 621.036 1200.5 620.454C1201.36 619.871 1202.56 619.879 1203.17 620.469L1222.91 639.412C1223.53 640.003 1223.33 640.955 1222.47 641.538C1222.01 641.848 1221.45 641.992 1220.94 641.969Z" fill="#1B236D"/>
<path d="M1174.73 646.933C1174.56 646.925 1174.39 646.893 1174.23 646.84C1173.39 646.552 1173.07 645.706 1173.53 644.948L1187.4 621.811C1187.85 621.053 1188.91 620.672 1189.75 620.958C1190.59 621.246 1190.91 622.092 1190.46 622.85L1176.59 645.987C1176.22 646.6 1175.45 646.969 1174.73 646.933Z" fill="#1B236D"/>
<path d="M804.751 336.216C804.362 336.198 803.994 336.078 803.717 335.853C803.051 335.313 803.151 334.373 803.938 333.752L826.323 316.118C827.111 315.499 828.287 315.435 828.952 315.974C829.618 316.514 829.518 317.454 828.731 318.075L806.346 335.708C805.886 336.071 805.295 336.242 804.751 336.216Z" fill="#1B236D"/>
<path d="M798.296 331.875C797.482 331.832 796.882 331.254 796.923 330.51L798.194 307.65C798.238 306.847 799.015 306.154 799.931 306.104C800.836 306.048 801.55 306.664 801.504 307.469L800.234 330.329C800.189 331.133 799.412 331.825 798.497 331.875C798.428 331.878 798.361 331.878 798.296 331.875Z" fill="#1B236D"/>
<path d="M787.031 332.733C786.33 332.698 785.757 332.3 785.634 331.694L781.059 308.883C780.904 308.107 781.555 307.284 782.513 307.046C783.467 306.808 784.374 307.246 784.532 308.022L789.107 330.834C789.262 331.61 788.611 332.433 787.653 332.671C787.442 332.722 787.231 332.743 787.031 332.733Z" fill="#1B236D"/>
<path d="M777.415 334.6C776.899 334.576 776.436 334.379 776.162 334.024L762.448 316.218C761.945 315.566 762.277 314.629 763.187 314.123C764.098 313.619 765.241 313.737 765.746 314.39L779.461 332.196C779.963 332.848 779.63 333.785 778.721 334.291C778.306 334.519 777.844 334.62 777.415 334.6Z" fill="#1B236D"/>
<path d="M779.476 344.229C779.165 344.215 778.864 344.142 778.606 344.002L759.107 333.467C758.283 333.023 758.196 332.081 758.915 331.364C759.632 330.647 760.884 330.425 761.707 330.873L781.206 341.407C782.03 341.852 782.117 342.794 781.398 343.511C780.906 344.002 780.161 344.26 779.476 344.229Z" fill="#1B236D"/>
<path d="M1091.51 612.256C1105.91 612.956 1119.6 604.538 1122.08 593.453C1124.56 582.368 1114.9 572.814 1100.5 572.114C1086.1 571.413 1072.41 579.832 1069.93 590.917C1067.45 602.002 1077.11 611.556 1091.51 612.256Z" fill="url(#paint15_linear)"/>
<path d="M796.495 434.979C810.896 435.679 824.584 427.261 827.067 416.176C829.55 405.091 819.889 395.537 805.488 394.836C791.087 394.136 777.4 402.555 774.917 413.639C772.433 424.724 782.095 434.278 796.495 434.979Z" fill="url(#paint16_linear)"/>
<path d="M1213.66 618.117L1190.4 629.021L1178.48 612.421L1201.74 601.516L1213.66 618.117Z" fill="url(#paint17_linear)"/>
<path d="M807.857 344.572L781.878 348.844L779.031 329.446L805.011 325.174L807.857 344.572Z" fill="url(#paint18_linear)"/>
<path d="M930.334 498.954L949.03 498.57L947.518 512.821L928.821 513.204L930.334 498.954Z" fill="white"/>
<path d="M960.39 499.022L979.086 498.639L977.573 512.89L958.877 513.273L960.39 499.022Z" fill="white"/>
<path d="M990.445 499.091L1009.14 498.708L1007.63 512.958L988.932 513.342L990.445 499.091Z" fill="white"/>
<path d="M1019.95 577.983L987.41 578.685L992.272 530.236L1024.81 529.534L1019.95 577.983Z" fill="#5BABF2"/>
<path d="M801.21 420.636C805.676 420.853 809.921 418.242 810.691 414.805C811.461 411.367 808.465 408.404 803.998 408.187C799.532 407.97 795.287 410.58 794.517 414.018C793.747 417.456 796.743 420.418 801.21 420.636Z" fill="#F92424"/>
<path d="M1095.7 597.37C1100.16 597.587 1104.41 594.977 1105.18 591.539C1105.95 588.102 1102.95 585.139 1098.49 584.922C1094.02 584.704 1089.78 587.315 1089.01 590.753C1088.24 594.19 1091.23 597.153 1095.7 597.37Z" fill="#F92424"/>
<path d="M1055.19 505.445C1059.66 505.662 1063.91 503.052 1064.68 499.614C1065.45 496.177 1062.45 493.214 1057.98 492.997C1053.52 492.779 1049.27 495.39 1048.5 498.827C1047.73 502.265 1050.73 505.228 1055.19 505.445Z" fill="#F92424"/>
<path d="M868.612 505.882C873.079 506.099 877.324 503.488 878.094 500.051C878.864 496.613 875.867 493.65 871.401 493.433C866.935 493.216 862.69 495.826 861.92 499.264C861.15 502.702 864.146 505.664 868.612 505.882Z" fill="#F92424"/>
<path d="M884.787 834.03C884.665 836.078 886.387 837.767 888.633 837.802L908.973 838.117C911.219 838.152 913.14 836.52 913.262 834.471L915.036 804.802C915.158 802.754 913.436 801.065 911.19 801.03L890.85 800.715C888.604 800.68 886.683 802.312 886.56 804.361L884.787 834.03Z" fill="url(#paint19_linear)"/>
<path d="M977.929 843.354C977.807 845.402 979.529 847.091 981.775 847.126L1002.11 847.441C1004.36 847.476 1006.28 845.844 1006.4 843.796L1008.18 814.126C1008.3 812.078 1006.58 810.389 1004.33 810.354L983.992 810.039C981.746 810.004 979.825 811.637 979.702 813.685L977.929 843.354Z" fill="url(#paint20_linear)"/>
</g>
<defs>
<linearGradient id="paint0_linear" x1="284.408" y1="367.535" x2="891.14" y2="367.535" gradientUnits="userSpaceOnUse">
<stop stop-color="#EEEEEE"/>
<stop offset="1" stop-color="#D6D7D8"/>
</linearGradient>
<linearGradient id="paint1_linear" x1="346.262" y1="478.249" x2="192.631" y2="520.498" gradientUnits="userSpaceOnUse">
<stop stop-color="#B9D3FD"/>
<stop offset="1" stop-color="#89B3F4"/>
</linearGradient>
<linearGradient id="paint2_linear" x1="306.065" y1="527.897" x2="145.793" y2="571.972" gradientUnits="userSpaceOnUse">
<stop stop-color="#DEEAFE"/>
<stop offset="1" stop-color="#E9F1FE"/>
</linearGradient>
<linearGradient id="paint3_linear" x1="977.485" y1="693.743" x2="1028.59" y2="699.141" gradientUnits="userSpaceOnUse">
<stop stop-color="#EFEFEF"/>
<stop offset="0.5538" stop-color="#D7D8D9"/>
</linearGradient>
<linearGradient id="paint4_linear" x1="880.662" y1="685.932" x2="931.768" y2="691.33" gradientUnits="userSpaceOnUse">
<stop stop-color="#EFEFEF"/>
<stop offset="0.5538" stop-color="#D7D8D9"/>
</linearGradient>
<linearGradient id="paint5_linear" x1="900.149" y1="815.442" x2="899.8" y2="837.975" gradientUnits="userSpaceOnUse">
<stop stop-color="#2ECAFF"/>
<stop offset="1" stop-color="#1B236D"/>
</linearGradient>
<linearGradient id="paint6_linear" x1="993.291" y1="824.767" x2="992.942" y2="847.299" gradientUnits="userSpaceOnUse">
<stop stop-color="#2ECAFF"/>
<stop offset="1" stop-color="#1B236D"/>
</linearGradient>
<linearGradient id="paint7_linear" x1="976.317" y1="381.501" x2="977.33" y2="367.046" gradientUnits="userSpaceOnUse">
<stop stop-color="#E6E6E6"/>
<stop offset="0.4062" stop-color="#E2E2E2"/>
<stop offset="0.8264" stop-color="#D5D5D5"/>
<stop offset="1" stop-color="#CECECE"/>
</linearGradient>
<linearGradient id="paint8_linear" x1="971.751" y1="363.115" x2="983.589" y2="364.008" gradientUnits="userSpaceOnUse">
<stop stop-color="#FF7E45"/>
<stop offset="0.1983" stop-color="#FE7A4B"/>
<stop offset="0.4578" stop-color="#FC6D5B"/>
<stop offset="0.7499" stop-color="#F85876"/>
<stop offset="1" stop-color="#F44293"/>
</linearGradient>
<linearGradient id="paint9_linear" x1="881.229" y1="539.639" x2="1038.08" y2="556.215" gradientUnits="userSpaceOnUse">
<stop stop-color="#92C4FE"/>
<stop offset="1" stop-color="#5BABF2"/>
</linearGradient>
<linearGradient id="paint10_linear" x1="919.599" y1="409.569" x2="1007.39" y2="438.421" gradientUnits="userSpaceOnUse">
<stop stop-color="#92C4FE"/>
<stop offset="1" stop-color="#5BABF2"/>
</linearGradient>
<radialGradient id="paint11_radial" cx="0" cy="0" r="1" gradientUnits="userSpaceOnUse" gradientTransform="translate(1177.8 610.225) rotate(-1.17744) scale(15.2872 11.6223)">
<stop stop-color="#FF4945"/>
<stop offset="1" stop-color="#F92424"/>
</radialGradient>
<radialGradient id="paint12_radial" cx="0" cy="0" r="1" gradientUnits="userSpaceOnUse" gradientTransform="translate(802.04 347.04) rotate(15.5828) scale(14.3893 12.3856)">
<stop stop-color="#FF4945"/>
<stop offset="1" stop-color="#F92424"/>
</radialGradient>
<radialGradient id="paint13_radial" cx="0" cy="0" r="1" gradientUnits="userSpaceOnUse" gradientTransform="translate(1053.36 501.055) rotate(-1.17743) scale(35.1749 26.7421)">
<stop stop-color="#FF4945"/>
<stop offset="1" stop-color="#F92424"/>
</radialGradient>
<radialGradient id="paint14_radial" cx="0" cy="0" r="1" gradientUnits="userSpaceOnUse" gradientTransform="translate(873.029 500.643) rotate(-1.17743) scale(35.1749 26.7421)">
<stop stop-color="#FF4945"/>
<stop offset="1" stop-color="#F92424"/>
</radialGradient>
<linearGradient id="paint15_linear" x1="1069.63" y1="592.719" x2="1121.68" y2="598.22" gradientUnits="userSpaceOnUse">
<stop stop-color="#EFEFEF"/>
<stop offset="0.5538" stop-color="#D7D8D9"/>
</linearGradient>
<linearGradient id="paint16_linear" x1="777.091" y1="408.266" x2="818.045" y2="432.92" gradientUnits="userSpaceOnUse">
<stop stop-color="#EFEFEF"/>
<stop offset="0.5538" stop-color="#D7D8D9"/>
</linearGradient>
<linearGradient id="paint17_linear" x1="1184.34" y1="620.744" x2="1204.85" y2="605.947" gradientUnits="userSpaceOnUse">
<stop stop-color="#92C4FE"/>
<stop offset="1" stop-color="#5BABF2"/>
</linearGradient>
<linearGradient id="paint18_linear" x1="780.439" y1="339.137" x2="806.508" y2="335.275" gradientUnits="userSpaceOnUse">
<stop stop-color="#92C4FE"/>
<stop offset="1" stop-color="#5BABF2"/>
</linearGradient>
<linearGradient id="paint19_linear" x1="901.029" y1="800.718" x2="900.463" y2="837.238" gradientUnits="userSpaceOnUse">
<stop stop-color="#2ECAFF"/>
<stop offset="1" stop-color="#3B71FF"/>
</linearGradient>
<linearGradient id="paint20_linear" x1="994.171" y1="810.042" x2="993.605" y2="846.563" gradientUnits="userSpaceOnUse">
<stop stop-color="#2ECAFF"/>
<stop offset="1" stop-color="#3B71FF"/>
</linearGradient>
<clipPath id="clip0">
<rect width="1346" height="862" fill="white"/>
</clipPath>
</defs>
</svg>
