<svg width="1179" height="888" viewBox="0 0 1179 888" fill="none" xmlns="http://www.w3.org/2000/svg">
<g clip-path="url(#clip0)">
<path d="M804.212 377.584V320.582H668.304V377.584H654.541V565.43H817.975V377.584H804.212Z" fill="url(#paint0_linear)"/>
<path d="M893.326 363.333L866.489 298.558H862.016L857.799 255.86L853.07 298.558H848.597L821.759 363.333H812.813V602.999H902.272V363.333H893.326Z" fill="url(#paint1_linear)"/>
<path d="M394.767 286.899V254.512H270.901V608.181H454.979V286.899H394.767Z" fill="url(#paint2_linear)"/>
<path d="M150.476 399.607V439.767H110.908V615.954H291.545V327.059L150.476 399.607Z" fill="url(#paint3_linear)"/>
<path d="M682.066 583.567V403.493H654.541V343.901H635.617V305.036H609.811L592.608 201.396L573.684 305.036H549.599V343.901H530.675V403.493H503.149V584.862H479.064V613.363H706.151V583.567H682.066Z" fill="url(#paint4_linear)"/>
<path d="M515.192 333.537H379.283V592.636H515.192V333.537Z" fill="url(#paint5_linear)"/>
<path d="M231.333 412.562H215.85V643.16H231.333V412.562Z" fill="url(#paint6_linear)"/>
<path d="M196.926 412.562H181.442V643.16H196.926V412.562Z" fill="url(#paint7_linear)"/>
<path d="M265.74 412.562H250.257V643.16H265.74V412.562Z" fill="url(#paint8_linear)"/>
<path d="M1034.74 398.284V376.261L974.725 358.178L916.035 376.261V398.284H891.95V656.087H1058.82V398.284H1034.74Z" fill="url(#paint9_linear)"/>
<path d="M1043.34 415.18H909.154V421.658H1043.34V415.18Z" fill="url(#paint10_linear)"/>
<path d="M1043.34 428.135H909.154V434.612H1043.34V428.135Z" fill="url(#paint11_linear)"/>
<path d="M1043.34 441.09H909.154V447.567H1043.34V441.09Z" fill="url(#paint12_linear)"/>
<path d="M1043.34 454.045H909.154V460.522H1043.34V454.045Z" fill="url(#paint13_linear)"/>
<path d="M1043.34 466.999H909.154V473.476H1043.34V466.999Z" fill="url(#paint14_linear)"/>
<path d="M1043.34 479.953H909.154V486.431H1043.34V479.953Z" fill="url(#paint15_linear)"/>
<path d="M1043.34 492.908H909.154V499.386H1043.34V492.908Z" fill="url(#paint16_linear)"/>
<path d="M1043.34 505.863H909.154V512.341H1043.34V505.863Z" fill="url(#paint17_linear)"/>
<path d="M1043.34 518.818H909.154V525.296H1043.34V518.818Z" fill="url(#paint18_linear)"/>
<path d="M1043.34 531.773H909.154V538.251H1043.34V531.773Z" fill="url(#paint19_linear)"/>
<path d="M1043.34 544.728H909.154V551.206H1043.34V544.728Z" fill="url(#paint20_linear)"/>
<path d="M525.606 310.16L334.641 335.607L312.905 242.444L503.87 216.997L525.606 310.16Z" fill="url(#paint21_linear)"/>
<path d="M303.581 272.035L292.387 224.064C283.714 186.9 316.668 151.334 365.845 144.782L387.471 141.899L389.157 149.123L367.531 152.005C323.625 157.855 294.203 189.609 301.943 222.791L313.137 270.763L303.581 272.035Z" fill="#D6D7D8"/>
<path d="M515.642 243.778L504.449 195.806C500.698 179.732 488.889 165.724 471.197 156.363C453.505 147.002 432.043 143.408 410.78 146.242L389.157 149.125L387.471 141.901L409.094 139.019C432.916 135.845 456.948 139.869 476.764 150.355C496.579 160.841 509.805 176.529 514.005 194.533L525.199 242.505L515.642 243.778Z" fill="#D6D7D8"/>
<path d="M533.581 98.2559C533.042 98.2559 532.549 97.9848 532.405 97.5736C532.229 97.0812 532.615 96.5759 533.266 96.4431L657.831 71.0732C658.475 70.9404 659.151 71.2318 659.325 71.7241C659.5 72.2165 659.115 72.7218 658.463 72.8546L533.898 98.2245C533.793 98.2448 533.686 98.2559 533.581 98.2559Z" fill="#1D72D8"/>
<path d="M308.261 161.569L470.743 139.919C462.832 106.012 420.046 83.3718 375.177 89.3505C330.309 95.3274 300.35 127.661 308.261 161.569Z" fill="url(#paint22_linear)"/>
<path d="M456.472 131.469L594.591 113.069L592.623 104.635L454.504 123.035L456.472 131.469Z" fill="#78A9EF"/>
<path d="M607.018 83.1801L593.068 85.0386L602.413 125.102L616.364 123.244L607.018 83.1801Z" fill="#A1C3FC"/>
<path d="M510.059 97.0019C509.481 97.0019 508.966 96.6884 508.861 96.2403C508.744 95.7386 509.188 95.261 509.849 95.1725L681.451 72.3069C682.09 72.2184 682.744 72.5503 682.864 73.0538C682.981 73.5554 682.537 74.033 681.875 74.1216L510.274 96.9871C510.203 96.9982 510.132 97.0019 510.059 97.0019Z" fill="#1D72D8"/>
<path d="M102.137 146.973C101.51 146.973 100.978 146.609 100.924 146.13C100.868 145.623 101.363 145.175 102.034 145.132L230.567 136.776C231.216 136.714 231.831 137.108 231.887 137.616C231.943 138.123 231.448 138.571 230.777 138.613L102.244 146.969C102.208 146.973 102.173 146.973 102.137 146.973Z" fill="#1D72D8"/>
<path d="M316.623 141.432L178.503 159.832L180.471 168.266L318.59 149.866L316.623 141.432Z" fill="#78A9EF"/>
<path d="M164.6 183.421L178.55 181.563L169.205 141.499L155.254 143.358L164.6 183.421Z" fill="#A1C3FC"/>
<path d="M80.6036 154.229C80.0253 154.229 79.5104 153.916 79.4055 153.468C79.2883 152.966 79.7325 152.489 80.3938 152.4L251.995 129.534C252.64 129.44 253.289 129.778 253.408 130.281C253.525 130.783 253.081 131.261 252.42 131.349L80.8184 154.215C80.7476 154.224 80.6744 154.229 80.6036 154.229Z" fill="#1D72D8"/>
<path d="M379.784 147.812L400.287 145.081C405.414 144.396 408.838 140.703 407.935 136.826L405.495 126.363C404.589 122.488 399.702 119.901 394.572 120.583L374.069 123.314C368.942 123.998 365.518 127.692 366.421 131.569L368.861 142.032C369.766 145.907 374.657 148.494 379.784 147.812Z" fill="#A1C3FC"/>
<path d="M384.636 154.093L398.586 152.234L389.241 112.171L375.29 114.029L384.636 154.093Z" fill="#A1C3FC"/>
<path d="M618.079 116.059L597.575 118.79C592.448 119.475 587.558 116.885 586.653 113.011L584.212 102.547C583.307 98.6727 586.733 94.977 591.86 94.2928L612.363 91.5616C617.491 90.8775 622.381 93.4666 623.286 97.3412L625.727 107.805C626.629 111.679 623.206 115.375 618.079 116.059Z" fill="#A1C3FC"/>
<path d="M159.747 177.132L180.251 174.401C185.378 173.717 188.801 170.023 187.898 166.146L185.458 155.683C184.553 151.808 179.665 149.221 174.535 149.903L154.032 152.634C148.905 153.318 145.481 157.012 146.384 160.889L148.824 171.352C149.73 175.227 154.62 177.814 159.747 177.132Z" fill="#A1C3FC"/>
<path d="M408.02 322.259C407.703 322.163 407.34 322.285 407.218 322.528C407.091 322.768 407.252 323.043 407.574 323.135C407.891 323.231 408.255 323.109 408.377 322.866C408.499 322.626 408.345 322.355 408.02 322.259ZM344.36 324.016C344.221 323.773 343.845 323.662 343.523 323.769C343.226 323.858 343.082 324.116 343.199 324.339C343.206 324.357 343.221 324.378 343.233 324.396C343.36 324.634 343.714 324.745 344.029 324.651C344.348 324.54 344.499 324.256 344.36 324.016ZM376.675 324.693C376.641 324.431 376.35 324.23 376.004 324.223C375.647 324.232 375.367 324.459 375.381 324.73C375.394 324.999 375.694 325.211 376.052 325.2C376.401 325.171 376.667 324.957 376.675 324.693ZM401.773 264.946C401.785 264.45 401.268 264.037 400.607 264.019C399.975 263.984 399.426 264.343 399.374 264.819C399.374 264.838 399.372 264.851 399.372 264.867C399.36 265.363 399.877 265.776 400.538 265.795C401.188 265.819 401.744 265.439 401.773 264.946ZM400.739 286.706C400.746 286.204 400.219 285.795 399.557 285.791C398.908 285.783 398.369 286.169 398.347 286.659C398.318 287.15 398.816 287.569 399.467 287.591C400.136 287.589 400.685 287.202 400.739 286.706ZM399.675 308.5C399.701 308.009 399.204 307.596 398.554 307.576C398.54 307.576 398.528 307.576 398.515 307.576C397.883 307.541 397.334 307.9 397.283 308.376C397.283 308.395 397.281 308.407 397.281 308.424C397.278 308.924 397.793 309.342 398.452 309.385C399.106 309.387 399.65 308.996 399.675 308.5ZM457.495 284.839C456.892 284.646 456.199 284.861 455.948 285.319C455.692 285.774 455.977 286.298 456.582 286.488C457.173 286.674 457.854 286.471 458.117 286.031C458.373 285.573 458.098 285.046 457.495 284.839ZM445.503 304.66C444.901 304.47 444.207 304.682 443.956 305.14C443.7 305.595 443.985 306.119 444.591 306.309C445.181 306.495 445.862 306.292 446.126 305.851C446.377 305.398 446.101 304.865 445.503 304.66ZM347.887 281.614C347.643 281.151 346.957 280.92 346.337 281.098C345.729 281.262 345.422 281.769 345.642 282.224C345.642 282.224 345.644 282.232 345.646 282.234C345.829 282.691 346.469 282.949 347.072 282.811C347.101 282.805 347.128 282.796 347.162 282.79C347.769 282.599 348.089 282.092 347.887 281.614ZM357.943 302.054C357.692 301.595 357.016 301.355 356.389 301.507C355.776 301.691 355.471 302.211 355.705 302.676C355.932 303.139 356.618 303.375 357.231 303.2C357.238 303.2 357.245 303.196 357.245 303.196C357.855 303.03 358.163 302.525 357.948 302.071C357.943 302.058 357.943 302.056 357.943 302.054ZM367.982 322.458C367.777 322.008 367.131 321.765 366.535 321.921C366.521 321.925 366.501 321.931 366.484 321.938C365.864 322.093 365.53 322.602 365.735 323.068C365.742 323.083 365.747 323.098 365.754 323.111C365.989 323.577 366.682 323.813 367.297 323.635C367.914 323.456 368.224 322.932 367.99 322.469C367.985 322.465 367.982 322.462 367.982 322.458ZM482.896 294.239C482.391 294.019 481.744 294.149 481.446 294.527C481.151 294.906 481.322 295.399 481.827 295.622C482.332 295.847 482.981 295.716 483.277 295.334C483.56 294.956 483.394 294.468 482.896 294.239ZM376.009 283.985C375.83 283.554 375.245 283.301 374.664 283.41C374.115 283.517 373.783 283.941 373.927 284.356C373.932 284.367 373.934 284.378 373.942 284.389C374.078 284.821 374.657 285.081 375.22 284.974C375.228 284.974 375.233 284.97 375.24 284.968C375.791 284.843 376.128 284.417 376.009 283.985ZM382.6 302.751C382.441 302.329 381.86 302.086 381.306 302.2C380.757 302.307 380.425 302.731 380.569 303.146C380.574 303.157 380.577 303.168 380.584 303.179C380.721 303.611 381.299 303.871 381.865 303.768C381.873 303.768 381.877 303.764 381.885 303.762C382.441 303.627 382.761 303.181 382.6 302.751ZM389.252 321.575C389.115 321.143 388.537 320.883 387.971 320.986L387.951 320.992C387.412 321.082 387.078 321.492 387.197 321.899C387.202 321.923 387.214 321.951 387.227 321.975C387.363 322.406 387.942 322.666 388.508 322.563C388.515 322.563 388.52 322.559 388.527 322.558C389.071 322.425 389.391 321.995 389.252 321.575ZM431.567 291.439C431.625 290.999 431.21 290.602 430.625 290.551C430.046 290.492 429.519 290.794 429.441 291.229C429.373 291.67 429.771 292.076 430.347 292.157C430.94 292.207 431.481 291.889 431.567 291.439ZM428.145 310.729C428.238 310.309 427.865 309.909 427.313 309.839C427.294 309.837 427.272 309.837 427.252 309.831C426.674 309.772 426.147 310.075 426.069 310.51C426 310.951 426.398 311.356 426.974 311.437C427.548 311.482 428.075 311.168 428.145 310.729ZM335.954 309.442C335.624 309.103 334.997 309.029 334.548 309.276C334.531 309.285 334.511 309.296 334.497 309.306C334.023 309.566 333.918 310.065 334.258 310.423C334.265 310.431 334.275 310.44 334.28 310.445C334.655 310.785 335.312 310.842 335.78 310.574C336.239 310.312 336.329 309.816 335.983 309.468C335.978 309.46 335.963 309.453 335.954 309.442ZM351.615 324.896C351.254 324.544 350.586 324.468 350.107 324.734C349.646 325.016 349.57 325.529 349.944 325.877C350.298 326.211 350.937 326.277 351.401 326.032C351.872 325.781 351.986 325.285 351.654 324.931C351.645 324.92 351.628 324.907 351.615 324.896ZM482.491 273.59C482.545 273.079 482.064 272.624 481.388 272.555C480.717 272.493 480.102 272.849 480.014 273.354C479.95 273.867 480.439 274.326 481.117 274.389C481.79 274.451 482.405 274.095 482.491 273.59ZM478.855 295.884C478.943 295.375 478.467 294.912 477.796 294.846C477.125 294.779 476.51 295.139 476.422 295.644C476.334 296.153 476.81 296.616 477.481 296.682C478.154 296.749 478.767 296.389 478.855 295.884ZM361.689 298.191C361.25 297.791 360.474 297.719 359.92 298.03C359.395 298.362 359.327 298.956 359.766 299.353C360.191 299.736 360.94 299.797 361.464 299.497C361.989 299.176 362.089 298.604 361.689 298.191ZM379.986 315.885C379.562 315.491 378.805 315.417 378.259 315.72C377.719 316.035 377.622 316.618 378.039 317.025C378.456 317.433 379.227 317.506 379.767 317.191C380.291 316.872 380.386 316.291 379.986 315.885ZM424.605 286.56C424.392 286.077 423.726 285.796 423.07 285.909C422.425 286.062 422.064 286.576 422.25 287.063C422.413 287.552 423.07 287.849 423.719 287.724C423.719 287.724 423.733 287.72 423.743 287.718C424.405 287.58 424.788 287.063 424.605 286.56C424.605 286.562 424.605 286.56 424.605 286.56ZM432.553 308.219C432.367 307.72 431.681 307.43 431.02 307.567H431.018C430.381 307.701 430.01 308.206 430.193 308.686C430.373 309.176 431.042 309.468 431.689 309.331C432.333 309.208 432.714 308.708 432.553 308.219ZM442.277 278.881C442.106 278.39 441.44 278.097 440.786 278.226C440.132 278.355 439.749 278.859 439.92 279.353C440.088 279.831 440.725 280.126 441.365 280.015C442.033 279.891 442.438 279.384 442.277 278.881ZM449.003 300.671C448.837 300.172 448.166 299.862 447.504 299.985C446.863 300.111 446.462 300.596 446.587 301.086C446.762 301.588 447.421 301.901 448.092 301.805C448.749 301.671 449.144 301.171 449.003 300.671ZM393.632 307.819C393.222 307.408 392.451 307.319 391.9 307.622C391.36 307.919 391.238 308.492 391.631 308.9C391.993 309.317 392.734 309.435 393.283 309.16C393.298 309.152 393.315 309.145 393.325 309.134C393.889 308.846 394.035 308.271 393.652 307.843C393.649 307.836 393.64 307.827 393.632 307.819Z" fill="white"/>
<path d="M314.03 127.51C313.491 127.51 312.998 127.239 312.854 126.827C312.678 126.335 313.064 125.83 313.715 125.697L438.278 100.327C438.924 100.196 439.598 100.487 439.771 100.978C439.947 101.47 439.561 101.976 438.91 102.108L314.347 127.478C314.242 127.5 314.135 127.51 314.03 127.51Z" fill="#1D72D8"/>
<path d="M290.51 126.257C289.932 126.257 289.417 125.944 289.312 125.496C289.195 124.994 289.639 124.517 290.301 124.428L461.902 101.562C462.563 101.472 463.195 101.808 463.315 102.309C463.432 102.811 462.988 103.289 462.327 103.377L290.725 126.243C290.652 126.254 290.581 126.257 290.51 126.257Z" fill="#1D72D8"/>
<path d="M857.351 671.343L837.004 672.163L842.024 790.049L862.371 789.228L857.351 671.343Z" fill="#1B236D"/>
<path d="M774.49 679.628L754.143 680.448L759.163 798.333L779.51 797.513L774.49 679.628Z" fill="#1B236D"/>
<path d="M853.85 606.298L820.993 608.36L819.916 591.595L779.723 594.117L780.8 610.882L746.67 613.024C741.12 613.372 737.499 617.368 737.796 621.997L741.205 675.086C741.403 678.172 743.926 680.526 747.626 680.294L787.819 677.772C791.518 677.54 794.993 674.809 794.795 671.723L793.18 646.576C793.081 645.032 793.865 643.727 795.714 643.611L809.111 642.771C810.962 642.654 813.178 643.772 813.277 645.315L814.891 670.462C815.089 673.548 817.613 675.902 821.312 675.67L861.505 673.148C865.205 672.916 868.68 670.185 868.482 667.099L865.073 614.01C864.776 609.381 859.4 605.95 853.85 606.298Z" fill="#72B5F7"/>
<path d="M765.452 700.787C752.87 701.358 740.864 693.494 738.634 683.223C736.405 672.952 744.797 664.163 757.378 663.592C769.96 663.022 781.967 670.885 784.196 681.156C786.426 691.427 778.034 700.216 765.452 700.787Z" fill="url(#paint23_linear)"/>
<path d="M761.711 686.99C757.809 687.167 754.085 684.728 753.393 681.543C752.702 678.358 755.305 675.632 759.207 675.455C763.109 675.278 766.833 677.717 767.524 680.902C768.216 684.087 765.613 686.813 761.711 686.99Z" fill="#F92424"/>
<path d="M851.595 693.916C839.014 694.487 827.007 686.624 824.777 676.353C822.548 666.082 830.94 657.293 843.521 656.722C856.103 656.151 868.11 664.014 870.339 674.285C872.569 684.556 864.177 693.345 851.595 693.916Z" fill="url(#paint24_linear)"/>
<path d="M847.854 680.119C843.952 680.296 840.228 677.857 839.537 674.672C838.845 671.487 841.448 668.762 845.35 668.585C849.252 668.407 852.976 670.846 853.667 674.031C854.359 677.216 851.756 679.942 847.854 680.119Z" fill="#F92424"/>
<path d="M838.619 816.79L871.438 816.398L871.118 811.187C870.587 802.552 862.637 795.642 853.574 795.751L853.661 795.75C844.598 795.858 837.768 802.945 838.299 811.579L838.619 816.79Z" fill="url(#paint25_linear)"/>
<path d="M755.758 825.075L788.577 824.683L788.257 819.471C787.726 810.837 779.776 803.927 770.713 804.036L770.8 804.035C761.737 804.143 754.907 811.229 755.438 819.864L755.758 825.075Z" fill="url(#paint26_linear)"/>
<path d="M826.472 646.378L854.603 643.537L850.542 614.841L822.412 617.682L826.472 646.378Z" fill="#5BABF2"/>
<path d="M846.059 624.194L829.718 623.739L831.116 636.934L847.458 637.389L846.059 624.194Z" fill="white"/>
<path d="M755.33 650.439L783.461 647.598L779.4 618.901L751.27 621.742L755.33 650.439Z" fill="#5BABF2"/>
<path d="M774.917 628.254L758.576 627.799L759.974 640.995L776.316 641.449L774.917 628.254Z" fill="white"/>
<path d="M781.635 381.405L785.147 381.164L786.084 393.412L782.572 393.654L781.635 381.405Z" fill="url(#paint27_linear)"/>
<path d="M783.547 383.326C780.638 383.526 778.069 380.946 777.81 377.564C777.552 374.181 779.701 371.277 782.611 371.077C785.52 370.877 788.089 373.457 788.348 376.839C788.606 380.222 786.457 383.126 783.547 383.326Z" fill="url(#paint28_linear)"/>
<path d="M794.385 384.035L787.073 384.839L785.173 379.005L792.484 378.202L794.385 384.035Z" fill="white"/>
<path d="M668.933 585.887L599.057 596.53L604.454 610.559L674.329 599.917L668.933 585.887Z" fill="#1B236D"/>
<path d="M1021.43 558.761L968.964 573.132L963.069 558.584L1015.53 544.212L1021.43 558.761Z" fill="#1B236D"/>
<path d="M734.063 593.04L875.487 596.642L863.594 484.501L722.17 480.898L734.063 593.04Z" fill="url(#paint29_linear)"/>
<path d="M762.226 463.057L845.69 453.776L824.143 386.263L740.679 395.545L762.226 463.057Z" fill="url(#paint30_linear)"/>
<path d="M608.285 615.587C600.85 615.932 593.764 611.382 592.457 605.424C591.151 599.465 596.12 594.356 603.555 594.01C610.991 593.665 618.077 598.215 619.383 604.174C620.689 610.132 615.72 615.242 608.285 615.587Z" fill="url(#paint31_radial)"/>
<path d="M1011.16 550.638C1013.4 557.739 1020.1 562.83 1026.15 562.008C1032.19 561.187 1035.28 554.765 1033.05 547.664C1030.82 540.563 1024.11 535.472 1018.07 536.293C1012.02 537.115 1008.93 543.537 1011.16 550.638Z" fill="url(#paint32_radial)"/>
<path d="M821.948 408.563L806.505 410.281L810.493 422.772L825.934 421.054L821.948 408.563Z" fill="#5BABF2"/>
<path d="M785.569 412.959L770.126 414.677L774.114 427.168L789.555 425.45L785.569 412.959Z" fill="#5BABF2"/>
<path d="M803.023 438.673C795.218 439.53 787.254 435.165 785.235 428.923L813.5 425.818C815.52 432.058 810.828 437.815 803.023 438.673Z" fill="#5BABF2"/>
<path d="M827.059 395.836L819.748 396.64L817.847 390.807L825.159 390.003L827.059 395.836Z" fill="#1B236D"/>
<path d="M754.578 404.594L747.266 405.398L745.365 399.565L752.677 398.761L754.578 404.594Z" fill="#1B236D"/>
<path d="M839.78 449.684L832.469 450.488L830.568 444.655L837.88 443.851L839.78 449.684Z" fill="#1B236D"/>
<path d="M767.297 458.443L759.985 459.247L758.085 453.414L765.396 452.61L767.297 458.443Z" fill="#1B236D"/>
<path d="M802.573 582.99L793.367 582.755L794.141 590.055L803.347 590.289L802.573 582.99Z" fill="#1B236D"/>
<path d="M869.665 583.11L860.46 582.874L861.234 590.174L870.439 590.409L869.665 583.11Z" fill="#1B236D"/>
<path d="M747.479 581.835L738.273 581.6L739.047 588.9L748.253 589.135L747.479 581.835Z" fill="#1B236D"/>
<path d="M824.009 483.289C824.941 483.248 825.594 482.602 825.489 481.786C825.379 480.923 824.462 480.196 823.442 480.163L782.633 478.833C781.613 478.806 780.876 479.473 780.986 480.336C781.096 481.199 782.013 481.927 783.033 481.96L823.842 483.29C823.899 483.293 823.955 483.291 824.009 483.289Z" fill="#1B236D"/>
<path d="M823.935 476.311C824.949 476.262 825.628 475.474 825.455 474.551C825.279 473.625 824.313 472.909 823.295 472.955L782.493 474.78C782.491 474.78 782.49 474.78 782.487 474.78C781.472 474.829 780.793 475.616 780.967 476.54C781.142 477.466 782.108 478.182 783.126 478.136L823.929 476.311C823.93 476.311 823.932 476.311 823.935 476.311Z" fill="#1B236D"/>
<path d="M823.942 472.175C824.951 472.126 825.631 471.347 825.46 470.426C825.286 469.503 824.321 468.788 823.304 468.831L782.5 470.538C781.514 470.625 780.798 471.363 780.971 472.287C781.145 473.209 782.11 473.925 783.127 473.882L823.931 472.175C823.932 472.175 823.937 472.175 823.942 472.175Z" fill="#1B236D"/>
<path d="M783.466 469.707C783.506 469.705 783.545 469.704 783.585 469.699L824.554 465.492C825.548 465.389 826.144 464.599 825.881 463.724C825.621 462.851 824.643 462.21 823.606 462.327L782.637 466.534C781.643 466.637 781.047 467.427 781.31 468.302C781.563 469.14 782.51 469.75 783.466 469.707Z" fill="#1B236D"/>
<path d="M783.525 465.477C783.57 465.475 783.618 465.471 783.663 465.467L823.447 461.007C824.438 460.897 825.017 460.106 824.742 459.24C824.466 458.375 823.442 457.758 822.453 457.875L782.669 462.335C781.678 462.445 781.099 463.236 781.374 464.102C781.637 464.925 782.578 465.519 783.525 465.477Z" fill="#1B236D"/>
<path d="M783.51 461.242C783.554 461.24 783.6 461.237 783.645 461.232L823.464 456.866C824.455 456.758 825.037 455.967 824.766 455.101C824.494 454.235 823.483 453.622 822.481 453.728L782.662 458.094C781.671 458.203 781.088 458.993 781.36 459.86C781.618 460.687 782.564 461.284 783.51 461.242Z" fill="#1B236D"/>
<path d="M694.805 500.18L675.209 579.937L700.157 586.197L719.753 506.44L694.805 500.18Z" fill="#1B236D"/>
<path d="M961.569 551.843L895.815 499.075L882.046 521.241L947.8 574.008L961.569 551.843Z" fill="#1B236D"/>
<path d="M721.665 529.005C704.579 529.799 688.295 519.343 685.294 505.652C682.293 491.961 693.71 480.219 710.796 479.426C727.882 478.633 744.165 489.089 747.167 502.779C750.168 516.47 738.75 528.212 721.665 529.005Z" fill="url(#paint33_radial)"/>
<path d="M882.154 529.286C865.069 530.08 848.785 519.624 845.784 505.933C842.782 492.242 854.2 480.5 871.285 479.707C888.371 478.914 904.655 489.37 907.656 503.061C910.657 516.752 899.24 528.493 882.154 529.286Z" fill="url(#paint34_radial)"/>
<path d="M581.69 607.3C582.261 607.276 582.755 607.014 582.96 606.57C583.276 605.888 582.791 605.032 581.878 604.658L559.69 595.578C558.779 595.204 557.78 595.452 557.466 596.137C557.151 596.818 557.635 597.675 558.548 598.049L580.737 607.128C581.055 607.26 581.384 607.314 581.69 607.3Z" fill="#1B236D"/>
<path d="M583.84 612.7C584.606 612.668 585.202 612.225 585.258 611.578C585.324 610.795 584.568 610.008 583.568 609.824L550.169 603.638C549.167 603.457 548.304 603.939 548.238 604.723C548.171 605.507 548.927 606.293 549.928 606.477L583.326 612.663C583.504 612.696 583.676 612.707 583.84 612.7Z" fill="#1B236D"/>
<path d="M556.176 621.446C556.297 621.441 556.42 621.425 556.539 621.399L584.603 614.991C585.527 614.782 585.936 613.969 585.523 613.179C585.108 612.388 584.016 611.921 583.105 612.128L555.041 618.536C554.117 618.745 553.707 619.558 554.121 620.348C554.482 621.036 555.35 621.482 556.176 621.446Z" fill="#1B236D"/>
<path d="M567.601 634.005C568 633.987 568.368 633.851 568.622 633.596L586.12 616.137C586.666 615.592 586.486 614.71 585.717 614.168C584.948 613.625 583.88 613.628 583.336 614.172L565.838 631.631C565.292 632.176 565.473 633.058 566.242 633.6C566.649 633.889 567.146 634.025 567.601 634.005Z" fill="#1B236D"/>
<path d="M608.755 638.77C608.905 638.763 609.054 638.735 609.196 638.686C609.947 638.422 610.225 637.64 609.818 636.938L597.38 615.472C596.971 614.77 596.03 614.413 595.284 614.674C594.533 614.938 594.254 615.72 594.662 616.423L607.099 637.888C607.429 638.457 608.109 638.801 608.755 638.77Z" fill="#1B236D"/>
<path d="M1032.4 548.003C1032.3 547.673 1032.29 547.328 1032.4 547.026C1032.66 546.3 1033.51 546.088 1034.3 546.549L1056.57 559.681C1057.35 560.144 1057.77 561.106 1057.51 561.83C1057.25 562.555 1056.4 562.768 1055.61 562.307L1033.34 549.174C1032.88 548.905 1032.55 548.465 1032.4 548.003Z" fill="#1B236D"/>
<path d="M1034.18 541.248C1033.97 540.556 1034.29 539.873 1034.95 539.673L1055.24 533.543C1055.95 533.328 1056.8 533.758 1057.12 534.506C1057.45 535.244 1057.14 536.034 1056.42 536.249L1036.13 542.379C1035.42 542.595 1034.57 542.164 1034.25 541.416C1034.22 541.359 1034.2 541.304 1034.18 541.248Z" fill="#1B236D"/>
<path d="M1029.95 532.112C1029.76 531.516 1029.93 530.912 1030.42 530.619L1048.86 519.632C1049.49 519.259 1050.41 519.544 1050.91 520.269C1051.42 520.989 1051.32 521.884 1050.69 522.26L1032.25 533.247C1031.62 533.621 1030.7 533.336 1030.2 532.611C1030.09 532.451 1030 532.282 1029.95 532.112Z" fill="#1B236D"/>
<path d="M1025.35 524.683C1025.21 524.245 1025.24 523.796 1025.47 523.456L1036.72 506.409C1037.13 505.784 1038.05 505.766 1038.77 506.367C1039.5 506.968 1039.75 507.959 1039.33 508.586L1028.08 525.633C1027.67 526.258 1026.75 526.275 1026.03 525.676C1025.7 525.401 1025.47 525.047 1025.35 524.683Z" fill="#1B236D"/>
<path d="M1017.61 529.433C1017.52 529.169 1017.5 528.894 1017.54 528.635L1020.67 509.048C1020.81 508.221 1021.6 507.852 1022.45 508.226C1023.29 508.599 1023.87 509.574 1023.74 510.402L1020.6 529.988C1020.47 530.816 1019.68 531.184 1018.83 530.81C1018.25 530.554 1017.79 530.014 1017.61 529.433Z" fill="#1B236D"/>
<path d="M682.686 606.984C669.872 607.579 657.659 599.737 655.408 589.468C653.157 579.199 661.72 570.392 674.534 569.798C687.348 569.203 699.561 577.045 701.812 587.314C704.063 597.582 695.5 606.389 682.686 606.984Z" fill="url(#paint35_linear)"/>
<path d="M936.012 567.658C937.055 554.873 946.389 543.759 956.861 542.835C967.333 541.91 974.977 551.526 973.934 564.311C972.891 577.097 963.557 588.211 953.085 589.135C942.613 590.059 934.969 580.444 936.012 567.658Z" fill="url(#paint36_linear)"/>
<path d="M573.995 611.956L594.736 622.135L605.283 606.814L584.542 596.635L573.995 611.956Z" fill="url(#paint37_linear)"/>
<path d="M1026.09 553.224L1014.34 532.888L1030.34 524.409L1042.09 544.746L1026.09 553.224Z" fill="url(#paint38_linear)"/>
<path d="M825.711 502.716L809.07 502.292L810.469 515.487L827.11 515.911L825.711 502.716Z" fill="white"/>
<path d="M798.962 502.668L782.321 502.244L783.72 515.439L800.361 515.863L798.962 502.668Z" fill="white"/>
<path d="M772.213 502.62L755.572 502.196L756.971 515.391L773.612 515.815L772.213 502.62Z" fill="white"/>
<path d="M746.25 575.529L775.209 576.299L770.702 531.439L741.744 530.669L746.25 575.529Z" fill="#5BABF2"/>
<path d="M949.738 565.138C950.061 561.173 952.956 557.726 956.203 557.439C959.451 557.152 961.821 560.135 961.498 564.1C961.174 568.065 958.28 571.512 955.032 571.799C951.785 572.085 949.414 569.103 949.738 565.138Z" fill="#F92424"/>
<path d="M678.902 593.191C674.928 593.376 671.14 590.944 670.442 587.759C669.744 584.575 672.4 581.844 676.374 581.659C680.348 581.475 684.135 583.907 684.834 587.091C685.532 590.276 682.876 593.007 678.902 593.191Z" fill="#F92424"/>
<path d="M714.61 508.261C710.636 508.446 706.848 506.014 706.15 502.83C705.452 499.645 708.108 496.914 712.082 496.73C716.056 496.545 719.843 498.977 720.542 502.162C721.24 505.346 718.584 508.077 714.61 508.261Z" fill="#F92424"/>
<path d="M880.668 509.356C876.694 509.541 872.907 507.109 872.209 503.925C871.51 500.74 874.166 498.009 878.14 497.825C882.114 497.64 885.902 500.072 886.6 503.256C887.298 506.441 884.642 509.172 880.668 509.356Z" fill="#F92424"/>
<path d="M867.489 813.009C867.605 814.905 866.079 816.462 864.08 816.486L845.979 816.702C843.98 816.726 842.264 815.208 842.148 813.312L840.459 785.845C840.343 783.949 841.869 782.393 843.868 782.369L861.969 782.152C863.969 782.128 865.684 783.646 865.801 785.542L867.489 813.009Z" fill="url(#paint39_linear)"/>
<path d="M784.627 821.294C784.744 823.19 783.217 824.747 781.218 824.771L763.117 824.987C761.118 825.011 759.403 823.493 759.286 821.597L757.598 794.13C757.481 792.234 759.008 790.677 761.007 790.654L779.108 790.437C781.107 790.413 782.823 791.931 782.939 793.827L784.627 821.294Z" fill="url(#paint40_linear)"/>
</g>
<defs>
<linearGradient id="paint0_linear" x1="736.258" y1="565.43" x2="736.258" y2="320.582" gradientUnits="userSpaceOnUse">
<stop stop-color="white" stop-opacity="0"/>
<stop offset="0.3493" stop-color="#FAFAFA" stop-opacity="0.3493"/>
<stop offset="0.7742" stop-color="#EBEBEB" stop-opacity="0.7742"/>
<stop offset="1" stop-color="#E0E0E0"/>
</linearGradient>
<linearGradient id="paint1_linear" x1="857.543" y1="602.999" x2="857.543" y2="255.86" gradientUnits="userSpaceOnUse">
<stop stop-color="white" stop-opacity="0"/>
<stop offset="0.3493" stop-color="#FAFAFA" stop-opacity="0.3493"/>
<stop offset="0.7742" stop-color="#EBEBEB" stop-opacity="0.7742"/>
<stop offset="1" stop-color="#E0E0E0"/>
</linearGradient>
<linearGradient id="paint2_linear" x1="362.94" y1="608.181" x2="362.94" y2="254.512" gradientUnits="userSpaceOnUse">
<stop stop-color="white" stop-opacity="0"/>
<stop offset="1" stop-color="#EEEEEE"/>
</linearGradient>
<linearGradient id="paint3_linear" x1="201.226" y1="615.954" x2="201.226" y2="327.059" gradientUnits="userSpaceOnUse">
<stop stop-color="white" stop-opacity="0"/>
<stop offset="0.3493" stop-color="#FAFAFA" stop-opacity="0.3493"/>
<stop offset="0.7742" stop-color="#EBEBEB" stop-opacity="0.7742"/>
<stop offset="1" stop-color="#E0E0E0"/>
</linearGradient>
<linearGradient id="paint4_linear" x1="592.608" y1="613.363" x2="592.608" y2="201.396" gradientUnits="userSpaceOnUse">
<stop stop-color="white" stop-opacity="0"/>
<stop offset="1" stop-color="#EEEEEE"/>
</linearGradient>
<linearGradient id="paint5_linear" x1="447.238" y1="592.636" x2="447.238" y2="333.537" gradientUnits="userSpaceOnUse">
<stop stop-color="white" stop-opacity="0"/>
<stop offset="1" stop-color="#E0E0E0"/>
</linearGradient>
<linearGradient id="paint6_linear" x1="223.591" y1="643.16" x2="223.591" y2="412.562" gradientUnits="userSpaceOnUse">
<stop stop-color="white" stop-opacity="0"/>
<stop offset="1" stop-color="#FAFAFA"/>
</linearGradient>
<linearGradient id="paint7_linear" x1="189.184" y1="643.16" x2="189.184" y2="412.562" gradientUnits="userSpaceOnUse">
<stop stop-color="white" stop-opacity="0"/>
<stop offset="1" stop-color="#FAFAFA"/>
</linearGradient>
<linearGradient id="paint8_linear" x1="257.998" y1="643.16" x2="257.998" y2="412.562" gradientUnits="userSpaceOnUse">
<stop stop-color="white" stop-opacity="0"/>
<stop offset="1" stop-color="#FAFAFA"/>
</linearGradient>
<linearGradient id="paint9_linear" x1="975.388" y1="656.087" x2="975.388" y2="358.178" gradientUnits="userSpaceOnUse">
<stop stop-color="white" stop-opacity="0"/>
<stop offset="1" stop-color="#EEEEEE"/>
</linearGradient>
<linearGradient id="paint10_linear" x1="976.247" y1="550.775" x2="976.247" y2="416.907" gradientUnits="userSpaceOnUse">
<stop stop-color="white" stop-opacity="0"/>
<stop offset="1" stop-color="white"/>
</linearGradient>
<linearGradient id="paint11_linear" x1="976.247" y1="550.775" x2="976.247" y2="416.907" gradientUnits="userSpaceOnUse">
<stop stop-color="white" stop-opacity="0"/>
<stop offset="1" stop-color="white"/>
</linearGradient>
<linearGradient id="paint12_linear" x1="976.247" y1="550.775" x2="976.247" y2="416.907" gradientUnits="userSpaceOnUse">
<stop stop-color="white" stop-opacity="0"/>
<stop offset="1" stop-color="white"/>
</linearGradient>
<linearGradient id="paint13_linear" x1="976.247" y1="550.774" x2="976.247" y2="416.907" gradientUnits="userSpaceOnUse">
<stop stop-color="white" stop-opacity="0"/>
<stop offset="1" stop-color="white"/>
</linearGradient>
<linearGradient id="paint14_linear" x1="976.247" y1="550.774" x2="976.247" y2="416.907" gradientUnits="userSpaceOnUse">
<stop stop-color="white" stop-opacity="0"/>
<stop offset="1" stop-color="white"/>
</linearGradient>
<linearGradient id="paint15_linear" x1="976.247" y1="550.775" x2="976.247" y2="416.906" gradientUnits="userSpaceOnUse">
<stop stop-color="white" stop-opacity="0"/>
<stop offset="1" stop-color="white"/>
</linearGradient>
<linearGradient id="paint16_linear" x1="976.247" y1="550.775" x2="976.247" y2="416.907" gradientUnits="userSpaceOnUse">
<stop stop-color="white" stop-opacity="0"/>
<stop offset="1" stop-color="white"/>
</linearGradient>
<linearGradient id="paint17_linear" x1="976.247" y1="550.774" x2="976.247" y2="416.908" gradientUnits="userSpaceOnUse">
<stop stop-color="white" stop-opacity="0"/>
<stop offset="1" stop-color="white"/>
</linearGradient>
<linearGradient id="paint18_linear" x1="976.247" y1="550.775" x2="976.247" y2="416.906" gradientUnits="userSpaceOnUse">
<stop stop-color="white" stop-opacity="0"/>
<stop offset="1" stop-color="white"/>
</linearGradient>
<linearGradient id="paint19_linear" x1="976.247" y1="550.775" x2="976.247" y2="416.906" gradientUnits="userSpaceOnUse">
<stop stop-color="white" stop-opacity="0"/>
<stop offset="1" stop-color="white"/>
</linearGradient>
<linearGradient id="paint20_linear" x1="976.247" y1="550.775" x2="976.247" y2="416.907" gradientUnits="userSpaceOnUse">
<stop stop-color="white" stop-opacity="0"/>
<stop offset="1" stop-color="white"/>
</linearGradient>
<linearGradient id="paint21_linear" x1="383.275" y1="257.145" x2="445.586" y2="315.237" gradientUnits="userSpaceOnUse">
<stop stop-color="#E94A47"/>
<stop offset="1" stop-color="#D62929"/>
</linearGradient>
<linearGradient id="paint22_linear" x1="292.004" y1="124.98" x2="503.887" y2="124.98" gradientUnits="userSpaceOnUse">
<stop stop-color="#23286B"/>
<stop offset="1" stop-color="#151A4F"/>
</linearGradient>
<linearGradient id="paint23_linear" x1="784.468" y1="682.826" x2="739.003" y2="687.623" gradientUnits="userSpaceOnUse">
<stop stop-color="#EFEFEF"/>
<stop offset="0.5538" stop-color="#D7D8D9"/>
</linearGradient>
<linearGradient id="paint24_linear" x1="870.612" y1="675.955" x2="825.147" y2="680.753" gradientUnits="userSpaceOnUse">
<stop stop-color="#EFEFEF"/>
<stop offset="0.5538" stop-color="#D7D8D9"/>
</linearGradient>
<linearGradient id="paint25_linear" x1="853.748" y1="795.749" x2="853.997" y2="816.606" gradientUnits="userSpaceOnUse">
<stop stop-color="#2ECAFF"/>
<stop offset="1" stop-color="#1B236D"/>
</linearGradient>
<linearGradient id="paint26_linear" x1="770.886" y1="804.033" x2="771.136" y2="824.891" gradientUnits="userSpaceOnUse">
<stop stop-color="#2ECAFF"/>
<stop offset="1" stop-color="#1B236D"/>
</linearGradient>
<linearGradient id="paint27_linear" x1="784.351" y1="393.839" x2="783.431" y2="380.455" gradientUnits="userSpaceOnUse">
<stop stop-color="#E6E6E6"/>
<stop offset="0.4062" stop-color="#E2E2E2"/>
<stop offset="0.8264" stop-color="#D5D5D5"/>
<stop offset="1" stop-color="#CECECE"/>
</linearGradient>
<linearGradient id="paint28_linear" x1="788.348" y1="376.839" x2="777.817" y2="377.645" gradientUnits="userSpaceOnUse">
<stop stop-color="#FF7E45"/>
<stop offset="0.1983" stop-color="#FE7A4B"/>
<stop offset="0.4578" stop-color="#FC6D5B"/>
<stop offset="0.7499" stop-color="#F85876"/>
<stop offset="1" stop-color="#F44293"/>
</linearGradient>
<linearGradient id="paint29_linear" x1="869.565" y1="540.554" x2="730.023" y2="555.285" gradientUnits="userSpaceOnUse">
<stop stop-color="#92C4FE"/>
<stop offset="1" stop-color="#5BABF2"/>
</linearGradient>
<linearGradient id="paint30_linear" x1="834.934" y1="420.028" x2="756.487" y2="445.099" gradientUnits="userSpaceOnUse">
<stop stop-color="#92C4FE"/>
<stop offset="1" stop-color="#5BABF2"/>
</linearGradient>
<radialGradient id="paint31_radial" cx="0" cy="0" r="1" gradientUnits="userSpaceOnUse" gradientTransform="translate(605.881 604.784) rotate(-178.537) scale(13.6083 10.7545)">
<stop stop-color="#FF4945"/>
<stop offset="1" stop-color="#F92424"/>
</radialGradient>
<radialGradient id="paint32_radial" cx="0" cy="0" r="1" gradientUnits="userSpaceOnUse" gradientTransform="translate(1022.14 549.146) rotate(85.8675) scale(12.8161 11.4545)">
<stop stop-color="#FF4945"/>
<stop offset="1" stop-color="#F92424"/>
</radialGradient>
<radialGradient id="paint33_radial" cx="0" cy="0" r="1" gradientUnits="userSpaceOnUse" gradientTransform="translate(716.229 504.205) rotate(-178.537) scale(31.3118 24.7453)">
<stop stop-color="#FF4945"/>
<stop offset="1" stop-color="#F92424"/>
</radialGradient>
<radialGradient id="paint34_radial" cx="0" cy="0" r="1" gradientUnits="userSpaceOnUse" gradientTransform="translate(876.718 504.491) rotate(-178.537) scale(31.3119 24.7453)">
<stop stop-color="#FF4945"/>
<stop offset="1" stop-color="#F92424"/>
</radialGradient>
<linearGradient id="paint35_linear" x1="702.086" y1="588.983" x2="655.776" y2="593.872" gradientUnits="userSpaceOnUse">
<stop stop-color="#EFEFEF"/>
<stop offset="0.5538" stop-color="#D7D8D9"/>
</linearGradient>
<linearGradient id="paint36_linear" x1="958.275" y1="587.83" x2="941.641" y2="548.369" gradientUnits="userSpaceOnUse">
<stop stop-color="#EFEFEF"/>
<stop offset="0.5538" stop-color="#D7D8D9"/>
</linearGradient>
<linearGradient id="paint37_linear" x1="600.094" y1="614.496" x2="581.268" y2="601.473" gradientUnits="userSpaceOnUse">
<stop stop-color="#92C4FE"/>
<stop offset="1" stop-color="#5BABF2"/>
</linearGradient>
<linearGradient id="paint38_linear" x1="1022.34" y1="528.634" x2="1033.37" y2="549.384" gradientUnits="userSpaceOnUse">
<stop stop-color="#92C4FE"/>
<stop offset="1" stop-color="#5BABF2"/>
</linearGradient>
<linearGradient id="paint39_linear" x1="852.911" y1="782.117" x2="853.315" y2="815.923" gradientUnits="userSpaceOnUse">
<stop stop-color="#2ECAFF"/>
<stop offset="1" stop-color="#3B71FF"/>
</linearGradient>
<linearGradient id="paint40_linear" x1="770.049" y1="790.402" x2="770.453" y2="824.208" gradientUnits="userSpaceOnUse">
<stop stop-color="#2ECAFF"/>
<stop offset="1" stop-color="#3B71FF"/>
</linearGradient>
<clipPath id="clip0">
<rect width="1179" height="888" fill="white"/>
</clipPath>
</defs>
</svg>
