<svg width="1299" height="790" viewBox="0 0 1299 790" fill="none" xmlns="http://www.w3.org/2000/svg">
<path d="M939 442V711.071L996.237 784.421L1000.59 790H1226.44L1231 442H939Z" fill="#E6E6E6"/>
<path opacity="0.1" d="M939 442V711.527L996.473 785L1000 442H939Z" fill="black"/>
<path d="M1299 423.001V444L510 438V423.001L449 353H1229.48L1299 423.001Z" fill="#E6E6E6"/>
<path opacity="0.1" d="M1299 429.078V445H509V422L1299 429.078Z" fill="black"/>
<path d="M1085.18 517H1140.11L1163 505H1060L1085.18 517Z" fill="#001C55"/>
<path d="M1085.18 569H1140.11L1163 557H1060L1085.18 569Z" fill="#001C55"/>
<path d="M1085.18 643H1140.11L1163 630H1060L1085.18 643Z" fill="#001C55"/>
<path d="M1085.18 717H1140.11L1163 704H1060L1085.18 717Z" fill="#001C55"/>
<path d="M1122.56 1.37901e-07H661.439C659.149 -0.000272722 656.881 0.425042 654.765 1.25168C652.649 2.07831 650.727 3.29007 649.107 4.81772C647.488 6.34537 646.203 8.15901 645.327 10.155C644.451 12.1511 644 14.2904 644 16.4508V309.472C644 311.632 644.451 313.772 645.327 315.768C646.203 317.764 647.488 319.577 649.107 321.105C650.727 322.633 652.649 323.844 654.765 324.671C656.881 325.498 659.149 325.923 661.439 325.923H836.485L829.927 365.42C829.927 365.42 792.449 384.202 818.801 384.754C845.152 385.307 969.299 384.754 969.299 384.754C969.299 384.754 993.308 384.754 955.244 364.868L949.076 325.923H1122.56C1124.85 325.923 1127.12 325.498 1129.23 324.671C1131.35 323.844 1133.27 322.633 1134.89 321.105C1136.51 319.577 1137.8 317.764 1138.67 315.768C1139.55 313.772 1140 311.632 1140 309.472V16.4508C1140 14.2904 1139.55 12.1511 1138.67 10.155C1137.8 8.15901 1136.51 6.34538 1134.89 4.81772C1133.27 3.29006 1131.35 2.07831 1129.23 1.25168C1127.12 0.425044 1124.85 -0.000279603 1122.56 1.37901e-07V1.37901e-07Z" fill="#001C55"/>
<path d="M1123 18H662V262H1123V18Z" fill="#F2F2F2"/>
<path d="M892 314C898.075 314 903 309.299 903 303.5C903 297.701 898.075 293 892 293C885.925 293 881 297.701 881 303.5C881 309.299 885.925 314 892 314Z" fill="#F2F2F2"/>
<path d="M908 417.695V424H594V418.956L594.432 417.695L602.17 395H901.58L908 417.695Z" fill="#001C55"/>
<path d="M1143.9 406.595C1143.33 408.493 1141.15 410.495 1136.23 412.388C1118.57 419.182 1082.66 410.576 1082.66 410.576C1082.66 410.576 1055 406.953 1055 397.442C1055.78 397.032 1056.59 396.662 1057.43 396.332C1064.85 393.31 1089.46 385.852 1133.11 396.648C1136.32 397.424 1139.2 398.873 1141.41 400.831C1142.38 401.572 1143.12 402.48 1143.55 403.482C1143.99 404.484 1144.11 405.551 1143.9 406.595Z" fill="#001C55"/>
<path opacity="0.1" d="M1143.9 406.481C1122.43 412.808 1103.3 413.28 1083.66 402.79C1076.23 398.568 1067.24 396.291 1058 396.293C1065.37 393.293 1089.83 385.89 1133.18 396.607C1136.38 397.378 1139.23 398.815 1141.42 400.76C1142.4 401.495 1143.13 402.397 1143.56 403.391C1143.99 404.386 1144.11 405.445 1143.9 406.481Z" fill="black"/>
<path d="M892 12C893.657 12 895 10.6568 895 8.99999C895 7.34314 893.657 6 892 6C890.343 6 889 7.34314 889 8.99999C889 10.6568 890.343 12 892 12Z" fill="#F2F2F2"/>
<path d="M1116.5 403C1120.64 403 1124 402.105 1124 401C1124 399.895 1120.64 399 1116.5 399C1112.36 399 1109 399.895 1109 401C1109 402.105 1112.36 403 1116.5 403Z" fill="#F2F2F2"/>
<path opacity="0.1" d="M908 424V429H594V425L594.432 424H908Z" fill="black"/>
<path d="M449 442V711.073L506.041 784.422L510.382 790H735.452L740 442H449Z" fill="#E6E6E6"/>
<path opacity="0.1" d="M449 350V713L509 781.5V421.5L449 350Z" fill="black"/>
<path d="M594.177 517H649.111L672 504H569L594.177 517Z" fill="#001C55"/>
<path d="M594.177 569H649.111L672 557H569L594.177 569Z" fill="#001C55"/>
<path d="M594.177 643H649.111L672 630H569L594.177 643Z" fill="#001C55"/>
<path d="M594.177 716H649.111L672 704H569L594.177 716Z" fill="#001C55"/>
<path d="M703.989 116H701.938V111.734H697.939V116H695.889V106.047H697.939V110.08H701.938V106.047H703.989V116ZM707.742 116H705.76V108.604H707.742V116ZM705.644 106.689C705.644 106.393 705.742 106.149 705.938 105.958C706.138 105.767 706.409 105.671 706.751 105.671C707.088 105.671 707.357 105.767 707.558 105.958C707.758 106.149 707.858 106.393 707.858 106.689C707.858 106.99 707.756 107.236 707.551 107.428C707.35 107.619 707.084 107.715 706.751 107.715C706.418 107.715 706.149 107.619 705.944 107.428C705.744 107.236 705.644 106.99 705.644 106.689ZM709.889 118.495L708.856 117.955L709.103 117.511C709.408 116.955 709.565 116.401 709.574 115.85V114.318H711.242L711.235 115.686C711.231 116.191 711.103 116.702 710.853 117.217C710.602 117.732 710.281 118.158 709.889 118.495ZM718.591 116H716.54V106.047H718.591V116ZM728.141 116C728.049 115.822 727.983 115.601 727.942 115.337C727.464 115.87 726.842 116.137 726.076 116.137C725.352 116.137 724.75 115.927 724.271 115.508C723.798 115.089 723.561 114.56 723.561 113.922C723.561 113.138 723.85 112.536 724.429 112.117C725.012 111.698 725.853 111.486 726.951 111.481H727.86V111.058C727.86 110.716 727.771 110.442 727.594 110.237C727.421 110.032 727.145 109.93 726.767 109.93C726.434 109.93 726.172 110.009 725.98 110.169C725.794 110.328 725.7 110.547 725.7 110.825H723.725C723.725 110.397 723.857 110 724.121 109.636C724.385 109.271 724.759 108.986 725.242 108.781C725.725 108.572 726.268 108.467 726.869 108.467C727.781 108.467 728.503 108.697 729.036 109.157C729.574 109.613 729.843 110.256 729.843 111.085V114.291C729.847 114.993 729.945 115.524 730.137 115.884V116H728.141ZM726.507 114.626C726.799 114.626 727.067 114.562 727.313 114.435C727.56 114.302 727.742 114.127 727.86 113.908V112.637H727.122C726.133 112.637 725.607 112.979 725.543 113.662L725.536 113.778C725.536 114.024 725.623 114.227 725.796 114.387C725.969 114.546 726.206 114.626 726.507 114.626ZM733.213 108.604L733.274 109.431C733.799 108.788 734.507 108.467 735.4 108.467C736.353 108.467 737.007 108.843 737.362 109.595C737.882 108.843 738.622 108.467 739.584 108.467C740.386 108.467 740.983 108.701 741.375 109.171C741.767 109.636 741.963 110.338 741.963 111.276V116H739.98V111.283C739.98 110.864 739.898 110.559 739.734 110.367C739.57 110.171 739.281 110.073 738.866 110.073C738.274 110.073 737.864 110.356 737.636 110.921L737.643 116H735.667V111.29C735.667 110.862 735.583 110.552 735.414 110.36C735.245 110.169 734.958 110.073 734.553 110.073C733.992 110.073 733.587 110.306 733.336 110.771V116H731.36V108.604H733.213ZM755.204 116H753.153V111.734H749.154V116H747.104V106.047H749.154V110.08H753.153V106.047H755.204V116ZM764.877 114.742C764.508 115.184 763.986 115.528 763.312 115.774C762.637 116.016 761.89 116.137 761.069 116.137C760.208 116.137 759.451 115.95 758.8 115.576C758.153 115.198 757.651 114.651 757.296 113.936C756.945 113.22 756.765 112.379 756.756 111.413V110.736C756.756 109.743 756.922 108.884 757.255 108.159C757.592 107.43 758.075 106.874 758.704 106.491C759.338 106.104 760.078 105.91 760.926 105.91C762.106 105.91 763.029 106.193 763.694 106.758C764.36 107.318 764.754 108.136 764.877 109.212H762.881C762.79 108.642 762.587 108.225 762.272 107.961C761.963 107.697 761.534 107.564 760.987 107.564C760.29 107.564 759.759 107.826 759.395 108.351C759.03 108.875 758.845 109.654 758.841 110.688V111.324C758.841 112.368 759.039 113.156 759.436 113.689C759.832 114.223 760.413 114.489 761.179 114.489C761.949 114.489 762.498 114.325 762.826 113.997V112.281H760.96V110.771H764.877V114.742ZM773.716 112.356H772.082V116H770.031V106.047H773.729C774.905 106.047 775.812 106.309 776.45 106.833C777.088 107.357 777.407 108.098 777.407 109.055C777.407 109.734 777.259 110.301 776.963 110.757C776.671 111.208 776.227 111.568 775.63 111.837L777.783 115.904V116H775.582L773.716 112.356ZM772.082 110.695H773.736C774.251 110.695 774.65 110.565 774.933 110.306C775.215 110.041 775.356 109.679 775.356 109.219C775.356 108.749 775.222 108.38 774.953 108.111C774.689 107.842 774.281 107.708 773.729 107.708H772.082V110.695ZM778.535 112.233C778.535 111.5 778.676 110.846 778.959 110.271C779.242 109.697 779.647 109.253 780.176 108.938C780.709 108.624 781.326 108.467 782.028 108.467C783.026 108.467 783.84 108.772 784.469 109.383C785.102 109.993 785.455 110.823 785.528 111.871L785.542 112.377C785.542 113.512 785.225 114.423 784.592 115.111C783.958 115.795 783.108 116.137 782.042 116.137C780.976 116.137 780.123 115.795 779.485 115.111C778.852 114.428 778.535 113.498 778.535 112.322V112.233ZM780.511 112.377C780.511 113.079 780.643 113.617 780.907 113.99C781.172 114.359 781.55 114.544 782.042 114.544C782.521 114.544 782.894 114.362 783.163 113.997C783.432 113.628 783.566 113.04 783.566 112.233C783.566 111.545 783.432 111.012 783.163 110.634C782.894 110.256 782.516 110.066 782.028 110.066C781.545 110.066 781.172 110.256 780.907 110.634C780.643 111.007 780.511 111.589 780.511 112.377ZM793.424 112.37C793.424 113.555 793.171 114.48 792.665 115.146C792.159 115.806 791.453 116.137 790.546 116.137C789.744 116.137 789.104 115.829 788.625 115.214L788.536 116H786.759V105.5H788.734V109.267C789.19 108.733 789.789 108.467 790.532 108.467C791.435 108.467 792.141 108.799 792.651 109.465C793.166 110.126 793.424 111.058 793.424 112.261V112.37ZM791.448 112.227C791.448 111.479 791.33 110.935 791.093 110.593C790.856 110.246 790.503 110.073 790.033 110.073C789.404 110.073 788.971 110.331 788.734 110.846V113.765C788.976 114.284 789.413 114.544 790.047 114.544C790.685 114.544 791.104 114.229 791.305 113.601C791.4 113.3 791.448 112.842 791.448 112.227ZM794.34 112.233C794.34 111.5 794.481 110.846 794.764 110.271C795.046 109.697 795.452 109.253 795.98 108.938C796.514 108.624 797.131 108.467 797.833 108.467C798.831 108.467 799.645 108.772 800.273 109.383C800.907 109.993 801.26 110.823 801.333 111.871L801.347 112.377C801.347 113.512 801.03 114.423 800.396 115.111C799.763 115.795 798.913 116.137 797.847 116.137C796.78 116.137 795.928 115.795 795.29 115.111C794.657 114.428 794.34 113.498 794.34 112.322V112.233ZM796.315 112.377C796.315 113.079 796.448 113.617 796.712 113.99C796.976 114.359 797.354 114.544 797.847 114.544C798.325 114.544 798.699 114.362 798.968 113.997C799.237 113.628 799.371 113.04 799.371 112.233C799.371 111.545 799.237 111.012 798.968 110.634C798.699 110.256 798.321 110.066 797.833 110.066C797.35 110.066 796.976 110.256 796.712 110.634C796.448 111.007 796.315 111.589 796.315 112.377ZM804.929 106.785V108.604H806.193V110.053H804.929V113.744C804.929 114.018 804.981 114.214 805.086 114.332C805.191 114.451 805.391 114.51 805.688 114.51C805.906 114.51 806.1 114.494 806.269 114.462V115.959C805.881 116.077 805.482 116.137 805.072 116.137C803.687 116.137 802.98 115.437 802.953 114.038V110.053H801.873V108.604H802.953V106.785H804.929Z" fill="black"/>
<path d="M696.989 142H694.938V137.734H690.939V142H688.889V132.047H690.939V136.08H694.938V132.047H696.989V142ZM698.35 138.233C698.35 137.5 698.491 136.846 698.773 136.271C699.056 135.697 699.462 135.253 699.99 134.938C700.523 134.624 701.141 134.467 701.843 134.467C702.841 134.467 703.654 134.772 704.283 135.383C704.917 135.993 705.27 136.823 705.343 137.871L705.356 138.377C705.356 139.512 705.04 140.423 704.406 141.111C703.773 141.795 702.923 142.137 701.856 142.137C700.79 142.137 699.938 141.795 699.3 141.111C698.666 140.428 698.35 139.498 698.35 138.322V138.233ZM700.325 138.377C700.325 139.079 700.457 139.617 700.722 139.99C700.986 140.359 701.364 140.544 701.856 140.544C702.335 140.544 702.709 140.362 702.978 139.997C703.246 139.628 703.381 139.04 703.381 138.233C703.381 137.545 703.246 137.012 702.978 136.634C702.709 136.256 702.33 136.066 701.843 136.066C701.36 136.066 700.986 136.256 700.722 136.634C700.457 137.007 700.325 137.589 700.325 138.377ZM713.006 139.313L713.977 134.604H715.884L713.997 142H712.343L710.941 137.345L709.54 142H707.893L706.006 134.604H707.913L708.877 139.307L710.23 134.604H711.659L713.006 139.313ZM723.431 140.544C723.795 140.544 724.091 140.444 724.319 140.243C724.547 140.043 724.666 139.776 724.675 139.443H726.527C726.523 139.945 726.386 140.405 726.117 140.824C725.848 141.239 725.479 141.562 725.01 141.795C724.545 142.023 724.03 142.137 723.465 142.137C722.408 142.137 721.574 141.802 720.963 141.132C720.352 140.457 720.047 139.528 720.047 138.343V138.213C720.047 137.074 720.35 136.164 720.956 135.485C721.562 134.806 722.394 134.467 723.451 134.467C724.376 134.467 725.117 134.731 725.673 135.26C726.233 135.784 726.518 136.483 726.527 137.358H724.675C724.666 136.976 724.547 136.666 724.319 136.429C724.091 136.187 723.791 136.066 723.417 136.066C722.957 136.066 722.608 136.235 722.371 136.572C722.139 136.905 722.022 137.447 722.022 138.199V138.404C722.022 139.165 722.139 139.712 722.371 140.045C722.604 140.378 722.957 140.544 723.431 140.544ZM731.941 142C731.85 141.822 731.784 141.601 731.743 141.337C731.265 141.87 730.643 142.137 729.877 142.137C729.152 142.137 728.551 141.927 728.072 141.508C727.598 141.089 727.361 140.56 727.361 139.922C727.361 139.138 727.651 138.536 728.229 138.117C728.813 137.698 729.654 137.486 730.752 137.481H731.661V137.058C731.661 136.716 731.572 136.442 731.395 136.237C731.221 136.032 730.946 135.93 730.567 135.93C730.235 135.93 729.973 136.009 729.781 136.169C729.594 136.328 729.501 136.547 729.501 136.825H727.525C727.525 136.397 727.658 136 727.922 135.636C728.186 135.271 728.56 134.986 729.043 134.781C729.526 134.572 730.068 134.467 730.67 134.467C731.581 134.467 732.304 134.697 732.837 135.157C733.375 135.613 733.644 136.256 733.644 137.085V140.291C733.648 140.993 733.746 141.524 733.938 141.884V142H731.941ZM730.308 140.626C730.599 140.626 730.868 140.562 731.114 140.435C731.36 140.302 731.543 140.127 731.661 139.908V138.637H730.923C729.934 138.637 729.408 138.979 729.344 139.662L729.337 139.778C729.337 140.024 729.424 140.227 729.597 140.387C729.77 140.546 730.007 140.626 730.308 140.626ZM736.979 134.604L737.041 135.458C737.57 134.797 738.278 134.467 739.167 134.467C739.951 134.467 740.534 134.697 740.917 135.157C741.3 135.618 741.496 136.306 741.505 137.222V142H739.529V137.27C739.529 136.85 739.438 136.547 739.256 136.36C739.074 136.169 738.771 136.073 738.347 136.073C737.791 136.073 737.374 136.31 737.096 136.784V142H735.12V134.604H736.979ZM748.806 142H746.755V132.047H748.806V142ZM755.997 135.41C756.521 134.781 757.18 134.467 757.973 134.467C759.577 134.467 760.39 135.399 760.413 137.263V142H758.438V137.317C758.438 136.894 758.346 136.581 758.164 136.381C757.982 136.176 757.679 136.073 757.255 136.073C756.676 136.073 756.257 136.297 755.997 136.743V142H754.021V131.5H755.997V135.41ZM765.308 142.137C764.223 142.137 763.339 141.804 762.655 141.139C761.976 140.473 761.637 139.587 761.637 138.479V138.288C761.637 137.545 761.78 136.882 762.067 136.299C762.354 135.711 762.76 135.26 763.284 134.945C763.813 134.626 764.414 134.467 765.089 134.467C766.101 134.467 766.896 134.786 767.475 135.424C768.058 136.062 768.35 136.966 768.35 138.138V138.944H763.64C763.703 139.427 763.895 139.815 764.214 140.106C764.537 140.398 764.945 140.544 765.438 140.544C766.199 140.544 766.793 140.268 767.222 139.717L768.192 140.804C767.896 141.223 767.495 141.551 766.989 141.788C766.483 142.021 765.923 142.137 765.308 142.137ZM765.082 136.066C764.69 136.066 764.371 136.199 764.125 136.463C763.883 136.727 763.729 137.105 763.66 137.598H766.408V137.44C766.399 137.003 766.281 136.666 766.053 136.429C765.825 136.187 765.501 136.066 765.082 136.066ZM771.562 142H769.58V131.5H771.562V142ZM779.854 138.37C779.854 139.509 779.595 140.423 779.075 141.111C778.56 141.795 777.863 142.137 776.983 142.137C776.236 142.137 775.632 141.877 775.172 141.357V144.844H773.196V134.604H775.028L775.097 135.328C775.575 134.754 776.2 134.467 776.97 134.467C777.881 134.467 778.59 134.804 779.096 135.479C779.602 136.153 779.854 137.083 779.854 138.268V138.37ZM777.879 138.227C777.879 137.538 777.756 137.007 777.51 136.634C777.268 136.26 776.915 136.073 776.45 136.073C775.83 136.073 775.404 136.31 775.172 136.784V139.812C775.413 140.3 775.844 140.544 776.464 140.544C777.407 140.544 777.879 139.771 777.879 138.227ZM787.333 139.204L788.7 134.604H790.819L787.846 143.148L787.682 143.538C787.24 144.504 786.51 144.987 785.494 144.987C785.207 144.987 784.915 144.944 784.619 144.857V143.36L784.92 143.367C785.294 143.367 785.572 143.31 785.754 143.196C785.941 143.082 786.087 142.893 786.191 142.629L786.424 142.021L783.833 134.604H785.959L787.333 139.204ZM791.182 138.233C791.182 137.5 791.323 136.846 791.605 136.271C791.888 135.697 792.294 135.253 792.822 134.938C793.355 134.624 793.973 134.467 794.675 134.467C795.673 134.467 796.486 134.772 797.115 135.383C797.749 135.993 798.102 136.823 798.175 137.871L798.188 138.377C798.188 139.512 797.872 140.423 797.238 141.111C796.605 141.795 795.755 142.137 794.688 142.137C793.622 142.137 792.77 141.795 792.132 141.111C791.498 140.428 791.182 139.498 791.182 138.322V138.233ZM793.157 138.377C793.157 139.079 793.289 139.617 793.554 139.99C793.818 140.359 794.196 140.544 794.688 140.544C795.167 140.544 795.541 140.362 795.81 139.997C796.078 139.628 796.213 139.04 796.213 138.233C796.213 137.545 796.078 137.012 795.81 136.634C795.541 136.256 795.162 136.066 794.675 136.066C794.192 136.066 793.818 136.256 793.554 136.634C793.289 137.007 793.157 137.589 793.157 138.377ZM803.835 141.248C803.347 141.84 802.673 142.137 801.812 142.137C801.019 142.137 800.412 141.909 799.993 141.453C799.578 140.997 799.367 140.33 799.357 139.45V134.604H801.333V139.382C801.333 140.152 801.684 140.537 802.386 140.537C803.056 140.537 803.516 140.305 803.767 139.84V134.604H805.749V142H803.89L803.835 141.248ZM808.853 138.944C808.853 138.306 808.93 137.798 809.085 137.42C809.24 137.042 809.522 136.67 809.933 136.306C810.347 135.937 810.623 135.638 810.76 135.41C810.896 135.178 810.965 134.934 810.965 134.679C810.965 133.909 810.609 133.523 809.898 133.523C809.561 133.523 809.29 133.628 809.085 133.838C808.884 134.043 808.78 134.328 808.771 134.692H806.788C806.797 133.822 807.077 133.141 807.629 132.648C808.185 132.156 808.941 131.91 809.898 131.91C810.865 131.91 811.614 132.145 812.147 132.614C812.681 133.079 812.947 133.738 812.947 134.59C812.947 134.977 812.861 135.344 812.688 135.69C812.514 136.032 812.211 136.413 811.778 136.832L811.225 137.358C810.878 137.691 810.68 138.081 810.63 138.527L810.603 138.944H808.853ZM808.654 141.043C808.654 140.738 808.757 140.487 808.962 140.291C809.172 140.09 809.438 139.99 809.762 139.99C810.085 139.99 810.35 140.09 810.555 140.291C810.764 140.487 810.869 140.738 810.869 141.043C810.869 141.344 810.767 141.592 810.562 141.788C810.361 141.984 810.094 142.082 809.762 142.082C809.429 142.082 809.16 141.984 808.955 141.788C808.755 141.592 808.654 141.344 808.654 141.043Z" fill="black"/>
<path d="M1024.34 151.744V216.117L1036.37 233.665L1037.29 235H1084.75L1085.71 151.744H1024.34Z" fill="#E6E6E6"/>
<path opacity="0.1" d="M1024.34 151.744V216.226L1036.42 233.804L1037.16 151.744H1024.34Z" fill="black"/>
<path d="M1100 147.199V152.223L934.182 150.787V147.199L921.363 130.452H1085.39L1100 147.199Z" fill="#E6E6E6"/>
<path opacity="0.1" d="M1100 148.653V152.462H933.972V146.96L1100 148.653Z" fill="black"/>
<path d="M1055.06 169.687H1066.61L1071.42 166.816H1049.77L1055.06 169.687Z" fill="#001C55"/>
<path d="M1055.06 182.128H1066.61L1071.42 179.257H1049.77L1055.06 182.128Z" fill="#001C55"/>
<path d="M1055.06 199.832H1066.61L1071.42 196.722H1049.77L1055.06 199.832Z" fill="#001C55"/>
<path d="M1055.06 217.535H1066.61L1071.42 214.425H1049.77L1055.06 217.535Z" fill="#001C55"/>
<path d="M1062.92 46H966.009C965.528 45.9999 965.051 46.1017 964.606 46.2995C964.162 46.4972 963.758 46.7871 963.417 47.1526C963.077 47.5181 962.807 47.952 962.623 48.4295C962.439 48.907 962.344 49.4188 962.344 49.9357V120.038C962.344 120.555 962.439 121.067 962.623 121.544C962.807 122.022 963.077 122.456 963.417 122.821C963.758 123.187 964.162 123.477 964.606 123.674C965.051 123.872 965.528 123.974 966.009 123.974H1002.8L1001.42 133.423C1001.42 133.423 993.542 137.917 999.08 138.049C1004.62 138.181 1030.71 138.049 1030.71 138.049C1030.71 138.049 1035.76 138.049 1027.76 133.291L1026.46 123.974H1062.92C1063.4 123.974 1063.88 123.872 1064.32 123.674C1064.77 123.477 1065.17 123.187 1065.51 122.821C1065.85 122.456 1066.12 122.022 1066.31 121.544C1066.49 121.067 1066.58 120.555 1066.58 120.038V49.9357C1066.58 49.4188 1066.49 48.907 1066.31 48.4295C1066.12 47.952 1065.85 47.5181 1065.51 47.1526C1065.17 46.7871 1064.77 46.4972 1064.32 46.2995C1063.88 46.1017 1063.4 45.9999 1062.92 46V46Z" fill="#001C55"/>
<path d="M1063.01 50.3063H966.127V108.681H1063.01V50.3063Z" fill="#F2F2F2"/>
<path d="M1014.46 121.122C1015.74 121.122 1016.78 119.997 1016.78 118.609C1016.78 117.222 1015.74 116.097 1014.46 116.097C1013.19 116.097 1012.15 117.222 1012.15 118.609C1012.15 119.997 1013.19 121.122 1014.46 121.122Z" fill="#F2F2F2"/>
<path d="M1017.83 145.93V147.438H951.836V146.231L951.927 145.93L953.553 140.5H1016.48L1017.83 145.93Z" fill="#001C55"/>
<path d="M1067.4 143.274C1067.28 143.728 1066.83 144.207 1065.79 144.66C1062.08 146.285 1054.53 144.226 1054.53 144.226C1054.53 144.226 1048.72 143.36 1048.72 141.084C1048.88 140.986 1049.05 140.898 1049.23 140.819C1050.79 140.096 1055.96 138.311 1065.14 140.894C1065.81 141.08 1066.42 141.427 1066.88 141.895C1067.09 142.072 1067.24 142.29 1067.33 142.529C1067.42 142.769 1067.45 143.024 1067.4 143.274Z" fill="#001C55"/>
<path opacity="0.1" d="M1067.4 143.247C1062.89 144.76 1058.87 144.873 1054.74 142.364C1053.18 141.354 1051.29 140.809 1049.35 140.809C1050.9 140.092 1056.04 138.32 1065.15 140.884C1065.82 141.069 1066.42 141.413 1066.88 141.878C1067.09 142.054 1067.24 142.27 1067.33 142.508C1067.42 142.745 1067.45 142.999 1067.4 143.247Z" fill="black"/>
<path d="M1014.46 48.8709C1014.81 48.8709 1015.09 48.5496 1015.09 48.1532C1015.09 47.7568 1014.81 47.4355 1014.46 47.4355C1014.12 47.4355 1013.83 47.7568 1013.83 48.1532C1013.83 48.5496 1014.12 48.8709 1014.46 48.8709Z" fill="#F2F2F2"/>
<path d="M1061.65 142.414C1062.52 142.414 1063.22 142.2 1063.22 141.935C1063.22 141.671 1062.52 141.457 1061.65 141.457C1060.77 141.457 1060.07 141.671 1060.07 141.935C1060.07 142.2 1060.77 142.414 1061.65 142.414Z" fill="#F2F2F2"/>
<path opacity="0.1" d="M1017.83 147.438V148.634H951.836V147.677L951.927 147.438H1017.83Z" fill="black"/>
<path d="M921.363 151.744V216.117L933.35 233.666L934.263 235H981.564L982.52 151.744H921.363Z" fill="#E6E6E6"/>
<path opacity="0.1" d="M921.363 129.734V216.578L933.972 232.966V146.84L921.363 129.734Z" fill="black"/>
<path d="M951.873 169.687H963.418L968.229 166.577H946.582L951.873 169.687Z" fill="#001C55"/>
<path d="M951.873 182.128H963.418L968.229 179.257H946.582L951.873 182.128Z" fill="#001C55"/>
<path d="M951.873 199.832H963.418L968.229 196.722H946.582L951.873 199.832Z" fill="#001C55"/>
<path d="M951.873 217.296H963.418L968.229 214.425H946.582L951.873 217.296Z" fill="#001C55"/>
<path d="M417.312 369.439L504.923 374.646L500.046 396.731L412.437 391.525L417.312 369.439Z" fill="#1B236D"/>
<path d="M63.0931 79.1143L68.219 161.673L49.1043 166.271L43.9768 83.7119L63.0931 79.1143Z" fill="#1B236D"/>
<path d="M331.448 400.827L155.954 406.652L170.491 235.924L345.986 230.097L331.448 400.827Z" fill="url(#paint0_linear)"/>
<path d="M495.956 404.942C505.178 404.304 513.347 396.308 514.201 387.082C515.055 377.857 508.271 370.895 499.049 371.533C489.827 372.171 481.658 380.167 480.804 389.393C479.95 398.618 486.734 405.58 495.956 404.942Z" fill="url(#paint1_radial)"/>
<path d="M50.7746 92.0958C59.9525 90.817 67.738 82.2655 68.164 72.9954C68.59 63.7253 61.4951 57.2471 52.3172 58.5258C43.1393 59.8046 35.3538 68.3562 34.9278 77.6263C34.5019 86.8963 41.5967 93.3746 50.7746 92.0958Z" fill="url(#paint2_radial)"/>
<path d="M189.08 189.878L198.208 189.954L199.812 180.825L190.684 180.749L189.08 189.878Z" fill="#1B236D"/>
<path d="M279.67 191.824L288.798 191.9L290.402 182.771L281.273 182.695L279.67 191.824Z" fill="#1B236D"/>
<path d="M246.411 385.695L257.834 385.314L256.888 396.428L245.465 396.807L246.411 385.695Z" fill="#1B236D"/>
<path d="M163.151 386.04L174.575 385.659L173.629 396.773L162.206 397.152L163.151 386.04Z" fill="#1B236D"/>
<path d="M312.817 383.029L324.15 381.237L324.124 392.411L312.791 394.203L312.817 383.029Z" fill="#1B236D"/>
<path d="M212.825 238.299C211.67 238.382 210.781 237.506 210.807 236.255C210.833 234.931 211.872 233.686 213.127 233.477L263.333 225.092C264.589 224.893 265.584 225.787 265.557 227.112C265.531 228.436 264.493 229.68 263.238 229.889L213.031 238.274C212.961 238.287 212.892 238.294 212.825 238.299Z" fill="#1B236D"/>
<path d="M212.029 227.72C210.77 227.805 209.832 226.719 209.929 225.293C210.028 223.863 211.129 222.629 212.392 222.54L262.992 218.934C262.993 218.934 262.995 218.934 262.999 218.934C264.258 218.849 265.196 219.936 265.099 221.361C265 222.791 263.899 224.025 262.636 224.115L212.036 227.72C212.035 227.72 212.033 227.72 212.029 227.72Z" fill="#1B236D"/>
<path d="M211.494 221.459C210.242 221.543 209.303 220.469 209.398 219.048C209.495 217.623 210.595 216.39 211.856 216.296L262.442 212.512C263.672 212.491 264.649 213.497 264.552 214.922C264.455 216.345 263.355 217.581 262.094 217.674L211.507 221.458C211.505 221.458 211.5 221.458 211.494 221.459Z" fill="#1B236D"/>
<path d="M261.144 211.405C261.095 211.408 261.046 211.411 260.996 211.411L209.888 211.437C208.647 211.436 207.811 210.333 208.024 208.967C208.235 207.605 209.36 206.481 210.655 206.496L261.763 206.47C263.003 206.471 263.839 207.574 263.626 208.94C263.421 210.248 262.329 211.32 261.144 211.405Z" fill="#1B236D"/>
<path d="M260.533 205.008C260.477 205.012 260.417 205.015 260.362 205.015L210.683 204.473C209.446 204.461 208.63 203.354 208.86 202C209.09 200.647 210.275 199.552 211.511 199.576L261.19 200.118C262.427 200.129 263.242 201.237 263.013 202.591C262.793 203.879 261.707 204.925 260.533 205.008Z" fill="#1B236D"/>
<path d="M260.012 198.594C259.958 198.598 259.9 198.6 259.844 198.6L210.135 198.206C208.897 198.196 208.078 197.09 208.303 195.736C208.528 194.382 209.698 193.296 210.949 193.301L260.658 193.695C261.896 193.705 262.715 194.811 262.49 196.165C262.277 197.458 261.185 198.51 260.012 198.594Z" fill="#1B236D"/>
<path d="M374.467 243.704L408.808 361.409L378.808 374.783L344.468 257.078L374.467 243.704Z" fill="#1B236D"/>
<path d="M79.7603 159.231L147.799 256.723L120.847 278.742L52.8099 181.25L79.7603 159.231Z" fill="#1B236D"/>
<path d="M344.98 291.543C366.172 290.077 384.942 271.703 386.904 250.505C388.867 229.306 373.278 213.309 352.086 214.776C330.895 216.242 312.125 234.615 310.162 255.814C308.2 277.013 323.788 293.01 344.98 291.543Z" fill="url(#paint3_radial)"/>
<path d="M146.903 317.023C168.095 315.557 186.865 297.183 188.828 275.984C190.79 254.785 175.202 238.789 154.01 240.255C132.818 241.721 114.048 260.095 112.086 281.294C110.123 302.493 125.712 318.489 146.903 317.023Z" fill="url(#paint4_radial)"/>
<path d="M527.731 388.243C527.023 388.295 526.38 387.976 526.07 387.335C525.594 386.352 526.083 384.98 527.162 384.272L553.397 367.059C554.474 366.351 555.738 366.571 556.213 367.559C556.689 368.541 556.199 369.913 555.12 370.622L528.886 387.834C528.51 388.083 528.111 388.215 527.731 388.243Z" fill="#1B236D"/>
<path d="M525.765 396.755C524.815 396.825 524.023 396.248 523.871 395.278C523.69 394.101 524.523 392.792 525.734 392.357L566.175 377.777C567.389 377.346 568.516 377.941 568.697 379.117C568.879 380.294 568.046 381.603 566.834 382.038L526.394 396.618C526.178 396.697 525.968 396.74 525.765 396.755Z" fill="#1B236D"/>
<path d="M561.026 405.679C560.876 405.69 560.722 405.685 560.572 405.664L525.114 400.343C523.947 400.17 523.338 399.003 523.748 397.742C524.16 396.479 525.448 395.602 526.599 395.774L562.057 401.095C563.224 401.268 563.833 402.435 563.424 403.696C563.065 404.794 562.05 405.604 561.026 405.679Z" fill="#1B236D"/>
<path d="M548.522 426.478C548.027 426.514 547.555 426.364 547.209 426.019L523.387 402.315C522.644 401.575 522.754 400.211 523.634 399.27C524.514 398.328 525.833 398.166 526.573 398.904L550.396 422.609C551.139 423.349 551.028 424.712 550.148 425.654C549.682 426.154 549.086 426.437 548.522 426.478Z" fill="#1B236D"/>
<path d="M498.326 440.118C498.141 440.131 497.953 440.111 497.772 440.06C496.812 439.777 496.368 438.637 496.782 437.509L509.403 403.066C509.818 401.938 510.935 401.251 511.89 401.53C512.85 401.812 513.293 402.953 512.88 404.08L500.258 438.524C499.923 439.437 499.128 440.064 498.326 440.118Z" fill="#1B236D"/>
<path d="M52.578 59.5945C52.1509 59.6549 51.7282 59.5689 51.3866 59.3171C50.5651 58.7119 50.5067 57.3813 51.2536 56.3441L72.5103 26.8597C73.2587 25.824 74.5295 25.4743 75.3494 26.0779C76.1709 26.6831 76.2293 28.0137 75.4824 29.0509L54.2257 58.5354C53.7893 59.141 53.1755 59.5102 52.578 59.5945Z" fill="#1B236D"/>
<path d="M44.7693 54.9763C43.8746 55.0966 43.1177 54.4241 43.0304 53.3806L40.3508 21.2821C40.2566 20.1539 40.9804 19.0186 41.9688 18.747C42.9454 18.4684 43.8334 19.1678 43.9261 20.2996L46.6056 52.3982C46.6999 53.5263 45.976 54.6617 44.9877 54.9333C44.9133 54.9518 44.8405 54.9668 44.7693 54.9763Z" fill="#1B236D"/>
<path d="M32.6386 58.658C31.8679 58.7646 31.1728 58.3364 30.9317 57.52L21.899 26.7799C21.5919 25.7338 22.156 24.4442 23.1576 23.9024C24.1546 23.3595 25.2208 23.7692 25.531 24.8149L34.5636 55.5567C34.8707 56.6028 34.3066 57.8924 33.305 58.4342C33.0843 58.553 32.858 58.6276 32.6386 58.658Z" fill="#1B236D"/>
<path d="M22.502 63.3786C21.9359 63.4588 21.3959 63.2871 21.0347 62.8526L2.92278 41.0967C2.25927 40.3002 2.45331 38.9229 3.35581 38.0172C4.25803 37.1151 5.52509 37.0272 6.1918 37.825L24.3037 59.5809C24.9672 60.3774 24.7715 61.7549 23.8707 62.6603C23.4592 63.0688 22.973 63.3119 22.502 63.3786Z" fill="#1B236D"/>
<path d="M26.4614 76.3261C26.1197 76.3751 25.7786 76.3394 25.4724 76.2014L2.35033 65.8432C1.37312 65.4069 1.11142 64.1149 1.76694 62.958C2.42071 61.8014 3.7456 61.2168 4.72233 61.6585L27.8444 72.0167C28.8216 72.453 29.0833 73.745 28.4277 74.9019C27.9791 75.694 27.2132 76.2183 26.4614 76.3261Z" fill="#1B236D"/>
<path d="M403.02 403.53C418.914 402.431 432.992 388.65 434.463 372.75C435.935 356.85 424.244 344.852 408.35 345.952C392.457 347.051 378.379 360.832 376.907 376.732C375.435 392.632 387.127 404.63 403.02 403.53Z" fill="url(#paint5_linear)"/>
<path d="M61.1496 198.878C76.9669 196.675 90.3846 181.936 91.1188 165.96C91.8529 149.983 79.6256 138.818 63.8083 141.022C47.9909 143.226 34.5733 157.964 33.8391 173.941C33.1049 189.917 45.3323 201.082 61.1496 198.878Z" fill="url(#paint6_linear)"/>
<path d="M200.458 359.045C201.06 352.111 207.388 346.297 214.591 346.06C221.575 345.831 226.804 350.932 226.572 357.561L260.745 326.166C251.907 313.212 236.426 305.096 218.089 305.7C199.272 306.319 181.881 315.969 170.767 330.17L200.417 360.239C200.413 359.845 200.424 359.45 200.458 359.045Z" fill="white"/>
<path d="M216.131 372.962C220.359 373.195 224.383 370.014 225.12 365.858C225.858 361.702 223.028 358.145 218.801 357.912C214.573 357.68 210.549 360.86 209.812 365.016C209.075 369.172 211.904 372.73 216.131 372.962Z" fill="#1B236D"/>
<path d="M193.101 326.464L214.353 363.141L212.71 364.282L191.46 327.606L193.101 326.464Z" fill="#1B236D"/>
<path d="M537.822 394.091L513.515 412.741L498.546 391.19L522.853 372.54L537.822 394.091Z" fill="url(#paint7_linear)"/>
<path d="M57.4487 70.5388L29.8993 82.2184L23.3464 55.8479L50.8976 44.1679L57.4487 70.5388Z" fill="url(#paint8_linear)"/>
<path d="M213.197 267.979L233.685 264.74L233.637 284.937L213.149 288.177L213.197 267.979Z" fill="white"/>
<path d="M246.211 263.731L266.699 260.491L266.651 280.689L246.163 283.929L246.211 263.731Z" fill="white"/>
<path d="M279.224 259.483L299.712 256.243L299.664 276.441L279.176 279.681L279.224 259.483Z" fill="white"/>
<path d="M316.291 374.201L280.355 375.443L285.86 307.148L321.794 305.906L316.291 374.201Z" fill="#5BABF2"/>
<path d="M63.7353 177.874C68.6409 177.191 72.8022 172.62 73.0298 167.666C73.2575 162.711 69.4654 159.249 64.5598 159.933C59.6543 160.616 55.493 165.187 55.2653 170.141C55.0376 175.096 58.8298 178.558 63.7353 177.874Z" fill="#F92424"/>
<path d="M405.936 382.055C410.865 381.714 415.231 377.441 415.688 372.51C416.144 367.579 412.518 363.858 407.589 364.199C402.66 364.541 398.294 368.814 397.837 373.745C397.381 378.676 401.007 382.396 405.936 382.055Z" fill="#F92424"/>
<path d="M351.048 259.033C355.978 258.691 360.344 254.418 360.8 249.487C361.257 244.557 357.631 240.836 352.701 241.177C347.772 241.518 343.406 245.792 342.95 250.722C342.493 255.653 346.119 259.374 351.048 259.033Z" fill="#F92424"/>
<path d="M146.201 286.614C151.13 286.273 155.496 281.999 155.953 277.068C156.409 272.138 152.783 268.417 147.854 268.758C142.925 269.099 138.559 273.373 138.102 278.303C137.646 283.234 141.272 286.955 146.201 286.614Z" fill="#F92424"/>
<g clip-path="url(#clip0)">
<path d="M282.058 164.663L187.787 168.134C183.676 168.285 180.242 164.224 180.116 159.062L179.658 140.369C179.532 135.207 182.761 130.9 186.872 130.749L281.143 127.277C285.253 127.126 288.687 131.187 288.814 136.35L289.271 155.042C289.398 160.205 286.168 164.511 282.058 164.663Z" fill="url(#paint9_linear)"/>
<path d="M272.744 189.952L198.32 192.692C192.84 192.894 188.26 187.478 188.092 180.596L186.491 115.171C186.322 108.289 190.629 102.546 196.109 102.344L270.533 99.6038C276.013 99.402 280.593 104.818 280.761 111.7L282.362 177.125C282.531 184.007 278.224 189.75 272.744 189.952Z" fill="url(#paint10_linear)"/>
<path d="M235.192 75.9591L230.23 76.1418L230.688 94.8345L235.649 94.6518L235.192 75.9591Z" fill="url(#paint11_linear)"/>
<path d="M232.787 79.1658C236.898 79.0144 240.127 74.7072 240.001 69.5454C239.875 64.3835 236.44 60.3217 232.33 60.4731C228.22 60.6244 224.99 64.9316 225.116 70.0935C225.243 75.2553 228.677 79.3171 232.787 79.1658Z" fill="url(#paint12_linear)"/>
<path d="M254.578 157.879C259.373 157.703 263.141 152.677 262.994 146.655C262.847 140.633 258.84 135.894 254.044 136.071C249.249 136.247 245.481 141.273 245.628 147.295C245.776 153.317 249.783 158.056 254.578 157.879Z" fill="white"/>
<path d="M258.032 146.838C258.096 149.424 256.485 151.572 254.426 151.648C252.366 151.724 250.653 149.698 250.59 147.112C250.527 144.526 252.138 142.378 254.197 142.302C254.296 142.298 254.42 142.294 254.52 142.321C254.332 142.765 254.221 143.299 254.235 143.86C254.277 145.573 255.428 146.934 256.792 146.884C257.239 146.867 257.656 146.696 257.998 146.434C258.026 146.558 258.029 146.713 258.032 146.838Z" fill="url(#paint13_linear)"/>
<path d="M214.885 159.341C219.68 159.164 223.448 154.139 223.301 148.117C223.154 142.095 219.147 137.356 214.351 137.532C209.556 137.709 205.788 142.734 205.935 148.756C206.083 154.778 210.09 159.517 214.885 159.341Z" fill="white"/>
<path d="M218.339 148.3C218.403 150.885 216.792 153.034 214.733 153.11C212.673 153.186 210.96 151.159 210.897 148.574C210.834 145.988 212.445 143.839 214.504 143.763C214.603 143.76 214.727 143.755 214.827 143.783C214.639 144.226 214.528 144.76 214.542 145.321C214.584 147.035 215.735 148.395 217.099 148.345C217.546 148.329 217.963 148.157 218.305 147.895C218.332 148.019 218.336 148.175 218.339 148.3Z" fill="url(#paint14_linear)"/>
<path d="M244.693 159.802L224.846 160.533L224.923 163.648L244.769 162.918L244.693 159.802Z" fill="white"/>
<path d="M261.296 128.008C261.338 129.73 260.262 131.165 258.892 131.215L248.968 131.58C247.598 131.631 246.453 130.278 246.411 128.556C246.369 126.835 247.445 125.4 248.816 125.35L258.739 124.984C260.11 124.934 261.254 126.287 261.296 128.008Z" fill="url(#paint15_linear)"/>
<path d="M221.603 129.47C221.645 131.191 220.569 132.626 219.199 132.677L209.275 133.042C207.905 133.092 206.76 131.739 206.718 130.018C206.676 128.297 207.752 126.862 209.123 126.811L219.046 126.446C220.417 126.395 221.561 127.749 221.603 129.47Z" fill="url(#paint16_linear)"/>
<path d="M244.769 162.918C244.858 166.532 243.721 169.816 241.817 172.163C240.081 174.285 237.756 175.649 235.151 175.745C232.546 175.841 230.158 174.65 228.321 172.66C226.306 170.458 225.011 167.262 224.923 163.648L244.769 162.918Z" fill="url(#paint17_linear)"/>
<path opacity="0.2" d="M241.817 172.163C240.081 174.285 237.756 175.649 235.151 175.745C232.546 175.841 230.158 174.65 228.322 172.66C229.43 170.28 231.997 169.624 234.998 169.514C238 169.403 240.594 169.869 241.817 172.163Z" fill="black"/>
<path d="M259.452 90.657L206.734 92.5982C203.494 92.7175 200.923 96.144 201.023 100.214L201.07 102.162L210.799 101.803C212.397 101.744 213.847 102.976 214.398 104.861L214.953 106.752C215.688 109.265 217.622 110.907 219.751 110.828L247.348 109.812C249.478 109.734 251.327 107.952 251.939 105.39L252.399 103.461C252.858 101.539 254.245 100.204 255.843 100.145L265.571 99.7865L265.524 97.8377C265.424 93.769 262.692 90.5377 259.452 90.657Z" fill="url(#paint18_linear)"/>
</g>
<path d="M182.716 530.752L208.406 528.819L217.376 708.099L191.686 710.033L182.716 530.752Z" fill="#1B236D"/>
<path d="M286 530.934L311.69 529L320.66 708.28L294.97 710.214L286 530.934Z" fill="#1B236D"/>
<path d="M178.686 431.718L220.268 429.71L219.448 404.157L270.312 401.702L271.132 427.255L314.324 425.17C321.347 424.831 326.418 430.316 326.644 437.371L329.24 518.289C329.391 522.993 326.523 526.951 321.842 527.177L270.978 529.632C266.296 529.858 261.573 526.267 261.422 521.563L260.192 483.233C260.117 480.88 258.962 479.027 256.622 479.14L239.667 479.959C237.326 480.072 234.685 482.11 234.76 484.461L235.99 522.79C236.141 527.494 233.273 531.452 228.591 531.679L177.727 534.134C173.046 534.36 168.322 530.768 168.171 526.064L165.575 445.147C165.349 438.092 171.663 432.057 178.686 431.718Z" fill="#72B5F7"/>
<path d="M302.084 560.989C317.978 559.889 332.056 546.108 333.527 530.208C334.999 514.309 323.308 502.311 307.414 503.41C291.521 504.51 277.443 518.291 275.971 534.191C274.499 550.091 286.191 562.089 302.084 560.989Z" fill="url(#paint19_linear)"/>
<path d="M305 539.514C309.929 539.173 314.295 534.899 314.752 529.968C315.208 525.038 311.582 521.317 306.653 521.658C301.724 521.999 297.358 526.273 296.901 531.203C296.445 536.134 300.071 539.855 305 539.514Z" fill="#F92424"/>
<path d="M192.88 564.033C208.773 562.934 222.851 549.153 224.323 533.253C225.795 517.353 214.103 505.355 198.21 506.455C182.316 507.554 168.238 521.335 166.766 537.235C165.295 553.135 176.986 565.133 192.88 564.033Z" fill="url(#paint20_linear)"/>
<path d="M195.795 542.558C200.725 542.217 205.091 537.943 205.547 533.013C206.003 528.082 202.378 524.361 197.448 524.702C192.519 525.043 188.153 529.317 187.697 534.248C187.24 539.178 190.866 542.899 195.795 542.558Z" fill="#F92424"/>
<path d="M188.334 746.84C188.433 749.729 190.555 751.848 193.071 751.572L215.859 749.074C218.376 748.798 220.336 746.232 220.237 743.343L218.799 701.49C218.7 698.601 216.578 696.482 214.062 696.758L191.274 699.257C188.757 699.532 186.797 702.099 186.896 704.988L188.334 746.84Z" fill="url(#paint21_linear)"/>
<path d="M291.618 747.022C291.718 749.911 293.839 752.03 296.356 751.754L319.143 749.256C321.66 748.98 323.62 746.414 323.521 743.524L322.083 701.672C321.984 698.783 319.863 696.664 317.346 696.94L294.558 699.438C292.041 699.714 290.081 702.28 290.18 705.169L291.618 747.022Z" fill="url(#paint22_linear)"/>
<path d="M225.124 748.058L183.807 752.588L183.534 744.647C183.082 731.49 192.183 719.787 203.592 718.536L203.483 718.548C214.892 717.297 224.399 726.961 224.851 740.118L225.124 748.058Z" fill="url(#paint23_linear)"/>
<path d="M328.408 748.24L287.091 752.769L286.818 744.828C286.366 731.672 295.467 719.968 306.876 718.718L306.767 718.73C318.176 717.479 327.683 727.143 328.135 740.299L328.408 748.24Z" fill="url(#paint24_linear)"/>
<path d="M218.306 488.131L182.567 488.221L183.953 444.136L219.691 444.047L218.306 488.131Z" fill="#5BABF2"/>
<path d="M190.802 457.598L211.29 454.358L211.242 474.556L190.754 477.796L190.802 457.598Z" fill="white"/>
<path d="M294.202 463.705L305.536 461.913L305.51 473.087L294.176 474.879L294.202 463.705Z" fill="#1B236D"/>
<path d="M311.467 486.946L282.034 487.017L283.159 449.896L312.591 449.825L311.467 486.946Z" fill="#5BABF2"/>
<path d="M288.799 461.23L305.672 458.503L305.633 475.509L288.76 478.236L288.799 461.23Z" fill="white"/>
<path d="M194.925 460.66L206.259 458.868L206.233 470.042L194.899 471.834L194.925 460.66Z" fill="#1B236D"/>
<path d="M194.925 460.66L206.259 458.868L206.233 470.042L194.899 471.834L194.925 460.66Z" fill="#1B236D"/>
<path d="M291.721 463.705L303.054 461.913L303.028 473.087L291.694 474.879L291.721 463.705Z" fill="#1B236D"/>
<path d="M914.703 134.385L933.115 135.63L932.091 140.914L913.678 139.669L914.703 134.385Z" fill="#1B236D"/>
<path d="M840.26 64.9273L841.337 84.6788L837.32 85.7787L836.242 66.0273L840.26 64.9273Z" fill="#1B236D"/>
<path d="M896.658 141.894L859.775 143.288L862.831 102.443L899.713 101.049L896.658 141.894Z" fill="url(#paint25_linear)"/>
<path d="M931.231 142.878C933.169 142.726 934.886 140.813 935.065 138.606C935.245 136.399 933.819 134.733 931.881 134.886C929.943 135.038 928.226 136.951 928.047 139.159C927.867 141.366 929.293 143.031 931.231 142.878Z" fill="url(#paint26_radial)"/>
<path d="M837.671 68.033C839.6 67.7271 841.236 65.6812 841.325 63.4634C841.415 61.2457 839.924 59.6958 837.995 60.0017C836.066 60.3077 834.43 62.3536 834.34 64.5713C834.251 66.7891 835.742 68.339 837.671 68.033Z" fill="url(#paint27_radial)"/>
<path d="M866.737 91.4265L868.656 91.4446L868.993 89.2606L867.074 89.2425L866.737 91.4265Z" fill="#1B236D"/>
<path d="M885.776 91.8921L887.694 91.9102L888.031 89.7262L886.113 89.7081L885.776 91.8921Z" fill="#1B236D"/>
<path d="M878.786 138.274L881.187 138.183L880.988 140.842L878.587 140.932L878.786 138.274Z" fill="#1B236D"/>
<path d="M861.288 138.356L863.689 138.265L863.49 140.924L861.089 141.015L861.288 138.356Z" fill="#1B236D"/>
<path d="M892.742 137.636L895.124 137.207L895.118 139.881L892.737 140.309L892.742 137.636Z" fill="#1B236D"/>
<path d="M871.728 103.011C871.485 103.031 871.298 102.821 871.304 102.522C871.309 102.205 871.527 101.907 871.791 101.857L882.343 99.8511C882.607 99.8035 882.816 100.017 882.81 100.334C882.805 100.651 882.586 100.949 882.323 100.999L871.771 103.005C871.756 103.008 871.742 103.01 871.728 103.011Z" fill="#1B236D"/>
<path d="M871.56 100.48C871.296 100.5 871.099 100.24 871.119 99.8992C871.14 99.5571 871.371 99.2619 871.637 99.2405L882.271 98.378C882.271 98.378 882.272 98.3779 882.272 98.3779C882.537 98.3576 882.734 98.6176 882.714 98.9586C882.693 99.3007 882.461 99.596 882.196 99.6173L871.562 100.48C871.562 100.48 871.561 100.48 871.56 100.48Z" fill="#1B236D"/>
<path d="M871.448 98.9819C871.185 99.0022 870.987 98.7452 871.007 98.4052C871.028 98.0642 871.259 97.7692 871.524 97.7468L882.155 96.8416C882.414 96.8364 882.619 97.0771 882.599 97.4181C882.578 97.7586 882.347 98.0541 882.082 98.0765L871.451 98.9817C871.45 98.9817 871.449 98.9818 871.448 98.9819Z" fill="#1B236D"/>
<path d="M881.882 96.5765C881.872 96.5774 881.862 96.5782 881.851 96.5781L871.11 96.5843C870.85 96.5841 870.674 96.3203 870.719 95.9934C870.763 95.6674 870.999 95.3988 871.271 95.4023L882.013 95.3961C882.273 95.3962 882.449 95.6601 882.404 95.987C882.361 96.2998 882.131 96.5564 881.882 96.5765Z" fill="#1B236D"/>
<path d="M881.754 95.0463C881.742 95.0473 881.73 95.0478 881.718 95.0478L871.277 94.9182C871.018 94.9154 870.846 94.6504 870.894 94.3265C870.943 94.003 871.192 93.741 871.452 93.7466L881.892 93.8763C882.152 93.879 882.323 94.144 882.275 94.468C882.229 94.776 882.001 95.0262 881.754 95.0463Z" fill="#1B236D"/>
<path d="M881.645 93.5117C881.633 93.5127 881.621 93.5132 881.609 93.5132L871.162 93.4189C870.902 93.4165 870.73 93.152 870.777 92.828C870.825 92.504 871.07 92.2443 871.333 92.2454L881.78 92.3397C882.04 92.342 882.213 92.6066 882.165 92.9306C882.121 93.24 881.891 93.4917 881.645 93.5117Z" fill="#1B236D"/>
<path d="M905.699 104.304L912.916 132.464L906.611 135.663L899.394 107.503L905.699 104.304Z" fill="#1B236D"/>
<path d="M843.763 84.0946L858.062 107.418L852.397 112.686L838.099 89.3625L843.763 84.0946Z" fill="#1B236D"/>
<path d="M899.502 115.749C903.955 115.398 907.9 111.002 908.312 105.931C908.725 100.859 905.449 97.0322 900.995 97.383C896.541 97.7338 892.597 102.13 892.184 107.201C891.772 112.273 895.048 116.1 899.502 115.749Z" fill="url(#paint28_radial)"/>
<path d="M857.873 121.845C862.327 121.494 866.272 117.098 866.684 112.027C867.097 106.955 863.821 103.128 859.367 103.479C854.913 103.83 850.969 108.225 850.556 113.297C850.144 118.369 853.42 122.196 857.873 121.845Z" fill="url(#paint29_radial)"/>
<path d="M937.909 138.883C937.76 138.896 937.625 138.82 937.56 138.666C937.46 138.431 937.563 138.103 937.789 137.933L943.303 133.815C943.529 133.646 943.795 133.699 943.895 133.935C943.995 134.17 943.892 134.498 943.665 134.668L938.152 138.786C938.072 138.845 937.989 138.877 937.909 138.883Z" fill="#1B236D"/>
<path d="M937.496 140.92C937.296 140.937 937.129 140.799 937.098 140.566C937.059 140.285 937.235 139.972 937.489 139.868L945.988 136.38C946.244 136.276 946.48 136.419 946.518 136.7C946.557 136.982 946.381 137.295 946.127 137.399L937.628 140.887C937.583 140.906 937.538 140.916 937.496 140.92Z" fill="#1B236D"/>
<path d="M944.906 143.055C944.875 143.058 944.842 143.056 944.811 143.051L937.359 141.778C937.114 141.737 936.986 141.458 937.072 141.156C937.158 140.854 937.429 140.644 937.671 140.685L945.123 141.958C945.368 142 945.496 142.279 945.41 142.58C945.335 142.843 945.121 143.037 944.906 143.055Z" fill="#1B236D"/>
<path d="M942.278 148.031C942.174 148.039 942.075 148.004 942.002 147.921L936.996 142.25C936.84 142.073 936.863 141.747 937.048 141.521C937.233 141.296 937.51 141.257 937.666 141.434L942.672 147.105C942.828 147.282 942.805 147.608 942.62 147.834C942.522 147.953 942.397 148.021 942.278 148.031Z" fill="#1B236D"/>
<path d="M931.729 151.294C931.69 151.297 931.651 151.292 931.613 151.28C931.411 151.213 931.318 150.94 931.404 150.67L934.057 142.43C934.144 142.16 934.379 141.995 934.58 142.062C934.781 142.13 934.875 142.403 934.788 142.672L932.135 150.913C932.065 151.131 931.897 151.281 931.729 151.294Z" fill="#1B236D"/>
<path d="M838.05 60.2574C837.96 60.2719 837.871 60.2513 837.799 60.1911C837.627 60.0463 837.615 59.7279 837.772 59.4798L842.239 52.4259C842.396 52.1781 842.663 52.0945 842.836 52.2389C843.008 52.3837 843.02 52.702 842.864 52.9502L838.396 60.004C838.304 60.1489 838.175 60.2372 838.05 60.2574Z" fill="#1B236D"/>
<path d="M836.409 59.1526C836.221 59.1813 836.062 59.0204 836.043 58.7708L835.48 51.0915C835.46 50.8216 835.613 50.55 835.82 50.485C836.025 50.4184 836.212 50.5857 836.232 50.8565L836.795 58.5357C836.815 58.8056 836.662 59.0773 836.455 59.1422C836.439 59.1467 836.424 59.1503 836.409 59.1526Z" fill="#1B236D"/>
<path d="M833.859 60.0334C833.697 60.0589 833.551 59.9564 833.501 59.7611L831.602 52.4068C831.538 52.1566 831.656 51.8481 831.867 51.7184C832.076 51.5885 832.3 51.6866 832.366 51.9367L834.264 59.2914C834.328 59.5417 834.21 59.8502 833.999 59.9798C833.953 60.0083 833.905 60.0261 833.859 60.0334Z" fill="#1B236D"/>
<path d="M831.729 61.1627C831.61 61.1819 831.497 61.1408 831.421 61.0369L827.614 55.832C827.475 55.6414 827.516 55.3119 827.705 55.0953C827.895 54.8794 828.161 54.8584 828.301 55.0493L832.108 60.2542C832.247 60.4447 832.206 60.7743 832.017 60.9909C831.93 61.0886 831.828 61.1468 831.729 61.1627Z" fill="#1B236D"/>
<path d="M832.561 64.2603C832.489 64.272 832.418 64.2634 832.353 64.2304L827.494 61.7523C827.289 61.6479 827.234 61.3389 827.371 61.0621C827.509 60.7853 827.787 60.6455 827.992 60.7512L832.852 63.2293C833.057 63.3337 833.112 63.6427 832.974 63.9195C832.88 64.109 832.719 64.2345 832.561 64.2603Z" fill="#1B236D"/>
<path d="M911.699 142.541C915.04 142.278 917.998 138.981 918.308 135.177C918.617 131.373 916.16 128.503 912.82 128.766C909.479 129.029 906.521 132.326 906.211 136.13C905.902 139.933 908.359 142.804 911.699 142.541Z" fill="url(#paint30_linear)"/>
<path d="M839.851 93.5798C843.176 93.0525 845.995 89.5265 846.15 85.7043C846.304 81.882 843.734 79.2109 840.41 79.7381C837.086 80.2654 834.266 83.7914 834.112 87.6136C833.957 91.4359 836.527 94.107 839.851 93.5798Z" fill="url(#paint31_linear)"/>
<path d="M869.129 131.898C869.255 130.239 870.585 128.848 872.099 128.791C873.567 128.737 874.666 129.957 874.617 131.543L881.799 124.032C879.941 120.933 876.688 118.991 872.834 119.136C868.879 119.284 865.224 121.593 862.889 124.99L869.12 132.184C869.119 132.089 869.121 131.995 869.129 131.898Z" fill="white"/>
<path d="M872.423 135.228C873.311 135.283 874.157 134.522 874.312 133.528C874.467 132.534 873.872 131.683 872.984 131.627C872.095 131.571 871.249 132.332 871.094 133.327C870.939 134.321 871.534 135.172 872.423 135.228Z" fill="#1B236D"/>
<path d="M867.583 124.103L872.049 132.878L871.703 133.151L867.238 124.377L867.583 124.103Z" fill="#1B236D"/>
<path d="M940.03 140.283L934.921 144.744L931.775 139.588L936.884 135.127L940.03 140.283Z" fill="url(#paint32_linear)"/>
<path d="M839.074 62.8757L833.284 65.67L831.907 59.3611L837.697 56.5667L839.074 62.8757Z" fill="url(#paint33_linear)"/>
<path d="M871.806 110.111L876.112 109.336L876.102 114.169L871.796 114.944L871.806 110.111Z" fill="white"/>
<path d="M878.744 109.095L883.05 108.32L883.04 113.152L878.734 113.927L878.744 109.095Z" fill="white"/>
<path d="M885.682 108.079L889.988 107.304L889.978 112.136L885.672 112.911L885.682 108.079Z" fill="white"/>
<path d="M893.472 135.524L885.92 135.821L887.077 119.482L894.629 119.185L893.472 135.524Z" fill="#5BABF2"/>
<path d="M840.395 88.5547C841.426 88.3912 842.3 87.2978 842.348 86.1125C842.396 84.9271 841.599 84.0988 840.568 84.2623C839.537 84.4259 838.663 85.5193 838.615 86.7046C838.567 87.8899 839.364 88.7183 840.395 88.5547Z" fill="#F92424"/>
<path d="M912.312 137.403C913.348 137.321 914.266 136.299 914.362 135.119C914.458 133.94 913.696 133.05 912.66 133.131C911.624 133.213 910.706 134.235 910.61 135.415C910.514 136.595 911.276 137.485 912.312 137.403Z" fill="#F92424"/>
<path d="M900.777 107.971C901.813 107.889 902.73 106.867 902.826 105.687C902.922 104.508 902.16 103.618 901.124 103.699C900.088 103.781 899.171 104.803 899.075 105.983C898.979 107.163 899.741 108.053 900.777 107.971Z" fill="#F92424"/>
<path d="M857.726 114.57C858.762 114.488 859.679 113.466 859.775 112.286C859.871 111.106 859.109 110.216 858.073 110.298C857.037 110.379 856.12 111.402 856.024 112.581C855.928 113.761 856.69 114.651 857.726 114.57Z" fill="#F92424"/>
<g clip-path="url(#clip1)">
<path d="M886.278 85.394L866.466 86.2245C865.602 86.2607 864.88 85.2891 864.853 84.054L864.757 79.582C864.731 78.3469 865.409 77.3166 866.273 77.2804L886.085 76.4499C886.949 76.4137 887.671 77.3854 887.698 78.6204L887.794 83.0924C887.82 84.3275 887.142 85.3578 886.278 85.394Z" fill="url(#paint34_linear)"/>
<path d="M884.32 91.4442L868.679 92.0998C867.528 92.1481 866.565 90.8523 866.53 89.2058L866.193 73.5537C866.158 71.9072 867.063 70.5332 868.215 70.4849L883.856 69.8293C885.007 69.781 885.97 71.0767 886.005 72.7232L886.342 88.3754C886.377 90.0218 885.472 91.3959 884.32 91.4442Z" fill="url(#paint35_linear)"/>
<path d="M876.428 64.1724L875.386 64.2162L875.482 68.6882L876.524 68.6445L876.428 64.1724Z" fill="url(#paint36_linear)"/>
<path d="M875.923 64.9397C876.787 64.9035 877.466 63.873 877.439 62.6381C877.413 61.4032 876.691 60.4314 875.827 60.4676C874.963 60.5038 874.284 61.5343 874.311 62.7692C874.337 64.0041 875.059 64.9759 875.923 64.9397Z" fill="url(#paint37_linear)"/>
<path d="M880.503 83.7711C881.51 83.7288 882.302 82.5266 882.271 81.0859C882.24 79.6451 881.398 78.5114 880.39 78.5537C879.383 78.5959 878.591 79.7981 878.622 81.2389C878.653 82.6796 879.495 83.8133 880.503 83.7711Z" fill="white"/>
<path d="M881.229 81.1296C881.242 81.7482 880.903 82.2622 880.471 82.2804C880.038 82.2985 879.678 81.8138 879.664 81.1951C879.651 80.5765 879.99 80.0625 880.422 80.0443C880.443 80.0435 880.469 80.0424 880.49 80.0489C880.451 80.155 880.428 80.2828 880.43 80.417C880.439 80.8269 880.681 81.1525 880.968 81.1405C881.062 81.1366 881.15 81.0956 881.221 81.0329C881.227 81.0625 881.228 81.0998 881.229 81.1296Z" fill="url(#paint38_linear)"/>
<path d="M872.161 84.1207C873.168 84.0785 873.96 82.8763 873.929 81.4355C873.898 79.9948 873.056 78.8611 872.048 78.9033C871.041 78.9456 870.249 80.1478 870.28 81.5885C870.311 83.0293 871.153 84.163 872.161 84.1207Z" fill="white"/>
<path d="M872.887 81.4792C872.9 82.0979 872.561 82.6119 872.129 82.63C871.696 82.6482 871.336 82.1634 871.322 81.5448C871.309 80.9262 871.648 80.4121 872.08 80.394C872.101 80.3931 872.127 80.392 872.148 80.3986C872.109 80.5047 872.086 80.6325 872.089 80.7667C872.097 81.1766 872.339 81.5022 872.626 81.4902C872.72 81.4862 872.808 81.4453 872.879 81.3826C872.885 81.4122 872.886 81.4494 872.887 81.4792Z" fill="url(#paint39_linear)"/>
<path d="M878.425 84.2311L874.254 84.406L874.27 85.1513L878.441 84.9765L878.425 84.2311Z" fill="white"/>
<path d="M881.914 76.6247C881.923 77.0366 881.697 77.3799 881.409 77.3919L879.324 77.4794C879.036 77.4914 878.795 77.1677 878.786 76.7559C878.777 76.3441 879.003 76.0007 879.292 75.9887L881.377 75.9013C881.665 75.8892 881.906 76.2129 881.914 76.6247Z" fill="url(#paint40_linear)"/>
<path d="M873.572 76.9744C873.581 77.3862 873.355 77.7295 873.067 77.7416L870.982 77.829C870.694 77.8411 870.453 77.5173 870.444 77.1055C870.435 76.6937 870.662 76.3504 870.95 76.3383L873.035 76.2509C873.323 76.2389 873.564 76.5626 873.572 76.9744Z" fill="url(#paint41_linear)"/>
<path d="M878.441 84.9765C878.46 85.8411 878.221 86.627 877.821 87.1883C877.456 87.696 876.967 88.0223 876.42 88.0453C875.872 88.0682 875.37 87.7834 874.984 87.3072C874.561 86.7804 874.289 86.0159 874.27 85.1513L878.441 84.9765Z" fill="url(#paint42_linear)"/>
<path opacity="0.2" d="M877.821 87.1883C877.456 87.696 876.967 88.0223 876.42 88.0453C875.872 88.0682 875.37 87.7834 874.984 87.3072C875.217 86.7379 875.757 86.581 876.388 86.5546C877.019 86.5281 877.564 86.6396 877.821 87.1883Z" fill="black"/>
<path d="M881.527 67.6888L870.447 68.1532C869.767 68.1818 869.226 69.0015 869.247 69.9753L869.257 70.4412L871.302 70.3555C871.638 70.3414 871.942 70.636 872.058 71.0869L872.175 71.5394C872.329 72.1405 872.736 72.5334 873.183 72.5146L878.983 72.2715C879.431 72.2528 879.819 71.8265 879.948 71.2135L880.045 70.7522C880.141 70.2923 880.433 69.9727 880.768 69.9587L882.813 69.873L882.803 69.4067C882.782 68.4333 882.208 67.6603 881.527 67.6888Z" fill="url(#paint43_linear)"/>
</g>
<path d="M865.4 172.977L870.799 172.515L872.684 215.406L867.285 215.869L865.4 172.977Z" fill="#1B236D"/>
<path d="M888 172.463L893.399 172L895.284 214.891L889.885 215.354L888 172.463Z" fill="#1B236D"/>
<path d="M864.553 149.284L873.292 148.804L873.12 142.691L883.809 142.103L883.981 148.217L893.059 147.718C894.535 147.637 895.601 148.949 895.648 150.637L896.194 169.996C896.225 171.121 895.623 172.068 894.639 172.122L883.949 172.709C882.965 172.764 881.973 171.904 881.941 170.779L881.682 161.609C881.667 161.046 881.424 160.603 880.932 160.63L877.369 160.826C876.877 160.853 876.322 161.34 876.338 161.903L876.596 171.073C876.628 172.198 876.025 173.145 875.041 173.199L864.351 173.786C863.368 173.841 862.375 172.981 862.343 171.856L861.798 152.497C861.75 150.809 863.077 149.365 864.553 149.284Z" fill="#72B5F7"/>
<path d="M890.487 180.211C893.827 179.948 896.785 176.651 897.095 172.847C897.404 169.043 894.947 166.173 891.607 166.436C888.266 166.699 885.308 169.996 884.999 173.8C884.689 177.604 887.146 180.474 890.487 180.211Z" fill="url(#paint44_linear)"/>
<path d="M891.099 175.074C892.135 174.992 893.053 173.97 893.149 172.79C893.245 171.61 892.483 170.72 891.447 170.802C890.411 170.883 889.493 171.906 889.397 173.085C889.301 174.265 890.063 175.155 891.099 175.074Z" fill="#F92424"/>
<path d="M867.536 180.94C870.876 180.677 873.835 177.38 874.144 173.576C874.453 169.772 871.996 166.901 868.656 167.164C865.316 167.428 862.357 170.725 862.048 174.528C861.739 178.332 864.196 181.203 867.536 180.94Z" fill="url(#paint45_linear)"/>
<path d="M868.149 175.802C869.185 175.72 870.102 174.698 870.198 173.518C870.294 172.339 869.532 171.448 868.496 171.53C867.46 171.612 866.543 172.634 866.447 173.814C866.351 174.993 867.113 175.883 868.149 175.802Z" fill="#F92424"/>
<path d="M866.581 224.674C866.601 225.366 867.047 225.873 867.576 225.807L872.365 225.209C872.894 225.143 873.306 224.529 873.285 223.838L872.983 213.825C872.962 213.134 872.516 212.627 871.988 212.693L867.198 213.29C866.67 213.356 866.258 213.97 866.278 214.662L866.581 224.674Z" fill="url(#paint46_linear)"/>
<path d="M889.181 224.16C889.202 224.851 889.647 225.358 890.176 225.292L894.965 224.694C895.494 224.628 895.906 224.014 895.885 223.323L895.583 213.31C895.562 212.619 895.117 212.112 894.588 212.178L889.799 212.776C889.27 212.842 888.858 213.456 888.879 214.147L889.181 224.16Z" fill="url(#paint47_linear)"/>
<path d="M874.312 224.966L865.629 226.049L865.572 224.15C865.477 221.002 867.39 218.202 869.787 217.903L869.764 217.906C872.162 217.607 874.16 219.919 874.255 223.066L874.312 224.966Z" fill="url(#paint48_linear)"/>
<path d="M896.912 224.451L888.229 225.535L888.172 223.635C888.077 220.487 889.99 217.687 892.387 217.388L892.364 217.391C894.762 217.092 896.76 219.404 896.855 222.551L896.912 224.451Z" fill="url(#paint49_linear)"/>
<path d="M872.88 162.781L865.369 162.802L865.66 152.255L873.171 152.234L872.88 162.781Z" fill="#5BABF2"/>
<path d="M867.099 155.476L871.405 154.701L871.395 159.533L867.089 160.308L867.099 155.476Z" fill="white"/>
<path d="M888.83 156.937L891.212 156.508L891.206 159.181L888.825 159.61L888.83 156.937Z" fill="#1B236D"/>
<path d="M892.458 162.497L886.273 162.514L886.509 153.633L892.695 153.616L892.458 162.497Z" fill="#5BABF2"/>
<path d="M887.695 156.345L891.241 155.692L891.232 159.761L887.686 160.413L887.695 156.345Z" fill="white"/>
<path d="M867.966 156.209L870.348 155.78L870.342 158.453L867.96 158.882L867.966 156.209Z" fill="#1B236D"/>
<path d="M867.966 156.209L870.348 155.78L870.342 158.453L867.96 158.882L867.966 156.209Z" fill="#1B236D"/>
<path d="M888.309 156.937L890.69 156.508L890.685 159.181L888.303 159.61L888.309 156.937Z" fill="#1B236D"/>
<path d="M988.779 72H987.46V69.2578H984.89V72H983.571V65.6016H984.89V68.1943H987.46V65.6016H988.779V72ZM991.191 72H989.917V67.2451H991.191V72ZM989.842 66.0146C989.842 65.8242 989.905 65.6675 990.031 65.5444C990.16 65.4214 990.334 65.3599 990.554 65.3599C990.771 65.3599 990.944 65.4214 991.073 65.5444C991.202 65.6675 991.266 65.8242 991.266 66.0146C991.266 66.208 991.2 66.3662 991.068 66.4893C990.939 66.6123 990.768 66.6738 990.554 66.6738C990.34 66.6738 990.167 66.6123 990.036 66.4893C989.907 66.3662 989.842 66.208 989.842 66.0146ZM992.571 73.604L991.908 73.2568L992.066 72.9712C992.262 72.6138 992.363 72.2578 992.369 71.9033V70.9189H993.441L993.437 71.7979C993.434 72.123 993.352 72.4512 993.191 72.7822C993.03 73.1133 992.823 73.3872 992.571 73.604ZM998.166 72H996.847V65.6016H998.166V72ZM1004.3 72C1004.25 71.8857 1004.2 71.7437 1004.18 71.5737C1003.87 71.9165 1003.47 72.0879 1002.98 72.0879C1002.51 72.0879 1002.12 71.9531 1001.82 71.6836C1001.51 71.4141 1001.36 71.0742 1001.36 70.6641C1001.36 70.1602 1001.55 69.7734 1001.92 69.5039C1002.29 69.2344 1002.83 69.0981 1003.54 69.0952H1004.12V68.8228C1004.12 68.603 1004.07 68.4272 1003.95 68.2954C1003.84 68.1636 1003.66 68.0977 1003.42 68.0977C1003.21 68.0977 1003.04 68.1489 1002.92 68.2515C1002.8 68.354 1002.74 68.4946 1002.74 68.6733H1001.47C1001.47 68.3979 1001.55 68.1431 1001.72 67.9087C1001.89 67.6743 1002.13 67.4912 1002.44 67.3594C1002.75 67.2246 1003.1 67.1572 1003.49 67.1572C1004.07 67.1572 1004.54 67.3052 1004.88 67.6011C1005.23 67.894 1005.4 68.3071 1005.4 68.8403V70.9014C1005.4 71.3525 1005.46 71.6938 1005.59 71.9253V72H1004.3ZM1003.25 71.1167C1003.44 71.1167 1003.61 71.0757 1003.77 70.9937C1003.93 70.9087 1004.05 70.7959 1004.12 70.6553V69.8379H1003.65C1003.01 69.8379 1002.68 70.0576 1002.63 70.4971L1002.63 70.5718C1002.63 70.73 1002.69 70.8604 1002.8 70.9629C1002.91 71.0654 1003.06 71.1167 1003.25 71.1167ZM1007.57 67.2451L1007.6 67.7769C1007.94 67.3638 1008.4 67.1572 1008.97 67.1572C1009.58 67.1572 1010 67.3989 1010.23 67.8823C1010.57 67.3989 1011.04 67.1572 1011.66 67.1572C1012.18 67.1572 1012.56 67.3081 1012.81 67.6099C1013.06 67.9087 1013.19 68.3599 1013.19 68.9634V72H1011.92V68.9678C1011.92 68.6982 1011.86 68.502 1011.76 68.3789C1011.65 68.2529 1011.47 68.1899 1011.2 68.1899C1010.82 68.1899 1010.56 68.3716 1010.41 68.7349L1010.41 72H1009.14V68.9722C1009.14 68.6968 1009.09 68.4976 1008.98 68.3745C1008.87 68.2515 1008.69 68.1899 1008.43 68.1899C1008.07 68.1899 1007.81 68.3394 1007.64 68.6382V72H1006.37V67.2451H1007.57ZM1021.7 72H1020.38V69.2578H1017.81V72H1016.5V65.6016H1017.81V68.1943H1020.38V65.6016H1021.7V72ZM1027.92 71.1914C1027.68 71.4756 1027.35 71.6968 1026.91 71.855C1026.48 72.0103 1026 72.0879 1025.47 72.0879C1024.92 72.0879 1024.43 71.9678 1024.01 71.7275C1023.6 71.4844 1023.28 71.1328 1023.05 70.6729C1022.82 70.2129 1022.71 69.6724 1022.7 69.0513V68.6162C1022.7 67.9775 1022.81 67.4253 1023.02 66.9595C1023.24 66.4907 1023.55 66.1333 1023.95 65.8872C1024.36 65.6382 1024.84 65.5137 1025.38 65.5137C1026.14 65.5137 1026.73 65.6953 1027.16 66.0586C1027.59 66.4189 1027.84 66.9448 1027.92 67.6362H1026.64C1026.58 67.27 1026.45 67.002 1026.25 66.832C1026.05 66.6621 1025.77 66.5771 1025.42 66.5771C1024.97 66.5771 1024.63 66.7456 1024.4 67.0825C1024.16 67.4194 1024.04 67.9204 1024.04 68.5854V68.9941C1024.04 69.665 1024.17 70.1719 1024.42 70.5146C1024.68 70.8574 1025.05 71.0288 1025.54 71.0288C1026.04 71.0288 1026.39 70.9233 1026.6 70.7124V69.6094H1025.4V68.6382H1027.92V71.1914ZM1033.6 69.6577H1032.55V72H1031.23V65.6016H1033.61C1034.37 65.6016 1034.95 65.77 1035.36 66.1069C1035.77 66.4438 1035.98 66.9199 1035.98 67.5352C1035.98 67.9717 1035.88 68.3364 1035.69 68.6294C1035.5 68.9194 1035.22 69.1509 1034.83 69.3237L1036.22 71.9385V72H1034.8L1033.6 69.6577ZM1032.55 68.5898H1033.62C1033.95 68.5898 1034.2 68.5063 1034.39 68.3394C1034.57 68.1694 1034.66 67.9365 1034.66 67.6406C1034.66 67.3389 1034.57 67.1016 1034.4 66.9287C1034.23 66.7559 1033.97 66.6694 1033.61 66.6694H1032.55V68.5898ZM1036.7 69.5786C1036.7 69.1069 1036.79 68.6865 1036.97 68.3174C1037.16 67.9482 1037.42 67.6626 1037.76 67.4604C1038.1 67.2583 1038.5 67.1572 1038.95 67.1572C1039.59 67.1572 1040.11 67.3535 1040.52 67.7461C1040.92 68.1387 1041.15 68.6719 1041.2 69.3457L1041.21 69.6709C1041.21 70.4004 1041 70.9863 1040.59 71.4287C1040.19 71.8682 1039.64 72.0879 1038.96 72.0879C1038.27 72.0879 1037.72 71.8682 1037.31 71.4287C1036.9 70.9893 1036.7 70.3916 1036.7 69.6357V69.5786ZM1037.97 69.6709C1037.97 70.1221 1038.06 70.4678 1038.23 70.708C1038.4 70.9453 1038.64 71.064 1038.96 71.064C1039.26 71.064 1039.5 70.9468 1039.68 70.7124C1039.85 70.4751 1039.94 70.0972 1039.94 69.5786C1039.94 69.1362 1039.85 68.7935 1039.68 68.5503C1039.5 68.3071 1039.26 68.1855 1038.95 68.1855C1038.64 68.1855 1038.4 68.3071 1038.23 68.5503C1038.06 68.7905 1037.97 69.1641 1037.97 69.6709ZM1046.27 69.6665C1046.27 70.4282 1046.11 71.0229 1045.78 71.4507C1045.46 71.8755 1045.01 72.0879 1044.42 72.0879C1043.91 72.0879 1043.5 71.8901 1043.19 71.4946L1043.13 72H1041.99V65.25H1043.26V67.6714C1043.55 67.3286 1043.94 67.1572 1044.41 67.1572C1044.99 67.1572 1045.45 67.3711 1045.78 67.7988C1046.11 68.2236 1046.27 68.8228 1046.27 69.5962V69.6665ZM1045 69.5742C1045 69.0938 1044.93 68.7437 1044.77 68.5239C1044.62 68.3013 1044.39 68.1899 1044.09 68.1899C1043.69 68.1899 1043.41 68.3555 1043.26 68.6865V70.563C1043.41 70.897 1043.69 71.064 1044.1 71.064C1044.51 71.064 1044.78 70.8618 1044.91 70.4575C1044.97 70.2642 1045 69.9697 1045 69.5742ZM1046.86 69.5786C1046.86 69.1069 1046.95 68.6865 1047.13 68.3174C1047.32 67.9482 1047.58 67.6626 1047.92 67.4604C1048.26 67.2583 1048.66 67.1572 1049.11 67.1572C1049.75 67.1572 1050.27 67.3535 1050.68 67.7461C1051.08 68.1387 1051.31 68.6719 1051.36 69.3457L1051.37 69.6709C1051.37 70.4004 1051.16 70.9863 1050.75 71.4287C1050.35 71.8682 1049.8 72.0879 1049.12 72.0879C1048.43 72.0879 1047.88 71.8682 1047.47 71.4287C1047.06 70.9893 1046.86 70.3916 1046.86 69.6357V69.5786ZM1048.13 69.6709C1048.13 70.1221 1048.22 70.4678 1048.39 70.708C1048.56 70.9453 1048.8 71.064 1049.12 71.064C1049.42 71.064 1049.66 70.9468 1049.84 70.7124C1050.01 70.4751 1050.1 70.0972 1050.1 69.5786C1050.1 69.1362 1050.01 68.7935 1049.84 68.5503C1049.66 68.3071 1049.42 68.1855 1049.11 68.1855C1048.8 68.1855 1048.56 68.3071 1048.39 68.5503C1048.22 68.7905 1048.13 69.1641 1048.13 69.6709ZM1053.67 66.0762V67.2451H1054.48V68.1768H1053.67V70.5498C1053.67 70.7256 1053.7 70.8516 1053.77 70.9277C1053.84 71.0039 1053.97 71.042 1054.16 71.042C1054.3 71.042 1054.42 71.0317 1054.53 71.0112V71.9736C1054.28 72.0498 1054.02 72.0879 1053.76 72.0879C1052.87 72.0879 1052.42 71.6382 1052.4 70.7388V68.1768H1051.7V67.2451H1052.4V66.0762H1053.67Z" fill="black"/>
<path d="M980.779 94H979.46V91.2578H976.89V94H975.571V87.6016H976.89V90.1943H979.46V87.6016H980.779V94ZM981.653 91.5786C981.653 91.1069 981.744 90.6865 981.926 90.3174C982.107 89.9482 982.368 89.6626 982.708 89.4604C983.051 89.2583 983.448 89.1572 983.899 89.1572C984.541 89.1572 985.063 89.3535 985.468 89.7461C985.875 90.1387 986.102 90.6719 986.149 91.3457L986.158 91.6709C986.158 92.4004 985.954 92.9863 985.547 93.4287C985.14 93.8682 984.593 94.0879 983.908 94.0879C983.222 94.0879 982.674 93.8682 982.264 93.4287C981.857 92.9893 981.653 92.3916 981.653 91.6357V91.5786ZM982.923 91.6709C982.923 92.1221 983.008 92.4678 983.178 92.708C983.348 92.9453 983.591 93.064 983.908 93.064C984.215 93.064 984.456 92.9468 984.628 92.7124C984.801 92.4751 984.888 92.0972 984.888 91.5786C984.888 91.1362 984.801 90.7935 984.628 90.5503C984.456 90.3071 984.212 90.1855 983.899 90.1855C983.588 90.1855 983.348 90.3071 983.178 90.5503C983.008 90.7905 982.923 91.1641 982.923 91.6709ZM991.075 92.2729L991.699 89.2451H992.925L991.712 94H990.649L989.748 91.0073L988.847 94H987.788L986.575 89.2451H987.801L988.421 92.2686L989.291 89.2451H990.209L991.075 92.2729ZM997.777 93.064C998.011 93.064 998.202 92.9995 998.348 92.8706C998.495 92.7417 998.571 92.5703 998.577 92.3564H999.768C999.765 92.6787 999.677 92.9746 999.504 93.2441C999.331 93.5107 999.094 93.7188 998.792 93.8682C998.493 94.0146 998.162 94.0879 997.799 94.0879C997.119 94.0879 996.583 93.8726 996.19 93.4419C995.798 93.0083 995.602 92.4106 995.602 91.6489V91.5654C995.602 90.833 995.796 90.2485 996.186 89.812C996.576 89.3755 997.11 89.1572 997.79 89.1572C998.385 89.1572 998.861 89.3271 999.218 89.667C999.579 90.0039 999.762 90.4536 999.768 91.0161H998.577C998.571 90.77 998.495 90.5708 998.348 90.4185C998.202 90.2632 998.008 90.1855 997.768 90.1855C997.472 90.1855 997.248 90.2939 997.096 90.5107C996.946 90.7246 996.872 91.0732 996.872 91.5566V91.6885C996.872 92.1777 996.946 92.5293 997.096 92.7432C997.245 92.957 997.472 93.064 997.777 93.064ZM1003.25 94C1003.19 93.8857 1003.15 93.7437 1003.12 93.5737C1002.81 93.9165 1002.41 94.0879 1001.92 94.0879C1001.46 94.0879 1001.07 93.9531 1000.76 93.6836C1000.46 93.4141 1000.3 93.0742 1000.3 92.6641C1000.3 92.1602 1000.49 91.7734 1000.86 91.5039C1001.24 91.2344 1001.78 91.0981 1002.48 91.0952H1003.07V90.8228C1003.07 90.603 1003.01 90.4272 1002.9 90.2954C1002.79 90.1636 1002.61 90.0977 1002.36 90.0977C1002.15 90.0977 1001.98 90.1489 1001.86 90.2515C1001.74 90.354 1001.68 90.4946 1001.68 90.6733H1000.41C1000.41 90.3979 1000.49 90.1431 1000.66 89.9087C1000.83 89.6743 1001.07 89.4912 1001.38 89.3594C1001.7 89.2246 1002.04 89.1572 1002.43 89.1572C1003.02 89.1572 1003.48 89.3052 1003.82 89.6011C1004.17 89.894 1004.34 90.3071 1004.34 90.8403V92.9014C1004.35 93.3525 1004.41 93.6938 1004.53 93.9253V94H1003.25ZM1002.2 93.1167C1002.39 93.1167 1002.56 93.0757 1002.72 92.9937C1002.87 92.9087 1002.99 92.7959 1003.07 92.6553V91.8379H1002.59C1001.96 91.8379 1001.62 92.0576 1001.58 92.4971L1001.57 92.5718C1001.57 92.73 1001.63 92.8604 1001.74 92.9629C1001.85 93.0654 1002 93.1167 1002.2 93.1167ZM1006.49 89.2451L1006.53 89.7944C1006.87 89.3696 1007.32 89.1572 1007.89 89.1572C1008.4 89.1572 1008.77 89.3052 1009.02 89.6011C1009.26 89.897 1009.39 90.3394 1009.4 90.9282V94H1008.13V90.959C1008.13 90.6895 1008.07 90.4946 1007.95 90.3745C1007.83 90.2515 1007.64 90.1899 1007.37 90.1899C1007.01 90.1899 1006.74 90.3423 1006.56 90.647V94H1005.29V89.2451H1006.49ZM1014.09 94H1012.77V87.6016H1014.09V94ZM1018.71 89.7637C1019.05 89.3594 1019.47 89.1572 1019.98 89.1572C1021.01 89.1572 1021.54 89.7563 1021.55 90.9546V94H1020.28V90.9897C1020.28 90.7173 1020.22 90.5166 1020.11 90.3877C1019.99 90.2559 1019.79 90.1899 1019.52 90.1899C1019.15 90.1899 1018.88 90.3335 1018.71 90.6206V94H1017.44V87.25H1018.71V89.7637ZM1024.7 94.0879C1024 94.0879 1023.43 93.874 1022.99 93.4463C1022.56 93.0186 1022.34 92.4487 1022.34 91.7368V91.6138C1022.34 91.1362 1022.43 90.71 1022.61 90.335C1022.8 89.957 1023.06 89.667 1023.4 89.4648C1023.74 89.2598 1024.12 89.1572 1024.56 89.1572C1025.21 89.1572 1025.72 89.3623 1026.09 89.7725C1026.47 90.1826 1026.65 90.7642 1026.65 91.5171V92.0356H1023.63C1023.67 92.3462 1023.79 92.5952 1023.99 92.7827C1024.2 92.9702 1024.46 93.064 1024.78 93.064C1025.27 93.064 1025.65 92.8867 1025.93 92.5322L1026.55 93.231C1026.36 93.5005 1026.1 93.7114 1025.78 93.8638C1025.45 94.0132 1025.09 94.0879 1024.7 94.0879ZM1024.55 90.1855C1024.3 90.1855 1024.1 90.2705 1023.94 90.4404C1023.78 90.6104 1023.68 90.8535 1023.64 91.1699H1025.41V91.0688C1025.4 90.7876 1025.32 90.5708 1025.18 90.4185C1025.03 90.2632 1024.82 90.1855 1024.55 90.1855ZM1028.72 94H1027.44V87.25H1028.72V94ZM1034.05 91.6665C1034.05 92.3989 1033.88 92.9863 1033.55 93.4287C1033.22 93.8682 1032.77 94.0879 1032.2 94.0879C1031.72 94.0879 1031.33 93.9209 1031.04 93.5869V95.8281H1029.77V89.2451H1030.95L1030.99 89.7109C1031.3 89.3418 1031.7 89.1572 1032.19 89.1572C1032.78 89.1572 1033.24 89.374 1033.56 89.8076C1033.89 90.2412 1034.05 90.8389 1034.05 91.6006V91.6665ZM1032.78 91.5742C1032.78 91.1318 1032.7 90.7905 1032.54 90.5503C1032.39 90.3101 1032.16 90.1899 1031.86 90.1899C1031.46 90.1899 1031.19 90.3423 1031.04 90.647V92.5938C1031.19 92.9072 1031.47 93.064 1031.87 93.064C1032.48 93.064 1032.78 92.5674 1032.78 91.5742ZM1038.86 92.2026L1039.74 89.2451H1041.1L1039.19 94.7383L1039.08 94.9888C1038.8 95.6099 1038.33 95.9204 1037.67 95.9204C1037.49 95.9204 1037.3 95.8926 1037.11 95.8369V94.8745L1037.31 94.8789C1037.55 94.8789 1037.72 94.8423 1037.84 94.769C1037.96 94.6958 1038.06 94.5742 1038.12 94.4043L1038.27 94.0132L1036.61 89.2451H1037.97L1038.86 92.2026ZM1041.33 91.5786C1041.33 91.1069 1041.42 90.6865 1041.6 90.3174C1041.79 89.9482 1042.05 89.6626 1042.39 89.4604C1042.73 89.2583 1043.13 89.1572 1043.58 89.1572C1044.22 89.1572 1044.74 89.3535 1045.15 89.7461C1045.55 90.1387 1045.78 90.6719 1045.83 91.3457L1045.84 91.6709C1045.84 92.4004 1045.63 92.9863 1045.22 93.4287C1044.82 93.8682 1044.27 94.0879 1043.59 94.0879C1042.9 94.0879 1042.35 93.8682 1041.94 93.4287C1041.53 92.9893 1041.33 92.3916 1041.33 91.6357V91.5786ZM1042.6 91.6709C1042.6 92.1221 1042.69 92.4678 1042.86 92.708C1043.03 92.9453 1043.27 93.064 1043.59 93.064C1043.89 93.064 1044.13 92.9468 1044.31 92.7124C1044.48 92.4751 1044.57 92.0972 1044.57 91.5786C1044.57 91.1362 1044.48 90.7935 1044.31 90.5503C1044.13 90.3071 1043.89 90.1855 1043.58 90.1855C1043.27 90.1855 1043.03 90.3071 1042.86 90.5503C1042.69 90.7905 1042.6 91.1641 1042.6 91.6709ZM1049.47 93.5166C1049.15 93.8975 1048.72 94.0879 1048.16 94.0879C1047.65 94.0879 1047.27 93.9414 1047 93.6484C1046.73 93.3555 1046.59 92.9263 1046.59 92.3608V89.2451H1047.86V92.3169C1047.86 92.812 1048.08 93.0596 1048.53 93.0596C1048.96 93.0596 1049.26 92.9102 1049.42 92.6113V89.2451H1050.7V94H1049.5L1049.47 93.5166ZM1052.69 92.0356C1052.69 91.6255 1052.74 91.2988 1052.84 91.0557C1052.94 90.8125 1053.12 90.5737 1053.39 90.3394C1053.65 90.1021 1053.83 89.9102 1053.92 89.7637C1054 89.6143 1054.05 89.4575 1054.05 89.2935C1054.05 88.7983 1053.82 88.5508 1053.36 88.5508C1053.15 88.5508 1052.97 88.6182 1052.84 88.7529C1052.71 88.8848 1052.64 89.0679 1052.64 89.3022H1051.36C1051.37 88.7427 1051.55 88.3047 1051.9 87.9883C1052.26 87.6719 1052.75 87.5137 1053.36 87.5137C1053.98 87.5137 1054.47 87.6646 1054.81 87.9663C1055.15 88.2651 1055.32 88.6885 1055.32 89.2363C1055.32 89.4854 1055.27 89.7212 1055.16 89.9438C1055.04 90.1636 1054.85 90.4082 1054.57 90.6777L1054.22 91.0161C1053.99 91.23 1053.87 91.4805 1053.83 91.7676L1053.82 92.0356H1052.69ZM1052.56 93.3848C1052.56 93.1885 1052.63 93.0273 1052.76 92.9014C1052.9 92.7725 1053.07 92.708 1053.28 92.708C1053.48 92.708 1053.65 92.7725 1053.79 92.9014C1053.92 93.0273 1053.99 93.1885 1053.99 93.3848C1053.99 93.5781 1053.92 93.7378 1053.79 93.8638C1053.66 93.9897 1053.49 94.0527 1053.28 94.0527C1053.06 94.0527 1052.89 93.9897 1052.76 93.8638C1052.63 93.7378 1052.56 93.5781 1052.56 93.3848Z" fill="black"/>
<defs>
<linearGradient id="paint0_linear" x1="163.192" y1="321.261" x2="337.01" y2="335.993" gradientUnits="userSpaceOnUse">
<stop stop-color="#92C4FE"/>
<stop offset="1" stop-color="#5BABF2"/>
</linearGradient>
<radialGradient id="paint1_radial" cx="0" cy="0" r="1" gradientUnits="userSpaceOnUse" gradientTransform="translate(497.549 388.21) rotate(-8.98965) scale(16.9569 16.3032)">
<stop stop-color="#FF4945"/>
<stop offset="1" stop-color="#F92424"/>
</radialGradient>
<radialGradient id="paint2_radial" cx="0" cy="0" r="1" gradientUnits="userSpaceOnUse" gradientTransform="translate(51.549 75.2569) rotate(8.36031) scale(15.961 17.374)">
<stop stop-color="#FF4945"/>
<stop offset="1" stop-color="#F92424"/>
</radialGradient>
<radialGradient id="paint3_radial" cx="0" cy="0" r="1" gradientUnits="userSpaceOnUse" gradientTransform="translate(348.534 253.143) rotate(-8.98964) scale(39.0169 37.5124)">
<stop stop-color="#FF4945"/>
<stop offset="1" stop-color="#F92424"/>
</radialGradient>
<radialGradient id="paint4_radial" cx="0" cy="0" r="1" gradientUnits="userSpaceOnUse" gradientTransform="translate(150.458 278.631) rotate(-8.98963) scale(39.0169 37.5124)">
<stop stop-color="#FF4945"/>
<stop offset="1" stop-color="#F92424"/>
</radialGradient>
<linearGradient id="paint5_linear" x1="376.781" y1="379.303" x2="434.57" y2="379.418" gradientUnits="userSpaceOnUse">
<stop stop-color="#EFEFEF"/>
<stop offset="0.5538" stop-color="#D7D8D9"/>
</linearGradient>
<linearGradient id="paint6_linear" x1="35.2532" y1="165.982" x2="87.0945" y2="182.238" gradientUnits="userSpaceOnUse">
<stop stop-color="#EFEFEF"/>
<stop offset="0.5538" stop-color="#D7D8D9"/>
</linearGradient>
<linearGradient id="paint7_linear" x1="505.929" y1="402.012" x2="531.076" y2="384.464" gradientUnits="userSpaceOnUse">
<stop stop-color="#92C4FE"/>
<stop offset="1" stop-color="#5BABF2"/>
</linearGradient>
<linearGradient id="paint8_linear" x1="26.6053" y1="69.0254" x2="55.3142" y2="61.8583" gradientUnits="userSpaceOnUse">
<stop stop-color="#92C4FE"/>
<stop offset="1" stop-color="#5BABF2"/>
</linearGradient>
<linearGradient id="paint9_linear" x1="234.922" y1="166.398" x2="233.563" y2="129.492" gradientUnits="userSpaceOnUse">
<stop stop-color="#0079D3"/>
<stop offset="0.222" stop-color="#0070D4"/>
<stop offset="0.584" stop-color="#0058D5"/>
<stop offset="1" stop-color="#0034D8"/>
</linearGradient>
<linearGradient id="paint10_linear" x1="235.532" y1="191.322" x2="232.248" y2="102.131" gradientUnits="userSpaceOnUse">
<stop stop-color="#55C2FF"/>
<stop offset="0.1665" stop-color="#5EC7FF"/>
<stop offset="0.4381" stop-color="#76D4FF"/>
<stop offset="0.7789" stop-color="#9EEAFF"/>
<stop offset="1" stop-color="#BBFAFF"/>
</linearGradient>
<linearGradient id="paint11_linear" x1="233.18" y1="95.2104" x2="232.429" y2="74.804" gradientUnits="userSpaceOnUse">
<stop stop-color="#E6E6E6"/>
<stop offset="0.4062" stop-color="#E2E2E2"/>
<stop offset="0.8264" stop-color="#D5D5D5"/>
<stop offset="1" stop-color="#CECECE"/>
</linearGradient>
<linearGradient id="paint12_linear" x1="225.116" y1="70.0935" x2="240.006" y2="69.7291" gradientUnits="userSpaceOnUse">
<stop stop-color="#FF7E45"/>
<stop offset="0.1983" stop-color="#FE7A4B"/>
<stop offset="0.4578" stop-color="#FC6D5B"/>
<stop offset="0.7499" stop-color="#F85876"/>
<stop offset="1" stop-color="#F44293"/>
</linearGradient>
<linearGradient id="paint13_linear" x1="254.175" y1="141.393" x2="254.581" y2="152.423" gradientUnits="userSpaceOnUse">
<stop stop-color="#4C4B4B"/>
<stop offset="1" stop-color="#3A3838"/>
</linearGradient>
<linearGradient id="paint14_linear" x1="214.482" y1="142.855" x2="214.888" y2="153.884" gradientUnits="userSpaceOnUse">
<stop stop-color="#4C4B4B"/>
<stop offset="1" stop-color="#3A3838"/>
</linearGradient>
<linearGradient id="paint15_linear" x1="253.758" y1="124.388" x2="254.038" y2="131.978" gradientUnits="userSpaceOnUse">
<stop stop-color="#0079D3"/>
<stop offset="0.222" stop-color="#0070D4"/>
<stop offset="0.584" stop-color="#0058D5"/>
<stop offset="1" stop-color="#0034D8"/>
</linearGradient>
<linearGradient id="paint16_linear" x1="214.065" y1="125.85" x2="214.345" y2="133.44" gradientUnits="userSpaceOnUse">
<stop stop-color="#0079D3"/>
<stop offset="0.222" stop-color="#0070D4"/>
<stop offset="0.584" stop-color="#0058D5"/>
<stop offset="1" stop-color="#0034D8"/>
</linearGradient>
<linearGradient id="paint17_linear" x1="225.075" y1="169.879" x2="244.928" y2="169.393" gradientUnits="userSpaceOnUse">
<stop stop-color="#259CE5"/>
<stop offset="0.018" stop-color="#259BE4"/>
<stop offset="0.6261" stop-color="#2183D3"/>
<stop offset="1" stop-color="#1F7ACC"/>
</linearGradient>
<linearGradient id="paint18_linear" x1="201.07" y1="102.162" x2="265.591" y2="100.582" gradientUnits="userSpaceOnUse">
<stop stop-color="#FF7E45"/>
<stop offset="0.1983" stop-color="#FE7A4B"/>
<stop offset="0.4578" stop-color="#FC6D5B"/>
<stop offset="0.7499" stop-color="#F85876"/>
<stop offset="1" stop-color="#F44293"/>
</linearGradient>
<linearGradient id="paint19_linear" x1="275.845" y1="536.761" x2="333.634" y2="536.877" gradientUnits="userSpaceOnUse">
<stop stop-color="#EFEFEF"/>
<stop offset="0.5538" stop-color="#D7D8D9"/>
</linearGradient>
<linearGradient id="paint20_linear" x1="166.641" y1="539.806" x2="224.429" y2="539.921" gradientUnits="userSpaceOnUse">
<stop stop-color="#EFEFEF"/>
<stop offset="0.5538" stop-color="#D7D8D9"/>
</linearGradient>
<linearGradient id="paint21_linear" x1="202.66" y1="697.789" x2="208.258" y2="748.851" gradientUnits="userSpaceOnUse">
<stop stop-color="#2ECAFF"/>
<stop offset="1" stop-color="#3B71FF"/>
</linearGradient>
<linearGradient id="paint22_linear" x1="305.944" y1="697.971" x2="311.542" y2="749.032" gradientUnits="userSpaceOnUse">
<stop stop-color="#2ECAFF"/>
<stop offset="1" stop-color="#3B71FF"/>
</linearGradient>
<linearGradient id="paint23_linear" x1="203.374" y1="718.56" x2="206.828" y2="750.064" gradientUnits="userSpaceOnUse">
<stop stop-color="#2ECAFF"/>
<stop offset="1" stop-color="#1B236D"/>
</linearGradient>
<linearGradient id="paint24_linear" x1="306.658" y1="718.741" x2="310.112" y2="750.246" gradientUnits="userSpaceOnUse">
<stop stop-color="#2ECAFF"/>
<stop offset="1" stop-color="#1B236D"/>
</linearGradient>
<linearGradient id="paint25_linear" x1="861.297" y1="122.859" x2="897.886" y2="125.583" gradientUnits="userSpaceOnUse">
<stop stop-color="#92C4FE"/>
<stop offset="1" stop-color="#5BABF2"/>
</linearGradient>
<radialGradient id="paint26_radial" cx="0" cy="0" r="1" gradientUnits="userSpaceOnUse" gradientTransform="translate(931.566 138.875) rotate(-10.2089) scale(3.57655 3.88637)">
<stop stop-color="#FF4945"/>
<stop offset="1" stop-color="#F92424"/>
</radialGradient>
<radialGradient id="paint27_radial" cx="0" cy="0" r="1" gradientUnits="userSpaceOnUse" gradientTransform="translate(837.834 64.0045) rotate(9.49725) scale(3.36486 4.14362)">
<stop stop-color="#FF4945"/>
<stop offset="1" stop-color="#F92424"/>
</radialGradient>
<radialGradient id="paint28_radial" cx="0" cy="0" r="1" gradientUnits="userSpaceOnUse" gradientTransform="translate(900.248 106.562) rotate(-10.2089) scale(8.22942 8.94224)">
<stop stop-color="#FF4945"/>
<stop offset="1" stop-color="#F92424"/>
</radialGradient>
<radialGradient id="paint29_radial" cx="0" cy="0" r="1" gradientUnits="userSpaceOnUse" gradientTransform="translate(858.621 112.66) rotate(-10.2089) scale(8.22943 8.94225)">
<stop stop-color="#FF4945"/>
<stop offset="1" stop-color="#F92424"/>
</radialGradient>
<linearGradient id="paint30_linear" x1="906.185" y1="136.745" x2="918.33" y2="136.766" gradientUnits="userSpaceOnUse">
<stop stop-color="#EFEFEF"/>
<stop offset="0.5538" stop-color="#D7D8D9"/>
</linearGradient>
<linearGradient id="paint31_linear" x1="834.409" y1="85.7096" x2="845.531" y2="88.7734" gradientUnits="userSpaceOnUse">
<stop stop-color="#EFEFEF"/>
<stop offset="0.5538" stop-color="#D7D8D9"/>
</linearGradient>
<linearGradient id="paint32_linear" x1="933.327" y1="142.178" x2="939.039" y2="138.676" gradientUnits="userSpaceOnUse">
<stop stop-color="#92C4FE"/>
<stop offset="1" stop-color="#5BABF2"/>
</linearGradient>
<linearGradient id="paint33_linear" x1="832.591" y1="62.5137" x2="838.707" y2="61.1725" gradientUnits="userSpaceOnUse">
<stop stop-color="#92C4FE"/>
<stop offset="1" stop-color="#5BABF2"/>
</linearGradient>
<linearGradient id="paint34_linear" x1="876.372" y1="85.8093" x2="876.002" y2="76.9832" gradientUnits="userSpaceOnUse">
<stop stop-color="#0079D3"/>
<stop offset="0.222" stop-color="#0070D4"/>
<stop offset="0.584" stop-color="#0058D5"/>
<stop offset="1" stop-color="#0034D8"/>
</linearGradient>
<linearGradient id="paint35_linear" x1="876.5" y1="91.772" x2="875.606" y2="70.4424" gradientUnits="userSpaceOnUse">
<stop stop-color="#55C2FF"/>
<stop offset="0.1665" stop-color="#5EC7FF"/>
<stop offset="0.4381" stop-color="#76D4FF"/>
<stop offset="0.7789" stop-color="#9EEAFF"/>
<stop offset="1" stop-color="#BBFAFF"/>
</linearGradient>
<linearGradient id="paint36_linear" x1="876.005" y1="68.7782" x2="875.801" y2="63.8981" gradientUnits="userSpaceOnUse">
<stop stop-color="#E6E6E6"/>
<stop offset="0.4062" stop-color="#E2E2E2"/>
<stop offset="0.8264" stop-color="#D5D5D5"/>
<stop offset="1" stop-color="#CECECE"/>
</linearGradient>
<linearGradient id="paint37_linear" x1="874.311" y1="62.7692" x2="877.44" y2="62.7019" gradientUnits="userSpaceOnUse">
<stop stop-color="#FF7E45"/>
<stop offset="0.1983" stop-color="#FE7A4B"/>
<stop offset="0.4578" stop-color="#FC6D5B"/>
<stop offset="0.7499" stop-color="#F85876"/>
<stop offset="1" stop-color="#F44293"/>
</linearGradient>
<linearGradient id="paint38_linear" x1="880.418" y1="79.827" x2="880.528" y2="82.4646" gradientUnits="userSpaceOnUse">
<stop stop-color="#4C4B4B"/>
<stop offset="1" stop-color="#3A3838"/>
</linearGradient>
<linearGradient id="paint39_linear" x1="872.076" y1="80.1766" x2="872.186" y2="82.8143" gradientUnits="userSpaceOnUse">
<stop stop-color="#4C4B4B"/>
<stop offset="1" stop-color="#3A3838"/>
</linearGradient>
<linearGradient id="paint40_linear" x1="880.33" y1="75.7586" x2="880.406" y2="77.5739" gradientUnits="userSpaceOnUse">
<stop stop-color="#0079D3"/>
<stop offset="0.222" stop-color="#0070D4"/>
<stop offset="0.584" stop-color="#0058D5"/>
<stop offset="1" stop-color="#0034D8"/>
</linearGradient>
<linearGradient id="paint41_linear" x1="871.988" y1="76.1083" x2="872.064" y2="77.9235" gradientUnits="userSpaceOnUse">
<stop stop-color="#0079D3"/>
<stop offset="0.222" stop-color="#0070D4"/>
<stop offset="0.584" stop-color="#0058D5"/>
<stop offset="1" stop-color="#0034D8"/>
</linearGradient>
<linearGradient id="paint42_linear" x1="874.302" y1="86.642" x2="878.475" y2="86.5523" gradientUnits="userSpaceOnUse">
<stop stop-color="#259CE5"/>
<stop offset="0.018" stop-color="#259BE4"/>
<stop offset="0.6261" stop-color="#2183D3"/>
<stop offset="1" stop-color="#1F7ACC"/>
</linearGradient>
<linearGradient id="paint43_linear" x1="869.257" y1="70.4412" x2="882.819" y2="70.1496" gradientUnits="userSpaceOnUse">
<stop stop-color="#FF7E45"/>
<stop offset="0.1983" stop-color="#FE7A4B"/>
<stop offset="0.4578" stop-color="#FC6D5B"/>
<stop offset="0.7499" stop-color="#F85876"/>
<stop offset="1" stop-color="#F44293"/>
</linearGradient>
<linearGradient id="paint44_linear" x1="884.972" y1="174.415" x2="897.117" y2="174.436" gradientUnits="userSpaceOnUse">
<stop stop-color="#EFEFEF"/>
<stop offset="0.5538" stop-color="#D7D8D9"/>
</linearGradient>
<linearGradient id="paint45_linear" x1="862.021" y1="175.143" x2="874.166" y2="175.165" gradientUnits="userSpaceOnUse">
<stop stop-color="#EFEFEF"/>
<stop offset="0.5538" stop-color="#D7D8D9"/>
</linearGradient>
<linearGradient id="paint46_linear" x1="869.591" y1="212.94" x2="871.11" y2="225.113" gradientUnits="userSpaceOnUse">
<stop stop-color="#2ECAFF"/>
<stop offset="1" stop-color="#3B71FF"/>
</linearGradient>
<linearGradient id="paint47_linear" x1="892.191" y1="212.425" x2="893.711" y2="224.598" gradientUnits="userSpaceOnUse">
<stop stop-color="#2ECAFF"/>
<stop offset="1" stop-color="#3B71FF"/>
</linearGradient>
<linearGradient id="paint48_linear" x1="869.741" y1="217.909" x2="870.679" y2="225.419" gradientUnits="userSpaceOnUse">
<stop stop-color="#2ECAFF"/>
<stop offset="1" stop-color="#1B236D"/>
</linearGradient>
<linearGradient id="paint49_linear" x1="892.342" y1="217.394" x2="893.279" y2="224.905" gradientUnits="userSpaceOnUse">
<stop stop-color="#2ECAFF"/>
<stop offset="1" stop-color="#1B236D"/>
</linearGradient>
<clipPath id="clip0">
<rect width="109.23" height="130.888" fill="white" transform="matrix(0.999323 -0.036797 0.0244658 0.999701 177.752 62.4828)"/>
</clipPath>
<clipPath id="clip1">
<rect width="22.9605" height="31.3116" fill="white" transform="matrix(0.999123 -0.0418799 0.0214935 0.999769 864.357 60.9484)"/>
</clipPath>
</defs>
</svg>
