<svg width="1201" height="885" viewBox="0 0 1201 885" fill="none" xmlns="http://www.w3.org/2000/svg">
<path d="M942.226 518.094H678.303C675.884 518.094 673.904 515.816 673.904 513.031V77.6563C673.904 74.8719 675.884 72.5938 678.303 72.5938H942.226C944.646 72.5938 946.625 74.8719 946.625 77.6563V513.031C946.625 515.816 944.646 518.094 942.226 518.094Z" fill="url(#paint0_linear)"/>
<path d="M946.625 85.25H673.904V49.8125C673.904 47.0281 675.884 44.75 678.303 44.75H942.226C944.646 44.75 946.625 47.0281 946.625 49.8125V85.25Z" fill="url(#paint1_linear)"/>
<path d="M698.097 72.5938C701.741 72.5938 704.695 69.1939 704.695 65C704.695 60.8061 701.741 57.4062 698.097 57.4062C694.453 57.4062 691.499 60.8061 691.499 65C691.499 69.1939 694.453 72.5938 698.097 72.5938Z" fill="white"/>
<path d="M724.489 72.5938C728.133 72.5938 731.088 69.1939 731.088 65C731.088 60.8061 728.133 57.4062 724.489 57.4062C720.845 57.4062 717.891 60.8061 717.891 65C717.891 69.1939 720.845 72.5938 724.489 72.5938Z" fill="white"/>
<path d="M1147.81 383.471C1147.81 386.615 1145.59 389.188 1142.87 389.188H846.06C843.339 389.188 841.113 386.615 841.113 383.471V131.935C841.113 128.791 843.339 126.219 846.06 126.219H1142.87C1145.59 126.219 1147.81 128.791 1147.81 131.935V383.471Z" fill="url(#paint2_linear)"/>
<path d="M1147.81 171.952H841.113V131.935C841.113 128.791 843.339 126.219 846.06 126.219H1142.87C1145.59 126.219 1147.81 128.791 1147.81 131.935V171.952Z" fill="url(#paint3_linear)"/>
<path d="M868.321 157.661C872.419 157.661 875.741 153.822 875.741 149.086C875.741 144.35 872.419 140.511 868.321 140.511C864.223 140.511 860.9 144.35 860.9 149.086C860.9 153.822 864.223 157.661 868.321 157.661Z" fill="white"/>
<path d="M898.001 157.661C902.099 157.661 905.421 153.822 905.421 149.086C905.421 144.35 902.099 140.511 898.001 140.511C893.903 140.511 890.581 144.35 890.581 149.086C890.581 153.822 893.903 157.661 898.001 157.661Z" fill="white"/>
<path d="M795.511 301.531H745.438V313.906H791.934C793.909 313.906 795.511 312.059 795.511 309.781V301.531Z" fill="url(#paint4_linear)"/>
<path d="M766.898 168.348V144.781C766.898 140.225 763.695 136.531 759.744 136.531H709.671V313.906H747.021C748.326 313.906 749.605 313.498 750.724 312.723L765.197 302.708C766.31 301.938 767.583 301.531 768.881 301.531H799.093C803.041 301.531 806.241 297.84 806.241 293.287V199.59C806.241 196.357 804.603 193.423 802.051 192.085L771.088 175.853C768.536 174.515 766.898 171.58 766.898 168.348Z" fill="url(#paint5_linear)"/>
<path d="M749.014 144.781C749.014 140.225 745.811 136.531 741.861 136.531H563.027C559.077 136.531 555.874 140.225 555.874 144.781V305.656C555.874 310.212 559.077 313.906 563.027 313.906H741.861C745.811 313.906 749.014 310.212 749.014 305.656V144.781ZM738.284 282.969C738.284 284.103 737.479 285.031 736.496 285.031H568.392C567.409 285.031 566.604 284.103 566.604 282.969V150.969C566.604 149.834 567.409 148.906 568.392 148.906H645.291V173.656H738.284V282.969Z" fill="url(#paint6_linear)"/>
<path d="M738.284 173.656V282.969C738.284 284.103 737.479 285.031 736.496 285.031H568.393C567.409 285.031 566.604 284.103 566.604 282.969V150.969C566.604 149.834 567.409 148.906 568.393 148.906H645.291V173.656H738.284Z" fill="url(#paint7_linear)"/>
<path d="M761.532 289.156H793.722C794.711 289.156 795.511 288.233 795.511 287.094V282.969C795.511 281.829 794.711 280.906 793.722 280.906H761.532C760.544 280.906 759.744 281.829 759.744 282.969V287.094C759.744 288.233 760.544 289.156 761.532 289.156Z" fill="url(#paint8_linear)"/>
<path d="M761.532 268.531H793.722C794.711 268.531 795.511 267.608 795.511 266.469V262.344C795.511 261.204 794.711 260.281 793.722 260.281H761.532C760.544 260.281 759.744 261.204 759.744 262.344V266.469C759.744 267.608 760.544 268.531 761.532 268.531Z" fill="url(#paint9_linear)"/>
<path d="M761.532 247.906H793.722C794.711 247.906 795.511 246.983 795.511 245.844V241.719C795.511 240.579 794.711 239.656 793.722 239.656H761.532C760.544 239.656 759.744 240.579 759.744 241.719V245.844C759.744 246.983 760.544 247.906 761.532 247.906Z" fill="url(#paint10_linear)"/>
<path d="M761.532 227.281H793.722C794.711 227.281 795.511 226.358 795.511 225.219V221.094C795.511 219.954 794.711 219.031 793.722 219.031H761.532C760.544 219.031 759.744 219.954 759.744 221.094V225.219C759.744 226.358 760.544 227.281 761.532 227.281Z" fill="url(#paint11_linear)"/>
<path d="M656.021 161.281H630.984L623.831 148.906H646.957C648.15 148.906 649.265 149.594 649.927 150.74L656.021 161.281Z" fill="url(#paint12_linear)"/>
<path d="M632.773 161.281L626.679 150.74C626.017 149.594 624.902 148.906 623.708 148.906H600.583L600.594 148.927C600.546 148.925 600.499 148.906 600.451 148.906H568.393C567.404 148.906 566.604 149.829 566.604 150.969V161.281V173.656H738.284V163.344C738.284 162.204 737.484 161.281 736.496 161.281H632.773Z" fill="url(#paint13_linear)"/>
<path d="M723.977 313.906H580.911V326.281H723.977V313.906Z" fill="url(#paint14_linear)"/>
<path d="M766.898 313.906H723.977V326.281H766.898V313.906Z" fill="url(#paint15_linear)"/>
<path d="M806.241 363.406H749.014V326.281H802.664C804.639 326.281 806.241 328.128 806.241 330.406V363.406Z" fill="url(#paint16_linear)"/>
<path d="M757.956 363.406H546.932V330.406C546.932 328.128 548.534 326.281 550.509 326.281H754.379C756.354 326.281 757.956 328.128 757.956 330.406V363.406Z" fill="url(#paint17_linear)"/>
<path d="M809.818 276.781H806.241V289.156H809.818V276.781Z" fill="url(#paint18_linear)"/>
<path opacity="0.05" d="M761.532 288.125C761.532 288.694 761.132 289.156 760.638 289.156C760.145 289.156 759.744 288.694 759.744 288.125V281.938C759.744 281.368 760.145 280.906 760.638 280.906C761.132 280.906 761.532 281.368 761.532 281.938V288.125Z" fill="black"/>
<path opacity="0.05" d="M761.532 267.5C761.532 268.069 761.132 268.531 760.638 268.531C760.145 268.531 759.744 268.069 759.744 267.5V261.312C759.744 260.743 760.145 260.281 760.638 260.281C761.132 260.281 761.532 260.743 761.532 261.312V267.5Z" fill="black"/>
<path opacity="0.05" d="M761.532 246.875C761.532 247.444 761.132 247.906 760.638 247.906C760.145 247.906 759.744 247.444 759.744 246.875V240.687C759.744 240.118 760.145 239.656 760.638 239.656C761.132 239.656 761.532 240.118 761.532 240.687V246.875Z" fill="black"/>
<path opacity="0.05" d="M761.532 226.25C761.532 226.819 761.132 227.281 760.638 227.281C760.145 227.281 759.744 226.819 759.744 226.25V220.062C759.744 219.493 760.145 219.031 760.638 219.031C761.132 219.031 761.532 219.493 761.532 220.062V226.25Z" fill="black"/>
<path d="M750.802 338.656H747.226V334.531H745.437V338.656H559.451V334.531H557.662V338.656H554.086V340.719H557.662V363.406H559.451V340.719H745.437V363.406H747.226V340.719H750.802V338.656Z" fill="#81DBEA"/>
<path d="M1077.17 352.578C1077.17 362.504 1084.21 370.625 1092.82 370.625H1117.86C1126.46 370.625 1133.51 362.504 1133.51 352.578C1133.51 342.652 1126.46 334.531 1117.86 334.531H1092.82C1084.21 334.531 1077.17 342.652 1077.17 352.578Z" fill="url(#paint19_linear)"/>
<path d="M1118.17 363.406C1112.99 363.406 1108.78 358.558 1108.78 352.578C1108.78 346.598 1112.99 341.75 1118.17 341.75C1123.36 341.75 1127.56 346.598 1127.56 352.578C1127.56 358.558 1123.36 363.406 1118.17 363.406Z" fill="#B6B9B9"/>
<path d="M395.266 691.514L372.399 692.493L377.51 819.842L400.376 818.864L395.266 691.514Z" fill="#1B236D"/>
<path d="M302.124 700.839L279.257 701.817L284.368 829.166L307.234 828.188L302.124 700.839Z" fill="#1B236D"/>
<path d="M391.624 621.251L354.695 623.626L353.561 605.517L308.389 608.423L309.523 626.532L271.164 629C264.926 629.401 260.84 633.735 261.153 638.735L264.744 696.081C264.953 699.415 267.778 701.947 271.936 701.679L317.108 698.774C321.266 698.506 325.183 695.54 324.974 692.207L323.273 665.043C323.169 663.375 324.055 661.962 326.133 661.828L341.191 660.86C343.271 660.726 345.755 661.924 345.86 663.59L347.561 690.754C347.769 694.087 350.594 696.619 354.752 696.352L399.925 693.446C404.083 693.179 407.999 690.213 407.791 686.879L404.199 629.533C403.886 624.533 397.862 620.85 391.624 621.251Z" fill="#72B5F7"/>
<path d="M291.874 723.741C277.734 724.415 264.278 715.972 261.819 704.885C259.361 693.797 268.829 684.263 282.969 683.59C297.108 682.917 310.564 691.359 313.023 702.446C315.482 713.534 306.013 723.068 291.874 723.741Z" fill="url(#paint20_linear)"/>
<path d="M287.732 708.85C283.347 709.059 279.173 706.441 278.411 703.003C277.648 699.565 280.585 696.608 284.97 696.399C289.356 696.19 293.529 698.808 294.291 702.247C295.054 705.685 292.117 708.642 287.732 708.85Z" fill="#F92424"/>
<path d="M388.697 715.93C374.557 716.604 361.102 708.161 358.643 697.074C356.184 685.986 365.653 676.452 379.792 675.779C393.932 675.105 407.387 683.548 409.846 694.635C412.305 705.723 402.836 715.257 388.697 715.93Z" fill="url(#paint21_linear)"/>
<path d="M384.555 701.039C380.17 701.248 375.997 698.63 375.234 695.192C374.471 691.754 377.408 688.797 381.793 688.588C386.179 688.379 390.352 690.997 391.114 694.436C391.877 697.874 388.94 700.831 384.555 701.039Z" fill="#F92424"/>
<path d="M373.564 848.751L410.442 848.18L410.106 842.55C409.548 833.223 400.646 825.793 390.463 825.951L390.56 825.95C380.377 826.107 372.67 833.795 373.228 843.122L373.564 848.751Z" fill="url(#paint22_linear)"/>
<path d="M280.423 858.075L317.3 857.504L316.964 851.874C316.406 842.548 307.504 835.118 297.321 835.275L297.418 835.274C287.235 835.432 279.529 843.119 280.086 852.446L280.423 858.075Z" fill="url(#paint23_linear)"/>
<path d="M360.681 664.68L392.303 661.483L387.869 630.496L356.249 633.692L360.681 664.68Z" fill="#5BABF2"/>
<path d="M382.79 640.622L364.43 640.204L365.942 654.454L384.302 654.872L382.79 640.622Z" fill="white"/>
<path d="M280.727 669.387L312.348 666.191L307.914 635.203L276.294 638.399L280.727 669.387Z" fill="#5BABF2"/>
<path d="M302.835 645.329L284.476 644.911L285.988 659.162L304.347 659.58L302.835 645.329Z" fill="white"/>
<path d="M311.493 378.584L315.441 378.308L316.438 391.538L312.49 391.815L311.493 378.584Z" fill="url(#paint24_linear)"/>
<path d="M313.633 380.651C310.363 380.88 307.488 378.105 307.213 374.451C306.938 370.798 309.365 367.65 312.636 367.421C315.906 367.192 318.78 369.968 319.056 373.621C319.331 377.274 316.903 380.422 313.633 380.651Z" fill="url(#paint25_linear)"/>
<path d="M325.807 381.368L317.588 382.27L315.479 375.976L323.698 375.074L325.807 381.368Z" fill="white"/>
<path d="M183.94 600.029L105.379 611.842L111.38 626.976L189.94 615.164L183.94 600.029Z" fill="#1B236D"/>
<path d="M478.881 361.885L483.734 420.431L501.358 420.939L496.507 362.393L478.881 361.885Z" fill="#1B236D"/>
<path d="M257.09 607.464L415.979 610.721L403.121 489.608L244.231 486.351L257.09 607.464Z" fill="url(#paint26_linear)"/>
<path d="M289.318 466.894L383.141 456.491L359.234 383.642L265.411 394.046L289.318 466.894Z" fill="url(#paint27_linear)"/>
<path d="M115.662 632.392C107.306 632.798 99.3641 627.913 97.9233 621.482C96.4825 615.05 102.088 609.506 110.444 609.1C118.8 608.694 126.742 613.578 128.183 620.01C129.624 626.442 124.018 631.985 115.662 632.392Z" fill="url(#paint28_radial)"/>
<path d="M491.384 369.229C483.028 369.635 475.086 364.75 473.646 358.319C472.205 351.887 477.811 346.343 486.167 345.937C494.523 345.531 502.465 350.415 503.905 356.847C505.346 363.279 499.74 368.822 491.384 369.229Z" fill="url(#paint29_radial)"/>
<path d="M356.668 407.747L339.309 409.672L343.733 423.151L361.091 421.225L356.668 407.747Z" fill="#5BABF2"/>
<path d="M315.772 412.66L298.413 414.585L302.837 428.064L320.195 426.138L315.772 412.66Z" fill="#5BABF2"/>
<path d="M335.268 440.365C326.494 441.326 317.565 436.646 315.325 429.91L347.098 426.428C349.339 433.162 344.041 439.403 335.268 440.365Z" fill="#5BABF2"/>
<path d="M362.468 393.973L354.249 394.874L352.14 388.58L360.359 387.679L362.468 393.973Z" fill="#1B236D"/>
<path d="M280.987 403.761L272.767 404.663L270.658 398.369L278.878 397.467L280.987 403.761Z" fill="#1B236D"/>
<path d="M376.52 452.097L368.3 452.999L366.191 446.705L374.411 445.803L376.52 452.097Z" fill="#1B236D"/>
<path d="M295.036 461.886L286.817 462.788L284.708 456.494L292.927 455.592L295.036 461.886Z" fill="#1B236D"/>
<path d="M334.113 596.298L323.77 596.085L324.607 603.969L334.95 604.181L334.113 596.298Z" fill="#1B236D"/>
<path d="M409.499 596.126L399.156 595.913L399.993 603.797L410.336 604.009L409.499 596.126Z" fill="#1B236D"/>
<path d="M272.214 595.298L261.872 595.086L262.708 602.97L273.051 603.181L272.214 595.298Z" fill="#1B236D"/>
<path d="M358.648 488.477C359.695 488.428 360.432 487.727 360.317 486.847C360.197 485.915 359.171 485.133 358.025 485.102L312.177 483.848C311.031 483.824 310.2 484.548 310.32 485.48C310.44 486.412 311.466 487.194 312.612 487.225L358.46 488.479C358.524 488.481 358.587 488.48 358.648 488.477Z" fill="#1B236D"/>
<path d="M358.595 480.938C359.735 480.881 360.502 480.027 360.311 479.03C360.118 478.03 359.036 477.261 357.892 477.316L312.037 479.47C312.036 479.47 312.034 479.47 312.03 479.47C310.89 479.528 310.124 480.381 310.315 481.379C310.508 482.379 311.589 483.147 312.734 483.093L358.588 480.939C358.59 480.939 358.592 480.938 358.595 480.938Z" fill="#1B236D"/>
<path d="M358.621 476.469C359.756 476.413 360.524 475.567 360.335 474.573C360.144 473.576 359.063 472.808 357.921 472.859L312.065 474.886C310.956 474.985 310.148 475.786 310.339 476.783C310.529 477.779 311.611 478.548 312.753 478.497L358.609 476.47C358.611 476.47 358.616 476.47 358.621 476.469Z" fill="#1B236D"/>
<path d="M313.155 473.985C313.199 473.983 313.243 473.981 313.288 473.976L359.34 469.245C360.457 469.13 361.13 468.274 360.839 467.329C360.55 466.387 359.454 465.699 358.288 465.83L312.237 470.56C311.119 470.676 310.447 471.532 310.738 472.477C311.018 473.38 312.08 474.036 313.155 473.985Z" fill="#1B236D"/>
<path d="M313.239 469.414C313.29 469.412 313.344 469.408 313.394 469.403L358.116 464.404C359.23 464.281 359.884 463.424 359.578 462.489C359.273 461.556 358.124 460.894 357.013 461.025L312.291 466.024C311.177 466.147 310.523 467.004 310.829 467.939C311.12 468.827 312.175 469.464 313.239 469.414Z" fill="#1B236D"/>
<path d="M313.242 464.839C313.291 464.836 313.343 464.832 313.393 464.827L358.154 459.93C359.268 459.808 359.926 458.952 359.624 458.017C359.323 457.082 358.19 456.425 357.063 456.544L312.302 461.441C311.188 461.563 310.531 462.42 310.832 463.354C311.119 464.247 312.179 464.889 313.242 464.839Z" fill="#1B236D"/>
<path d="M213.396 507.308L191.019 593.571L219.022 600.224L241.4 513.96L213.396 507.308Z" fill="#1B236D"/>
<path d="M473.131 420.358L423.414 498.287L450.04 509.885L499.756 431.956L473.131 420.358Z" fill="#1B236D"/>
<path d="M243.446 538.333C224.245 539.266 205.995 528.042 202.684 513.263C199.374 498.484 212.255 485.746 231.457 484.812C250.658 483.878 268.907 495.102 272.218 509.881C275.529 524.661 262.647 537.399 243.446 538.333Z" fill="url(#paint30_radial)"/>
<path d="M423.774 537.915C404.573 538.849 386.323 527.625 383.012 512.845C379.702 498.066 392.583 485.328 411.785 484.394C430.986 483.46 449.235 494.684 452.546 509.464C455.857 524.243 442.975 536.981 423.774 537.915Z" fill="url(#paint31_radial)"/>
<path d="M85.8159 623.558C86.4579 623.528 87.014 623.244 87.247 622.762C87.6042 622.025 87.0634 621.102 86.0396 620.702L61.1491 610.991C60.1269 610.591 59.004 610.864 58.6479 611.605C58.2907 612.343 58.8314 613.266 59.8552 613.665L84.7457 623.376C85.1029 623.517 85.4719 623.573 85.8159 623.558Z" fill="#1B236D"/>
<path d="M88.2075 629.382C89.068 629.344 89.7402 628.863 89.8059 628.164C89.884 627.317 89.0378 626.47 87.9147 626.276L50.4152 619.742C49.2896 619.551 48.318 620.075 48.2399 620.923C48.1619 621.77 49.0081 622.616 50.1311 622.811L87.6305 629.344C87.8303 629.38 88.0232 629.391 88.2075 629.382Z" fill="#1B236D"/>
<path d="M57.0849 638.957C57.221 638.951 57.359 638.933 57.4924 638.904L89.0546 631.855C90.0933 631.624 90.5573 630.744 90.0964 629.892C89.6334 629.039 88.4085 628.539 87.3843 628.768L55.8221 635.817C54.7834 636.048 54.3194 636.928 54.7804 637.78C55.1831 638.521 56.1568 638.999 57.0849 638.957Z" fill="#1B236D"/>
<path d="M69.865 652.474C70.3139 652.454 70.7277 652.304 71.0144 652.029L90.7543 633.085C91.3702 632.494 91.1712 631.542 90.3098 630.959C89.4484 630.377 88.2484 630.385 87.6352 630.975L67.8953 649.918C67.2794 650.509 67.4784 651.461 68.3398 652.044C68.796 652.354 69.3542 652.498 69.865 652.474Z" fill="#1B236D"/>
<path d="M116.077 657.439C116.245 657.431 116.413 657.399 116.573 657.346C117.418 657.058 117.734 656.212 117.28 655.454L103.409 632.317C102.953 631.559 101.897 631.178 101.058 631.464C100.213 631.752 99.8959 632.598 100.35 633.356L114.221 656.493C114.589 657.106 115.351 657.475 116.077 657.439Z" fill="#1B236D"/>
<path d="M486.056 346.722C486.445 346.704 486.813 346.584 487.09 346.359C487.755 345.819 487.655 344.879 486.869 344.258L464.484 326.624C463.696 326.005 462.519 325.941 461.854 326.48C461.189 327.02 461.289 327.96 462.075 328.581L484.461 346.214C484.92 346.577 485.511 346.748 486.056 346.722Z" fill="#1B236D"/>
<path d="M492.51 342.38C493.324 342.338 493.924 341.759 493.883 341.016L492.613 318.156C492.568 317.353 491.791 316.66 490.876 316.61C489.97 316.554 489.256 317.169 489.302 317.975L490.573 340.835C490.618 341.639 491.395 342.331 492.31 342.381C492.379 342.384 492.445 342.384 492.51 342.38Z" fill="#1B236D"/>
<path d="M503.775 343.239C504.477 343.204 505.05 342.806 505.173 342.2L509.747 319.389C509.903 318.613 509.251 317.79 508.293 317.552C507.34 317.314 506.433 317.752 506.274 318.528L501.7 341.34C501.544 342.116 502.196 342.939 503.154 343.176C503.365 343.228 503.576 343.249 503.775 343.239Z" fill="#1B236D"/>
<path d="M513.392 345.106C513.907 345.082 514.371 344.885 514.644 344.529L528.358 326.724C528.861 326.072 528.53 325.135 527.619 324.628C526.709 324.125 525.565 324.243 525.06 324.896L511.346 342.702C510.843 343.354 511.176 344.291 512.085 344.797C512.5 345.025 512.963 345.126 513.392 345.106Z" fill="#1B236D"/>
<path d="M511.33 354.735C511.641 354.721 511.943 354.648 512.201 354.508L531.7 343.973C532.524 343.529 532.61 342.587 531.892 341.87C531.175 341.153 529.923 340.931 529.099 341.379L509.6 351.913C508.776 352.358 508.69 353.299 509.408 354.017C509.9 354.508 510.645 354.766 511.33 354.735Z" fill="#1B236D"/>
<path d="M199.298 622.762C184.897 623.462 171.21 615.044 168.727 603.959C166.244 592.874 175.905 583.32 190.306 582.619C204.707 581.919 218.394 590.337 220.877 601.422C223.36 612.507 213.699 622.061 199.298 622.762Z" fill="url(#paint32_linear)"/>
<path d="M494.311 445.485C479.91 446.185 466.223 437.767 463.74 426.682C461.257 415.597 470.918 406.043 485.319 405.342C499.72 404.642 513.407 413.06 515.89 424.145C518.373 435.23 508.712 444.784 494.311 445.485Z" fill="url(#paint33_linear)"/>
<path d="M77.1495 628.622L100.408 639.527L112.328 622.926L89.069 612.021L77.1495 628.622Z" fill="url(#paint34_linear)"/>
<path d="M482.95 355.078L508.929 359.35L511.776 339.952L485.795 335.68L482.95 355.078Z" fill="url(#paint35_linear)"/>
<path d="M360.472 509.46L341.776 509.076L343.289 523.327L361.985 523.71L360.472 509.46Z" fill="white"/>
<path d="M330.417 509.528L311.721 509.145L313.233 523.395L331.93 523.779L330.417 509.528Z" fill="white"/>
<path d="M300.361 509.597L281.665 509.213L283.178 523.464L301.874 523.847L300.361 509.597Z" fill="white"/>
<path d="M270.861 588.489L303.397 589.191L298.534 540.742L266 540.04L270.861 588.489Z" fill="#5BABF2"/>
<path d="M489.597 431.141C485.13 431.359 480.886 428.748 480.116 425.31C479.346 421.873 482.342 418.91 486.808 418.693C491.274 418.476 495.519 421.086 496.289 424.524C497.059 427.961 494.063 430.924 489.597 431.141Z" fill="#F92424"/>
<path d="M195.108 607.876C190.642 608.093 186.397 605.483 185.627 602.045C184.857 598.607 187.854 595.645 192.32 595.427C196.786 595.21 201.031 597.821 201.801 601.258C202.571 604.696 199.575 607.659 195.108 607.876Z" fill="#F92424"/>
<path d="M235.612 515.951C231.146 516.168 226.901 513.557 226.131 510.12C225.361 506.682 228.357 503.72 232.824 503.502C237.29 503.285 241.535 505.896 242.305 509.333C243.075 512.771 240.079 515.734 235.612 515.951Z" fill="#F92424"/>
<path d="M422.194 516.387C417.728 516.605 413.483 513.994 412.713 510.556C411.943 507.119 414.939 504.156 419.405 503.939C423.872 503.722 428.116 506.332 428.887 509.77C429.657 513.207 426.66 516.17 422.194 516.387Z" fill="#F92424"/>
<path d="M406.019 844.536C406.142 846.584 404.42 848.273 402.173 848.308L381.834 848.623C379.587 848.658 377.667 847.025 377.544 844.977L375.771 815.308C375.648 813.26 377.37 811.571 379.617 811.536L399.956 811.221C402.203 811.186 404.124 812.818 404.246 814.866L406.019 844.536Z" fill="url(#paint36_linear)"/>
<path d="M312.878 853.86C313 855.908 311.278 857.597 309.031 857.632L288.692 857.947C286.445 857.982 284.525 856.349 284.402 854.301L282.629 824.632C282.506 822.584 284.229 820.895 286.475 820.86L306.814 820.545C309.061 820.51 310.982 822.142 311.104 824.191L312.878 853.86Z" fill="url(#paint37_linear)"/>
<defs>
<linearGradient id="paint0_linear" x1="810.265" y1="70.9796" x2="810.265" y2="521.111" gradientUnits="userSpaceOnUse">
<stop stop-color="#F5F6ED"/>
<stop offset="0.4851" stop-color="#F1F2EB"/>
<stop offset="0.987" stop-color="#E5E5E5"/>
<stop offset="1" stop-color="#E5E5E5"/>
</linearGradient>
<linearGradient id="paint1_linear" x1="673.904" y1="65" x2="946.625" y2="65" gradientUnits="userSpaceOnUse">
<stop stop-color="#2ECAFF"/>
<stop offset="0.232" stop-color="#30C1FF"/>
<stop offset="0.6102" stop-color="#37A9FF"/>
<stop offset="1" stop-color="#4089FF"/>
</linearGradient>
<linearGradient id="paint2_linear" x1="994.463" y1="125.266" x2="994.463" y2="390.968" gradientUnits="userSpaceOnUse">
<stop stop-color="#F5F6ED"/>
<stop offset="0.4851" stop-color="#F1F2EB"/>
<stop offset="0.987" stop-color="#E5E5E5"/>
<stop offset="1" stop-color="#E5E5E5"/>
</linearGradient>
<linearGradient id="paint3_linear" x1="841.113" y1="149.086" x2="1147.81" y2="149.086" gradientUnits="userSpaceOnUse">
<stop stop-color="#2ECAFF"/>
<stop offset="0.232" stop-color="#30C1FF"/>
<stop offset="0.6102" stop-color="#37A9FF"/>
<stop offset="1" stop-color="#4089FF"/>
</linearGradient>
<linearGradient id="paint4_linear" x1="796.256" y1="307.719" x2="745.853" y2="307.719" gradientUnits="userSpaceOnUse">
<stop stop-color="#BCF0FF"/>
<stop offset="0.0685" stop-color="#B5ECFF"/>
<stop offset="0.4762" stop-color="#8DD8FD"/>
<stop offset="0.8009" stop-color="#75CCFC"/>
<stop offset="1" stop-color="#6CC7FC"/>
</linearGradient>
<linearGradient id="paint5_linear" x1="811.606" y1="225.219" x2="747.003" y2="225.219" gradientUnits="userSpaceOnUse">
<stop stop-color="#C9FFFF"/>
<stop offset="0.0853" stop-color="#C0FAFF"/>
<stop offset="0.4856" stop-color="#98E4FF"/>
<stop offset="0.8044" stop-color="#80D7FF"/>
<stop offset="1" stop-color="#77D2FF"/>
</linearGradient>
<linearGradient id="paint6_linear" x1="652.444" y1="313.219" x2="652.444" y2="135.619" gradientUnits="userSpaceOnUse">
<stop stop-color="#A0EAFC"/>
<stop offset="0.3257" stop-color="#A9EFFD"/>
<stop offset="0.8554" stop-color="#C1FBFE"/>
<stop offset="1" stop-color="#C9FFFF"/>
</linearGradient>
<linearGradient id="paint7_linear" x1="652.444" y1="147.359" x2="652.444" y2="287.746" gradientUnits="userSpaceOnUse">
<stop stop-color="white"/>
<stop offset="0.6227" stop-color="#FCFCFC"/>
<stop offset="0.9968" stop-color="#F4F4F4"/>
<stop offset="1" stop-color="#F4F4F4"/>
</linearGradient>
<linearGradient id="paint8_linear" x1="759.744" y1="285.031" x2="795.511" y2="285.031" gradientUnits="userSpaceOnUse">
<stop stop-color="#6CC7FC"/>
<stop offset="0.2276" stop-color="#70C9FC"/>
<stop offset="0.4635" stop-color="#7DCFFD"/>
<stop offset="0.7031" stop-color="#91D8FE"/>
<stop offset="0.9439" stop-color="#AEE5FF"/>
<stop offset="1" stop-color="#B6E9FF"/>
</linearGradient>
<linearGradient id="paint9_linear" x1="759.744" y1="264.406" x2="795.511" y2="264.406" gradientUnits="userSpaceOnUse">
<stop stop-color="#6CC7FC"/>
<stop offset="0.2276" stop-color="#70C9FC"/>
<stop offset="0.4635" stop-color="#7DCFFD"/>
<stop offset="0.7031" stop-color="#91D8FE"/>
<stop offset="0.9439" stop-color="#AEE5FF"/>
<stop offset="1" stop-color="#B6E9FF"/>
</linearGradient>
<linearGradient id="paint10_linear" x1="759.744" y1="243.781" x2="795.511" y2="243.781" gradientUnits="userSpaceOnUse">
<stop stop-color="#6CC7FC"/>
<stop offset="0.2276" stop-color="#70C9FC"/>
<stop offset="0.4635" stop-color="#7DCFFD"/>
<stop offset="0.7031" stop-color="#91D8FE"/>
<stop offset="0.9439" stop-color="#AEE5FF"/>
<stop offset="1" stop-color="#B6E9FF"/>
</linearGradient>
<linearGradient id="paint11_linear" x1="759.744" y1="223.156" x2="795.511" y2="223.156" gradientUnits="userSpaceOnUse">
<stop stop-color="#6CC7FC"/>
<stop offset="0.2276" stop-color="#70C9FC"/>
<stop offset="0.4635" stop-color="#7DCFFD"/>
<stop offset="0.7031" stop-color="#91D8FE"/>
<stop offset="0.9439" stop-color="#AEE5FF"/>
<stop offset="1" stop-color="#B6E9FF"/>
</linearGradient>
<linearGradient id="paint12_linear" x1="623.831" y1="155.094" x2="656.021" y2="155.094" gradientUnits="userSpaceOnUse">
<stop stop-color="#2EB8FF"/>
<stop offset="0.2589" stop-color="#30AFFF"/>
<stop offset="0.6798" stop-color="#3697FF"/>
<stop offset="1" stop-color="#3B80FF"/>
</linearGradient>
<linearGradient id="paint13_linear" x1="566.604" y1="161.281" x2="738.284" y2="161.281" gradientUnits="userSpaceOnUse">
<stop stop-color="#51D7FF"/>
<stop offset="0.2035" stop-color="#50D3FF"/>
<stop offset="0.4144" stop-color="#4DC6FF"/>
<stop offset="0.6286" stop-color="#48B2FF"/>
<stop offset="0.8439" stop-color="#4195FF"/>
<stop offset="1" stop-color="#3B7BFF"/>
</linearGradient>
<linearGradient id="paint14_linear" x1="580.911" y1="320.094" x2="723.977" y2="320.094" gradientUnits="userSpaceOnUse">
<stop stop-color="#5CA8C9"/>
<stop offset="0.0953" stop-color="#5AA3C7"/>
<stop offset="0.6555" stop-color="#4F8BBF"/>
<stop offset="1" stop-color="#4B82BC"/>
</linearGradient>
<linearGradient id="paint15_linear" x1="723.977" y1="320.094" x2="766.898" y2="320.094" gradientUnits="userSpaceOnUse">
<stop stop-color="#2A6FA8"/>
<stop offset="0.32" stop-color="#216FA5"/>
<stop offset="0.8404" stop-color="#096E9E"/>
<stop offset="1" stop-color="#006E9B"/>
</linearGradient>
<linearGradient id="paint16_linear" x1="809.818" y1="344.844" x2="760.63" y2="344.844" gradientUnits="userSpaceOnUse">
<stop stop-color="#C9FFFF"/>
<stop offset="0.0853" stop-color="#C0FAFF"/>
<stop offset="0.4856" stop-color="#98E4FF"/>
<stop offset="0.8044" stop-color="#80D7FF"/>
<stop offset="1" stop-color="#77D2FF"/>
</linearGradient>
<linearGradient id="paint17_linear" x1="764.513" y1="344.844" x2="537.988" y2="344.844" gradientUnits="userSpaceOnUse">
<stop stop-color="#A0EAFC"/>
<stop offset="0.3257" stop-color="#A9EFFD"/>
<stop offset="0.8554" stop-color="#C1FBFE"/>
<stop offset="1" stop-color="#C9FFFF"/>
</linearGradient>
<linearGradient id="paint18_linear" x1="808.029" y1="290.316" x2="808.029" y2="276.335" gradientUnits="userSpaceOnUse">
<stop stop-color="#00007C" stop-opacity="0"/>
<stop offset="1" stop-color="#00007C" stop-opacity="0.07"/>
</linearGradient>
<linearGradient id="paint19_linear" x1="1105.34" y1="334.381" x2="1105.34" y2="370.475" gradientUnits="userSpaceOnUse">
<stop stop-color="#E4E4E4"/>
<stop offset="0.3752" stop-color="#E0E0E0"/>
<stop offset="0.7634" stop-color="#D3D3D3"/>
<stop offset="1" stop-color="#C8C8C8"/>
</linearGradient>
<linearGradient id="paint20_linear" x1="313.322" y1="704.249" x2="262.216" y2="709.647" gradientUnits="userSpaceOnUse">
<stop stop-color="#EFEFEF"/>
<stop offset="0.5538" stop-color="#D7D8D9"/>
</linearGradient>
<linearGradient id="paint21_linear" x1="410.145" y1="696.438" x2="359.039" y2="701.836" gradientUnits="userSpaceOnUse">
<stop stop-color="#EFEFEF"/>
<stop offset="0.5538" stop-color="#D7D8D9"/>
</linearGradient>
<linearGradient id="paint22_linear" x1="390.657" y1="825.948" x2="391.007" y2="848.481" gradientUnits="userSpaceOnUse">
<stop stop-color="#2ECAFF"/>
<stop offset="1" stop-color="#1B236D"/>
</linearGradient>
<linearGradient id="paint23_linear" x1="297.516" y1="835.272" x2="297.865" y2="857.805" gradientUnits="userSpaceOnUse">
<stop stop-color="#2ECAFF"/>
<stop offset="1" stop-color="#1B236D"/>
</linearGradient>
<linearGradient id="paint24_linear" x1="314.489" y1="392.007" x2="313.476" y2="377.552" gradientUnits="userSpaceOnUse">
<stop stop-color="#E6E6E6"/>
<stop offset="0.4062" stop-color="#E2E2E2"/>
<stop offset="0.8264" stop-color="#D5D5D5"/>
<stop offset="1" stop-color="#CECECE"/>
</linearGradient>
<linearGradient id="paint25_linear" x1="319.056" y1="373.621" x2="307.218" y2="374.514" gradientUnits="userSpaceOnUse">
<stop stop-color="#FF7E45"/>
<stop offset="0.1983" stop-color="#FE7A4B"/>
<stop offset="0.4578" stop-color="#FC6D5B"/>
<stop offset="0.7499" stop-color="#F85876"/>
<stop offset="1" stop-color="#F44293"/>
</linearGradient>
<linearGradient id="paint26_linear" x1="409.578" y1="550.145" x2="252.723" y2="566.72" gradientUnits="userSpaceOnUse">
<stop stop-color="#92C4FE"/>
<stop offset="1" stop-color="#5BABF2"/>
</linearGradient>
<linearGradient id="paint27_linear" x1="371.207" y1="420.075" x2="283.414" y2="448.927" gradientUnits="userSpaceOnUse">
<stop stop-color="#92C4FE"/>
<stop offset="1" stop-color="#5BABF2"/>
</linearGradient>
<radialGradient id="paint28_radial" cx="0" cy="0" r="1" gradientUnits="userSpaceOnUse" gradientTransform="translate(113.009 620.73) rotate(-178.823) scale(15.2872 11.6223)">
<stop stop-color="#FF4945"/>
<stop offset="1" stop-color="#F92424"/>
</radialGradient>
<radialGradient id="paint29_radial" cx="0" cy="0" r="1" gradientUnits="userSpaceOnUse" gradientTransform="translate(488.767 357.545) rotate(164.417) scale(14.3893 12.3856)">
<stop stop-color="#FF4945"/>
<stop offset="1" stop-color="#F92424"/>
</radialGradient>
<radialGradient id="paint30_radial" cx="0" cy="0" r="1" gradientUnits="userSpaceOnUse" gradientTransform="translate(237.449 511.561) rotate(-178.823) scale(35.1749 26.7421)">
<stop stop-color="#FF4945"/>
<stop offset="1" stop-color="#F92424"/>
</radialGradient>
<radialGradient id="paint31_radial" cx="0" cy="0" r="1" gradientUnits="userSpaceOnUse" gradientTransform="translate(417.777 511.149) rotate(-178.823) scale(35.1749 26.7421)">
<stop stop-color="#FF4945"/>
<stop offset="1" stop-color="#F92424"/>
</radialGradient>
<linearGradient id="paint32_linear" x1="221.178" y1="603.225" x2="169.122" y2="608.726" gradientUnits="userSpaceOnUse">
<stop stop-color="#EFEFEF"/>
<stop offset="0.5538" stop-color="#D7D8D9"/>
</linearGradient>
<linearGradient id="paint33_linear" x1="513.715" y1="418.772" x2="472.761" y2="443.426" gradientUnits="userSpaceOnUse">
<stop stop-color="#EFEFEF"/>
<stop offset="0.5538" stop-color="#D7D8D9"/>
</linearGradient>
<linearGradient id="paint34_linear" x1="106.463" y1="631.25" x2="85.9538" y2="616.453" gradientUnits="userSpaceOnUse">
<stop stop-color="#92C4FE"/>
<stop offset="1" stop-color="#5BABF2"/>
</linearGradient>
<linearGradient id="paint35_linear" x1="510.367" y1="349.643" x2="484.299" y2="345.781" gradientUnits="userSpaceOnUse">
<stop stop-color="#92C4FE"/>
<stop offset="1" stop-color="#5BABF2"/>
</linearGradient>
<linearGradient id="paint36_linear" x1="389.778" y1="811.224" x2="390.344" y2="847.744" gradientUnits="userSpaceOnUse">
<stop stop-color="#2ECAFF"/>
<stop offset="1" stop-color="#3B71FF"/>
</linearGradient>
<linearGradient id="paint37_linear" x1="296.636" y1="820.548" x2="297.202" y2="857.068" gradientUnits="userSpaceOnUse">
<stop stop-color="#2ECAFF"/>
<stop offset="1" stop-color="#3B71FF"/>
</linearGradient>
</defs>
</svg>
