<svg width="1024" height="825" viewBox="0 0 1024 825" fill="none" xmlns="http://www.w3.org/2000/svg">
<g clip-path="url(#clip0)">
<path d="M738.121 784.606H114.404V787.068H738.121V784.606Z" fill="#3F3D56"/>
<path d="M231.555 745.429H180.458V792.945H231.555V745.429Z" fill="#CFCCE0"/>
<path d="M224.832 786.693H171.045V736.676H224.832V786.693ZM173.735 784.192H222.142V739.177H173.735L173.735 784.192Z" fill="#3F3D56"/>
<path d="M287.458 330.245L255.122 341.875L267.195 370.904L299.532 359.274L287.458 330.245Z" fill="#F2F2F2"/>
<path d="M293.688 356.985L259.65 369.227L246.941 338.67L280.98 326.428L293.688 356.985ZM260.716 367.087L291.351 356.069L279.913 328.568L249.278 339.586L260.716 367.087Z" fill="#3F3D56"/>
<path d="M160.768 532.57C179.726 532.948 194.808 545.725 194.808 545.725C194.808 545.725 179.151 557.888 160.192 557.51C141.234 557.131 126.152 544.355 126.152 544.355C126.152 544.355 141.809 532.192 160.768 532.57Z" fill="#6C63FF"/>
<path d="M65.4526 472.389C82.581 479.956 102.222 474.825 102.222 474.825C102.222 474.825 94.0919 457.425 76.9635 449.858C59.8352 442.291 40.1944 447.422 40.1944 447.422C40.1944 447.422 48.3242 464.822 65.4526 472.389Z" fill="#6C63FF"/>
<path d="M67.1938 464.869C86.0782 463.265 102.608 474.384 102.608 474.384C102.608 474.384 88.5194 488.106 69.635 489.711C50.7506 491.316 34.2213 480.196 34.2213 480.196C34.2213 480.196 48.3094 466.474 67.1938 464.869Z" fill="#3F3D56"/>
<path d="M136.418 467.91C134.608 485.464 146.492 500.884 146.492 500.884C146.492 500.884 161.31 487.845 163.12 470.291C164.93 452.737 153.047 437.317 153.047 437.317C153.047 437.317 138.228 450.356 136.418 467.91Z" fill="#3F3D56"/>
<path d="M225.354 575.566C215.449 590.604 218.857 609.309 218.857 609.309C218.857 609.309 238.324 603.633 248.229 588.596C258.134 573.558 254.726 554.853 254.726 554.853C254.726 554.853 235.259 560.529 225.354 575.566Z" fill="#3F3D56"/>
<path d="M196.619 739.063L198.062 738.155C192.975 731.289 190.196 723.171 190.081 714.834C190.122 702.637 196.564 691.356 202.794 680.446C203.95 678.421 205.103 676.403 206.212 674.386C210.866 666.16 214.575 657.501 217.277 648.553C226.941 615.157 217.427 575.756 191.827 543.155C171.518 517.293 141.244 494.677 99.2761 474.017L98.4612 475.449C140.19 495.991 170.27 518.451 190.42 544.11C215.712 576.318 225.123 615.205 215.595 648.132C212.924 656.971 209.259 665.524 204.661 673.648C203.556 675.658 202.407 677.669 201.255 679.687C194.926 690.77 188.381 702.231 188.339 714.829C188.454 723.492 191.336 731.927 196.619 739.063V739.063Z" fill="#3F3D56"/>
<path d="M16.5501 476.146C25.6902 476.146 33.0997 469.255 33.0997 460.756C33.0997 452.256 25.6902 445.366 16.5501 445.366C7.41006 445.366 0.000549316 452.256 0.000549316 460.756C0.000549316 469.255 7.41006 476.146 16.5501 476.146Z" fill="#3F3D56"/>
<path d="M414.447 785.482L247.717 785.4L249.026 698.357L331.886 732.989L415.755 700.525L414.447 785.482Z" fill="#3F3D56"/>
<path d="M285.368 745.987L260.992 745.67L260.856 754.737L285.232 755.054L285.368 745.987Z" fill="#6C63FF"/>
<path d="M416.313 700.406L332.037 740.36L248.588 700.406V698.101H416.313V700.406Z" fill="#6C63FF"/>
<path d="M698.425 407.133L790.888 412.276L785.742 434.091L693.28 428.949L698.425 407.133Z" fill="#1B236D"/>
<path d="M324.588 120.366L329.997 201.913L309.824 206.454L304.413 124.907L324.588 120.366Z" fill="#1B236D"/>
<path d="M607.806 438.136L422.591 443.89L437.934 275.254L623.149 269.498L607.806 438.136Z" fill="url(#paint0_linear)"/>
<path d="M781.425 442.201C791.158 441.571 799.779 433.673 800.68 424.56C801.582 415.448 794.422 408.572 784.689 409.202C774.956 409.832 766.335 417.73 765.434 426.843C764.533 435.955 771.692 442.831 781.425 442.201Z" fill="url(#paint1_radial)"/>
<path d="M311.587 133.188C321.273 131.925 329.49 123.478 329.939 114.322C330.389 105.165 322.901 98.7662 313.215 100.029C303.529 101.292 295.312 109.739 294.862 118.896C294.413 128.052 301.9 134.451 311.587 133.188Z" fill="url(#paint2_radial)"/>
<path d="M457.552 229.772L467.186 229.847L468.878 220.83L459.245 220.755L457.552 229.772Z" fill="#1B236D"/>
<path d="M553.16 231.694L562.793 231.769L564.486 222.752L554.852 222.677L553.16 231.694Z" fill="#1B236D"/>
<path d="M518.058 423.19L530.115 422.814L529.116 433.791L517.06 434.166L518.058 423.19Z" fill="#1B236D"/>
<path d="M430.188 423.53L442.244 423.154L441.245 434.132L429.189 434.506L430.188 423.53Z" fill="#1B236D"/>
<path d="M588.143 420.557L600.104 418.786L600.076 429.824L588.115 431.594L588.143 420.557Z" fill="#1B236D"/>
<path d="M482.613 277.599C481.394 277.681 480.456 276.816 480.483 275.58C480.511 274.272 481.607 273.043 482.931 272.837L535.919 264.555C537.244 264.358 538.294 265.242 538.266 266.549C538.238 267.857 537.142 269.087 535.818 269.293L482.83 277.575C482.757 277.588 482.683 277.595 482.613 277.599Z" fill="#1B236D"/>
<path d="M481.772 267.151C480.444 267.234 479.454 266.161 479.557 264.753C479.661 263.341 480.823 262.122 482.156 262.033L535.558 258.473C535.56 258.473 535.562 258.472 535.566 258.472C536.894 258.389 537.884 259.462 537.782 260.87C537.677 262.282 536.515 263.501 535.183 263.589L481.78 267.15C481.778 267.15 481.776 267.15 481.772 267.151Z" fill="#1B236D"/>
<path d="M481.208 260.966C479.886 261.049 478.896 259.988 478.996 258.585C479.098 257.177 480.259 255.959 481.59 255.866L534.978 252.129C536.275 252.108 537.307 253.102 537.204 254.509C537.102 255.915 535.941 257.135 534.61 257.228L481.222 260.965C481.22 260.965 481.214 260.965 481.208 260.966Z" fill="#1B236D"/>
<path d="M533.607 251.035C533.556 251.038 533.504 251.042 533.451 251.041L479.512 251.066C478.203 251.066 477.321 249.977 477.546 248.627C477.768 247.281 478.955 246.172 480.322 246.186L534.261 246.161C535.57 246.162 536.452 247.251 536.227 248.601C536.011 249.893 534.858 250.952 533.607 251.035Z" fill="#1B236D"/>
<path d="M532.963 244.717C532.904 244.721 532.841 244.723 532.782 244.723L480.352 244.188C479.047 244.176 478.186 243.082 478.428 241.745C478.671 240.409 479.922 239.328 481.226 239.351L533.656 239.886C534.962 239.898 535.823 240.992 535.58 242.329C535.349 243.601 534.202 244.634 532.963 244.717Z" fill="#1B236D"/>
<path d="M532.413 238.381C532.356 238.385 532.295 238.387 532.236 238.387L479.774 237.998C478.468 237.988 477.603 236.896 477.841 235.558C478.078 234.22 479.313 233.148 480.633 233.153L533.095 233.543C534.401 233.552 535.266 234.644 535.028 235.982C534.803 237.26 533.651 238.299 532.413 238.381Z" fill="#1B236D"/>
<path d="M653.207 282.939L689.45 399.202L657.789 412.412L621.546 296.149L653.207 282.939Z" fill="#1B236D"/>
<path d="M342.178 199.501L413.985 295.798L385.54 317.548L313.735 221.25L342.178 199.501Z" fill="#1B236D"/>
<path d="M622.087 330.192C644.452 328.744 664.262 310.595 666.333 289.656C668.404 268.717 651.953 252.916 629.587 254.365C607.222 255.813 587.412 273.962 585.341 294.901C583.27 315.84 599.721 331.64 622.087 330.192Z" fill="url(#paint3_radial)"/>
<path d="M413.04 355.359C435.405 353.911 455.215 335.763 457.286 314.823C459.357 293.884 442.906 278.084 420.54 279.532C398.175 280.98 378.365 299.129 376.294 320.068C374.223 341.007 390.674 356.808 413.04 355.359Z" fill="url(#paint4_radial)"/>
<path d="M814.96 425.707C814.213 425.758 813.534 425.443 813.207 424.81C812.704 423.839 813.221 422.484 814.36 421.784L842.047 404.783C843.184 404.083 844.518 404.3 845.019 405.276C845.521 406.246 845.005 407.601 843.866 408.301L816.179 425.303C815.782 425.548 815.361 425.679 814.96 425.707Z" fill="#1B236D"/>
<path d="M812.885 434.114C811.883 434.184 811.046 433.613 810.887 432.655C810.695 431.493 811.574 430.2 812.853 429.771L855.533 415.369C856.815 414.943 858.004 415.531 858.196 416.693C858.387 417.855 857.508 419.148 856.229 419.578L813.549 433.979C813.322 434.057 813.099 434.1 812.885 434.114Z" fill="#1B236D"/>
<path d="M850.099 442.93C849.941 442.94 849.779 442.935 849.62 442.914L812.198 437.659C810.967 437.488 810.324 436.335 810.756 435.09C811.191 433.842 812.551 432.976 813.765 433.146L851.187 438.401C852.419 438.572 853.062 439.725 852.629 440.971C852.251 442.055 851.18 442.855 850.099 442.93Z" fill="#1B236D"/>
<path d="M836.903 463.473C836.38 463.509 835.882 463.361 835.517 463.02L810.375 439.606C809.591 438.875 809.708 437.529 810.636 436.599C811.565 435.669 812.957 435.509 813.738 436.238L838.88 459.652C839.664 460.382 839.547 461.729 838.619 462.659C838.127 463.154 837.497 463.433 836.903 463.473Z" fill="#1B236D"/>
<path d="M783.927 476.947C783.731 476.959 783.533 476.939 783.342 476.889C782.328 476.61 781.86 475.484 782.297 474.37L795.617 440.348C796.055 439.234 797.234 438.555 798.241 438.831C799.255 439.11 799.723 440.236 799.286 441.35L785.966 475.372C785.612 476.273 784.773 476.893 783.927 476.947Z" fill="#1B236D"/>
<path d="M313.49 101.085C313.039 101.145 312.593 101.06 312.233 100.811C311.366 100.213 311.304 98.8989 312.092 97.8743L334.526 68.7512C335.316 67.7281 336.657 67.3827 337.523 67.979C338.39 68.5767 338.451 69.891 337.663 70.9156L315.229 100.039C314.768 100.637 314.121 101.002 313.49 101.085Z" fill="#1B236D"/>
<path d="M305.249 96.5233C304.305 96.6421 303.506 95.9778 303.414 94.9471L300.586 63.2418C300.487 62.1274 301.251 61.006 302.294 60.7377C303.325 60.4626 304.262 61.1534 304.36 62.2714L307.187 93.9767C307.287 95.091 306.523 96.2125 305.48 96.4807C305.401 96.4991 305.324 96.5138 305.249 96.5233Z" fill="#1B236D"/>
<path d="M292.446 100.16C291.633 100.265 290.899 99.8422 290.645 99.0358L281.112 68.6723C280.788 67.639 281.383 66.3653 282.44 65.8301C283.492 65.2938 284.618 65.6985 284.945 66.7314L294.478 97.0966C294.802 98.1299 294.207 99.4036 293.15 99.9388C292.917 100.056 292.678 100.13 292.446 100.16Z" fill="#1B236D"/>
<path d="M281.748 104.823C281.151 104.902 280.581 104.732 280.2 104.303L261.085 82.8138C260.385 82.0271 260.589 80.6667 261.542 79.7721C262.494 78.8811 263.831 78.7942 264.535 79.5822L283.65 101.072C284.35 101.858 284.144 103.219 283.193 104.113C282.759 104.517 282.246 104.757 281.748 104.823Z" fill="#1B236D"/>
<path d="M285.927 117.612C285.566 117.66 285.206 117.625 284.883 117.488L260.48 107.257C259.449 106.826 259.173 105.55 259.865 104.407C260.555 103.265 261.953 102.687 262.984 103.124L287.386 113.355C288.418 113.786 288.694 115.062 288.002 116.205C287.529 116.987 286.72 117.505 285.927 117.612Z" fill="#1B236D"/>
<path d="M683.342 440.807C700.116 439.721 714.973 426.109 716.527 410.403C718.08 394.698 705.741 382.847 688.967 383.934C672.193 385.02 657.336 398.632 655.783 414.337C654.229 430.042 666.568 441.893 683.342 440.807Z" fill="url(#paint5_linear)"/>
<path d="M322.537 238.662C339.23 236.486 353.391 221.928 354.166 206.147C354.94 190.366 342.036 179.338 325.343 181.515C308.649 183.691 294.488 198.249 293.713 214.03C292.939 229.811 305.843 240.839 322.537 238.662Z" fill="url(#paint6_linear)"/>
<path d="M469.561 396.867C470.195 390.017 476.874 384.275 484.476 384.04C491.847 383.815 497.366 388.853 497.12 395.401L533.187 364.39C523.859 351.596 507.521 343.579 488.168 344.175C468.309 344.786 449.954 354.318 438.225 368.345L469.517 398.046C469.513 397.657 469.524 397.266 469.561 396.867Z" fill="white"/>
<path d="M486.102 410.613C490.564 410.843 494.811 407.701 495.589 403.596C496.367 399.491 493.381 395.977 488.919 395.748C484.458 395.518 480.21 398.66 479.432 402.765C478.654 406.87 481.641 410.384 486.102 410.613Z" fill="#1B236D"/>
<path d="M461.797 364.684L484.225 400.912L482.491 402.04L460.064 365.812L461.797 364.684Z" fill="#1B236D"/>
<path d="M825.61 431.483L799.957 449.905L784.159 428.618L809.812 410.196L825.61 431.483Z" fill="url(#paint7_linear)"/>
<path d="M318.631 111.895L289.555 123.432L282.639 97.3841L311.717 85.8473L318.631 111.895Z" fill="url(#paint8_linear)"/>
<path d="M483.005 306.917L504.628 303.717L504.578 323.667L482.955 326.867L483.005 306.917Z" fill="white"/>
<path d="M517.847 302.721L539.47 299.52L539.42 319.471L517.797 322.671L517.847 302.721Z" fill="white"/>
<path d="M552.689 298.525L574.312 295.324L574.261 315.275L552.639 318.475L552.689 298.525Z" fill="white"/>
<path d="M591.809 411.837L553.883 413.064L559.692 345.605L597.616 344.378L591.809 411.837Z" fill="#5BABF2"/>
<path d="M325.266 217.916C330.443 217.24 334.835 212.726 335.075 207.832C335.315 202.938 331.313 199.518 326.136 200.194C320.958 200.869 316.567 205.383 316.326 210.277C316.086 215.171 320.088 218.591 325.266 217.916Z" fill="#F92424"/>
<path d="M686.419 419.595C691.622 419.258 696.229 415.037 696.711 410.166C697.193 405.296 693.366 401.621 688.164 401.958C682.961 402.295 678.354 406.516 677.872 411.386C677.39 416.257 681.217 419.932 686.419 419.595Z" fill="#F92424"/>
<path d="M628.492 298.079C633.694 297.743 638.302 293.521 638.783 288.651C639.265 283.781 635.438 280.106 630.236 280.443C625.034 280.78 620.426 285.001 619.944 289.871C619.463 294.741 623.289 298.416 628.492 298.079Z" fill="#F92424"/>
<path d="M412.299 325.323C417.501 324.986 422.109 320.765 422.59 315.894C423.072 311.024 419.245 307.349 414.043 307.686C408.841 308.023 404.233 312.244 403.751 317.114C403.27 321.985 407.096 325.66 412.299 325.323Z" fill="#F92424"/>
<g clip-path="url(#clip1)">
<path d="M555.679 204.866L456.187 208.295C451.849 208.444 448.225 204.433 448.091 199.334L447.609 180.87C447.475 175.771 450.883 171.517 455.222 171.367L554.714 167.939C559.052 167.789 562.677 171.801 562.81 176.9L563.293 195.363C563.426 200.463 560.018 204.716 555.679 204.866Z" fill="url(#paint9_linear)"/>
<path d="M545.85 229.845L467.304 232.552C461.52 232.751 456.687 227.401 456.509 220.604L454.819 155.981C454.642 149.183 459.187 143.51 464.97 143.311L543.517 140.604C549.3 140.405 554.134 145.754 554.312 152.552L556.001 217.175C556.179 223.973 551.634 229.646 545.85 229.845Z" fill="url(#paint10_linear)"/>
<path d="M506.218 117.249L500.982 117.429L501.464 135.893L506.701 135.713L506.218 117.249Z" fill="url(#paint11_linear)"/>
<path d="M503.68 120.416C508.018 120.267 511.427 116.012 511.294 110.914C511.16 105.815 507.536 101.803 503.198 101.953C498.86 102.102 495.451 106.357 495.584 111.455C495.718 116.554 499.342 120.566 503.68 120.416Z" fill="url(#paint12_linear)"/>
<path d="M526.678 198.165C531.739 197.991 535.716 193.027 535.56 187.079C535.404 181.131 531.176 176.45 526.115 176.624C521.054 176.799 517.077 181.762 517.233 187.711C517.388 193.659 521.617 198.34 526.678 198.165Z" fill="white"/>
<path d="M530.324 187.259C530.391 189.814 528.69 191.936 526.517 192.011C524.344 192.086 522.536 190.084 522.469 187.53C522.402 184.976 524.103 182.854 526.276 182.779C526.38 182.775 526.511 182.771 526.617 182.798C526.419 183.236 526.301 183.764 526.316 184.317C526.36 186.01 527.575 187.354 529.015 187.305C529.486 187.288 529.927 187.119 530.287 186.86C530.316 186.982 530.321 187.136 530.324 187.259Z" fill="url(#paint13_linear)"/>
<path d="M484.787 199.609C489.848 199.435 493.824 194.471 493.669 188.523C493.513 182.574 489.284 177.894 484.223 178.068C479.162 178.242 475.186 183.206 475.341 189.154C475.497 195.103 479.726 199.783 484.787 199.609Z" fill="white"/>
<path d="M488.432 188.703C488.499 191.257 486.799 193.38 484.626 193.454C482.453 193.529 480.644 191.528 480.578 188.974C480.511 186.42 482.211 184.297 484.384 184.223C484.489 184.219 484.62 184.214 484.725 184.242C484.527 184.68 484.41 185.207 484.424 185.761C484.469 187.454 485.683 188.798 487.123 188.748C487.594 188.732 488.035 188.563 488.396 188.304C488.425 188.426 488.429 188.58 488.432 188.703Z" fill="url(#paint14_linear)"/>
<path d="M516.245 200.065L495.3 200.787L495.38 203.864L516.326 203.142L516.245 200.065Z" fill="white"/>
<path d="M533.768 168.66C533.813 170.361 532.677 171.778 531.23 171.828L520.758 172.189C519.311 172.239 518.103 170.902 518.059 169.202C518.014 167.502 519.15 166.084 520.597 166.034L531.069 165.673C532.516 165.624 533.724 166.96 533.768 168.66Z" fill="url(#paint15_linear)"/>
<path d="M491.877 170.104C491.921 171.804 490.786 173.222 489.339 173.272L478.866 173.633C477.42 173.682 476.212 172.346 476.168 170.645C476.123 168.945 477.259 167.528 478.705 167.478L489.178 167.117C490.625 167.067 491.832 168.404 491.877 170.104Z" fill="url(#paint16_linear)"/>
<path d="M516.326 203.142C516.419 206.712 515.22 209.956 513.21 212.274C511.378 214.37 508.924 215.717 506.175 215.812C503.426 215.907 500.905 214.731 498.967 212.765C496.84 210.59 495.473 207.434 495.38 203.864L516.326 203.142Z" fill="url(#paint17_linear)"/>
<path opacity="0.2" d="M513.21 212.274C511.378 214.37 508.924 215.717 506.175 215.812C503.426 215.907 500.906 214.731 498.967 212.765C500.138 210.415 502.846 209.767 506.014 209.658C509.182 209.548 511.92 210.008 513.21 212.274Z" fill="black"/>
<path d="M531.822 131.767L476.184 133.684C472.764 133.802 470.051 137.187 470.157 141.207L470.207 143.13L480.474 142.777C482.16 142.718 483.691 143.935 484.273 145.796L484.858 147.664C485.634 150.146 487.675 151.769 489.923 151.691L519.048 150.687C521.295 150.61 523.247 148.85 523.893 146.319L524.379 144.414C524.862 142.516 526.327 141.196 528.013 141.138L538.28 140.784L538.23 138.86C538.125 134.841 535.241 131.649 531.822 131.767Z" fill="url(#paint18_linear)"/>
</g>
<path d="M563.47 561.96L590.583 560.05L600.05 737.134L572.936 739.044L563.47 561.96Z" fill="#1B236D"/>
<path d="M450.836 566.47L477.949 564.56L487.416 741.644L460.303 743.554L450.836 566.47Z" fill="#1B236D"/>
<path d="M446.583 468.649L490.468 466.666L489.602 441.426L543.283 439.001L544.149 464.241L589.733 462.181C597.145 461.846 602.497 467.265 602.736 474.233L605.476 554.159C605.635 558.806 602.608 562.715 597.667 562.938L543.986 565.364C539.045 565.587 534.06 562.039 533.901 557.393L532.603 519.533C532.523 517.209 531.305 515.379 528.835 515.49L510.942 516.299C508.47 516.411 505.683 518.424 505.763 520.746L507.061 558.606C507.22 563.252 504.193 567.162 499.252 567.385L445.571 569.81C440.63 570.034 435.645 566.486 435.486 561.84L432.746 481.914C432.507 474.945 439.171 468.984 446.583 468.649Z" fill="#72B5F7"/>
<path d="M576.816 596.336C593.59 595.25 608.447 581.638 610 565.933C611.554 550.228 599.215 538.377 582.441 539.463C565.667 540.549 550.81 554.161 549.256 569.867C547.703 585.572 560.042 597.423 576.816 596.336Z" fill="url(#paint19_linear)"/>
<path d="M579.893 575.124C585.095 574.787 589.703 570.566 590.185 565.696C590.666 560.826 586.84 557.15 581.637 557.487C576.435 557.824 571.827 562.045 571.345 566.916C570.864 571.786 574.69 575.461 579.893 575.124Z" fill="#F92424"/>
<path d="M461.563 599.343C478.337 598.257 493.194 584.645 494.747 568.94C496.301 553.235 483.962 541.384 467.188 542.47C450.414 543.556 435.557 557.169 434.003 572.874C432.45 588.579 444.789 600.43 461.563 599.343Z" fill="url(#paint20_linear)"/>
<path d="M464.64 578.131C469.842 577.794 474.45 573.573 474.932 568.703C475.413 563.833 471.586 560.158 466.384 560.494C461.182 560.831 456.574 565.053 456.092 569.923C455.611 574.793 459.437 578.468 464.64 578.131Z" fill="#F92424"/>
<path d="M572.535 733.123L601.966 731.05C605.217 730.821 607.415 732.951 607.565 735.759L608.516 753.557L642.053 756.004C653.507 756.84 662.29 764.748 662.822 774.701L662.988 777.793L575.253 783.974C572.002 784.203 568.686 782.151 568.536 779.343L566.361 738.662C566.211 735.854 569.282 733.352 572.535 733.123Z" fill="url(#paint21_linear)"/>
<path d="M456.765 779.911C456.87 782.764 459.108 784.857 461.765 784.585L485.814 782.117C488.471 781.845 490.539 779.31 490.435 776.456L488.917 735.116C488.812 732.263 486.574 730.17 483.917 730.442L459.868 732.91C457.212 733.183 455.143 735.717 455.248 738.571L456.765 779.911Z" fill="url(#paint22_linear)"/>
<path d="M495.592 781.114L451.987 785.588L451.699 777.744C451.222 764.749 460.827 753.189 472.868 751.953L472.753 751.965C484.794 750.73 494.827 760.275 495.304 773.27L495.592 781.114Z" fill="url(#paint23_linear)"/>
<path d="M488.398 524.372L450.679 524.46L452.141 480.915L489.858 480.827L488.398 524.372Z" fill="#5BABF2"/>
<path d="M459.37 494.212L480.992 491.012L480.942 510.963L459.319 514.163L459.37 494.212Z" fill="white"/>
<path d="M568.497 500.244L580.458 498.474L580.431 509.511L568.469 511.281L568.497 500.244Z" fill="#1B236D"/>
<path d="M586.701 523.193L555.637 523.268L556.841 486.605L587.904 486.53L586.701 523.193Z" fill="#5BABF2"/>
<path d="M562.795 497.8L580.602 495.106L580.561 511.903L562.753 514.598L562.795 497.8Z" fill="white"/>
<path d="M463.722 497.237L475.683 495.467L475.655 506.504L463.694 508.274L463.722 497.237Z" fill="#1B236D"/>
<path d="M463.722 497.237L475.683 495.467L475.655 506.504L463.694 508.274L463.722 497.237Z" fill="#1B236D"/>
<path d="M565.878 500.244L577.839 498.474L577.811 509.511L565.85 511.281L565.878 500.244Z" fill="#1B236D"/>
<path d="M1023.79 780.736H811.816V783.095H1023.79V780.736Z" fill="#3F3D56"/>
<path d="M917.383 768.716L704.356 697.567L742.388 599.096L875.029 568.846L955.415 670.246L917.383 768.716Z" fill="#2F2E41"/>
<path d="M891.576 749.19L732.381 692.758C773.708 641.28 792.189 604.967 792.203 547.826L951.398 604.258C914.414 653.113 898.948 689.839 891.576 749.19Z" fill="#F2F2F2"/>
<path d="M904.106 611.98L821.631 582.745L820.169 586.312L902.644 615.548L904.106 611.98Z" fill="#3F3D56"/>
<path d="M898.257 626.249L815.782 597.013L814.32 600.581L896.795 629.817L898.257 626.249Z" fill="#3F3D56"/>
<path d="M892.409 640.518L809.934 611.282L808.471 614.85L890.946 644.085L892.409 640.518Z" fill="#3F3D56"/>
<path d="M886.559 654.787L804.084 625.551L802.622 629.119L885.097 658.354L886.559 654.787Z" fill="#3F3D56"/>
<path d="M880.71 669.056L798.235 639.82L796.773 643.387L879.247 672.623L880.71 669.056Z" fill="#3F3D56"/>
<path d="M874.861 683.325L792.386 654.089L790.924 657.656L873.399 686.892L874.861 683.325Z" fill="#3F3D56"/>
<path d="M869.012 697.594L786.537 668.358L785.075 671.925L867.55 701.161L869.012 697.594Z" fill="#3F3D56"/>
<path d="M863.163 711.863L780.688 682.627L779.225 686.194L861.7 715.43L863.163 711.863Z" fill="#3F3D56"/>
<path d="M912.462 781.46L699.435 710.31L742.388 599.096L832.347 677.535L955.416 670.246L912.462 781.46Z" fill="#3F3D56"/>
<path d="M804.22 746.416L698 710.939L723.882 643.924L725.993 644.629L700.87 709.68L804.978 744.452L804.22 746.416Z" fill="#6C63FF"/>
<path d="M766.463 675.148L735.319 664.746L730.844 676.331L761.989 686.732L766.463 675.148Z" fill="#6C63FF"/>
<path d="M900.676 588.007C902.668 583.146 892.553 575.048 878.083 569.919C863.612 564.789 850.267 564.571 848.275 569.431C846.283 574.292 856.398 582.39 870.868 587.519C885.338 592.648 898.683 592.867 900.676 588.007Z" fill="#6C63FF"/>
<path d="M923.575 439.787C918.23 438.242 912.611 437.691 907.037 438.165C901.464 438.639 896.045 440.129 891.091 442.551C886.137 444.973 881.744 448.278 878.163 452.278C874.582 456.278 871.884 460.895 870.222 465.865C863.233 486.767 882.28 563.285 882.28 563.285C882.28 563.285 944.629 510.303 951.618 489.401C954.974 479.364 953.905 468.498 948.646 459.193C943.387 449.889 934.369 442.908 923.575 439.787V439.787ZM904.926 495.56C901.113 494.458 897.737 492.329 895.226 489.442C892.714 486.556 891.18 483.041 890.816 479.344C890.452 475.646 891.276 471.931 893.182 468.669C895.089 465.406 897.993 462.743 901.527 461.015C905.062 459.288 909.068 458.574 913.039 458.963C917.009 459.353 920.767 460.829 923.836 463.204C926.905 465.58 929.147 468.748 930.28 472.309C931.412 475.869 931.384 479.662 930.198 483.208C929.411 485.562 928.133 487.749 926.437 489.644C924.741 491.539 922.66 493.104 920.313 494.251C917.966 495.398 915.4 496.104 912.76 496.329C910.119 496.554 907.458 496.292 904.926 495.56V495.56Z" fill="#6C63FF"/>
</g>
<defs>
<linearGradient id="paint0_linear" x1="430.231" y1="359.545" x2="613.491" y2="376.142" gradientUnits="userSpaceOnUse">
<stop stop-color="#92C4FE"/>
<stop offset="1" stop-color="#5BABF2"/>
</linearGradient>
<radialGradient id="paint1_radial" cx="0" cy="0" r="1" gradientUnits="userSpaceOnUse" gradientTransform="translate(783.106 425.674) rotate(-8.42206) scale(17.869 16.1279)">
<stop stop-color="#FF4945"/>
<stop offset="1" stop-color="#F92424"/>
</radialGradient>
<radialGradient id="paint2_radial" cx="0" cy="0" r="1" gradientUnits="userSpaceOnUse" gradientTransform="translate(312.404 116.555) rotate(7.83138) scale(16.8229 17.1837)">
<stop stop-color="#FF4945"/>
<stop offset="1" stop-color="#F92424"/>
</radialGradient>
<radialGradient id="paint3_radial" cx="0" cy="0" r="1" gradientUnits="userSpaceOnUse" gradientTransform="translate(625.838 292.262) rotate(-8.42204) scale(41.1155 37.1091)">
<stop stop-color="#FF4945"/>
<stop offset="1" stop-color="#F92424"/>
</radialGradient>
<radialGradient id="paint4_radial" cx="0" cy="0" r="1" gradientUnits="userSpaceOnUse" gradientTransform="translate(416.792 317.437) rotate(-8.42204) scale(41.1155 37.1091)">
<stop stop-color="#FF4945"/>
<stop offset="1" stop-color="#F92424"/>
</radialGradient>
<linearGradient id="paint5_linear" x1="655.65" y1="416.876" x2="716.639" y2="417.006" gradientUnits="userSpaceOnUse">
<stop stop-color="#EFEFEF"/>
<stop offset="0.5538" stop-color="#D7D8D9"/>
</linearGradient>
<linearGradient id="paint6_linear" x1="295.206" y1="206.169" x2="349.233" y2="224.271" gradientUnits="userSpaceOnUse">
<stop stop-color="#EFEFEF"/>
<stop offset="0.5538" stop-color="#D7D8D9"/>
</linearGradient>
<linearGradient id="paint7_linear" x1="791.95" y1="439.307" x2="817.314" y2="420.397" gradientUnits="userSpaceOnUse">
<stop stop-color="#92C4FE"/>
<stop offset="1" stop-color="#5BABF2"/>
</linearGradient>
<linearGradient id="paint8_linear" x1="286.079" y1="110.4" x2="316.128" y2="102.385" gradientUnits="userSpaceOnUse">
<stop stop-color="#92C4FE"/>
<stop offset="1" stop-color="#5BABF2"/>
</linearGradient>
<linearGradient id="paint9_linear" x1="505.933" y1="206.58" x2="504.677" y2="170.12" gradientUnits="userSpaceOnUse">
<stop stop-color="#0079D3"/>
<stop offset="0.222" stop-color="#0070D4"/>
<stop offset="0.584" stop-color="#0058D5"/>
<stop offset="1" stop-color="#0034D8"/>
</linearGradient>
<linearGradient id="paint10_linear" x1="506.577" y1="231.199" x2="503.541" y2="143.086" gradientUnits="userSpaceOnUse">
<stop stop-color="#55C2FF"/>
<stop offset="0.1665" stop-color="#5EC7FF"/>
<stop offset="0.4381" stop-color="#76D4FF"/>
<stop offset="0.7789" stop-color="#9EEAFF"/>
<stop offset="1" stop-color="#BBFAFF"/>
</linearGradient>
<linearGradient id="paint11_linear" x1="504.095" y1="136.264" x2="503.4" y2="116.105" gradientUnits="userSpaceOnUse">
<stop stop-color="#E6E6E6"/>
<stop offset="0.4062" stop-color="#E2E2E2"/>
<stop offset="0.8264" stop-color="#D5D5D5"/>
<stop offset="1" stop-color="#CECECE"/>
</linearGradient>
<linearGradient id="paint12_linear" x1="495.584" y1="111.455" x2="511.297" y2="111.044" gradientUnits="userSpaceOnUse">
<stop stop-color="#FF7E45"/>
<stop offset="0.1983" stop-color="#FE7A4B"/>
<stop offset="0.4578" stop-color="#FC6D5B"/>
<stop offset="0.7499" stop-color="#F85876"/>
<stop offset="1" stop-color="#F44293"/>
</linearGradient>
<linearGradient id="paint13_linear" x1="526.252" y1="181.881" x2="526.628" y2="192.778" gradientUnits="userSpaceOnUse">
<stop stop-color="#4C4B4B"/>
<stop offset="1" stop-color="#3A3838"/>
</linearGradient>
<linearGradient id="paint14_linear" x1="484.361" y1="183.325" x2="484.736" y2="194.221" gradientUnits="userSpaceOnUse">
<stop stop-color="#4C4B4B"/>
<stop offset="1" stop-color="#3A3838"/>
</linearGradient>
<linearGradient id="paint15_linear" x1="525.813" y1="165.085" x2="526.071" y2="172.583" gradientUnits="userSpaceOnUse">
<stop stop-color="#0079D3"/>
<stop offset="0.222" stop-color="#0070D4"/>
<stop offset="0.584" stop-color="#0058D5"/>
<stop offset="1" stop-color="#0034D8"/>
</linearGradient>
<linearGradient id="paint16_linear" x1="483.922" y1="166.528" x2="484.18" y2="174.027" gradientUnits="userSpaceOnUse">
<stop stop-color="#0079D3"/>
<stop offset="0.222" stop-color="#0070D4"/>
<stop offset="0.584" stop-color="#0058D5"/>
<stop offset="1" stop-color="#0034D8"/>
</linearGradient>
<linearGradient id="paint17_linear" x1="495.541" y1="210.019" x2="516.491" y2="209.471" gradientUnits="userSpaceOnUse">
<stop stop-color="#259CE5"/>
<stop offset="0.018" stop-color="#259BE4"/>
<stop offset="0.6261" stop-color="#2183D3"/>
<stop offset="1" stop-color="#1F7ACC"/>
</linearGradient>
<linearGradient id="paint18_linear" x1="470.207" y1="143.13" x2="538.295" y2="141.35" gradientUnits="userSpaceOnUse">
<stop stop-color="#FF7E45"/>
<stop offset="0.1983" stop-color="#FE7A4B"/>
<stop offset="0.4578" stop-color="#FC6D5B"/>
<stop offset="0.7499" stop-color="#F85876"/>
<stop offset="1" stop-color="#F44293"/>
</linearGradient>
<linearGradient id="paint19_linear" x1="549.123" y1="572.406" x2="610.112" y2="572.536" gradientUnits="userSpaceOnUse">
<stop stop-color="#EFEFEF"/>
<stop offset="0.5538" stop-color="#D7D8D9"/>
</linearGradient>
<linearGradient id="paint20_linear" x1="433.87" y1="575.413" x2="494.859" y2="575.543" gradientUnits="userSpaceOnUse">
<stop stop-color="#EFEFEF"/>
<stop offset="0.5538" stop-color="#D7D8D9"/>
</linearGradient>
<linearGradient id="paint21_linear" x1="613.179" y1="730.26" x2="616.795" y2="781.585" gradientUnits="userSpaceOnUse">
<stop stop-color="#2ECAFF"/>
<stop offset="0.1841" stop-color="#2FC1FF"/>
<stop offset="0.4844" stop-color="#33A9FF"/>
<stop offset="0.8612" stop-color="#3981FF"/>
<stop offset="1" stop-color="#3B71FF"/>
</linearGradient>
<linearGradient id="paint22_linear" x1="471.884" y1="731.461" x2="477.067" y2="781.971" gradientUnits="userSpaceOnUse">
<stop stop-color="#2ECAFF"/>
<stop offset="1" stop-color="#3B71FF"/>
</linearGradient>
<linearGradient id="paint23_linear" x1="472.638" y1="751.977" x2="475.835" y2="783.141" gradientUnits="userSpaceOnUse">
<stop stop-color="#2ECAFF"/>
<stop offset="1" stop-color="#1B236D"/>
</linearGradient>
<clipPath id="clip0">
<rect width="1024" height="825" fill="white"/>
</clipPath>
<clipPath id="clip1">
<rect width="115.27" height="129.29" fill="white" transform="matrix(0.999407 -0.0344416 0.02614 0.999658 445.597 103.938)"/>
</clipPath>
</defs>
</svg>
