<svg width="1348" height="930" viewBox="0 0 1348 930" fill="none" xmlns="http://www.w3.org/2000/svg">
<path d="M1148.91 795.558C1090.95 772.851 578.744 770.966 578.744 770.966C576.981 772.018 572.012 773.318 564.982 774.855C563.603 778.214 561.765 782.261 559.393 786.677C553.976 796.767 544.088 802.527 530.004 803.798C528.065 803.972 526.046 804.06 523.953 804.06C511.293 804.06 495.833 800.852 477.794 794.504C454.782 801.616 440.052 810.005 451.421 819.503C574.429 922.268 975.834 928.529 1068.4 889.847C1131.42 863.51 1171.05 804.233 1148.91 795.558Z" fill="#324A58"/>
<path d="M544.265 677.388C547.644 679.661 551.672 680.986 556 680.986C567.921 680.986 577.585 670.974 577.585 658.623C577.585 655.032 576.763 651.641 575.312 648.634L544.265 677.388Z" fill="#FF9B19"/>
<path d="M528.918 800.522C541.888 799.352 550.936 794.156 555.81 785.08C558.895 779.336 561.066 774.179 562.47 770.448C552.148 765.143 537.686 761.845 521.673 761.845C492.7 761.845 468.797 772.64 465.326 786.586C491.663 797.265 513.042 801.953 528.918 800.522Z" fill="#2568EF"/>
<path d="M565.296 772.01C563.854 775.805 561.671 780.927 558.584 786.677C553.166 796.767 543.278 802.527 529.194 803.798C527.255 803.972 525.237 804.06 523.144 804.06C507.74 804.06 488.199 799.32 464.896 789.937C464.895 789.988 464.892 790.039 464.892 790.091C464.892 805.691 490.314 818.337 521.674 818.337C553.034 818.337 578.456 805.691 578.456 790.091C578.455 783.213 573.51 776.909 565.296 772.01Z" fill="#2568EF"/>
<path d="M518.95 603.263C518.95 603.263 509.616 611.268 503.782 619.504C497.949 627.74 462.636 585.389 483.296 576.968C503.956 568.547 518.95 603.263 518.95 603.263Z" fill="#2568EF"/>
<path d="M609.996 673.753C609.848 673.753 609.698 673.738 609.547 673.705L591.163 669.801C589.961 669.546 589.187 668.329 589.433 667.084C589.68 665.839 590.853 665.035 592.056 665.292L610.439 669.196C611.641 669.451 612.416 670.668 612.169 671.913C611.954 673.003 611.029 673.753 609.996 673.753Z" fill="#FF9B19"/>
<path d="M587.7 697.244C587.085 697.244 586.473 696.981 586.034 696.466L574.133 682.51C573.32 681.557 573.407 680.102 574.327 679.262C575.247 678.421 576.65 678.511 577.462 679.463L589.363 693.419C590.175 694.372 590.088 695.827 589.169 696.668C588.747 697.054 588.222 697.244 587.7 697.244Z" fill="#FF9B19"/>
<path d="M477.148 692.928L456.66 697.833C457.387 700.137 458.172 702.468 459.012 704.826C464.629 705.286 473.735 706.058 482.29 706.789C480.288 701.929 478.582 697.311 477.148 692.928Z" fill="#324A58"/>
<path d="M470.777 662.009L449.998 648.451C449.424 654.955 449.536 661.8 450.335 668.98L472.375 674.601C471.53 670.086 471.018 665.897 470.777 662.009Z" fill="#324A58"/>
<path d="M473.099 678.171L450.772 672.477C451.765 679.565 453.409 686.971 455.697 694.688L476.157 689.791C474.909 685.711 473.897 681.839 473.099 678.171Z" fill="#324A58"/>
<path d="M477.131 629.022L461.316 614.298C458.643 618.407 456.247 623.088 454.324 628.416C453.35 631.118 452.532 633.899 451.861 636.752L475.437 632.35C475.969 631.188 476.537 630.084 477.131 629.022Z" fill="#324A58"/>
<path d="M450.394 644.823L470.622 658.022C470.487 649.17 471.816 642.03 473.829 636.331C473.873 636.207 473.923 636.089 473.968 635.967L451.127 640.231C450.841 641.742 450.596 643.272 450.394 644.823Z" fill="#324A58"/>
<path d="M503.369 607.682L503.3 607.699L498.381 586.608C497.334 586.87 477.259 592.127 463.168 611.602L478.847 626.2C488.287 611.863 502.642 607.874 503.369 607.682Z" fill="#324A58"/>
<path d="M519.486 772.913C515.014 766.397 510.925 760.145 507.178 754.136L484.519 757.578C489.873 766.596 495.837 775.9 502.419 785.489C504.461 788.464 507.686 790.051 510.961 790.051C513.06 790.051 515.18 789.398 517.021 788.042C521.734 784.569 522.838 777.796 519.486 772.913Z" fill="#324A58"/>
<path d="M483.732 710.212C475.411 709.5 466.299 708.726 460.255 708.226C462.253 713.551 464.529 719.01 467.089 724.603L487.867 719.3C486.378 716.184 484.999 713.153 483.732 710.212Z" fill="#324A58"/>
<path d="M489.327 722.313L468.496 727.63C469.697 730.175 470.953 732.748 472.268 735.347C479.274 735.812 488.708 736.481 497.092 737.086C494.232 731.958 491.653 727.038 489.327 722.313Z" fill="#324A58"/>
<path d="M499.033 740.523C490.883 739.933 481.384 739.255 474.02 738.758C476.701 743.911 479.604 749.168 482.725 754.527L505.301 751.098C503.088 747.483 500.996 743.956 499.033 740.523Z" fill="#324A58"/>
<path d="M557.197 713.144C555.97 713.144 554.976 712.114 554.976 710.843V692.158C554.976 690.887 555.97 689.857 557.197 689.857C558.424 689.857 559.418 690.887 559.418 692.158V710.843C559.418 712.114 558.424 713.144 557.197 713.144Z" fill="#FF9B19"/>
<path d="M781.607 808.887H751.459C750.583 808.887 749.873 808.152 749.873 807.244C749.873 806.336 750.583 805.6 751.459 805.6H781.607C782.483 805.6 783.194 806.336 783.194 807.244C783.194 808.152 782.483 808.887 781.607 808.887Z" fill="#324A58"/>
<path d="M981.15 828.949L1037.02 795.645L1093.22 798.16L1051.1 834.559L981.15 828.949Z" fill="#2568EF"/>
<path d="M981.15 828.949L1051.1 834.559V853.901L981.15 844.767V828.949Z" fill="#FFE7E6"/>
<path d="M1093.22 798.16V808.298L1051.1 853.901V834.559L1093.22 798.16Z" fill="#FF9B19"/>
<path d="M1046.1 765.973C1046.07 765.973 1046.04 765.973 1046.01 765.971C1045.14 765.923 1044.47 765.148 1044.51 764.241L1046.04 734.867C1046.08 734.074 1046.66 733.426 1047.42 733.325C1048.18 733.224 1048.9 733.698 1049.13 734.454C1049.21 734.689 1049.76 736.371 1051.01 738.594C1051.13 738.551 1051.27 738.523 1051.41 738.513C1079.48 736.553 1082.27 751.594 1082.37 752.235C1082.52 753.119 1081.95 753.961 1081.1 754.126C1078.36 754.66 1075.82 754.9 1073.47 754.9C1059.86 754.9 1052.45 746.892 1048.89 741.154L1047.68 764.417C1047.64 765.294 1046.94 765.973 1046.1 765.973ZM1053.04 741.708C1057.13 747.132 1064.93 753.273 1078.7 751.207C1077.2 747.92 1071.76 740.764 1053.04 741.708Z" fill="#FF9B19"/>
<path d="M1057.06 759.63C1053 759.63 1049.23 761.363 1046.1 764.329C1043.7 761.361 1040.84 759.63 1037.76 759.63C1029.32 759.63 1022.47 772.619 1022.47 788.642C1022.47 804.665 1029.32 817.654 1037.76 817.654C1040.05 817.654 1042.22 816.698 1044.17 814.986C1046.31 813.102 1048.85 812.702 1051.22 813.743C1053.07 814.552 1055.03 814.989 1057.06 814.989C1067.92 814.989 1076.73 802.596 1076.73 787.309C1076.73 772.022 1067.92 759.63 1057.06 759.63ZM1069.81 776.916C1069.59 777.02 1069.37 777.068 1069.14 777.068C1068.54 777.068 1067.97 776.714 1067.7 776.114C1065.72 771.673 1063.14 768.862 1060.02 767.758C1055.98 766.328 1052.29 768.274 1052.25 768.294C1051.47 768.712 1050.52 768.402 1050.11 767.6C1049.7 766.799 1050 765.81 1050.77 765.386C1050.96 765.277 1055.64 762.76 1061 764.63C1064.99 766.023 1068.21 769.423 1070.58 774.734C1070.95 775.559 1070.6 776.536 1069.81 776.916Z" fill="#FF564F"/>
<path d="M533.852 664.766C531.826 658.023 529.511 647.068 534.33 643.225C537.995 640.302 544.499 642.183 554.148 648.982C552.657 643.498 551.274 635.038 555.525 631.437C559.011 628.484 565.098 629.595 574.053 634.845C572.084 630.81 570.036 625.547 570.329 621.559L540.776 606.041C532.599 601.747 521.063 604.836 512.86 613.515C504.378 622.49 501.776 634.98 506.646 643.338L516.068 659.724C516.223 659.59 516.381 659.461 516.551 659.344C520.103 656.898 525.785 658.668 533.852 664.766Z" fill="#2568EF"/>
<path d="M518.309 662.081C518.097 662.227 517.904 662.406 517.729 662.613L525.657 676.399C528.45 674.055 531.372 671.684 534.382 669.31C523.854 660.725 519.803 661.051 518.309 662.081Z" fill="#2568EF"/>
<path d="M588.343 631.017L573.484 623.216C573.854 626.983 576.382 632.756 578.948 637.246C582.362 634.956 585.525 632.864 588.343 631.017Z" fill="#2568EF"/>
<path d="M536.265 645.83C532.946 648.477 535.217 659.179 537.794 666.646C543.457 662.266 549.342 657.912 555.151 653.739C542.318 644.042 537.814 644.594 536.265 645.83Z" fill="#2568EF"/>
<path d="M557.535 633.981C554.434 636.606 556.215 645.671 558.257 651.518C564.268 647.245 570.129 643.203 575.506 639.565C563.429 631.793 559.071 632.682 557.535 633.981Z" fill="#2568EF"/>
<path d="M538.078 670.825C537.868 670.984 537.63 671.081 537.387 671.12C533.892 673.854 530.507 676.585 527.308 679.271L529.449 682.995C531.982 687.398 537.571 688.681 541.66 685.797L594.886 648.262C599.93 644.704 599.442 636.846 594 633.988L591.661 632.76C578.768 641.196 557.252 655.681 538.578 670.193C538.468 670.437 538.299 670.656 538.078 670.825Z" fill="#2568EF"/>
<path d="M1171.61 600.628C1171.58 600.628 1171.55 600.627 1171.52 600.627L1102.67 598.078C1101.3 598.028 1100.22 596.866 1100.22 595.449V557.382L1003.12 556.718C1001.85 556.709 1000.79 555.735 1000.62 554.435L990.521 475.984C990.336 474.544 991.312 473.221 992.702 473.029C994.094 472.837 995.368 473.849 995.554 475.288L1005.36 551.472L1102.78 552.138C1104.17 552.148 1105.3 553.322 1105.3 554.768V592.911L1171.7 595.369C1173.1 595.42 1174.19 596.639 1174.14 598.091C1174.1 599.512 1172.97 600.628 1171.61 600.628Z" fill="#FF9B19"/>
<path d="M1016.95 530.881L1018.43 543.495L1038.94 541.34L1037.23 526.799L1016.95 530.881Z" fill="#2568EF"/>
<path d="M1147.78 518.124L1130.9 521.52L1132.32 529.124L1149.21 525.727L1147.78 518.124Z" fill="#FF564F"/>
<path d="M1150.7 533.707L1133.82 537.104L1141.01 575.463L1157.89 572.066L1150.7 533.707Z" fill="#FF564F"/>
<path d="M1158.71 576.404L1141.82 579.8L1143.1 586.65L1159.99 583.253L1158.71 576.404Z" fill="#FF564F"/>
<path d="M1134.29 582.717L1116.3 484.27L1105.58 486.426L1123.47 584.333L1134.29 582.717Z" fill="#2568EF"/>
<path d="M1112 460.782L1101.19 462.398L1104.78 482.083L1115.5 479.927L1112 460.782Z" fill="#2568EF"/>
<path d="M1072.18 467.66H1042.63V542.812H1072.18V467.66Z" fill="#FF564F"/>
<path d="M1072.18 453.756H1042.63V464.091H1072.18V453.756Z" fill="#FF564F"/>
<path d="M1093.94 475.405L1077.05 478.801L1086.43 528.88L1103.32 525.484L1093.94 475.405Z" fill="#2568EF"/>
<path d="M1104.59 532.274L1087.71 535.67L1089.26 543.935L1106.14 540.538L1104.59 532.274Z" fill="#2568EF"/>
<path d="M1022.42 572.003C1025.26 572.003 1027.56 569.616 1027.56 566.671C1027.56 563.727 1025.26 561.339 1022.42 561.339C1019.58 561.339 1017.27 563.727 1017.27 566.671C1017.27 569.616 1019.58 572.003 1022.42 572.003Z" fill="#FF9B19"/>
<path d="M1082.6 572.003C1085.44 572.003 1087.75 569.616 1087.75 566.671C1087.75 563.727 1085.44 561.339 1082.6 561.339C1079.76 561.339 1077.45 563.727 1077.45 566.671C1077.45 569.616 1079.76 572.003 1082.6 572.003Z" fill="#FF9B19"/>
<path d="M1162.98 616.638C1165.83 616.638 1168.13 614.251 1168.13 611.306C1168.13 608.362 1165.83 605.974 1162.98 605.974C1160.14 605.974 1157.84 608.362 1157.84 611.306C1157.84 614.251 1160.14 616.638 1162.98 616.638Z" fill="#FF9B19"/>
<path d="M548.633 773.191L550.917 764.259C552.122 759.55 548.507 755.006 543.815 755.333L543.446 755.359C539.839 755.61 537.037 758.715 537.037 762.461V774.328L548.633 773.191Z" fill="#FFE7E6"/>
<path d="M682.035 786L764.605 794.939V866.053L632 855.949L682.035 786Z" fill="#2568EF"/>
<path d="M683.785 790.231L640.581 849.256L688.434 853.695L715.318 794.858L683.785 790.231Z" fill="#FFE7E6"/>
<path d="M720.292 794.571L692.56 853.695L758.406 858.834L760.756 798.894L720.292 794.571Z" fill="#FFE7E6"/>
<path d="M743.776 825.526C743.694 825.526 743.611 825.519 743.528 825.505L716.304 821.073C715.438 820.932 714.846 820.091 714.982 819.194C715.118 818.297 715.928 817.684 716.796 817.825L744.02 822.257C744.886 822.398 745.477 823.24 745.341 824.137C745.218 824.947 744.543 825.526 743.776 825.526Z" fill="#324A58"/>
<path d="M669.783 823.601C668.955 823.601 668.258 822.935 668.201 822.067C668.142 821.161 668.804 820.378 669.678 820.316L694.18 818.61C695.053 818.551 695.81 819.233 695.869 820.14C695.928 821.045 695.267 821.829 694.392 821.89L669.891 823.597C669.855 823.599 669.818 823.601 669.783 823.601Z" fill="#324A58"/>
<path d="M752.236 848.891C752.198 848.891 752.16 848.89 752.121 848.887L708.563 845.664C707.689 845.6 707.031 844.813 707.094 843.907C707.156 843.003 707.907 842.323 708.789 842.385L752.348 845.608C753.222 845.673 753.88 846.459 753.817 847.365C753.757 848.231 753.061 848.891 752.236 848.891Z" fill="#324A58"/>
<path d="M752.236 826.461C752.185 826.461 752.133 826.458 752.081 826.453L715.164 822.74C714.292 822.653 713.654 821.849 713.738 820.945C713.823 820.041 714.596 819.382 715.471 819.468L752.387 823.181C753.259 823.268 753.898 824.072 753.813 824.976C753.734 825.826 753.044 826.461 752.236 826.461Z" fill="#324A58"/>
<path d="M752.236 838.415C752.182 838.415 752.127 838.412 752.071 838.406L714.387 834.377C713.516 834.284 712.882 833.476 712.972 832.573C713.062 831.669 713.842 831.012 714.713 831.106L752.398 835.136C753.269 835.229 753.903 836.037 753.813 836.94C753.728 837.786 753.04 838.415 752.236 838.415Z" fill="#324A58"/>
<path d="M754.666 792.154C754.612 792.154 754.558 792.152 754.505 792.146L742.253 790.864C741.381 790.772 740.746 789.966 740.834 789.063C740.923 788.159 741.7 787.498 742.573 787.592L754.824 788.875C755.696 788.966 756.331 789.772 756.243 790.676C756.16 791.523 755.47 792.154 754.666 792.154Z" fill="#324A58"/>
<path d="M692.561 834.386C692.521 834.386 692.482 834.384 692.441 834.381L663.443 832.135C662.569 832.067 661.913 831.278 661.979 830.373C662.044 829.467 662.801 828.795 663.679 828.856L692.678 831.102C693.552 831.17 694.207 831.959 694.142 832.864C694.08 833.728 693.384 834.386 692.561 834.386Z" fill="#324A58"/>
<path d="M538.813 75.8968L381.217 115.344C355.338 121.587 331.117 133.713 310.299 150.848L224.047 221.892C210.432 230.141 198.502 241.075 188.93 254.078C217.594 290.996 285.718 385.504 303.886 470.88C318.006 469.529 331.788 465.621 344.608 459.332L450.949 426.742C476.193 418.998 499.488 405.585 519.181 387.453L640.285 254.537C627.685 176.435 564.88 103.354 538.813 75.8968Z" fill="#346E93"/>
<path d="M670.699 42.8806L619.757 55.6347C642.585 81.051 680.002 130.648 694.434 195.095L728.82 157.354L670.699 42.8806Z" fill="#346E93"/>
<path d="M596.999 61.3315L561.592 70.1959C590.389 101.826 640.611 164.971 657.174 235.99L677.537 213.641C665.492 138.978 617.04 82.1194 596.999 61.3315Z" fill="#346E93"/>
<path d="M177.596 272.929C170.36 287.278 166.54 303.216 166.454 319.412C166.369 335.607 170.021 351.589 177.106 366.018L203.539 418.078C219.295 449.107 249.6 467.8 283.318 470.914C265.75 395.858 206.711 311.333 177.596 272.929Z" fill="#346E93"/>
<path d="M470.211 309.654C528.496 277.761 562.02 224.874 545.088 191.528C528.156 158.182 467.18 157.004 408.895 188.897C350.609 220.79 317.086 273.677 334.018 307.023C350.95 340.369 411.925 341.547 470.211 309.654Z" fill="#2568EF"/>
<path d="M772.332 19.0544L619.962 51.8285C645.246 81.46 682.534 135.235 692.444 203.458L804.209 72.4746C807.269 66.8847 808.822 60.5424 808.705 54.1142C808.587 47.686 806.804 41.4092 803.543 35.9436C800.281 30.4779 795.662 26.0251 790.17 23.0532C784.678 20.0813 778.516 18.7 772.332 19.0544V19.0544Z" fill="#2568EF"/>
<path d="M596.428 56.8951L596.922 56.7866L596.753 56.5988C596.544 56.7741 596.428 56.8951 596.428 56.8951Z" fill="#2568EF"/>
<path d="M167.867 303.796L73.748 321.78C73.748 321.78 120.46 365.876 147.625 419.363C178.143 479.461 181.826 530.907 181.826 530.907L256.057 464.687L167.867 303.796Z" fill="#2568EF"/>
<path d="M285.063 171.636C285.063 171.636 183.727 64.9039 69 153.072C69 153.072 196.013 228.762 192.335 249.675L285.063 171.636Z" fill="#FF564F"/>
<path d="M313.535 469.566C332.43 491.852 318.938 629.309 318.938 629.309C460.553 491.585 424.785 434.763 424.785 434.763L313.535 469.566Z" fill="#FF564F"/>
<path d="M310.536 330.222C310.536 330.222 166.693 317.873 103.977 432.297L86.4321 460.159C86.4321 460.159 226.061 465.367 310.536 330.222Z" fill="#FF564F"/>
<path d="M532.308 224.426C529.135 232.839 524.524 240.587 518.695 247.296C503.059 265.037 484.448 279.681 463.77 290.516C443.471 302.102 421.315 309.765 398.379 313.132C375.637 315.72 359.519 310.061 352.99 297.206C346.461 284.352 351.077 267.35 365.984 249.333C381.624 231.595 400.235 216.95 420.913 206.113C441.213 194.527 463.37 186.866 486.307 183.501C509.05 180.913 525.168 186.568 531.697 199.427C533.505 203.309 534.496 207.547 534.601 211.858C534.706 216.169 533.924 220.453 532.308 224.426ZM371.266 279.248C370.066 281.816 369.888 284.771 370.772 287.474C372.637 291.147 381.225 294.089 396.192 292.39C416.617 289.312 436.336 282.424 454.398 272.057C472.842 262.446 489.459 249.451 503.446 233.699C513.259 221.842 515.772 212.832 513.899 209.155C512.025 205.478 503.446 202.54 488.478 204.243C468.055 207.32 448.337 214.209 430.276 224.576C411.832 234.184 395.215 247.178 381.229 262.93C377.008 267.718 373.635 273.242 371.266 279.248Z" fill="white"/>
<path d="M748.351 499.966C759.315 499.966 768.203 490.724 768.203 479.325C768.203 467.925 759.315 458.684 748.351 458.684C737.387 458.684 728.499 467.925 728.499 479.325C728.499 490.724 737.387 499.966 748.351 499.966Z" fill="#FF9B19"/>
<path d="M703.799 431.819C714.459 431.819 723.1 422.834 723.1 411.751C723.1 400.668 714.459 391.684 703.799 391.684C693.14 391.684 684.499 400.668 684.499 411.751C684.499 422.834 693.14 431.819 703.799 431.819Z" fill="#FF9B19"/>
<path d="M649.799 367.819C660.458 367.819 669.1 358.834 669.1 347.751C669.1 336.668 660.458 327.684 649.799 327.684C639.14 327.684 630.499 336.668 630.499 347.751C630.499 358.834 639.14 367.819 649.799 367.819Z" fill="#FF9B19"/>
<path d="M884.999 774.683H750.999V784.683H760.499H787.999L838.999 792.683L865.499 808.183L884.999 792.683V774.683Z" fill="#324A58"/>
<path d="M948.943 691.878L1011.07 695.299L1007.61 709.807L945.486 706.388L948.943 691.878Z" fill="#1B236D"/>
<path d="M697.743 501.149L701.378 555.386L687.823 558.406L684.187 504.169L697.743 501.149Z" fill="#1B236D"/>
<path d="M888.051 712.498L763.597 716.325L773.906 604.165L898.361 600.337L888.051 712.498Z" fill="url(#paint0_linear)"/>
<path d="M1004.71 715.202C1011.25 714.782 1017.05 709.529 1017.65 703.469C1018.26 697.408 1013.45 692.835 1006.91 693.254C1000.37 693.673 994.575 698.926 993.969 704.987C993.364 711.047 998.174 715.621 1004.71 715.202Z" fill="url(#paint1_radial)"/>
<path d="M689.007 509.677C695.516 508.837 701.037 503.219 701.339 497.129C701.641 491.039 696.61 486.783 690.101 487.623C683.593 488.464 678.072 494.082 677.769 500.171C677.467 506.261 682.499 510.517 689.007 509.677Z" fill="url(#paint2_radial)"/>
<path d="M787.089 573.915L793.562 573.965L794.699 567.968L788.226 567.918L787.089 573.915Z" fill="#1B236D"/>
<path d="M851.332 575.194L857.805 575.244L858.942 569.246L852.469 569.197L851.332 575.194Z" fill="#1B236D"/>
<path d="M827.745 702.557L835.847 702.307L835.176 709.608L827.075 709.857L827.745 702.557Z" fill="#1B236D"/>
<path d="M768.701 702.784L776.802 702.534L776.131 709.835L768.03 710.084L768.701 702.784Z" fill="#1B236D"/>
<path d="M874.839 700.806L882.876 699.629L882.857 706.969L874.82 708.147L874.839 700.806Z" fill="#1B236D"/>
<path d="M803.928 605.725C803.109 605.78 802.478 605.204 802.497 604.382C802.516 603.512 803.252 602.695 804.142 602.558L839.747 597.049C840.638 596.918 841.343 597.506 841.324 598.376C841.306 599.246 840.569 600.063 839.679 600.201L804.074 605.709C804.025 605.717 803.975 605.722 803.928 605.725Z" fill="#1B236D"/>
<path d="M803.363 598.776C802.471 598.831 801.806 598.118 801.874 597.181C801.944 596.242 802.725 595.431 803.621 595.372L839.504 593.004C839.506 593.004 839.507 593.004 839.51 593.004C840.402 592.948 841.067 593.662 840.999 594.598C840.928 595.538 840.148 596.349 839.252 596.407L803.369 598.775C803.367 598.775 803.366 598.776 803.363 598.776Z" fill="#1B236D"/>
<path d="M802.984 594.662C802.096 594.718 801.43 594.012 801.497 593.079C801.566 592.142 802.347 591.332 803.241 591.271L839.115 588.785C839.986 588.771 840.679 589.432 840.611 590.368C840.542 591.303 839.762 592.115 838.867 592.176L802.993 594.662C802.992 594.662 802.988 594.662 802.984 594.662Z" fill="#1B236D"/>
<path d="M838.194 588.057C838.159 588.059 838.125 588.062 838.089 588.061L801.845 588.078C800.965 588.078 800.373 587.353 800.524 586.455C800.673 585.56 801.471 584.823 802.389 584.832L838.633 584.816C839.513 584.816 840.105 585.541 839.955 586.438C839.809 587.297 839.034 588.002 838.194 588.057Z" fill="#1B236D"/>
<path d="M837.761 583.855C837.721 583.858 837.679 583.859 837.639 583.859L802.409 583.503C801.532 583.496 800.953 582.768 801.116 581.878C801.279 580.99 802.12 580.271 802.997 580.286L838.227 580.642C839.104 580.65 839.682 581.378 839.519 582.267C839.364 583.113 838.593 583.8 837.761 583.855Z" fill="#1B236D"/>
<path d="M837.391 579.641C837.353 579.644 837.312 579.645 837.273 579.645L802.021 579.386C801.143 579.38 800.562 578.653 800.722 577.764C800.881 576.874 801.711 576.161 802.598 576.164L837.85 576.423C838.728 576.429 839.308 577.156 839.149 578.046C838.997 578.895 838.223 579.586 837.391 579.641Z" fill="#1B236D"/>
<path d="M918.559 609.276L942.912 686.603L921.638 695.389L897.285 618.062L918.559 609.276Z" fill="#1B236D"/>
<path d="M709.563 553.782L757.814 617.829L738.7 632.295L690.451 568.247L709.563 553.782Z" fill="#1B236D"/>
<path d="M897.648 640.704C912.676 639.741 925.987 627.671 927.379 613.744C928.771 599.817 917.716 589.309 902.687 590.272C887.659 591.235 874.348 603.306 872.956 617.232C871.565 631.159 882.619 641.668 897.648 640.704Z" fill="url(#paint3_radial)"/>
<path d="M757.178 657.443C772.207 656.48 785.518 644.409 786.91 630.483C788.301 616.556 777.247 606.047 762.218 607.011C747.19 607.974 733.879 620.045 732.487 633.971C731.095 647.898 742.15 658.407 757.178 657.443Z" fill="url(#paint4_radial)"/>
<path d="M1027.25 704.231C1026.75 704.265 1026.29 704.056 1026.07 703.635C1025.73 702.989 1026.08 702.088 1026.85 701.622L1045.45 690.315C1046.21 689.849 1047.11 689.994 1047.45 690.643C1047.78 691.288 1047.44 692.189 1046.67 692.655L1028.07 703.963C1027.8 704.126 1027.52 704.213 1027.25 704.231Z" fill="#1B236D"/>
<path d="M1025.85 709.823C1025.18 709.869 1024.62 709.49 1024.51 708.853C1024.38 708.08 1024.97 707.22 1025.83 706.934L1054.51 697.356C1055.37 697.072 1056.17 697.463 1056.3 698.236C1056.43 699.009 1055.84 699.869 1054.98 700.155L1026.3 709.733C1026.15 709.785 1026 709.813 1025.85 709.823Z" fill="#1B236D"/>
<path d="M1050.86 715.686C1050.75 715.693 1050.64 715.69 1050.54 715.676L1025.39 712.18C1024.56 712.067 1024.13 711.3 1024.42 710.472C1024.72 709.642 1025.63 709.066 1026.45 709.179L1051.59 712.674C1052.42 712.788 1052.85 713.555 1052.56 714.383C1052.31 715.104 1051.59 715.636 1050.86 715.686Z" fill="#1B236D"/>
<path d="M1041.99 729.35C1041.64 729.373 1041.31 729.275 1041.06 729.048L1024.17 713.476C1023.64 712.99 1023.72 712.094 1024.34 711.475C1024.97 710.857 1025.9 710.75 1026.43 711.235L1043.32 726.808C1043.85 727.294 1043.77 728.19 1043.15 728.808C1042.82 729.137 1042.39 729.323 1041.99 729.35Z" fill="#1B236D"/>
<path d="M1006.4 738.311C1006.26 738.319 1006.13 738.306 1006 738.272C1005.32 738.087 1005.01 737.338 1005.3 736.597L1014.25 713.969C1014.55 713.228 1015.34 712.777 1016.01 712.96C1016.7 713.146 1017.01 713.895 1016.72 714.636L1007.77 737.263C1007.53 737.863 1006.96 738.275 1006.4 738.311Z" fill="#1B236D"/>
<path d="M690.286 488.326C689.983 488.365 689.684 488.309 689.441 488.143C688.859 487.746 688.817 486.872 689.347 486.19L704.422 466.82C704.952 466.14 705.854 465.91 706.435 466.307C707.018 466.704 707.059 467.579 706.529 468.26L691.455 487.63C691.145 488.028 690.71 488.27 690.286 488.326Z" fill="#1B236D"/>
<path d="M684.749 485.292C684.114 485.371 683.577 484.929 683.515 484.243L681.615 463.156C681.549 462.415 682.062 461.669 682.763 461.491C683.455 461.308 684.085 461.767 684.151 462.511L686.051 483.598C686.118 484.339 685.604 485.085 684.903 485.263C684.851 485.276 684.799 485.285 684.749 485.292Z" fill="#1B236D"/>
<path d="M676.146 487.71C675.6 487.78 675.107 487.499 674.936 486.963L668.53 466.768C668.312 466.081 668.712 465.234 669.423 464.878C670.13 464.521 670.886 464.79 671.106 465.477L677.511 485.673C677.729 486.36 677.329 487.207 676.619 487.563C676.462 487.641 676.302 487.69 676.146 487.71Z" fill="#1B236D"/>
<path d="M668.958 490.812C668.556 490.864 668.173 490.751 667.917 490.466L655.073 476.173C654.602 475.65 654.74 474.745 655.38 474.15C656.02 473.558 656.918 473.5 657.391 474.024L670.236 488.317C670.706 488.84 670.567 489.745 669.928 490.34C669.637 490.608 669.292 490.768 668.958 490.812Z" fill="#1B236D"/>
<path d="M671.765 499.317C671.523 499.35 671.281 499.326 671.064 499.235L654.667 492.431C653.974 492.144 653.788 491.295 654.253 490.535C654.716 489.775 655.656 489.391 656.349 489.682L672.746 496.486C673.439 496.773 673.625 497.622 673.16 498.382C672.842 498.902 672.298 499.247 671.765 499.317Z" fill="#1B236D"/>
<path d="M938.808 714.274C950.079 713.552 960.062 704.499 961.106 694.053C962.15 683.608 953.859 675.726 942.588 676.448C931.316 677.17 921.333 686.224 920.289 696.669C919.245 707.115 927.536 714.997 938.808 714.274Z" fill="url(#paint5_linear)"/>
<path d="M696.365 579.828C707.582 578.38 717.098 568.698 717.618 558.202C718.139 547.706 709.468 540.371 698.251 541.819C687.034 543.267 677.518 552.949 676.998 563.445C676.477 573.941 685.148 581.276 696.365 579.828Z" fill="url(#paint6_linear)"/>
<path d="M795.158 685.05C795.584 680.494 800.072 676.675 805.18 676.519C810.133 676.369 813.841 679.72 813.676 684.075L837.911 663.45C831.643 654.94 820.665 649.608 807.661 650.005C794.316 650.411 781.983 656.751 774.102 666.08L795.128 685.834C795.126 685.575 795.133 685.316 795.158 685.05Z" fill="white"/>
<path d="M806.273 694.193C809.27 694.345 812.125 692.256 812.647 689.526C813.17 686.795 811.163 684.458 808.166 684.306C805.168 684.153 802.314 686.242 801.791 688.973C801.268 691.703 803.275 694.04 806.273 694.193Z" fill="#1B236D"/>
<path d="M789.94 663.645L805.011 687.74L803.846 688.49L788.776 664.396L789.94 663.645Z" fill="#1B236D"/>
<path d="M1034.4 708.073L1017.17 720.326L1006.55 706.167L1023.79 693.915L1034.4 708.073Z" fill="url(#paint7_linear)"/>
<path d="M693.74 495.515L674.203 503.188L669.556 485.864L689.095 478.191L693.74 495.515Z" fill="url(#paint8_linear)"/>
<path d="M804.192 625.224L818.721 623.096L818.687 636.365L804.158 638.493L804.192 625.224Z" fill="white"/>
<path d="M827.604 622.433L842.133 620.305L842.099 633.574L827.57 635.702L827.604 622.433Z" fill="white"/>
<path d="M851.016 619.642L865.545 617.514L865.511 630.783L850.982 632.912L851.016 619.642Z" fill="white"/>
<path d="M877.302 695.006L851.818 695.822L855.722 650.956L881.205 650.14L877.302 695.006Z" fill="#5BABF2"/>
<path d="M698.199 566.03C701.678 565.581 704.629 562.578 704.79 559.323C704.951 556.068 702.262 553.794 698.783 554.243C695.305 554.692 692.353 557.694 692.192 560.949C692.031 564.204 694.72 566.479 698.199 566.03Z" fill="#F92424"/>
<path d="M940.876 700.166C944.371 699.942 947.467 697.135 947.791 693.895C948.115 690.656 945.543 688.212 942.048 688.436C938.552 688.66 935.456 691.468 935.132 694.707C934.808 697.946 937.38 700.39 940.876 700.166Z" fill="#F92424"/>
<path d="M901.951 619.346C905.447 619.122 908.543 616.315 908.867 613.076C909.19 609.836 906.619 607.392 903.123 607.616C899.628 607.84 896.532 610.648 896.208 613.887C895.884 617.126 898.456 619.57 901.951 619.346Z" fill="#F92424"/>
<path d="M756.681 637.466C760.176 637.242 763.273 634.434 763.596 631.195C763.92 627.956 761.349 625.512 757.853 625.736C754.357 625.96 751.261 628.767 750.937 632.007C750.614 635.246 753.185 637.69 756.681 637.466Z" fill="#F92424"/>
<g clip-path="url(#clip0)">
<path d="M853.025 557.35L786.172 559.631C783.257 559.73 780.821 557.062 780.732 553.671L780.407 541.39C780.318 537.999 782.608 535.17 785.523 535.07L852.377 532.79C855.292 532.69 857.727 535.359 857.817 538.75L858.141 551.03C858.231 554.421 855.941 557.251 853.025 557.35Z" fill="url(#paint9_linear)"/>
<path d="M846.421 573.964L793.642 575.764C789.756 575.897 786.508 572.339 786.388 567.817L785.253 524.837C785.133 520.316 788.188 516.543 792.074 516.41L844.853 514.61C848.739 514.477 851.987 518.035 852.106 522.556L853.242 565.537C853.361 570.058 850.307 573.831 846.421 573.964Z" fill="url(#paint10_linear)"/>
<path d="M819.79 499.076L816.271 499.196L816.596 511.476L820.115 511.356L819.79 499.076Z" fill="url(#paint11_linear)"/>
<path d="M818.085 501.183C821 501.083 823.29 498.254 823.2 494.863C823.111 491.472 820.675 488.803 817.76 488.903C814.845 489.002 812.555 491.832 812.645 495.223C812.734 498.614 815.17 501.282 818.085 501.183Z" fill="url(#paint12_linear)"/>
<path d="M833.538 552.894C836.939 552.778 839.611 549.476 839.506 545.52C839.402 541.564 836.56 538.451 833.16 538.567C829.759 538.683 827.087 541.984 827.191 545.94C827.296 549.896 830.137 553.01 833.538 552.894Z" fill="white"/>
<path d="M835.988 545.64C836.033 547.339 834.89 548.75 833.43 548.8C831.97 548.85 830.755 547.519 830.71 545.82C830.665 544.121 831.808 542.71 833.268 542.66C833.338 542.658 833.426 542.655 833.497 542.673C833.364 542.964 833.285 543.315 833.295 543.683C833.325 544.809 834.141 545.703 835.108 545.67C835.425 545.659 835.721 545.547 835.963 545.375C835.983 545.456 835.986 545.558 835.988 545.64Z" fill="url(#paint13_linear)"/>
<path d="M805.389 553.854C808.79 553.738 811.462 550.437 811.357 546.48C811.253 542.524 808.411 539.411 805.011 539.527C801.61 539.643 798.938 542.944 799.042 546.9C799.147 550.857 801.988 553.97 805.389 553.854Z" fill="white"/>
<path d="M807.839 546.6C807.884 548.299 806.741 549.711 805.281 549.76C803.821 549.81 802.606 548.479 802.561 546.78C802.516 545.082 803.659 543.67 805.119 543.62C805.189 543.618 805.277 543.615 805.348 543.633C805.215 543.924 805.136 544.275 805.146 544.644C805.176 545.769 805.992 546.663 806.959 546.63C807.276 546.62 807.572 546.507 807.814 546.335C807.834 546.416 807.837 546.518 807.839 546.6Z" fill="url(#paint14_linear)"/>
<path d="M826.528 554.157L812.453 554.637L812.507 556.684L826.582 556.204L826.528 554.157Z" fill="white"/>
<path d="M838.302 533.27C838.332 534.401 837.569 535.344 836.597 535.377L829.56 535.617C828.588 535.65 827.776 534.761 827.746 533.63C827.717 532.499 828.48 531.556 829.452 531.523L836.489 531.283C837.461 531.25 838.272 532.139 838.302 533.27Z" fill="url(#paint15_linear)"/>
<path d="M810.153 534.23C810.183 535.361 809.42 536.304 808.448 536.337L801.411 536.577C800.439 536.61 799.627 535.721 799.598 534.59C799.568 533.459 800.331 532.517 801.303 532.483L808.34 532.243C809.312 532.21 810.123 533.099 810.153 534.23Z" fill="url(#paint16_linear)"/>
<path d="M826.582 556.204C826.644 558.578 825.839 560.736 824.488 562.277C823.257 563.671 821.608 564.568 819.761 564.631C817.914 564.694 816.22 563.911 814.918 562.604C813.488 561.157 812.57 559.058 812.507 556.684L826.582 556.204Z" fill="url(#paint17_linear)"/>
<path opacity="0.2" d="M824.489 562.277C823.258 563.671 821.608 564.568 819.761 564.631C817.914 564.694 816.22 563.911 814.918 562.604C815.704 561.041 817.524 560.61 819.653 560.537C821.782 560.465 823.621 560.771 824.489 562.277Z" fill="black"/>
<path d="M836.995 508.732L799.609 510.007C797.311 510.086 795.488 512.337 795.559 515.011L795.592 516.29L802.491 516.055C803.624 516.016 804.653 516.825 805.044 518.063L805.437 519.306C805.959 520.956 807.33 522.035 808.84 521.984L828.411 521.316C829.921 521.265 831.233 520.094 831.666 518.411L831.993 517.144C832.318 515.881 833.302 515.004 834.435 514.965L841.334 514.73L841.3 513.449C841.23 510.776 839.292 508.654 836.995 508.732Z" fill="url(#paint18_linear)"/>
</g>
<path d="M779.718 732.792L809.206 731.473L808.625 714.686L844.696 713.073L845.277 729.86L875.907 728.49C880.888 728.268 884.484 731.871 884.645 736.506L886.486 789.665C886.593 792.755 884.559 795.355 881.239 795.504L845.168 797.117C841.848 797.266 838.498 794.906 838.391 791.816L837.519 766.635C837.466 765.089 836.647 763.872 834.987 763.946L822.964 764.484C821.303 764.558 819.43 765.897 819.484 767.442L820.356 792.622C820.463 795.713 818.429 798.313 815.109 798.461L779.038 800.074C775.718 800.223 772.368 797.863 772.261 794.773L770.42 741.614C770.26 736.98 774.738 733.015 779.718 732.792Z" fill="#72B5F7"/>
<path d="M867.228 817.717C878.499 816.994 888.482 807.941 889.526 797.496C890.57 787.05 882.279 779.168 871.008 779.891C859.736 780.613 849.753 789.666 848.709 800.112C847.665 810.557 855.956 818.439 867.228 817.717Z" fill="url(#paint19_linear)"/>
<path d="M869.295 803.609C872.791 803.385 875.887 800.577 876.211 797.338C876.535 794.099 873.963 791.654 870.468 791.878C866.972 792.102 863.876 794.91 863.552 798.149C863.228 801.388 865.8 803.833 869.295 803.609Z" fill="#F92424"/>
<path d="M791.851 805.609C795.347 805.385 798.443 802.577 798.767 799.338C799.09 796.099 796.519 793.654 793.023 793.879C789.528 794.103 786.431 796.91 786.108 800.149C785.784 803.389 788.355 805.833 791.851 805.609Z" fill="#F92424"/>
<path d="M807.815 769.853L782.47 769.912L783.453 740.95L808.797 740.892L807.815 769.853Z" fill="#5BABF2"/>
<path d="M788.31 749.794L802.84 747.666L802.806 760.935L788.276 763.063L788.31 749.794Z" fill="white"/>
<path d="M861.638 753.806L869.675 752.629L869.657 759.969L861.619 761.147L861.638 753.806Z" fill="#1B236D"/>
<path d="M873.87 769.069L852.996 769.119L853.806 744.734L874.678 744.685L873.87 769.069Z" fill="#5BABF2"/>
<path d="M857.806 752.18L869.772 750.388L869.744 761.56L857.778 763.352L857.806 752.18Z" fill="white"/>
<path d="M791.234 751.806L799.271 750.629L799.253 757.969L791.216 759.147L791.234 751.806Z" fill="#1B236D"/>
<path d="M791.234 751.806L799.271 750.629L799.253 757.969L791.216 759.147L791.234 751.806Z" fill="#1B236D"/>
<path d="M859.878 753.806L867.915 752.629L867.896 759.969L859.859 761.147L859.878 753.806Z" fill="#1B236D"/>
<path d="M899 777.067L764 773L770.052 834H899V777.067Z" fill="#324A58"/>
<defs>
<linearGradient id="paint0_linear" x1="768.73" y1="660.227" x2="891.85" y2="671.492" gradientUnits="userSpaceOnUse">
<stop stop-color="#92C4FE"/>
<stop offset="1" stop-color="#5BABF2"/>
</linearGradient>
<radialGradient id="paint1_radial" cx="0" cy="0" r="1" gradientUnits="userSpaceOnUse" gradientTransform="translate(1005.84 704.209) rotate(-8.33743) scale(12.0044 10.729)">
<stop stop-color="#FF4945"/>
<stop offset="1" stop-color="#F92424"/>
</radialGradient>
<radialGradient id="paint2_radial" cx="0" cy="0" r="1" gradientUnits="userSpaceOnUse" gradientTransform="translate(689.557 498.615) rotate(7.75253) scale(11.302 11.431)">
<stop stop-color="#FF4945"/>
<stop offset="1" stop-color="#F92424"/>
</radialGradient>
<radialGradient id="paint3_radial" cx="0" cy="0" r="1" gradientUnits="userSpaceOnUse" gradientTransform="translate(900.168 615.477) rotate(-8.33741) scale(27.6215 24.6866)">
<stop stop-color="#FF4945"/>
<stop offset="1" stop-color="#F92424"/>
</radialGradient>
<radialGradient id="paint4_radial" cx="0" cy="0" r="1" gradientUnits="userSpaceOnUse" gradientTransform="translate(759.7 632.221) rotate(-8.33741) scale(27.6215 24.6866)">
<stop stop-color="#FF4945"/>
<stop offset="1" stop-color="#F92424"/>
</radialGradient>
<linearGradient id="paint5_linear" x1="920.2" y1="698.358" x2="961.181" y2="698.446" gradientUnits="userSpaceOnUse">
<stop stop-color="#EFEFEF"/>
<stop offset="0.5538" stop-color="#D7D8D9"/>
</linearGradient>
<linearGradient id="paint6_linear" x1="678.001" y1="558.217" x2="714.229" y2="570.48" gradientUnits="userSpaceOnUse">
<stop stop-color="#EFEFEF"/>
<stop offset="0.5538" stop-color="#D7D8D9"/>
</linearGradient>
<linearGradient id="paint7_linear" x1="1011.79" y1="713.277" x2="1028.7" y2="700.533" gradientUnits="userSpaceOnUse">
<stop stop-color="#92C4FE"/>
<stop offset="1" stop-color="#5BABF2"/>
</linearGradient>
<linearGradient id="paint8_linear" x1="671.867" y1="494.521" x2="692.031" y2="489.087" gradientUnits="userSpaceOnUse">
<stop stop-color="#92C4FE"/>
<stop offset="1" stop-color="#5BABF2"/>
</linearGradient>
<linearGradient id="paint9_linear" x1="819.599" y1="558.49" x2="818.771" y2="534.24" gradientUnits="userSpaceOnUse">
<stop stop-color="#0079D3"/>
<stop offset="0.222" stop-color="#0070D4"/>
<stop offset="0.584" stop-color="#0058D5"/>
<stop offset="1" stop-color="#0034D8"/>
</linearGradient>
<linearGradient id="paint10_linear" x1="820.031" y1="574.864" x2="818.032" y2="516.259" gradientUnits="userSpaceOnUse">
<stop stop-color="#55C2FF"/>
<stop offset="0.1665" stop-color="#5EC7FF"/>
<stop offset="0.4381" stop-color="#76D4FF"/>
<stop offset="0.7789" stop-color="#9EEAFF"/>
<stop offset="1" stop-color="#BBFAFF"/>
</linearGradient>
<linearGradient id="paint11_linear" x1="818.363" y1="511.723" x2="817.906" y2="498.315" gradientUnits="userSpaceOnUse">
<stop stop-color="#E6E6E6"/>
<stop offset="0.4062" stop-color="#E2E2E2"/>
<stop offset="0.8264" stop-color="#D5D5D5"/>
<stop offset="1" stop-color="#CECECE"/>
</linearGradient>
<linearGradient id="paint12_linear" x1="812.645" y1="495.223" x2="823.203" y2="494.944" gradientUnits="userSpaceOnUse">
<stop stop-color="#FF7E45"/>
<stop offset="0.1983" stop-color="#FE7A4B"/>
<stop offset="0.4578" stop-color="#FC6D5B"/>
<stop offset="0.7499" stop-color="#F85876"/>
<stop offset="1" stop-color="#F44293"/>
</linearGradient>
<linearGradient id="paint13_linear" x1="833.252" y1="542.063" x2="833.499" y2="549.311" gradientUnits="userSpaceOnUse">
<stop stop-color="#4C4B4B"/>
<stop offset="1" stop-color="#3A3838"/>
</linearGradient>
<linearGradient id="paint14_linear" x1="805.103" y1="543.023" x2="805.35" y2="550.271" gradientUnits="userSpaceOnUse">
<stop stop-color="#4C4B4B"/>
<stop offset="1" stop-color="#3A3838"/>
</linearGradient>
<linearGradient id="paint15_linear" x1="832.957" y1="530.892" x2="833.127" y2="535.879" gradientUnits="userSpaceOnUse">
<stop stop-color="#0079D3"/>
<stop offset="0.222" stop-color="#0070D4"/>
<stop offset="0.584" stop-color="#0058D5"/>
<stop offset="1" stop-color="#0034D8"/>
</linearGradient>
<linearGradient id="paint16_linear" x1="804.808" y1="531.852" x2="804.978" y2="536.839" gradientUnits="userSpaceOnUse">
<stop stop-color="#0079D3"/>
<stop offset="0.222" stop-color="#0070D4"/>
<stop offset="0.584" stop-color="#0058D5"/>
<stop offset="1" stop-color="#0034D8"/>
</linearGradient>
<linearGradient id="paint17_linear" x1="812.615" y1="560.777" x2="826.693" y2="560.405" gradientUnits="userSpaceOnUse">
<stop stop-color="#259CE5"/>
<stop offset="0.018" stop-color="#259BE4"/>
<stop offset="0.6261" stop-color="#2183D3"/>
<stop offset="1" stop-color="#1F7ACC"/>
</linearGradient>
<linearGradient id="paint18_linear" x1="795.592" y1="516.29" x2="841.344" y2="515.081" gradientUnits="userSpaceOnUse">
<stop stop-color="#FF7E45"/>
<stop offset="0.1983" stop-color="#FE7A4B"/>
<stop offset="0.4578" stop-color="#FC6D5B"/>
<stop offset="0.7499" stop-color="#F85876"/>
<stop offset="1" stop-color="#F44293"/>
</linearGradient>
<linearGradient id="paint19_linear" x1="848.62" y1="801.801" x2="889.601" y2="801.889" gradientUnits="userSpaceOnUse">
<stop stop-color="#EFEFEF"/>
<stop offset="0.5538" stop-color="#D7D8D9"/>
</linearGradient>
<clipPath id="clip0">
<rect width="77.4543" height="85.9913" fill="white" transform="matrix(0.999419 -0.034091 0.026409 0.999651 779.056 490.223)"/>
</clipPath>
</defs>
</svg>
