<svg width="1061" height="941" viewBox="0 0 1061 941" fill="none" xmlns="http://www.w3.org/2000/svg">
<path d="M596.54 606.28L466.605 509.021L471.849 502.387L588.806 589.836L604.194 436.666L681.613 396.352L686.619 404.163L612.921 442.514L596.54 606.28Z" fill="#FFB400"/>
<path d="M619.767 456.276C628.168 455.359 633.542 448.023 631.77 439.89C629.998 431.756 621.752 425.906 613.351 426.823C604.95 427.739 599.576 435.076 601.348 443.209C603.12 451.343 611.366 457.193 619.767 456.276Z" fill="#00ACDC"/>
<path d="M590.911 607.619C599.312 606.702 604.686 599.366 602.914 591.232C601.142 583.099 592.895 577.249 584.494 578.166C576.094 579.082 570.72 586.419 572.491 594.552C574.263 602.685 582.51 608.536 590.911 607.619Z" fill="#00ACDC"/>
<path d="M592.307 592.39C592.499 593.271 592.417 594.163 592.071 594.951C591.724 595.739 591.13 596.389 590.362 596.818C589.594 597.248 588.687 597.437 587.757 597.362C586.826 597.288 585.913 596.953 585.133 596.4C584.354 595.846 583.742 595.1 583.376 594.255C583.01 593.409 582.906 592.503 583.077 591.65C583.248 590.798 583.686 590.037 584.337 589.465C584.987 588.892 585.821 588.534 586.731 588.434V588.434C587.336 588.367 587.96 588.417 588.568 588.579C589.176 588.742 589.755 589.015 590.273 589.382C590.791 589.75 591.238 590.205 591.587 590.721C591.936 591.237 592.18 591.804 592.307 592.39V592.39Z" fill="#10294C"/>
<path d="M621.163 441.047C621.356 441.929 621.273 442.82 620.927 443.608C620.581 444.397 619.986 445.046 619.218 445.476C618.45 445.905 617.544 446.094 616.613 446.02C615.683 445.945 614.77 445.61 613.99 445.057C613.21 444.504 612.598 443.757 612.232 442.912C611.866 442.067 611.762 441.16 611.933 440.308C612.104 439.455 612.543 438.694 613.193 438.122C613.844 437.55 614.677 437.191 615.588 437.092V437.092C616.193 437.025 616.817 437.074 617.425 437.237C618.032 437.399 618.612 437.672 619.13 438.04C619.648 438.407 620.094 438.862 620.443 439.378C620.792 439.894 621.037 440.461 621.163 441.047V441.047Z" fill="#10294C"/>
<path d="M538.373 483.059C526.658 479.045 514.795 475.587 502.829 472.7L433.387 525.646C438.246 526.622 443.068 527.435 447.537 528.202L497.34 489.499L501.244 494.021L455.648 529.493C463.032 530.611 469.235 531.44 473.363 531.825C479.997 532.301 486.453 530.951 491.97 527.934C502.068 522.472 511.618 516.204 520.531 509.187C531.695 500.324 537.983 493.591 541.322 489.532C542.998 487.334 543.612 485.001 538.373 483.059Z" fill="#10294C"/>
<path d="M485.286 470.324L415.838 523.142C418.094 523.647 420.434 524.142 422.792 524.719C426.311 525.503 429.813 526.205 433.213 526.835L502.511 474.117C496.969 472.719 491.194 471.431 485.286 470.324Z" fill="#F04E23"/>
<path d="M497.556 488.311L447.987 526.662C450.823 527.1 453.492 527.557 456.059 527.941L501.441 492.792L497.556 488.311Z" fill="#F04E23"/>
<path d="M482.055 471.052C463.066 467.602 446.829 464.939 438.927 464.213L438.675 464.241L437.715 464.179C432.125 463.697 426.632 464.561 421.737 466.69C415.725 469.532 406.309 474.93 394.279 484.558C383.068 493.593 376.558 500.098 372.834 504.366C369.797 508.224 370.218 511.366 376.944 513.815C389.659 518.114 402.543 521.768 415.539 524.76L485.126 471.722C484.117 471.41 483.089 471.186 482.055 471.052V471.052Z" fill="#10294C"/>
<path d="M870.235 405.414C866.325 405.408 862.576 404.035 859.811 401.595C857.046 399.155 855.49 395.848 855.483 392.398V383.721C853.707 385.83 851.931 387.819 850.019 389.807V392.459C850.011 396.84 851.827 401.071 855.123 404.348C858.42 407.625 862.966 409.72 867.898 410.233C872.83 410.746 877.803 409.642 881.873 407.132C885.943 404.622 888.826 400.879 889.973 396.616C887.998 397.41 885.86 397.841 883.69 397.882C882.488 400.134 880.585 402.038 878.202 403.372C875.82 404.705 873.057 405.414 870.235 405.414V405.414Z" fill="#F04E23"/>
<path d="M883.28 359.137C881.934 360.328 880.419 361.361 878.772 362.21C880.687 363.412 882.246 365.003 883.316 366.849C884.386 368.695 884.936 370.742 884.919 372.815V392.88C886.972 392.596 888.891 391.802 890.451 390.591V372.755C890.455 370.161 889.816 367.597 888.577 365.245C887.338 362.892 885.53 360.807 883.28 359.137V359.137Z" fill="#F04E23"/>
<path d="M894.48 382.938C894.478 384.395 894.116 385.834 893.42 387.156C892.724 388.477 891.711 389.649 890.451 390.591C888.874 391.779 886.963 392.57 884.919 392.88C884.307 392.951 883.692 392.991 883.075 393.001C880.052 392.996 877.154 391.934 875.016 390.048C872.878 388.162 871.675 385.605 871.669 382.938V382.938C871.66 380.53 871.05 378.152 869.881 375.976C868.712 373.799 867.014 371.876 864.908 370.345C864.02 371.791 863.132 373.297 862.176 374.683C863.434 375.764 864.434 377.057 865.114 378.486C865.795 379.914 866.143 381.449 866.137 382.998V382.998C866.161 386.934 867.948 390.701 871.108 393.478C874.269 396.255 878.546 397.816 883.007 397.821H883.553C885.723 397.78 887.861 397.35 889.836 396.556C892.831 395.395 895.376 393.488 897.16 391.069C898.943 388.65 899.887 385.824 899.876 382.938V338.951C898.169 339.132 896.325 339.312 894.412 339.493L894.48 382.938V382.938Z" fill="#04294F"/>
<path d="M934.093 257.183C929.927 256.52 924.327 255.737 917.292 255.134L892.09 339.734C892.91 339.674 893.661 339.614 894.412 339.553C896.325 339.373 898.169 339.192 899.876 339.011C903.805 338.576 907.704 337.953 911.555 337.143C914.05 336.625 916.336 335.515 918.166 333.932C919.996 332.35 921.3 330.355 921.936 328.165L940.445 266.101C940.753 265.146 940.829 264.144 940.67 263.161C940.51 262.178 940.118 261.235 939.519 260.394C938.921 259.553 938.128 258.833 937.193 258.28C936.259 257.727 935.202 257.353 934.093 257.183V257.183ZM927.332 283.394C925.761 283.394 924.532 282.009 924.532 280.321C924.532 278.634 925.761 277.248 927.332 277.248C928.903 277.248 930.132 278.634 930.132 280.321C930.132 282.009 928.903 283.394 927.332 283.394V283.394ZM935.05 269.053C934.503 271.644 932.181 273.332 929.791 272.729C927.4 272.127 925.898 269.536 926.444 266.944C926.99 264.353 929.312 262.666 931.703 263.269C934.093 263.871 935.528 266.462 935.05 269.053V269.053Z" fill="#F04E23"/>
<path d="M907.321 245.493C908.511 246.759 909.133 248.366 909.07 250.009C909.008 251.653 908.264 253.219 906.979 254.411L870.85 288.456C872.557 292.546 873.949 296.734 875.016 300.989C875.836 304.484 875.221 308.1 870.304 308.642C864.635 309.365 858.693 309.847 854.527 310.088C852.302 310.204 850.215 311.08 848.709 312.529C847.203 313.979 846.396 315.889 846.458 317.855C846.52 319.82 847.447 321.688 849.042 323.061C850.637 324.434 852.776 325.206 855.005 325.212H855.551C856.917 325.152 864.157 324.73 872.216 323.706C874.743 323.344 877.133 324.369 877.68 326.9C877.543 330.394 877.202 333.769 876.723 337.143C876.382 339.553 875.904 341.964 875.358 344.314C874.336 348.666 872.99 352.953 871.328 357.148V357.148C870.235 359.92 869.006 362.632 867.64 365.283C869.484 364.982 871.191 364.62 872.762 364.319C874.856 363.895 876.861 363.184 878.704 362.21C883.718 359.628 887.375 355.406 888.88 350.46L892.09 339.734L917.292 255.074L917.497 254.351C917.938 252.869 918.028 251.322 917.762 249.808C917.496 248.294 916.879 246.845 915.95 245.55C915.02 244.255 913.799 243.143 912.361 242.284C910.924 241.424 909.301 240.834 907.594 240.552C906.57 240.371 905.477 240.191 904.316 240.07C904.342 241.585 904.943 243.049 906.023 244.228L907.321 245.493ZM896.052 311.233C892.364 311.896 888.607 312.438 884.851 312.92C881.095 313.402 877.406 313.884 873.65 314.246C869.894 314.668 866.137 314.969 862.381 315.27L861.015 315.33C860.619 315.332 860.226 315.393 859.854 315.511C859.094 315.701 858.377 316.007 857.737 316.415C856.411 317.305 855.452 318.554 855.005 319.97V319.97C854.978 320.057 854.932 320.139 854.87 320.21C854.807 320.282 854.729 320.342 854.64 320.386C854.551 320.431 854.453 320.46 854.352 320.471C854.25 320.483 854.147 320.476 854.049 320.452C853.872 320.406 853.716 320.311 853.606 320.18C853.495 320.05 853.435 319.892 853.434 319.729C853.573 318.301 854.185 316.94 855.192 315.815C856.2 314.69 857.56 313.851 859.103 313.402C859.633 313.244 860.184 313.143 860.742 313.101C861.288 313.041 861.698 313.041 862.176 312.98C865.864 312.679 869.621 312.257 873.377 311.896L884.578 310.811L895.779 309.787C895.888 309.77 896 309.774 896.107 309.8C896.214 309.826 896.314 309.872 896.398 309.935C896.483 309.998 896.551 310.077 896.597 310.166C896.644 310.255 896.667 310.352 896.666 310.45C896.7 310.625 896.655 310.805 896.54 310.952C896.425 311.098 896.25 311.199 896.052 311.233ZM898.647 304.364C897.193 304.757 895.71 305.059 894.208 305.268C892.705 305.509 891.271 305.689 889.768 305.81C888.266 305.93 886.763 306.051 885.329 306.111C883.826 306.171 882.324 306.171 880.821 306.111C880.616 306.096 880.425 306.013 880.285 305.879C880.146 305.745 880.069 305.57 880.07 305.388C880.086 305.236 880.153 305.092 880.263 304.974C880.372 304.856 880.519 304.769 880.685 304.725C882.119 304.364 883.622 304.183 885.056 303.942C886.558 303.701 887.993 303.58 889.495 303.4C892.442 303.089 895.406 302.928 898.374 302.918C898.483 302.914 898.591 302.93 898.693 302.965C898.794 303 898.886 303.053 898.963 303.121C899.04 303.189 899.1 303.27 899.14 303.359C899.18 303.449 899.198 303.545 899.193 303.641C899.203 303.797 899.155 303.952 899.056 304.082C898.958 304.212 898.814 304.311 898.647 304.364V304.364ZM900.081 297.977C899.273 298.288 898.424 298.51 897.554 298.639C896.724 298.818 895.879 298.939 895.027 299.001C894.208 299.061 893.32 299.121 892.5 299.121C891.631 299.121 890.763 299.061 889.905 298.941C889.796 298.928 889.69 298.896 889.596 298.846C889.501 298.796 889.419 298.729 889.355 298.65C889.291 298.571 889.246 298.481 889.223 298.386C889.2 298.291 889.2 298.192 889.222 298.097C889.252 297.973 889.318 297.857 889.414 297.762C889.51 297.667 889.632 297.596 889.768 297.555C890.559 297.271 891.384 297.068 892.227 296.952C893.047 296.771 893.866 296.711 894.754 296.591C895.574 296.53 896.462 296.47 897.281 296.41C898.101 296.41 898.989 296.41 899.808 296.47C899.921 296.481 900.03 296.511 900.129 296.56C900.228 296.608 900.315 296.674 900.385 296.752C900.455 296.831 900.507 296.921 900.537 297.017C900.566 297.114 900.574 297.215 900.559 297.314C900.578 297.456 900.54 297.599 900.453 297.72C900.366 297.84 900.235 297.931 900.081 297.977Z" fill="#04294F"/>
<path d="M780.834 223.198C781.069 222.871 781.343 222.568 781.653 222.294L796.952 207.833C798.375 206.495 799.189 204.742 799.24 202.908C799.29 201.074 798.573 199.288 797.225 197.891L791.351 191.744C789.439 189.696 787.185 189.455 783.566 189.455H773.321C772.516 189.446 771.736 189.704 771.135 190.178L717.317 230.248C731.664 224.811 747.12 222.022 762.735 222.053C768.795 221.944 774.853 222.327 780.834 223.198V223.198Z" fill="#04294F"/>
<path d="M669.509 285.865C674.904 286.106 680.368 286.347 685.763 286.528C685.526 284.279 685.594 282.013 685.968 279.779C686.031 279.475 686.22 279.202 686.497 279.013C686.774 278.824 687.121 278.732 687.471 278.755C695.19 279.372 702.944 279.594 710.692 279.418C711.096 279.408 711.488 279.538 711.785 279.779C711.924 279.905 712.027 280.057 712.087 280.225C712.146 280.392 712.16 280.57 712.126 280.743C711.732 282.88 711.755 285.061 712.195 287.191C726.605 287.432 740.948 287.432 755.359 287.13C759.798 287.01 764.237 286.889 768.745 286.769C768.813 267.607 771.955 263.088 772.296 262.666C772.428 262.516 772.593 262.391 772.781 262.297C772.968 262.204 773.175 262.145 773.389 262.124C773.594 262.124 786.366 261.702 802.552 260.557C802.347 257.906 801.596 242.782 808.562 233.924C808.771 233.66 809.089 233.48 809.448 233.424C809.806 233.367 810.176 233.439 810.475 233.623C810.774 233.806 810.978 234.087 811.042 234.404C811.106 234.72 811.025 235.046 810.816 235.31C804.465 243.384 805.148 257.846 805.284 260.376C810.406 260.015 815.802 259.593 821.197 259.051L838.067 246.518C821.872 234.188 802.098 226.091 780.97 223.138C775.009 222.288 768.979 221.865 762.94 221.873C740.072 221.842 717.715 227.836 698.733 239.086C679.751 250.337 665.009 266.332 656.396 285.021C659.469 285.564 663.498 286.046 668.348 286.468C668.429 286.262 668.59 286.089 668.803 285.978C669.015 285.868 669.266 285.828 669.509 285.865V285.865Z" fill="#00AEE0"/>
<path d="M808.767 284.479L814.095 283.997L816.758 283.756C816.963 283.756 817.236 283.696 817.51 283.696L816.417 282.491C813.632 279.562 812.199 275.817 812.401 271.998C812.603 268.18 814.427 264.569 817.51 261.883C797.362 263.63 778.307 264.414 774.209 264.534C773.458 266.101 771.477 271.705 771.409 286.709C780.287 286.407 789.234 285.925 798.113 285.323C801.664 285.021 805.216 284.78 808.767 284.479ZM784.18 274.838C784.047 275.523 783.818 276.191 783.497 276.827C783.305 277.168 783.005 277.453 782.634 277.648C782.263 277.844 781.836 277.941 781.405 277.928C780.973 277.915 780.554 277.793 780.199 277.577C779.843 277.36 779.566 277.058 779.399 276.706L779.331 276.586C779.075 276.006 778.914 275.397 778.853 274.778C778.785 274.175 778.717 273.573 778.648 273.03C778.648 272.428 778.648 271.825 778.717 271.223C778.764 270.612 778.878 270.006 779.058 269.415L779.195 269.114C779.29 268.874 779.438 268.654 779.632 268.465C779.825 268.277 780.059 268.125 780.32 268.019C780.581 267.912 780.864 267.852 781.152 267.844C781.439 267.835 781.726 267.878 781.995 267.969C782.466 268.146 782.869 268.439 783.156 268.812C783.568 269.43 783.868 270.101 784.044 270.801C784.235 271.45 784.327 272.119 784.317 272.789C784.372 273.475 784.326 274.163 784.18 274.838V274.838ZM794.22 274.296C794.153 275.025 793.945 275.738 793.605 276.405C793.481 276.635 793.306 276.841 793.09 277.011C792.875 277.182 792.623 277.312 792.35 277.396C792.077 277.48 791.788 277.516 791.5 277.501C791.211 277.486 790.928 277.42 790.669 277.309C790.19 277.078 789.807 276.72 789.576 276.284L789.508 276.043C789.272 275.495 789.089 274.931 788.961 274.356C788.832 273.779 788.741 273.195 788.688 272.609C788.596 272.01 788.573 271.404 788.62 270.801C788.617 270.194 788.685 269.588 788.825 268.993L788.893 268.752C789.05 268.263 789.414 267.847 789.91 267.589C790.406 267.33 790.996 267.251 791.556 267.366C792.074 267.496 792.529 267.771 792.854 268.15C793.279 268.755 793.622 269.402 793.879 270.078C794.103 270.727 794.263 271.392 794.357 272.066C794.288 272.85 794.288 273.573 794.22 274.296V274.296Z" fill="#00AEE0"/>
<path d="M709.326 287.191C709.054 285.433 709.008 283.654 709.189 281.888C702.307 282.003 695.422 281.802 688.564 281.286C688.389 283.07 688.389 284.864 688.564 286.648C695.462 286.829 702.428 287.07 709.326 287.191Z" fill="#00AEE0"/>
<path d="M876.86 337.143L876.587 337.083C875.835 337.264 875.084 337.384 874.333 337.505C874.403 337.824 874.328 338.155 874.123 338.426C873.919 338.697 873.601 338.885 873.24 338.951C856.917 341.903 837.862 342.687 832.74 342.868C832.74 344.434 832.671 346.001 832.671 347.568C837.862 347.387 856.644 346.604 872.694 343.591C873.045 343.537 873.407 343.6 873.709 343.766C874.011 343.933 874.234 344.192 874.333 344.495C874.727 344.443 875.115 344.362 875.494 344.254C876.04 341.964 876.518 339.553 876.86 337.143Z" fill="#FFB400"/>
<path d="M799.069 392.7C799.069 393.784 799.138 396.677 799.411 400.352C800.845 400.232 803.782 399.991 805.694 399.629C805.489 396.375 805.421 393.543 805.421 392.157C803.372 392.338 801.187 392.519 799.069 392.7Z" fill="#00AEE0"/>
<path d="M862.176 374.683C863.132 373.237 864.02 371.791 864.908 370.345C865.864 368.718 866.82 367.03 867.708 365.283C869.074 362.632 870.303 359.92 871.396 357.148C873.058 352.953 874.405 348.666 875.426 344.314C875.016 344.374 874.674 344.494 874.265 344.555C874.335 344.866 874.268 345.188 874.077 345.457C873.887 345.726 873.588 345.92 873.24 346.001C856.78 349.134 837.657 349.918 832.603 350.038C832.467 353.533 832.33 357.028 832.057 360.523C836.974 360.402 853.639 359.86 867.776 356.727C868.13 356.655 868.501 356.709 868.808 356.879C869.115 357.048 869.334 357.319 869.415 357.63C869.497 357.942 869.435 358.269 869.243 358.541C869.051 358.812 868.744 359.005 868.391 359.077C853.707 362.33 836.496 362.873 831.784 362.933C831.442 367.091 831.101 371.248 830.622 375.346L830.008 380.046C829.871 380.829 829.803 381.552 829.598 382.516C829.39 383.397 829.045 384.249 828.574 385.047C827.632 386.652 826.246 388.02 824.544 389.024C823.704 389.525 822.783 389.911 821.812 390.169C820.876 390.424 819.916 390.605 818.944 390.711C815.324 391.133 811.704 391.555 808.084 391.916C808.084 393.302 808.084 396.737 808.357 400.533C808.377 400.816 808.286 401.096 808.1 401.326C807.913 401.556 807.642 401.723 807.333 401.798C804.716 402.259 802.071 402.581 799.411 402.762C799.783 407.368 800.559 411.941 801.733 416.441C801.782 416.595 801.793 416.757 801.767 416.916C801.742 417.075 801.678 417.227 801.582 417.363C801.486 417.499 801.358 417.616 801.208 417.706C801.057 417.796 800.887 417.858 800.708 417.887C800.572 417.887 800.503 417.947 800.367 417.947C800.066 417.95 799.773 417.862 799.537 417.697C799.301 417.533 799.136 417.302 799.069 417.043C796.405 407.764 796.132 395.954 796.132 392.941C782.268 393.965 768.403 394.387 754.471 394.507C754.119 394.51 753.781 394.391 753.526 394.178C753.271 393.964 753.12 393.672 753.105 393.362V392.76C753.105 392.579 753.037 392.398 753.037 392.218C752.955 391.849 752.84 391.486 752.695 391.133L752.558 390.832L752.422 390.591L752.149 390.048C751.875 389.747 751.671 389.386 751.397 389.084C750.807 388.443 750.144 387.857 749.417 387.337L748.256 386.614L747.026 385.951C746.607 385.746 746.174 385.565 745.729 385.409C745.251 385.228 744.841 385.047 744.363 384.866C743.407 384.625 742.519 384.264 741.563 384.083C740.606 383.902 739.65 383.601 738.626 383.48L735.621 382.998H735.552C735.382 382.963 735.229 382.878 735.118 382.759C735.007 382.639 734.944 382.49 734.938 382.336C734.323 382.275 733.64 382.275 732.957 382.215H731.728C719.161 382.215 708.985 387.036 708.985 392.941V393.182C708.596 393.192 708.208 393.172 707.824 393.121C707.688 393.283 707.514 393.415 707.313 393.509C707.112 393.603 706.89 393.656 706.662 393.664H706.594C696.759 393.302 689.93 393.001 681.939 392.639C681.616 392.612 681.314 392.491 681.078 392.294C680.843 392.098 680.689 391.837 680.641 391.555C679.412 391.434 678.114 391.314 676.885 391.193C687.79 401.945 701.169 410.521 716.128 416.349C731.088 422.178 747.284 425.125 763.637 424.994C779.989 424.863 796.122 421.656 810.959 415.589C825.796 409.521 838.996 400.732 849.678 389.807C851.59 387.879 853.434 385.83 855.141 383.721C857.778 380.893 860.131 377.869 862.176 374.683V374.683ZM745.66 391.977C746.196 392.019 746.724 392.12 747.231 392.278C747.514 392.365 747.76 392.528 747.933 392.744C748.107 392.96 748.2 393.218 748.2 393.483C748.2 393.748 748.107 394.006 747.933 394.222C747.76 394.438 747.514 394.601 747.231 394.688C746.724 394.846 746.196 394.947 745.66 394.989C745.114 395.05 744.636 395.05 744.09 395.11C743.05 395.138 742.011 395.016 741.016 394.748C740.652 394.636 740.35 394.405 740.172 394.102C739.994 393.8 739.954 393.449 740.06 393.121C740.119 392.928 740.23 392.749 740.385 392.602C740.54 392.455 740.733 392.344 740.948 392.278C741.94 391.991 742.978 391.849 744.021 391.856C744.636 391.916 745.182 391.916 745.66 391.977ZM739.514 396.797C740.044 396.869 740.568 396.969 741.084 397.098C741.455 397.219 741.757 397.464 741.923 397.78C742.089 398.096 742.107 398.458 741.972 398.786C741.901 398.967 741.785 399.132 741.631 399.268C741.477 399.403 741.29 399.506 741.084 399.569C740.577 399.726 740.049 399.828 739.514 399.87C738.992 399.92 738.467 399.94 737.943 399.93C736.899 399.938 735.861 399.795 734.869 399.509C734.507 399.397 734.21 399.162 734.044 398.857C733.877 398.552 733.855 398.201 733.981 397.882C734.055 397.692 734.181 397.521 734.348 397.384C734.515 397.248 734.718 397.149 734.938 397.098C735.933 396.831 736.971 396.709 738.011 396.737C738.513 396.727 739.015 396.747 739.514 396.797V396.797ZM733.981 388.06C734.055 387.87 734.181 387.699 734.348 387.562C734.515 387.426 734.718 387.328 734.938 387.277C735.933 387.009 736.971 386.887 738.011 386.915C738.537 386.925 739.062 386.966 739.582 387.036C740.112 387.107 740.637 387.208 741.153 387.337C741.523 387.457 741.825 387.703 741.991 388.019C742.158 388.335 742.175 388.696 742.041 389.024C741.97 389.205 741.853 389.37 741.699 389.506C741.545 389.642 741.358 389.745 741.153 389.807C740.645 389.965 740.118 390.066 739.582 390.109C739.06 390.159 738.536 390.179 738.011 390.169C736.967 390.176 735.929 390.034 734.938 389.747C734.749 389.693 734.574 389.606 734.423 389.491C734.272 389.376 734.149 389.237 734.06 389.08C733.971 388.923 733.918 388.752 733.905 388.577C733.891 388.402 733.917 388.226 733.981 388.06V388.06ZM732.001 391.736C732.527 391.746 733.052 391.786 733.572 391.856C734.102 391.928 734.627 392.028 735.143 392.157C735.513 392.278 735.815 392.523 735.981 392.839C736.147 393.155 736.165 393.517 736.03 393.845C735.959 394.026 735.843 394.191 735.689 394.326C735.535 394.462 735.348 394.565 735.143 394.628C734.635 394.785 734.107 394.887 733.572 394.929C733.05 394.979 732.525 394.999 732.001 394.989C730.957 394.997 729.919 394.854 728.927 394.568C728.565 394.456 728.268 394.221 728.102 393.916C727.935 393.611 727.913 393.26 728.04 392.941C728.114 392.751 728.24 392.58 728.406 392.443C728.573 392.307 728.776 392.208 728.996 392.157C729.954 391.837 730.977 391.694 732.001 391.736V391.736ZM729.747 398.605C729.676 398.786 729.559 398.951 729.405 399.087C729.252 399.222 729.065 399.325 728.859 399.388C728.358 399.555 727.825 399.637 727.288 399.629C726.767 399.679 726.242 399.699 725.717 399.689C724.67 399.676 723.632 399.513 722.644 399.207C722.282 399.095 721.985 398.861 721.818 398.556C721.652 398.251 721.629 397.9 721.756 397.58C721.83 397.39 721.956 397.22 722.123 397.083C722.29 396.946 722.492 396.848 722.712 396.797C723.711 396.549 724.75 396.447 725.786 396.496C726.312 396.506 726.837 396.546 727.357 396.616C727.895 396.68 728.423 396.801 728.927 396.978C729.108 397.03 729.274 397.116 729.415 397.228C729.556 397.341 729.669 397.478 729.746 397.631C729.823 397.784 729.863 397.95 729.863 398.118C729.863 398.286 729.824 398.451 729.747 398.605V398.605ZM721.825 387.819C721.898 387.629 722.024 387.458 722.191 387.321C722.358 387.185 722.561 387.087 722.781 387.036C723.779 386.787 724.818 386.685 725.854 386.734C726.38 386.744 726.905 386.785 727.425 386.855C727.963 386.918 728.491 387.04 728.996 387.216C729.355 387.347 729.642 387.597 729.795 387.913C729.948 388.228 729.955 388.584 729.815 388.903C729.744 389.085 729.628 389.25 729.474 389.385C729.32 389.521 729.133 389.624 728.927 389.687C728.426 389.854 727.893 389.936 727.357 389.928C726.835 389.978 726.31 389.998 725.786 389.988C724.739 389.975 723.701 389.812 722.712 389.506C722.351 389.375 722.058 389.129 721.894 388.816C721.729 388.503 721.704 388.147 721.825 387.819V387.819ZM715.814 392.639C715.888 392.449 716.014 392.279 716.181 392.142C716.348 392.005 716.55 391.907 716.771 391.856C717.769 391.607 718.808 391.506 719.844 391.555C720.37 391.565 720.895 391.605 721.415 391.675C721.953 391.739 722.481 391.86 722.986 392.037C723.345 392.168 723.632 392.418 723.785 392.733C723.938 393.048 723.945 393.404 723.805 393.724C723.734 393.905 723.617 394.07 723.464 394.206C723.31 394.342 723.123 394.445 722.917 394.507C722.416 394.675 721.883 394.757 721.346 394.748C720.825 394.799 720.3 394.819 719.776 394.809C718.728 394.795 717.691 394.632 716.702 394.327C716.34 394.196 716.048 393.949 715.883 393.637C715.719 393.324 715.694 392.968 715.814 392.639V392.639Z" fill="#00AEE0"/>
<path d="M733.162 382.215C733.824 382.225 734.485 382.266 735.143 382.336V382.276C734.484 382.225 733.823 382.205 733.162 382.215V382.215Z" fill="#FFB400"/>
<path d="M807.811 296.169C809.956 295.963 812.105 296.513 813.793 297.697C815.481 298.882 816.571 300.606 816.827 302.496C818.397 315.451 820.856 344.133 816.69 372.393C816.46 373.948 815.662 375.395 814.418 376.515C813.173 377.634 811.549 378.366 809.792 378.6C787.732 381.432 763.554 382.275 741.085 382.215L742.109 382.396C743.133 382.577 744.158 382.878 745.182 383.119C745.66 383.239 746.207 383.48 746.685 383.601C747.197 383.756 747.699 383.937 748.187 384.143L749.622 384.806L750.988 385.589C751.903 386.154 752.73 386.822 753.446 387.578C753.826 387.954 754.168 388.357 754.471 388.783C754.607 389.024 754.744 389.205 754.881 389.446L755.086 389.807L755.29 390.169C755.544 390.649 755.727 391.155 755.837 391.675C755.837 391.796 755.905 391.916 755.905 392.037C769.77 391.916 783.634 391.434 797.43 390.41C804.533 389.868 811.636 389.205 818.671 388.301C819.482 388.236 820.284 388.095 821.061 387.879C821.782 387.651 822.47 387.348 823.11 386.975C824.422 386.232 825.483 385.191 826.183 383.962C826.535 383.354 826.787 382.705 826.935 382.034C827.071 381.432 827.139 380.588 827.276 379.805L827.891 375.105C829.358 362.574 830.042 349.981 829.94 337.384C829.871 324.791 829.211 312.217 827.959 299.664L827.413 294.964L827.344 294.12L819.763 286.106C819.627 286.106 819.49 286.046 819.354 286.046C818.969 285.996 818.581 285.975 818.192 285.985C817.782 285.977 817.37 285.997 816.963 286.046L814.3 286.287L808.972 286.769C805.421 287.07 801.801 287.311 798.25 287.612C783.975 288.637 769.633 289.179 755.29 289.48C740.606 289.782 725.945 289.802 711.307 289.541H711.034C710.938 289.543 710.843 289.522 710.76 289.48C702.975 289.36 695.12 289.119 687.334 288.878H687.061C681.119 288.697 675.246 288.456 669.304 288.155C668.942 288.138 668.602 287.996 668.358 287.759C668.115 287.521 667.989 287.209 668.006 286.889C668.019 286.723 668.065 286.56 668.143 286.407C663.362 285.985 659.332 285.503 656.191 284.961C654.688 288.275 653.322 291.65 652.161 295.144C652.161 295.144 653.937 295.325 657.215 295.566C676.475 297.253 746.275 302.255 807.811 296.169Z" fill="#FFB400"/>
<path d="M680.846 391.374C680.865 391.055 681.026 390.755 681.295 390.54C681.564 390.325 681.918 390.214 682.281 390.229C690.203 390.591 697.101 390.952 706.868 391.254C707.049 391.257 707.227 391.293 707.392 391.359C707.557 391.426 707.704 391.521 707.826 391.639C707.947 391.758 708.04 391.897 708.098 392.048C708.157 392.199 708.18 392.36 708.165 392.519C708.172 392.64 708.152 392.761 708.105 392.875C708.058 392.989 707.986 393.093 707.892 393.182C708.28 393.172 708.669 393.192 709.053 393.242V393.001C709.053 387.036 719.23 382.275 731.796 382.275H732.07C708.029 381.914 686.583 380.588 672.787 379.564C670.397 379.383 668.211 379.202 666.367 379.021C669.55 383.339 673.112 387.429 677.022 391.254C678.251 391.374 679.48 391.495 680.778 391.615C680.826 391.542 680.849 391.458 680.846 391.374V391.374Z" fill="#FFB400"/>
<path d="M672.923 379.443C686.719 380.528 708.165 381.854 732.206 382.155H735.142V382.215C735.148 382.37 735.212 382.518 735.323 382.638C735.434 382.758 735.587 382.842 735.757 382.878H735.825L738.831 383.36C739.787 383.541 740.743 383.782 741.767 383.963C742.724 384.204 743.68 384.505 744.568 384.746C745.046 384.927 745.455 385.107 745.933 385.288C746.412 385.469 746.821 385.65 747.231 385.83L748.461 386.493L749.622 387.216C750.364 387.721 751.03 388.308 751.602 388.964C751.875 389.265 752.08 389.627 752.353 389.928L752.627 390.47L752.763 390.711L752.9 391.013C753.045 391.366 753.159 391.728 753.241 392.097C753.241 392.278 753.31 392.459 753.31 392.639V393.242C753.306 393.398 753.339 393.554 753.407 393.698C753.475 393.843 753.577 393.973 753.706 394.081C753.834 394.189 753.987 394.272 754.154 394.324C754.321 394.377 754.499 394.398 754.676 394.387V394.387C768.54 394.266 782.473 393.845 796.337 392.82C796.337 395.833 796.61 407.643 799.274 416.923C799.341 417.182 799.506 417.412 799.742 417.577C799.978 417.741 800.271 417.83 800.572 417.827C800.69 417.836 800.808 417.815 800.913 417.766C801.258 417.683 801.556 417.488 801.745 417.22C801.935 416.952 802.004 416.631 801.938 416.32C800.764 411.821 799.987 407.248 799.615 402.642C802.275 402.457 804.921 402.135 807.538 401.678C807.852 401.61 808.129 401.446 808.317 401.213C808.505 400.981 808.592 400.697 808.562 400.413C808.289 396.616 808.221 393.182 808.289 391.796C811.909 391.434 815.529 391.013 819.148 390.591C820.121 390.485 821.081 390.303 822.017 390.048C822.977 389.765 823.894 389.381 824.749 388.904C826.464 387.913 827.854 386.541 828.778 384.927C829.261 384.133 829.606 383.28 829.803 382.396C830.008 381.492 830.076 380.769 830.213 379.925L830.827 375.225C831.305 371.068 831.715 366.97 831.988 362.813C836.701 362.692 853.912 362.15 868.596 358.956C868.949 358.884 869.256 358.691 869.448 358.42C869.64 358.149 869.702 357.822 869.62 357.51C869.539 357.198 869.32 356.928 869.013 356.759C868.706 356.589 868.334 356.534 867.981 356.606C853.775 359.739 837.179 360.282 832.262 360.402C832.467 356.907 832.671 353.413 832.808 349.918C837.862 349.737 856.985 348.954 873.445 345.88C873.624 345.852 873.794 345.79 873.945 345.7C874.095 345.61 874.222 345.493 874.319 345.357C874.415 345.221 874.478 345.068 874.504 344.91C874.53 344.751 874.518 344.589 874.47 344.434C874.437 344.276 874.367 344.126 874.265 343.994C874.163 343.861 874.03 343.748 873.876 343.663C873.722 343.578 873.549 343.523 873.369 343.5C873.189 343.477 873.006 343.487 872.83 343.53C856.78 346.543 838.067 347.387 832.808 347.507C832.876 345.941 832.876 344.374 832.876 342.807C837.93 342.627 857.054 341.843 873.377 338.891C873.738 338.825 874.055 338.636 874.26 338.366C874.465 338.095 874.54 337.764 874.47 337.445C874.395 337.126 874.181 336.846 873.874 336.665C873.568 336.485 873.192 336.418 872.83 336.48C856.849 339.373 838.067 340.156 832.945 340.337V337.264C832.876 324.61 832.193 311.956 830.896 299.302L830.691 297.314L832.33 299.001C833.865 300.626 835.786 301.933 837.958 302.829C840.13 303.724 842.499 304.187 844.897 304.183C847.686 304.188 850.423 303.517 852.808 302.241C855.193 300.966 857.134 299.136 858.42 296.952L858.693 296.41C855.709 297.055 852.58 296.951 849.659 296.11C846.738 295.269 844.143 293.724 842.165 291.65L833.354 282.37C830.42 279.286 828.995 275.299 829.392 271.288C829.789 267.276 831.976 263.568 835.472 260.979L911.419 204.459C911.752 204.203 912.139 204.009 912.559 203.888C912.979 203.768 913.422 203.723 913.862 203.757C914.302 203.791 914.729 203.902 915.119 204.085C915.509 204.267 915.853 204.518 916.131 204.82C914.219 202.832 911.965 202.53 908.413 202.53H898.237C897.432 202.522 896.652 202.78 896.052 203.253L852.614 235.611C847.219 235.43 841.55 235.37 835.54 235.37C830.281 235.37 825.364 235.43 820.719 235.551C826.859 238.723 832.665 242.373 838.067 246.457L821.197 258.991C815.802 259.473 810.406 259.955 805.284 260.316C805.147 257.786 804.465 243.324 810.816 235.25C811.024 234.986 811.106 234.66 811.041 234.344C810.977 234.027 810.774 233.746 810.475 233.562C810.176 233.379 809.806 233.307 809.448 233.364C809.089 233.42 808.771 233.6 808.562 233.864C801.596 242.721 802.347 257.786 802.552 260.497C786.297 261.582 773.526 262.003 773.389 262.064C773.17 262.067 772.955 262.118 772.765 262.212C772.574 262.307 772.413 262.442 772.296 262.606C771.955 263.088 768.813 267.547 768.745 286.709C764.306 286.889 759.866 287.01 755.359 287.07C741.016 287.371 726.628 287.392 712.194 287.13C711.757 285 711.734 282.82 712.126 280.683C712.16 280.51 712.146 280.332 712.087 280.165C712.027 279.997 711.924 279.844 711.785 279.719C711.647 279.588 711.476 279.487 711.287 279.424C711.097 279.361 710.893 279.339 710.692 279.357C702.943 279.57 695.188 279.348 687.471 278.695C687.121 278.669 686.772 278.76 686.494 278.949C686.216 279.139 686.028 279.413 685.968 279.719C685.634 281.956 685.566 284.218 685.763 286.468C680.368 286.287 674.904 286.046 669.509 285.805C669.243 285.794 668.98 285.851 668.75 285.969C668.52 286.086 668.333 286.259 668.211 286.468C668.126 286.617 668.079 286.782 668.074 286.95C668.06 287.109 668.083 287.269 668.141 287.42C668.2 287.572 668.292 287.711 668.414 287.829C668.535 287.948 668.683 288.043 668.848 288.109C669.012 288.176 669.191 288.212 669.372 288.215C675.314 288.516 681.187 288.757 687.129 288.938H687.402C695.188 289.239 702.974 289.42 710.829 289.541C710.897 289.541 710.965 289.601 711.102 289.601H711.375C726.059 289.842 740.675 289.842 755.359 289.541C769.701 289.239 784.021 288.617 798.318 287.673C801.869 287.371 805.489 287.13 809.04 286.829L814.368 286.347L817.031 286.106C817.439 286.058 817.85 286.037 818.261 286.046C818.649 286.036 819.037 286.056 819.422 286.106C819.558 286.106 819.695 286.166 819.831 286.166L827.412 294.18L827.481 295.024L828.027 299.724C829.325 312.257 829.985 324.831 830.008 337.445C830.111 350.042 829.427 362.634 827.959 375.165L827.344 379.865C827.208 380.648 827.139 381.492 827.003 382.095C826.824 382.757 826.573 383.403 826.251 384.023C825.551 385.252 824.49 386.292 823.178 387.036C822.523 387.385 821.838 387.687 821.129 387.939C820.344 388.126 819.545 388.267 818.739 388.361C811.704 389.265 804.601 389.928 797.498 390.47C783.702 391.495 769.838 391.977 755.973 392.097C755.973 391.977 755.905 391.856 755.905 391.736C755.754 391.225 755.572 390.722 755.359 390.229L755.154 389.868L754.949 389.506C754.812 389.265 754.676 389.084 754.539 388.843C754.236 388.417 753.894 388.014 753.515 387.638C752.78 386.898 751.955 386.231 751.056 385.65L749.69 384.866L748.256 384.204C747.772 383.987 747.27 383.805 746.753 383.661C746.268 383.465 745.765 383.303 745.251 383.179C744.226 382.938 743.202 382.637 742.177 382.456L741.153 382.275C763.623 382.336 787.8 381.432 809.86 378.66C811.618 378.426 813.241 377.694 814.486 376.575C815.73 375.455 816.528 374.009 816.758 372.454C820.924 344.133 818.466 315.511 816.895 302.556C816.649 300.663 815.562 298.933 813.871 297.747C812.181 296.56 810.026 296.014 807.879 296.229C746.275 302.255 676.475 297.253 657.352 295.687C654.328 304.705 652.787 314.06 652.776 323.465C652.735 341.328 658.315 358.85 668.894 374.08C666.162 374.924 664.728 376.43 666.435 378.961C668.347 379.082 670.533 379.263 672.923 379.443ZM805.694 399.629C803.782 399.93 800.776 400.232 799.41 400.352C799.137 396.677 799.069 393.845 799.069 392.7C801.186 392.519 803.303 392.338 805.489 392.157C805.489 393.604 805.489 396.436 805.694 399.629ZM774.209 264.534C778.307 264.353 797.362 263.63 817.509 261.883C814.412 264.562 812.578 268.175 812.375 271.997C812.173 275.82 813.616 279.568 816.417 282.491L817.509 283.696C817.236 283.696 816.963 283.756 816.758 283.756L814.094 283.997L808.767 284.479C805.216 284.78 801.664 285.021 798.113 285.323C789.234 285.925 780.355 286.407 771.408 286.709C771.477 271.765 773.457 266.101 774.209 264.534ZM688.564 281.286C695.422 281.802 702.307 282.003 709.189 281.888C709.007 283.654 709.052 285.433 709.326 287.191C702.428 287.07 695.462 286.889 688.564 286.648C688.354 284.866 688.354 283.068 688.564 281.286V281.286ZM761.437 331.359L773.048 338.951L787.663 320.392L795.586 325.212L775.301 351.002L755.7 338.168L761.437 331.359ZM731.181 355.763C739.035 355.763 745.387 355.763 745.387 359.077C745.387 363.837 739.035 367.693 731.181 367.693C723.327 367.693 716.975 363.837 716.975 359.077C716.975 355.763 723.327 355.763 731.181 355.763ZM675.928 331.359L687.539 338.951L702.155 320.392L710.077 325.212L689.793 351.002L670.191 338.228L675.928 331.359Z" fill="#04294F"/>
<path d="M911.35 204.579L835.404 261.1C831.924 263.698 829.749 267.404 829.352 271.41C828.956 275.417 830.37 279.4 833.286 282.491L842.097 291.77C844.071 293.848 846.667 295.395 849.589 296.237C852.51 297.078 855.641 297.18 858.625 296.53L858.352 297.073C857.066 299.256 855.125 301.086 852.74 302.362C850.355 303.637 847.618 304.309 844.829 304.303C842.433 304.3 840.066 303.834 837.895 302.939C835.725 302.044 833.802 300.741 832.262 299.121L830.623 297.434L830.828 299.423C832.125 312.016 832.808 324.67 832.877 337.384V340.457C838.067 340.276 856.781 339.493 872.762 336.601C873.123 336.546 873.494 336.616 873.799 336.795C874.104 336.975 874.32 337.25 874.402 337.565C875.153 337.444 875.904 337.264 876.655 337.143L876.929 337.203C877.453 333.806 877.773 330.387 877.885 326.96C877.338 324.429 874.88 323.465 872.421 323.766C864.362 324.791 857.122 325.212 855.756 325.273H855.21C852.981 325.266 850.843 324.494 849.247 323.121C847.652 321.748 846.725 319.881 846.663 317.915C846.601 315.949 847.408 314.039 848.914 312.59C850.42 311.14 852.507 310.264 854.732 310.148C858.898 309.907 864.84 309.425 870.509 308.702C875.358 308.16 875.972 304.544 875.221 301.05C874.113 296.803 872.722 292.618 871.055 288.516L907.184 254.471C908.439 253.266 909.163 251.704 909.225 250.068C909.288 248.432 908.685 246.831 907.526 245.553L906.296 244.288C905.178 243.129 904.572 241.652 904.589 240.13C904.555 239.256 904.718 238.385 905.07 237.568C905.422 236.751 905.955 236.003 906.638 235.37L921.868 221.029C923.291 219.703 924.106 217.959 924.156 216.134C924.207 214.309 923.489 212.532 922.142 211.147L916.268 205.001C915.67 204.382 914.823 203.993 913.906 203.914C912.989 203.836 912.073 204.074 911.35 204.579V204.579ZM846.809 273.211C846.809 267.005 851.18 262.003 856.576 262.003C861.971 262.003 866.342 267.005 866.342 273.211C866.342 279.417 861.971 284.419 856.576 284.419C851.18 284.419 846.809 279.417 846.809 273.211ZM919.068 210.785C919.198 210.894 919.301 211.025 919.371 211.17C919.442 211.315 919.478 211.471 919.478 211.629C919.478 211.787 919.442 211.943 919.371 212.088C919.301 212.233 919.198 212.364 919.068 212.473L871.26 253.507L877.338 259.171L900.969 238.865C901.094 238.752 901.244 238.663 901.408 238.601C901.573 238.54 901.75 238.508 901.928 238.507C902.107 238.506 902.284 238.537 902.449 238.597C902.615 238.657 902.765 238.745 902.891 238.856C903.018 238.968 903.118 239.1 903.186 239.246C903.254 239.392 903.288 239.548 903.287 239.706C903.286 239.864 903.25 240.02 903.18 240.165C903.111 240.31 903.009 240.442 902.882 240.552L878.294 261.702C878.17 261.815 878.022 261.905 877.858 261.968C877.693 262.03 877.517 262.062 877.338 262.064C877.16 262.062 876.983 262.03 876.819 261.968C876.655 261.905 876.506 261.815 876.382 261.702L868.391 254.291C868.266 254.178 868.168 254.044 868.104 253.896C868.039 253.749 868.009 253.592 868.015 253.434C868.022 253.276 868.064 253.121 868.141 252.978C868.217 252.836 868.326 252.708 868.46 252.603L917.224 210.725C917.349 210.622 917.497 210.541 917.657 210.489C917.818 210.436 917.989 210.411 918.16 210.417C918.332 210.423 918.5 210.458 918.656 210.521C918.812 210.584 918.952 210.674 919.068 210.785V210.785Z" fill="#00AEE0"/>
<path d="M866.342 273.211C866.342 267.005 861.971 262.003 856.576 262.003C851.18 262.003 846.809 267.005 846.809 273.211C846.809 279.418 851.18 284.419 856.576 284.419C861.971 284.419 866.342 279.418 866.342 273.211ZM856.576 278.273C854.117 278.273 852.136 275.983 852.136 273.211C852.136 270.439 854.117 268.15 856.576 268.15C859.034 268.15 861.015 270.439 861.015 273.211C861.015 275.983 859.034 278.273 856.576 278.273Z" fill="#04294F"/>
<path d="M868.323 252.664C868.067 252.883 867.917 253.181 867.905 253.495C867.892 253.809 868.017 254.116 868.254 254.351L876.245 261.762C876.37 261.875 876.518 261.966 876.682 262.028C876.846 262.09 877.023 262.123 877.201 262.124C877.38 262.123 877.556 262.09 877.721 262.028C877.885 261.966 878.033 261.875 878.158 261.762L902.745 240.612C902.994 240.388 903.133 240.086 903.131 239.771C903.129 239.457 902.987 239.156 902.735 238.934C902.483 238.711 902.142 238.586 901.786 238.584C901.429 238.583 901.087 238.705 900.832 238.925L877.201 259.232L871.123 253.567L918.931 212.533C919.059 212.422 919.16 212.291 919.23 212.146C919.3 212 919.336 211.844 919.337 211.687C919.338 211.529 919.303 211.373 919.235 211.227C919.167 211.081 919.067 210.949 918.941 210.837C918.815 210.726 918.664 210.637 918.499 210.577C918.334 210.517 918.157 210.487 917.978 210.488C917.799 210.488 917.622 210.521 917.458 210.582C917.293 210.643 917.144 210.733 917.019 210.846L868.323 252.664Z" fill="#04294F"/>
<path d="M852.956 422.406C851.675 421.695 850.298 421.129 848.858 420.719C847.492 420.357 846.195 419.996 844.829 419.755C839.483 418.767 834.079 418.043 828.642 417.586C823.247 417.043 817.851 416.742 812.456 416.441C812.302 416.426 812.146 416.44 811.998 416.482C811.851 416.524 811.715 416.592 811.599 416.683C811.483 416.774 811.39 416.885 811.326 417.009C811.262 417.133 811.228 417.268 811.226 417.405C811.209 417.544 811.223 417.685 811.27 417.819C811.316 417.953 811.392 418.077 811.494 418.184C811.597 418.291 811.722 418.379 811.864 418.442C812.006 418.504 812.161 418.541 812.319 418.55C817.715 418.972 823.042 419.454 828.369 420.056C833.679 420.6 838.948 421.425 844.146 422.527C845.443 422.828 846.673 423.129 847.902 423.491C849.037 423.798 850.117 424.244 851.112 424.816C851.18 424.877 851.317 424.937 851.317 424.997C851.249 425.057 851.112 425.118 850.975 425.238C849.963 425.765 848.886 426.19 847.765 426.504C845.251 427.153 842.697 427.676 840.116 428.07C837.521 428.492 834.857 428.854 832.194 429.155C821.539 430.3 810.816 431.023 800.094 431.445C789.371 431.866 778.58 432.107 767.789 432.107C756.998 432.168 746.275 432.047 735.484 431.625C724.762 431.264 713.971 430.661 703.316 429.697C697.989 429.155 692.662 428.613 687.471 427.648C686.179 427.431 684.902 427.15 683.646 426.805C682.443 426.533 681.275 426.15 680.163 425.66C679.733 425.504 679.34 425.279 679.002 424.997C679.139 424.877 679.48 424.696 679.753 424.515C680.274 424.247 680.823 424.025 681.393 423.852C683.828 423.032 686.343 422.407 688.905 421.984C691.501 421.502 694.164 421.08 696.76 420.719C702.087 419.996 707.414 419.454 712.741 418.972C713.057 418.946 713.349 418.811 713.554 418.597C713.758 418.382 713.859 418.106 713.834 417.827C713.826 417.684 713.786 417.544 713.716 417.415C713.646 417.286 713.548 417.171 713.428 417.075C713.307 416.98 713.166 416.907 713.013 416.86C712.86 416.813 712.698 416.793 712.536 416.802C707.141 417.104 701.745 417.586 696.35 418.188C693.686 418.489 690.954 418.851 688.291 419.333C685.53 419.765 682.812 420.389 680.163 421.201C679.455 421.432 678.77 421.714 678.114 422.045C677.266 422.422 676.538 422.982 675.997 423.672L675.86 423.852L675.724 424.093C675.656 424.274 675.587 424.395 675.519 424.575C675.428 424.932 675.428 425.303 675.519 425.66C675.664 426.234 675.996 426.758 676.475 427.166C677.09 427.712 677.806 428.16 678.592 428.492C679.91 429.058 681.281 429.522 682.69 429.878C684.056 430.239 685.354 430.541 686.72 430.782C692.115 431.866 697.511 432.529 702.906 433.132C708.302 433.734 713.697 434.156 719.093 434.518C724.488 434.879 729.884 435.12 735.348 435.361C746.139 435.783 756.998 435.964 767.789 435.964C778.58 435.904 789.439 435.663 800.23 435.18C805.626 434.939 811.021 434.638 816.417 434.216C821.812 433.795 827.208 433.313 832.603 432.65C835.267 432.288 837.999 431.927 840.663 431.445C843.387 430.984 846.078 430.38 848.722 429.637C850.167 429.239 851.545 428.671 852.819 427.95C853.217 427.703 853.583 427.421 853.912 427.106C854.371 426.629 854.656 426.041 854.732 425.419C854.762 425.093 854.716 424.764 854.599 424.454C854.482 424.143 854.295 423.857 854.049 423.611C853.854 423.11 853.467 422.684 852.956 422.406V422.406Z" fill="#FFB400"/>
<path d="M828.027 440.061C827.074 439.516 826.04 439.09 824.954 438.796C823.992 438.519 823.011 438.297 822.017 438.133C818.179 437.454 814.304 436.952 810.406 436.627C806.582 436.265 802.689 436.024 798.864 435.843C798.558 435.835 798.26 435.93 798.032 436.109C797.803 436.289 797.661 436.538 797.635 436.807C797.617 436.947 797.632 437.087 797.678 437.221C797.724 437.355 797.801 437.48 797.903 437.587C798.005 437.694 798.131 437.781 798.273 437.844C798.414 437.907 798.569 437.944 798.728 437.952C802.552 438.254 806.377 438.675 810.133 439.097C813.902 439.514 817.642 440.117 821.334 440.905C822.222 441.086 823.11 441.327 823.929 441.568C824.521 441.741 825.093 441.963 825.637 442.23C825.05 442.508 824.432 442.731 823.793 442.893C822.022 443.353 820.22 443.716 818.397 443.978C816.553 444.279 814.641 444.52 812.797 444.701C805.216 445.484 797.635 445.966 789.985 446.328C782.336 446.629 774.687 446.75 767.037 446.75C751.738 446.912 736.44 446.349 721.21 445.063C717.453 444.701 713.629 444.279 710.009 443.616C709.121 443.436 708.165 443.255 707.345 443.074C706.526 442.869 705.727 442.608 704.955 442.291C704.887 442.291 704.818 442.23 704.75 442.23C705.079 442.067 705.421 441.926 705.774 441.809C707.491 441.26 709.248 440.817 711.033 440.483C712.877 440.122 714.721 439.82 716.634 439.579C720.39 439.037 724.215 438.615 727.971 438.254C728.13 438.245 728.284 438.208 728.426 438.145C728.568 438.083 728.694 437.995 728.796 437.888C728.898 437.781 728.975 437.657 729.021 437.523C729.067 437.389 729.081 437.248 729.064 437.109C729.056 436.966 729.016 436.826 728.946 436.697C728.876 436.568 728.778 436.453 728.658 436.357C728.537 436.262 728.396 436.189 728.243 436.142C728.09 436.095 727.928 436.076 727.766 436.084C723.942 436.325 720.049 436.566 716.224 436.988C714.312 437.229 712.399 437.47 710.419 437.772C708.418 438.05 706.452 438.494 704.545 439.097C704.032 439.273 703.53 439.474 703.043 439.7C702.359 440.012 701.773 440.467 701.335 441.025C701.239 441.132 701.169 441.255 701.13 441.387C701.045 441.515 700.998 441.66 700.994 441.809C700.925 442.127 700.925 442.454 700.994 442.773C701.114 443.245 701.373 443.682 701.745 444.038C702.23 444.451 702.782 444.796 703.384 445.063C704.349 445.482 705.355 445.825 706.389 446.087C707.345 446.328 708.301 446.569 709.326 446.75C713.139 447.483 716.991 448.046 720.868 448.437C728.586 449.28 736.304 449.702 744.021 450.004C751.739 450.305 759.456 450.425 767.174 450.425C774.892 450.365 782.609 450.184 790.327 449.823C798.045 449.461 805.762 448.979 813.48 447.955C815.392 447.714 817.304 447.413 819.285 447.111C821.249 446.775 823.188 446.333 825.09 445.786C826.176 445.492 827.211 445.066 828.164 444.52C828.479 444.32 828.776 444.098 829.052 443.857C829.437 443.446 829.675 442.942 829.735 442.411C829.764 441.849 829.571 441.295 829.188 440.845C828.574 440.423 828.3 440.242 828.027 440.061Z" fill="#FFB400"/>
<path d="M775.302 350.942L795.586 325.212L787.732 320.332L773.116 338.951L761.437 331.359L755.7 338.168L775.302 350.942Z" fill="#FFB400"/>
<path d="M710.078 325.212L702.223 320.332L687.608 338.951L675.929 331.359L670.192 338.168L689.793 350.942L710.078 325.212Z" fill="#FFB400"/>
<path d="M731.181 367.693C739.036 367.693 745.387 363.837 745.387 359.077C745.387 355.762 739.036 355.762 731.181 355.762C723.327 355.762 716.976 355.762 716.976 359.077C716.976 363.837 723.327 367.693 731.181 367.693Z" fill="#FFB400"/>
<path d="M856.576 278.273C859.027 278.273 861.015 276.007 861.015 273.211C861.015 270.416 859.027 268.15 856.576 268.15C854.124 268.15 852.136 270.416 852.136 273.211C852.136 276.007 854.124 278.273 856.576 278.273Z" fill="#00AEE0"/>
<path d="M716.702 394.266C718.196 394.706 719.782 394.85 721.346 394.688C721.875 394.637 722.4 394.557 722.917 394.447C723.128 394.394 723.321 394.294 723.476 394.157C723.632 394.02 723.745 393.85 723.805 393.664C723.938 393.343 723.928 392.99 723.775 392.676C723.623 392.363 723.34 392.112 722.985 391.977C722.483 391.793 721.955 391.671 721.415 391.615C720.894 391.545 720.37 391.505 719.844 391.495C718.809 391.476 717.775 391.577 716.77 391.796C716.556 391.857 716.359 391.959 716.194 392.094C716.029 392.229 715.899 392.395 715.814 392.579C715.679 392.907 715.697 393.268 715.864 393.584C716.03 393.901 716.331 394.146 716.702 394.266V394.266Z" fill="#04294F"/>
<path d="M727.971 392.88C727.845 393.2 727.867 393.551 728.033 393.856C728.2 394.161 728.497 394.396 728.859 394.507C729.851 394.794 730.889 394.937 731.933 394.929C732.457 394.939 732.982 394.919 733.503 394.869C734.039 394.826 734.567 394.725 735.074 394.568C735.28 394.505 735.467 394.402 735.621 394.266C735.774 394.131 735.891 393.966 735.962 393.784C736.098 393.457 736.081 393.095 735.914 392.778C735.748 392.462 735.446 392.217 735.074 392.097C734.567 391.94 734.039 391.838 733.503 391.796C732.957 391.736 732.479 391.736 731.933 391.675C730.893 391.647 729.854 391.769 728.859 392.037C728.465 392.223 728.153 392.52 727.971 392.88V392.88Z" fill="#04294F"/>
<path d="M740.128 393.182C740.015 393.509 740.051 393.863 740.23 394.167C740.409 394.471 740.716 394.702 741.084 394.809C742.08 395.076 743.118 395.199 744.158 395.17C744.684 395.16 745.208 395.12 745.729 395.05C746.259 394.978 746.783 394.878 747.299 394.748C747.583 394.661 747.828 394.498 748.002 394.282C748.175 394.066 748.268 393.808 748.268 393.543C748.268 393.279 748.175 393.02 748.002 392.804C747.828 392.589 747.583 392.426 747.299 392.338C746.792 392.181 746.264 392.079 745.729 392.037C745.207 391.987 744.682 391.967 744.158 391.977C743.114 391.969 742.076 392.112 741.084 392.398C740.855 392.43 740.641 392.521 740.47 392.661C740.3 392.801 740.181 392.982 740.128 393.182Z" fill="#04294F"/>
<path d="M728.928 396.918C728.426 396.734 727.897 396.612 727.357 396.556C726.837 396.486 726.312 396.446 725.786 396.436C724.751 396.417 723.718 396.518 722.713 396.737C722.498 396.798 722.301 396.9 722.136 397.035C721.971 397.17 721.841 397.336 721.757 397.52C721.63 397.84 721.652 398.191 721.819 398.496C721.985 398.801 722.282 399.035 722.644 399.147C724.139 399.587 725.724 399.731 727.289 399.569C727.818 399.518 728.342 399.437 728.86 399.328C729.071 399.275 729.263 399.175 729.419 399.038C729.574 398.901 729.687 398.731 729.747 398.545C729.818 398.391 729.852 398.226 729.849 398.06C729.846 397.894 729.805 397.73 729.728 397.578C729.652 397.426 729.541 397.29 729.404 397.176C729.266 397.063 729.105 396.975 728.928 396.918V396.918Z" fill="#04294F"/>
<path d="M733.982 397.882C733.855 398.201 733.877 398.552 734.044 398.857C734.21 399.163 734.507 399.397 734.869 399.509C735.861 399.795 736.899 399.938 737.943 399.93C738.467 399.94 738.992 399.92 739.514 399.87C740.049 399.828 740.577 399.727 741.085 399.569C741.29 399.506 741.477 399.403 741.631 399.268C741.785 399.132 741.901 398.967 741.972 398.786C742.108 398.458 742.091 398.096 741.925 397.78C741.758 397.463 741.456 397.218 741.085 397.098C740.577 396.941 740.049 396.84 739.514 396.797C738.967 396.737 738.489 396.737 737.943 396.677C736.903 396.648 735.865 396.77 734.869 397.038C734.655 397.104 734.461 397.215 734.307 397.362C734.152 397.509 734.04 397.688 733.982 397.882Z" fill="#04294F"/>
<path d="M722.712 389.446C724.207 389.886 725.792 390.03 727.357 389.868C727.885 389.817 728.41 389.736 728.927 389.627C729.139 389.574 729.331 389.474 729.487 389.337C729.642 389.2 729.755 389.03 729.815 388.843C729.949 388.523 729.938 388.17 729.786 387.856C729.633 387.542 729.351 387.292 728.996 387.156C728.493 386.972 727.965 386.851 727.425 386.795C726.905 386.725 726.38 386.684 725.854 386.674C724.819 386.655 723.786 386.756 722.781 386.975C722.566 387.036 722.369 387.138 722.204 387.273C722.039 387.409 721.909 387.574 721.824 387.759C721.69 388.086 721.708 388.448 721.874 388.764C722.04 389.08 722.342 389.325 722.712 389.446Z" fill="#04294F"/>
<path d="M734.869 389.687C735.861 389.974 736.899 390.116 737.943 390.109C738.467 390.119 738.992 390.099 739.514 390.048C740.049 390.006 740.577 389.905 741.084 389.747C741.29 389.685 741.477 389.581 741.631 389.446C741.785 389.31 741.901 389.145 741.972 388.964C742.108 388.636 742.091 388.274 741.924 387.958C741.758 387.642 741.456 387.396 741.084 387.277C740.577 387.119 740.049 387.018 739.514 386.975C738.967 386.915 738.489 386.915 737.943 386.855C736.903 386.827 735.865 386.949 734.869 387.216C734.447 387.358 734.104 387.639 733.913 388C733.799 388.335 733.834 388.697 734.012 389.011C734.189 389.324 734.496 389.566 734.869 389.687V389.687Z" fill="#04294F"/>
<path d="M706.868 391.254C697.101 390.892 690.203 390.591 682.28 390.229C682.1 390.217 681.918 390.237 681.747 390.288C681.575 390.34 681.418 390.422 681.284 390.529C681.149 390.636 681.041 390.766 680.966 390.912C680.891 391.057 680.85 391.214 680.846 391.374V391.555C680.872 391.845 681.018 392.117 681.258 392.318C681.498 392.518 681.814 392.633 682.144 392.639C690.066 393.001 696.964 393.362 706.799 393.664H706.868C707.097 393.669 707.325 393.621 707.528 393.527C707.732 393.432 707.904 393.292 708.029 393.121C708.16 392.915 708.253 392.691 708.302 392.459C708.274 392.137 708.111 391.836 707.847 391.613C707.582 391.391 707.233 391.263 706.868 391.254V391.254Z" fill="#04294F"/>
<path d="M793.742 270.198C793.486 269.523 793.142 268.876 792.717 268.27C792.406 267.879 791.945 267.601 791.42 267.487C791.142 267.419 790.851 267.402 790.565 267.436C790.279 267.469 790.004 267.553 789.755 267.682C789.507 267.812 789.291 267.984 789.119 268.188C788.947 268.392 788.824 268.625 788.756 268.873L788.688 269.114C788.522 269.704 788.453 270.313 788.483 270.921C788.483 271.524 788.483 272.127 788.551 272.729C788.609 273.315 788.7 273.898 788.824 274.477C788.943 275.053 789.126 275.619 789.371 276.164L789.439 276.405C789.649 276.853 790.038 277.217 790.532 277.429C790.792 277.541 791.074 277.606 791.363 277.621C791.652 277.636 791.941 277.601 792.214 277.517C792.487 277.433 792.738 277.302 792.954 277.132C793.169 276.962 793.344 276.755 793.469 276.525C793.792 275.853 794 275.143 794.083 274.416C794.152 273.715 794.152 273.009 794.083 272.307C794.119 271.592 794.003 270.876 793.742 270.198Z" fill="#04294F"/>
<path d="M783.156 268.812C782.888 268.423 782.479 268.126 781.995 267.969C781.451 267.799 780.853 267.823 780.33 268.037C779.806 268.251 779.399 268.638 779.194 269.114L779.058 269.415C778.839 269.998 778.724 270.608 778.716 271.223C778.648 271.825 778.648 272.428 778.648 273.03C778.645 273.618 778.714 274.204 778.853 274.778C778.947 275.392 779.107 275.998 779.331 276.586L779.399 276.706C779.493 276.933 779.639 277.141 779.827 277.317C780.014 277.493 780.241 277.634 780.492 277.73C780.756 277.849 781.044 277.92 781.339 277.939C781.635 277.958 781.931 277.924 782.212 277.84C782.492 277.755 782.75 277.622 782.971 277.448C783.192 277.274 783.371 277.063 783.497 276.827C783.818 276.191 784.047 275.523 784.18 274.838C784.33 274.164 784.376 273.475 784.317 272.789C784.293 272.121 784.202 271.455 784.044 270.801C783.88 270.098 783.579 269.425 783.156 268.812V268.812Z" fill="#04294F"/>
<path d="M898.374 302.918C895.406 302.926 892.442 303.087 889.495 303.4C887.993 303.58 886.558 303.701 885.056 303.942C883.579 304.11 882.119 304.372 880.685 304.725C880.509 304.752 880.351 304.834 880.238 304.956C880.125 305.078 880.065 305.231 880.07 305.388C880.069 305.57 880.146 305.745 880.285 305.879C880.425 306.013 880.616 306.096 880.821 306.111C882.324 306.171 883.826 306.171 885.329 306.111C886.832 306.051 888.334 305.93 889.768 305.81C891.271 305.689 892.705 305.509 894.208 305.268C895.708 305.052 897.191 304.75 898.647 304.364C898.822 304.315 898.975 304.219 899.085 304.089C899.196 303.959 899.257 303.803 899.262 303.641C899.232 303.448 899.127 303.27 898.965 303.138C898.803 303.006 898.594 302.928 898.374 302.918Z" fill="#F04E23"/>
<path d="M899.808 296.53C898.972 296.421 898.123 296.401 897.281 296.47C896.435 296.47 895.59 296.531 894.754 296.651C893.902 296.712 893.057 296.833 892.227 297.012C891.407 297.193 890.588 297.374 889.768 297.615C889.632 297.656 889.51 297.727 889.414 297.823C889.318 297.918 889.252 298.033 889.222 298.157C889.2 298.253 889.2 298.351 889.223 298.446C889.246 298.541 889.291 298.631 889.355 298.71C889.419 298.79 889.501 298.856 889.596 298.906C889.69 298.956 889.795 298.988 889.905 299.001C890.763 299.121 891.631 299.181 892.5 299.182C893.388 299.182 894.208 299.121 895.027 299.061C895.879 299 896.724 298.879 897.554 298.7C898.414 298.534 899.259 298.313 900.081 298.037C900.22 297.99 900.34 297.908 900.425 297.8C900.511 297.693 900.557 297.565 900.559 297.434C900.58 297.331 900.577 297.225 900.55 297.123C900.523 297.021 900.473 296.925 900.403 296.841C900.332 296.756 900.244 296.685 900.141 296.632C900.039 296.579 899.926 296.544 899.808 296.53V296.53Z" fill="#F04E23"/>
<path d="M895.847 309.787L884.646 310.811L873.445 311.896C869.689 312.257 866.001 312.619 862.244 312.98C861.766 313.041 861.357 313.041 860.81 313.101C860.252 313.143 859.702 313.244 859.171 313.402C858.112 313.704 857.135 314.196 856.303 314.848C854.683 316.09 853.678 317.842 853.502 319.729C853.483 319.896 853.536 320.062 853.65 320.196C853.764 320.33 853.93 320.422 854.117 320.452C854.216 320.479 854.32 320.488 854.422 320.479C854.525 320.469 854.624 320.44 854.714 320.395C854.804 320.35 854.882 320.289 854.944 320.216C855.006 320.143 855.05 320.059 855.073 319.97V319.97C855.52 318.554 856.479 317.305 857.805 316.415C858.438 315.995 859.157 315.688 859.922 315.511C860.264 315.451 860.674 315.391 861.083 315.33L862.449 315.27C866.274 315.029 869.962 314.668 873.718 314.246C877.475 313.884 881.231 313.402 884.919 312.92C888.676 312.438 892.364 311.896 896.12 311.233C896.319 311.192 896.495 311.091 896.619 310.948C896.744 310.806 896.809 310.63 896.803 310.45C896.76 310.256 896.64 310.083 896.464 309.962C896.289 309.84 896.07 309.778 895.847 309.787V309.787Z" fill="#F04E23"/>
<path d="M930.747 272.91C933.199 272.91 935.186 270.725 935.186 268.029C935.186 265.334 933.199 263.148 930.747 263.148C928.295 263.148 926.308 265.334 926.308 268.029C926.308 270.725 928.295 272.91 930.747 272.91Z" fill="#04294F"/>
<path d="M927.332 277.248C925.761 277.248 924.532 278.634 924.532 280.321C924.532 282.009 925.761 283.394 927.332 283.394C928.903 283.394 930.132 282.009 930.132 280.321C930.132 278.634 928.903 277.248 927.332 277.248Z" fill="#04294F"/>
<path d="M443.349 129.657C435.417 115.977 422.414 105.08 406.835 99.0557C391.255 93.0315 374.198 92.3049 358.936 97.0153C354.134 92.5244 348.304 89.0666 341.931 86.9302C335.558 84.7938 328.827 84.0407 322.3 84.7336C315.772 85.4265 309.636 87.5455 304.405 90.9138C299.173 94.282 294.996 98.8021 292.224 104.097C286.09 96.8726 277.661 91.5098 268.232 88.832C258.802 86.1542 248.894 86.3094 240.027 89.2739C231.16 92.2383 223.825 97.8481 219.149 105.242C214.472 112.636 212.712 121.405 214.14 130.203C205.838 128.595 197.38 129.273 189.87 132.149C182.36 135.024 176.147 139.964 172.044 146.321C167.94 152.679 166.136 160.16 166.868 167.787C167.599 175.414 170.832 182.831 176.144 189.071C170.201 197.743 167.477 208.07 168.343 218.651C169.209 229.232 173.623 239.554 180.985 248.215C188.347 256.876 198.3 263.457 209.494 267.064C220.687 270.671 232.579 271.129 243.553 268.376C246.227 277.175 251.998 285.124 259.95 290.959C267.901 296.795 277.578 300.182 287.441 300.583C297.305 300.985 306.79 298.377 314.391 293.175C321.991 287.972 327.27 280.474 329.389 271.87C339.475 273.838 349.743 272.622 358.462 268.428C367.181 264.233 373.817 257.316 377.25 248.844C384.217 250.199 391.318 250.044 397.963 248.391C404.607 246.738 410.606 243.635 415.461 239.338C420.315 235.042 423.887 229.677 425.879 223.687C427.871 217.697 428.226 211.255 426.915 204.894C439.048 196.727 447.333 184.732 450.335 170.989C453.337 157.246 450.866 142.623 443.349 129.657V129.657Z" fill="#00AEE0"/>
<path d="M287.638 321.761C292.184 329.601 288.462 335.761 281.261 338.855C274.061 341.948 266.104 340.805 261.557 332.965C257.011 325.125 259.165 316.261 266.366 313.168C273.566 310.075 283.092 313.921 287.638 321.761Z" fill="#00AEE0"/>
<path d="M263.307 349.643C266.275 354.762 263.019 359.806 258.316 361.826C253.613 363.846 248.418 363.1 245.45 357.983C242.483 352.866 243.887 347.075 248.59 345.055C253.293 343.035 260.338 344.524 263.307 349.643Z" fill="#00AEE0"/>
<path d="M327.618 150.692C317.789 146.923 307.747 143.603 297.532 140.746C285.465 137.236 276.869 135.042 270.918 133.58C263.975 131.825 257.032 134.018 256.536 140.454C256.04 148.059 255.379 154.934 255.379 172.485C255.214 181.699 255.709 190.913 256.536 199.982C257.032 206.271 258.024 209.781 264.14 212.852L266.289 213.73C266.454 213.73 266.62 213.876 266.785 213.876C276.703 217.679 286.787 221.043 297.036 223.968C312.079 228.356 321.667 230.696 327.618 231.866C336.545 233.182 337.867 229.087 338.198 224.553C338.859 216.801 339.52 216.509 339.52 195.74C339.52 178.335 339.024 172.777 338.528 165.611C338.457 162.472 337.399 159.414 335.472 156.778C333.544 154.143 330.825 152.035 327.618 150.692V150.692Z" fill="#FFB400"/>
<path d="M291.085 211.975C290.163 211.975 289.253 211.791 288.423 211.437C287.593 211.082 286.864 210.566 286.291 209.927L267.446 188.427C266.958 187.88 266.596 187.252 266.381 186.581C266.167 185.91 266.104 185.208 266.196 184.516C266.288 183.823 266.533 183.153 266.918 182.544C267.303 181.936 267.819 181.4 268.438 180.968C269.057 180.536 269.765 180.215 270.524 180.026C271.282 179.836 272.076 179.78 272.859 179.862C273.641 179.943 274.399 180.16 275.087 180.501C275.775 180.841 276.38 181.298 276.869 181.845L290.424 197.349L315.881 161.661C316.283 161.056 316.815 160.527 317.448 160.104C318.08 159.681 318.801 159.373 319.569 159.196C320.336 159.02 321.135 158.979 321.921 159.075C322.706 159.172 323.463 159.405 324.146 159.76C324.83 160.115 325.428 160.586 325.906 161.146C326.384 161.706 326.733 162.344 326.933 163.023C327.132 163.702 327.179 164.409 327.069 165.104C326.96 165.799 326.697 166.468 326.295 167.073C326.295 167.219 326.13 167.219 326.13 167.366L296.044 209.342C295.525 210.063 294.819 210.664 293.986 211.096C293.152 211.529 292.215 211.78 291.25 211.829H291.085V211.975Z" fill="#10294C"/>
<path d="M374.076 742.284L353.729 743.104L358.749 860.989L379.096 860.169L374.076 742.284Z" fill="#1B236D"/>
<path d="M291.215 750.568L270.867 751.389L275.887 869.274L296.235 868.454L291.215 750.568Z" fill="#1B236D"/>
<path d="M370.575 677.239L337.717 679.301L336.641 662.536L296.448 665.058L297.525 681.823L263.394 683.965C257.845 684.313 254.224 688.309 254.521 692.938L257.929 746.027C258.128 749.113 260.651 751.467 264.351 751.235L304.543 748.713C308.243 748.481 311.718 745.75 311.52 742.664L309.905 717.517C309.806 715.973 310.59 714.668 312.439 714.552L325.836 713.711C327.687 713.595 329.902 714.713 330.001 716.255L331.616 741.403C331.814 744.489 334.338 746.843 338.037 746.611L378.23 744.089C381.929 743.857 385.405 741.126 385.206 738.04L381.798 684.951C381.501 680.322 376.125 676.891 370.575 677.239Z" fill="#72B5F7"/>
<path d="M282.177 771.728C269.595 772.299 257.588 764.435 255.359 754.164C253.129 743.893 261.521 735.104 274.103 734.533C286.684 733.962 298.691 741.826 300.921 752.097C303.15 762.368 294.758 771.157 282.177 771.728Z" fill="url(#paint0_linear)"/>
<path d="M278.435 757.931C274.533 758.108 270.809 755.669 270.118 752.484C269.426 749.299 272.029 746.573 275.931 746.396C279.833 746.219 283.557 748.658 284.248 751.843C284.94 755.028 282.337 757.753 278.435 757.931Z" fill="#F92424"/>
<path d="M368.32 764.857C355.739 765.428 343.732 757.564 341.502 747.293C339.273 737.022 347.665 728.233 360.246 727.663C372.828 727.092 384.835 734.955 387.064 745.226C389.294 755.497 380.902 764.286 368.32 764.857Z" fill="url(#paint1_linear)"/>
<path d="M364.579 751.06C360.677 751.237 356.953 748.798 356.261 745.613C355.57 742.428 358.173 739.702 362.075 739.525C365.977 739.348 369.701 741.787 370.392 744.972C371.083 748.157 368.481 750.883 364.579 751.06Z" fill="#F92424"/>
<path d="M355.344 887.731L388.163 887.339L387.843 882.127C387.312 873.493 379.362 866.583 370.299 866.692L370.386 866.691C361.323 866.799 354.493 873.885 355.024 882.52L355.344 887.731Z" fill="url(#paint2_linear)"/>
<path d="M272.483 896.016L305.302 895.624L304.982 890.412C304.451 881.778 296.501 874.868 287.438 874.976L287.525 874.975C278.462 875.084 271.632 882.17 272.163 890.805L272.483 896.016Z" fill="url(#paint3_linear)"/>
<path d="M343.196 717.319L371.328 714.478L367.267 685.782L339.137 688.623L343.196 717.319Z" fill="#5BABF2"/>
<path d="M362.784 695.134L346.443 694.68L347.841 707.875L364.183 708.33L362.784 695.134Z" fill="white"/>
<path d="M272.055 721.38L300.186 718.539L296.125 689.842L267.995 692.683L272.055 721.38Z" fill="#5BABF2"/>
<path d="M291.642 699.195L275.301 698.74L276.7 711.935L293.041 712.39L291.642 699.195Z" fill="white"/>
<path d="M298.36 452.346L301.872 452.105L302.809 464.354L299.296 464.595L298.36 452.346Z" fill="url(#paint4_linear)"/>
<path d="M300.272 454.267C297.362 454.467 294.794 451.887 294.535 448.505C294.277 445.122 296.426 442.218 299.335 442.018C302.245 441.818 304.814 444.398 305.072 447.78C305.331 451.163 303.182 454.067 300.272 454.267Z" fill="url(#paint5_linear)"/>
<path d="M311.11 454.976L303.798 455.779L301.898 449.946L309.209 449.142L311.11 454.976Z" fill="white"/>
<path d="M185.658 656.828L115.782 667.471L121.179 681.5L191.054 670.858L185.658 656.828Z" fill="#1B236D"/>
<path d="M250.789 663.981L392.212 667.583L380.319 555.442L238.896 551.839L250.789 663.981Z" fill="url(#paint6_linear)"/>
<path d="M278.951 533.998L362.415 524.717L340.868 457.204L257.404 466.486L278.951 533.998Z" fill="url(#paint7_linear)"/>
<path d="M125.01 686.528C117.575 686.873 110.489 682.323 109.182 676.365C107.876 670.406 112.845 665.297 120.28 664.951C127.716 664.606 134.802 669.156 136.108 675.115C137.414 681.073 132.446 686.183 125.01 686.528Z" fill="url(#paint8_radial)"/>
<path d="M338.673 479.504L323.231 481.222L327.218 493.713L342.66 491.995L338.673 479.504Z" fill="#5BABF2"/>
<path d="M302.294 483.9L286.852 485.618L290.839 498.109L306.281 496.391L302.294 483.9Z" fill="#5BABF2"/>
<path d="M319.748 509.614C311.943 510.471 303.979 506.106 301.96 499.864L330.225 496.759C332.245 502.999 327.553 508.756 319.748 509.614Z" fill="#5BABF2"/>
<path d="M343.784 466.777L336.473 467.581L334.572 461.748L341.884 460.944L343.784 466.777Z" fill="#1B236D"/>
<path d="M271.303 475.535L263.991 476.339L262.09 470.506L269.402 469.702L271.303 475.535Z" fill="#1B236D"/>
<path d="M356.506 520.625L349.194 521.429L347.293 515.596L354.605 514.792L356.506 520.625Z" fill="#1B236D"/>
<path d="M284.022 529.384L276.71 530.188L274.81 524.355L282.121 523.551L284.022 529.384Z" fill="#1B236D"/>
<path d="M319.298 653.931L310.092 653.696L310.866 660.995L320.071 661.23L319.298 653.931Z" fill="#1B236D"/>
<path d="M386.39 654.051L377.185 653.815L377.959 661.115L387.164 661.35L386.39 654.051Z" fill="#1B236D"/>
<path d="M264.204 652.776L254.998 652.541L255.772 659.841L264.978 660.076L264.204 652.776Z" fill="#1B236D"/>
<path d="M340.735 554.23C341.666 554.189 342.32 553.543 342.214 552.727C342.104 551.864 341.188 551.137 340.168 551.104L299.358 549.774C298.338 549.747 297.601 550.414 297.711 551.277C297.822 552.14 298.738 552.868 299.758 552.901L340.568 554.231C340.625 554.234 340.681 554.232 340.735 554.23Z" fill="#1B236D"/>
<path d="M340.66 547.252C341.674 547.203 342.353 546.415 342.18 545.492C342.004 544.566 341.039 543.85 340.02 543.896L299.218 545.721C299.216 545.721 299.215 545.721 299.212 545.721C298.197 545.77 297.518 546.557 297.692 547.481C297.867 548.407 298.833 549.123 299.851 549.077L340.654 547.252C340.655 547.252 340.657 547.252 340.66 547.252Z" fill="#1B236D"/>
<path d="M340.667 543.116C341.676 543.067 342.356 542.288 342.185 541.367C342.011 540.444 341.046 539.729 340.029 539.772L299.225 541.479C298.239 541.566 297.523 542.304 297.697 543.228C297.87 544.15 298.835 544.866 299.852 544.823L340.656 543.116C340.658 543.116 340.662 543.116 340.667 543.116Z" fill="#1B236D"/>
<path d="M300.192 540.648C300.231 540.646 300.27 540.645 300.31 540.64L341.279 536.433C342.274 536.33 342.869 535.54 342.606 534.665C342.346 533.792 341.368 533.151 340.331 533.268L299.363 537.475C298.368 537.578 297.773 538.368 298.035 539.243C298.288 540.081 299.236 540.691 300.192 540.648Z" fill="#1B236D"/>
<path d="M300.25 536.418C300.295 536.416 300.343 536.413 300.388 536.408L340.172 531.948C341.163 531.838 341.742 531.047 341.467 530.181C341.191 529.316 340.167 528.699 339.178 528.816L299.394 533.276C298.403 533.386 297.824 534.177 298.099 535.043C298.362 535.866 299.303 536.46 300.25 536.418Z" fill="#1B236D"/>
<path d="M300.235 532.183C300.279 532.181 300.325 532.178 300.37 532.173L340.189 527.807C341.18 527.699 341.762 526.908 341.491 526.042C341.219 525.175 340.209 524.563 339.206 524.669L299.387 529.035C298.396 529.144 297.814 529.934 298.085 530.801C298.343 531.628 299.29 532.225 300.235 532.183Z" fill="#1B236D"/>
<path d="M211.53 571.121L191.934 650.878L216.882 657.138L236.478 577.381L211.53 571.121Z" fill="#1B236D"/>
<path d="M442.372 491.608L398.412 563.549L422.153 574.382L466.111 502.44L442.372 491.608Z" fill="#1B236D"/>
<path d="M238.39 599.946C221.304 600.74 205.02 590.284 202.019 576.593C199.018 562.902 210.435 551.16 227.521 550.367C244.606 549.574 260.89 560.03 263.891 573.721C266.893 587.411 255.475 599.153 238.39 599.946Z" fill="url(#paint9_radial)"/>
<path d="M398.879 600.227C381.794 601.021 365.51 590.565 362.509 576.874C359.507 563.183 370.925 551.441 388.011 550.648C405.096 549.855 421.38 560.311 424.381 574.002C427.382 587.693 415.965 599.434 398.879 600.227Z" fill="url(#paint10_radial)"/>
<path d="M98.4148 678.241C98.9861 678.217 99.48 677.955 99.6855 677.511C100.001 676.829 99.516 675.973 98.6034 675.599L76.4149 666.519C75.5036 666.145 74.5053 666.393 74.191 667.078C73.8759 667.759 74.3606 668.616 75.2732 668.99L97.4617 678.07C97.7801 678.201 98.1088 678.255 98.4148 678.241Z" fill="#1B236D"/>
<path d="M100.565 683.641C101.33 683.609 101.927 683.166 101.983 682.519C102.049 681.735 101.293 680.949 100.293 680.765L66.894 674.579C65.8915 674.398 65.0287 674.88 64.9624 675.664C64.896 676.448 65.6522 677.234 66.6525 677.418L100.051 683.604C100.229 683.637 100.401 683.648 100.565 683.641Z" fill="#1B236D"/>
<path d="M72.9011 692.387C73.0222 692.382 73.1449 692.366 73.2636 692.34L101.328 685.932C102.251 685.723 102.661 684.91 102.248 684.12C101.832 683.328 100.74 682.862 99.8298 683.069L71.7656 689.477C70.842 689.686 70.4323 690.499 70.8457 691.289C71.2069 691.977 72.0752 692.423 72.9011 692.387Z" fill="#1B236D"/>
<path d="M84.3255 704.946C84.7249 704.928 85.0926 704.792 85.3468 704.537L102.845 687.078C103.391 686.533 103.21 685.651 102.442 685.109C101.673 684.566 100.605 684.569 100.061 685.113L82.563 702.572C82.017 703.117 82.1976 703.999 82.9664 704.541C83.3736 704.83 83.8709 704.966 84.3255 704.946Z" fill="#1B236D"/>
<path d="M125.48 709.711C125.629 709.704 125.779 709.675 125.92 709.627C126.671 709.363 126.95 708.581 126.542 707.878L114.105 686.413C113.696 685.71 112.755 685.354 112.008 685.615C111.257 685.879 110.979 686.661 111.386 687.364L123.824 708.829C124.154 709.398 124.834 709.742 125.48 709.711Z" fill="#1B236D"/>
<path d="M199.411 677.925C186.597 678.52 174.384 670.678 172.133 660.409C169.882 650.14 178.445 641.334 191.259 640.739C204.073 640.144 216.286 647.986 218.537 658.255C220.788 668.523 212.225 677.33 199.411 677.925Z" fill="url(#paint11_linear)"/>
<path d="M461.315 514.941C448.501 515.536 436.288 507.694 434.037 497.425C431.786 487.157 440.349 478.35 453.163 477.755C465.977 477.16 478.19 485.003 480.441 495.271C482.692 505.54 474.129 514.347 461.315 514.941Z" fill="url(#paint12_linear)"/>
<path d="M90.7203 682.897L111.461 693.076L122.008 677.755L101.267 667.576L90.7203 682.897Z" fill="url(#paint13_linear)"/>
<path d="M342.436 573.657L325.795 573.233L327.194 586.428L343.835 586.852L342.436 573.657Z" fill="white"/>
<path d="M315.687 573.609L299.046 573.185L300.445 586.38L317.086 586.804L315.687 573.609Z" fill="white"/>
<path d="M288.938 573.561L272.297 573.137L273.696 586.332L290.337 586.756L288.938 573.561Z" fill="white"/>
<path d="M262.975 646.469L291.934 647.239L287.427 602.38L258.469 601.61L262.975 646.469Z" fill="#5BABF2"/>
<path d="M457.067 501.649C453.092 501.833 449.305 499.401 448.607 496.217C447.909 493.033 450.564 490.302 454.539 490.117C458.513 489.933 462.3 492.364 462.998 495.549C463.696 498.733 461.041 501.464 457.067 501.649Z" fill="#F92424"/>
<path d="M195.627 664.132C191.652 664.317 187.865 661.885 187.167 658.7C186.469 655.516 189.124 652.785 193.099 652.6C197.073 652.416 200.86 654.848 201.558 658.032C202.257 661.217 199.601 663.948 195.627 664.132Z" fill="#F92424"/>
<path d="M231.335 579.202C227.36 579.387 223.573 576.955 222.875 573.771C222.177 570.586 224.832 567.855 228.807 567.671C232.781 567.486 236.568 569.918 237.266 573.103C237.964 576.287 235.309 579.018 231.335 579.202Z" fill="#F92424"/>
<path d="M397.394 580.297C393.42 580.482 389.632 578.05 388.934 574.865C388.236 571.681 390.892 568.95 394.866 568.765C398.84 568.581 402.627 571.013 403.325 574.197C404.024 577.382 401.368 580.113 397.394 580.297Z" fill="#F92424"/>
<path d="M384.214 883.95C384.33 885.846 382.804 887.403 380.805 887.427L362.704 887.643C360.704 887.667 358.989 886.149 358.872 884.253L357.184 856.786C357.068 854.89 358.594 853.334 360.593 853.31L378.694 853.093C380.694 853.069 382.409 854.587 382.525 856.483L384.214 883.95Z" fill="url(#paint14_linear)"/>
<path d="M301.352 892.235C301.468 894.131 299.942 895.688 297.943 895.711L279.842 895.928C277.843 895.952 276.127 894.434 276.011 892.538L274.322 865.071C274.206 863.175 275.732 861.618 277.732 861.594L295.832 861.378C297.832 861.354 299.547 862.872 299.664 864.768L301.352 892.235Z" fill="url(#paint15_linear)"/>
<defs>
<linearGradient id="paint0_linear" x1="301.193" y1="753.767" x2="255.728" y2="758.564" gradientUnits="userSpaceOnUse">
<stop stop-color="#EFEFEF"/>
<stop offset="0.5538" stop-color="#D7D8D9"/>
</linearGradient>
<linearGradient id="paint1_linear" x1="387.337" y1="746.896" x2="341.871" y2="751.693" gradientUnits="userSpaceOnUse">
<stop stop-color="#EFEFEF"/>
<stop offset="0.5538" stop-color="#D7D8D9"/>
</linearGradient>
<linearGradient id="paint2_linear" x1="370.473" y1="866.69" x2="370.722" y2="887.547" gradientUnits="userSpaceOnUse">
<stop stop-color="#2ECAFF"/>
<stop offset="1" stop-color="#1B236D"/>
</linearGradient>
<linearGradient id="paint3_linear" x1="287.611" y1="874.974" x2="287.861" y2="895.832" gradientUnits="userSpaceOnUse">
<stop stop-color="#2ECAFF"/>
<stop offset="1" stop-color="#1B236D"/>
</linearGradient>
<linearGradient id="paint4_linear" x1="301.076" y1="464.781" x2="300.156" y2="451.396" gradientUnits="userSpaceOnUse">
<stop stop-color="#E6E6E6"/>
<stop offset="0.4062" stop-color="#E2E2E2"/>
<stop offset="0.8264" stop-color="#D5D5D5"/>
<stop offset="1" stop-color="#CECECE"/>
</linearGradient>
<linearGradient id="paint5_linear" x1="305.072" y1="447.78" x2="294.541" y2="448.586" gradientUnits="userSpaceOnUse">
<stop stop-color="#FF7E45"/>
<stop offset="0.1983" stop-color="#FE7A4B"/>
<stop offset="0.4578" stop-color="#FC6D5B"/>
<stop offset="0.7499" stop-color="#F85876"/>
<stop offset="1" stop-color="#F44293"/>
</linearGradient>
<linearGradient id="paint6_linear" x1="386.29" y1="611.495" x2="246.749" y2="626.226" gradientUnits="userSpaceOnUse">
<stop stop-color="#92C4FE"/>
<stop offset="1" stop-color="#5BABF2"/>
</linearGradient>
<linearGradient id="paint7_linear" x1="351.659" y1="490.969" x2="273.212" y2="516.04" gradientUnits="userSpaceOnUse">
<stop stop-color="#92C4FE"/>
<stop offset="1" stop-color="#5BABF2"/>
</linearGradient>
<radialGradient id="paint8_radial" cx="0" cy="0" r="1" gradientUnits="userSpaceOnUse" gradientTransform="translate(122.606 675.725) rotate(-178.537) scale(13.6083 10.7545)">
<stop stop-color="#FF4945"/>
<stop offset="1" stop-color="#F92424"/>
</radialGradient>
<radialGradient id="paint9_radial" cx="0" cy="0" r="1" gradientUnits="userSpaceOnUse" gradientTransform="translate(232.953 575.146) rotate(-178.537) scale(31.3118 24.7453)">
<stop stop-color="#FF4945"/>
<stop offset="1" stop-color="#F92424"/>
</radialGradient>
<radialGradient id="paint10_radial" cx="0" cy="0" r="1" gradientUnits="userSpaceOnUse" gradientTransform="translate(393.443 575.432) rotate(-178.537) scale(31.3119 24.7453)">
<stop stop-color="#FF4945"/>
<stop offset="1" stop-color="#F92424"/>
</radialGradient>
<linearGradient id="paint11_linear" x1="218.811" y1="659.924" x2="172.501" y2="664.813" gradientUnits="userSpaceOnUse">
<stop stop-color="#EFEFEF"/>
<stop offset="0.5538" stop-color="#D7D8D9"/>
</linearGradient>
<linearGradient id="paint12_linear" x1="478.486" y1="490.29" x2="441.465" y2="511.817" gradientUnits="userSpaceOnUse">
<stop stop-color="#EFEFEF"/>
<stop offset="0.5538" stop-color="#D7D8D9"/>
</linearGradient>
<linearGradient id="paint13_linear" x1="116.819" y1="685.437" x2="97.9936" y2="672.414" gradientUnits="userSpaceOnUse">
<stop stop-color="#92C4FE"/>
<stop offset="1" stop-color="#5BABF2"/>
</linearGradient>
<linearGradient id="paint14_linear" x1="369.635" y1="853.058" x2="370.039" y2="886.864" gradientUnits="userSpaceOnUse">
<stop stop-color="#2ECAFF"/>
<stop offset="1" stop-color="#3B71FF"/>
</linearGradient>
<linearGradient id="paint15_linear" x1="286.774" y1="861.343" x2="287.178" y2="895.149" gradientUnits="userSpaceOnUse">
<stop stop-color="#2ECAFF"/>
<stop offset="1" stop-color="#3B71FF"/>
</linearGradient>
</defs>
</svg>
